# Blender 4.1.0
# www.blender.org
mtllib saber_DLC_LOD2.mtl
o saber_DLC_LOD2
v -0.146462 0.463889 0.485921
v -0.070678 0.423395 0.477527
v -0.138213 0.418579 0.468861
v 0.000000 0.538028 0.484289
v 0.000000 0.485674 0.464403
v 0.070678 0.423395 0.477527
v -0.076541 0.469273 0.503080
v -0.146462 0.463889 0.485921
v -0.066672 0.568912 0.450096
v 0.076541 0.469273 0.503080
v 0.066672 0.568912 0.450096
v 0.000002 0.720423 0.338545
v 0.000002 0.720423 0.338545
v 0.146462 0.463786 0.486135
v 0.138213 0.418579 0.468861
v 0.150869 0.538172 0.457328
v 0.066672 0.568912 0.450096
v 0.159740 0.687915 0.329133
v 0.232781 0.508737 0.449872
v 0.197842 0.388203 0.488339
v 0.191966 0.347136 0.461949
v 0.262315 0.439379 0.435463
v 0.234455 0.375914 0.439323
v 0.265463 0.400866 0.403335
v 0.298972 0.411037 0.365334
v 0.333858 0.496696 0.363603
v 0.403684 0.382700 0.284289
v 0.346299 0.382769 0.337087
v 0.387175 0.460453 0.241339
v 0.304931 0.656676 0.212898
v 0.134546 0.831391 0.164925
v 0.375465 0.702270 -0.036099
v 0.146590 0.903669 -0.105527
v 0.314117 0.643780 -0.270738
v 0.000000 0.868283 0.163076
v 0.146590 0.903669 -0.105527
v -0.134546 0.831481 0.168159
v 0.000000 0.924958 -0.122553
v -0.159760 0.688478 0.328790
v -0.150588 0.533562 0.457847
v -0.146462 0.463889 0.485921
v -0.232781 0.508774 0.449851
v -0.146462 0.463889 0.485921
v -0.304799 0.656610 0.209877
v -0.146590 0.905124 -0.097512
v 0.000000 0.924958 -0.122553
v -0.375440 0.702195 -0.040202
v -0.131250 0.743173 -0.316423
v -0.314313 0.643780 -0.272716
v -0.125681 0.490897 -0.447746
v -0.333722 0.455863 -0.358527
v -0.121027 0.254509 -0.480196
v -0.345735 0.260234 -0.346920
v -0.124179 0.047332 -0.369342
v -0.345994 0.084076 -0.227047
v -0.000000 0.039354 -0.387926
v -0.000000 0.249218 -0.500970
v 0.000000 0.491754 -0.459084
v 0.000000 0.758436 -0.330940
v 0.000000 0.924958 -0.122553
v -0.146590 0.905124 -0.097512
v 0.159740 0.687915 0.329133
v 0.066672 0.568912 0.450096
v 0.000002 0.720423 0.338545
v 0.138213 0.418579 0.468861
v 0.146462 0.463786 0.486135
v 0.131236 0.743220 -0.319463
v 0.146590 0.903669 -0.105527
v 0.000000 0.924958 -0.122553
v 0.146590 0.903669 -0.105527
v 0.000000 0.924958 -0.122553
v -0.000000 -0.015507 -0.000000
v 0.000000 0.024048 0.288291
v 0.309750 0.100662 0.270091
v -0.000000 -0.015507 -0.000000
v 0.391131 0.064916 0.000000
v 0.000000 0.024048 0.288291
v 0.145823 0.113170 0.407407
v 0.346025 0.084106 -0.227219
v -0.000000 -0.015507 -0.000000
v 0.124179 0.047332 -0.369342
v -0.000000 -0.015507 -0.000000
v -0.000000 0.039354 -0.387926
v -0.000000 -0.015507 -0.000000
v 0.000000 0.024048 0.288291
v -0.000000 0.086484 0.425924
v -0.145823 0.113170 0.407407
v 0.000000 0.024048 0.288291
v -0.309750 0.100662 0.270091
v 0.000000 0.024048 0.288291
v -0.000000 -0.015507 -0.000000
v -0.000000 -0.015507 -0.000000
v -0.391180 0.064832 0.000000
v -0.124179 0.047332 -0.369342
v -0.345994 0.084076 -0.227047
v -0.000000 -0.015507 -0.000000
v -0.000000 0.039354 -0.387926
v -0.000000 -0.015507 -0.000000
v -0.191966 0.347233 0.461949
v -0.138213 0.418579 0.468861
v -0.197842 0.388163 0.488381
v -0.146462 0.463889 0.485921
v -0.262315 0.439379 0.435470
v -0.234455 0.375932 0.439323
v -0.265463 0.400866 0.403342
v -0.298972 0.411037 0.365351
v -0.333858 0.496696 0.363590
v -0.403561 0.382636 0.283923
v -0.346299 0.382881 0.337101
v -0.387010 0.460453 0.238559
v -0.375440 0.702195 -0.040202
v -0.521929 0.416279 -0.048893
v -0.314313 0.643780 -0.272716
v -0.403561 0.382636 0.283923
v -0.415685 0.435515 -0.269847
v -0.333722 0.455863 -0.358527
v -0.345735 0.260234 -0.346920
v -0.445114 0.250630 -0.260818
v -0.345994 0.084076 -0.227047
v -0.472957 0.131161 0.000000
v -0.391180 0.064832 0.000000
v -0.309750 0.100662 0.270091
v -0.380268 0.288231 0.345378
v -0.145823 0.113170 0.407407
v -0.620872 0.270765 -0.093233
v -0.472957 0.131161 0.000000
v -0.537788 0.231746 0.065521
v -0.472957 0.131161 0.000000
v -0.509658 0.335950 0.099338
v -0.346299 0.382881 0.337101
v -0.263017 0.325158 0.398949
v -0.298972 0.411037 0.365351
v -0.265463 0.400866 0.403342
v -0.234455 0.375932 0.439323
v -0.191966 0.347233 0.461949
v -0.254514 0.283684 0.443449
v -0.121024 0.314555 0.485415
v 0.000000 0.318741 0.496424
v -0.138213 0.418579 0.468861
v -0.070678 0.423395 0.477527
v -0.000000 0.086484 0.425924
v 0.000000 0.485674 0.464403
v 0.070678 0.423395 0.477527
v 0.145823 0.113170 0.407407
v 0.121024 0.314262 0.485415
v 0.138213 0.418579 0.468861
v 0.191966 0.347136 0.461949
v 0.254514 0.283547 0.443449
v 0.380268 0.288231 0.345376
v 0.309750 0.100662 0.270091
v 0.263017 0.325158 0.398949
v 0.234455 0.375914 0.439323
v 0.265463 0.400866 0.403335
v 0.298972 0.411037 0.365334
v 0.346299 0.382769 0.337087
v 0.403684 0.382700 0.284289
v 0.472869 0.131741 0.000000
v 0.391131 0.064916 0.000000
v 0.445069 0.250630 -0.260847
v 0.346025 0.084106 -0.227219
v 0.345697 0.260234 -0.346932
v 0.333472 0.455863 -0.356999
v 0.509818 0.335903 0.100678
v 0.521860 0.416185 -0.044508
v 0.304931 0.656676 0.212898
v 0.375465 0.702270 -0.036099
v 0.537614 0.231749 0.066031
v 0.472869 0.131741 0.000000
v 0.620829 0.270723 -0.093233
v 0.472869 0.131741 0.000000
v 0.415895 0.435564 -0.266406
v 0.314117 0.643780 -0.270738
v -0.137912 0.474303 0.262285
v -0.215995 0.414741 0.428981
v -0.319955 0.425379 0.375569
v -0.243419 0.489743 0.220023
v -0.243419 0.489743 0.220023
v -0.379499 0.338342 0.361615
v -0.300676 0.399749 0.177846
v -0.319955 0.425379 0.375569
v -0.414732 0.371501 0.416005
v -0.339930 0.432316 0.411131
v -0.395892 0.475689 0.507022
v -0.215995 0.414741 0.428981
v -0.273148 0.407486 0.483816
v -0.395892 0.475689 0.507022
v -0.190503 0.343044 0.450817
v -0.290509 0.326445 0.513489
v -0.395892 0.475689 0.507022
v -0.127342 0.325196 0.237656
v -0.190503 0.343044 0.450817
v -0.103794 0.399749 0.262344
v -0.220368 0.272851 0.446002
v -0.194761 0.294315 0.202680
v -0.290509 0.326445 0.513489
v -0.288093 0.243638 0.419833
v -0.266558 0.325196 0.177907
v -0.391226 0.298671 0.463418
v -0.395892 0.475689 0.507022
v -0.354007 0.270611 0.386538
v -0.300676 0.399749 0.177846
v -0.379499 0.338342 0.361615
v -0.414732 0.371501 0.416005
v -0.395892 0.475689 0.507022
v -0.103794 0.399749 0.262344
v -0.190503 0.343044 0.450817
v -0.215995 0.414741 0.428981
v -0.137912 0.474303 0.262285
v 0.137912 0.474303 0.262285
v 0.243419 0.489743 0.220023
v 0.319955 0.425379 0.375569
v 0.215995 0.414741 0.428981
v 0.243419 0.489743 0.220023
v 0.300676 0.399749 0.177846
v 0.379499 0.338342 0.361615
v 0.319955 0.425379 0.375569
v 0.414732 0.371501 0.416005
v 0.339930 0.432316 0.411131
v 0.395892 0.475689 0.507022
v 0.215995 0.414741 0.428981
v 0.273148 0.407486 0.483816
v 0.395892 0.475689 0.507022
v 0.190503 0.343044 0.450817
v 0.290509 0.326445 0.513489
v 0.395892 0.475689 0.507022
v 0.127342 0.325196 0.237656
v 0.103794 0.399749 0.262344
v 0.190503 0.343044 0.450817
v 0.220368 0.272851 0.446002
v 0.194761 0.294315 0.202680
v 0.290509 0.326445 0.513489
v 0.288093 0.243638 0.419833
v 0.266558 0.325196 0.177907
v 0.391226 0.298671 0.463418
v 0.395892 0.475689 0.507022
v 0.354007 0.270611 0.386538
v 0.300676 0.399749 0.177846
v 0.379499 0.338342 0.361615
v 0.414732 0.371501 0.416005
v 0.395892 0.475689 0.507022
v 0.103794 0.399749 0.262344
v 0.137912 0.474303 0.262285
v 0.215995 0.414741 0.428981
v 0.190503 0.343044 0.450817
v 0.131236 0.743220 -0.319463
v 0.000000 0.924958 -0.122553
v 0.000000 0.758436 -0.330940
v 0.125652 0.490897 -0.447698
v 0.000000 0.491754 -0.459084
v 0.146590 0.903669 -0.105527
v 0.333472 0.455863 -0.356999
v 0.121026 0.254509 -0.480196
v -0.000000 0.249218 -0.500970
v 0.345697 0.260234 -0.346932
v 0.124179 0.047332 -0.369342
v -0.000000 0.039354 -0.387926
v 0.346025 0.084106 -0.227219
vn 0.2059 -0.4011 0.8926
vn 0.1745 -0.4124 0.8941
vn -0.1439 0.1560 0.9772
vn -0.0000 -0.3926 0.9197
vn -0.0000 0.3692 0.9293
vn 0.1746 -0.4124 0.8941
vn -0.1757 -0.4133 0.8935
vn -0.0000 0.3692 0.9294
vn 0.0453 0.0374 0.9983
vn 0.1746 -0.4123 0.8941
vn 0.0454 0.0374 0.9983
vn -0.1440 0.1560 0.9772
vn -0.1641 0.5844 0.7947
vn -0.0001 0.3692 0.9293
vn -0.1640 0.5845 0.7947
vn -0.0488 0.0390 0.9980
vn -0.1756 -0.4133 0.8935
vn -0.0488 0.0389 0.9980
vn 0.1563 0.5848 0.7959
vn 0.0039 0.7346 0.6785
vn 0.1563 0.5849 0.7959
vn -0.1755 -0.4133 0.8935
vn 0.1404 0.1546 0.9779
vn -0.2067 -0.4026 0.8917
vn -0.0488 0.0389 0.9981
vn 0.1404 0.1547 0.9779
vn 0.2099 0.5372 0.8169
vn 0.1563 0.5848 0.7960
vn 0.2098 0.5372 0.8169
vn 0.2098 0.5373 0.8169
vn 0.3958 0.6829 0.6141
vn 0.5285 0.5506 0.6462
vn 0.3958 0.6828 0.6141
vn 0.2099 0.5373 0.8169
vn 0.2140 -0.2214 0.9514
vn 0.5285 0.5505 0.6462
vn 0.2886 -0.4314 0.8548
vn 0.6973 -0.0636 0.7140
vn 0.2139 -0.2214 0.9514
vn 0.2886 -0.4313 0.8548
vn 0.6973 -0.0636 0.7139
vn 0.7161 -0.3564 0.6001
vn 0.7755 -0.3658 0.5145
vn 0.6974 -0.0636 0.7139
vn 0.7162 -0.3564 0.6000
vn 0.6530 -0.1277 0.7465
vn 0.6754 0.4961 0.5457
vn 0.6531 -0.1277 0.7465
vn 0.6753 0.4962 0.5456
vn 0.3958 0.6829 0.6140
vn 0.6753 0.4962 0.5457
vn 0.8480 0.2883 0.4447
vn 0.5778 0.0393 0.8152
vn 0.8480 0.2883 0.4448
vn 0.6754 0.4962 0.5456
vn 0.8498 0.4162 0.3234
vn 0.7271 0.5848 0.3596
vn 0.6754 0.4961 0.5456
vn 0.8499 0.4162 0.3234
vn 0.4413 0.8193 0.3660
vn 0.7921 0.6104 0.0021
vn 0.0040 0.7346 0.6785
vn 0.4412 0.8194 0.3660
vn 0.4862 0.8645 -0.1276
vn 0.4413 0.8194 0.3660
vn 0.7921 0.6104 0.0020
vn 0.6573 0.5250 -0.5407
vn 0.0069 0.9122 0.4096
vn 0.0039 0.7346 0.6784
vn 0.0069 0.9123 0.4095
vn 0.4861 0.8645 -0.1276
vn 0.0038 0.7346 0.6785
vn 0.0068 0.9123 0.4096
vn -0.4417 0.8162 0.3724
vn 0.0068 0.9123 0.4095
vn -0.0016 0.9744 -0.2250
vn -0.3980 0.6812 0.6145
vn 0.0038 0.7346 0.6784
vn -0.4418 0.8162 0.3725
vn -0.1640 0.5845 0.7946
vn -0.3980 0.6811 0.6145
vn -0.2080 0.5347 0.8191
vn -0.2080 0.5346 0.8191
vn -0.5278 0.5543 0.6436
vn -0.3981 0.6811 0.6145
vn -0.4418 0.8162 0.3724
vn -0.7305 0.5814 0.3582
vn -0.5278 0.5543 0.6435
vn -0.7305 0.5814 0.3583
vn -0.7305 0.5815 0.3582
vn -0.4859 0.8662 -0.1162
vn -0.4859 0.8663 -0.1162
vn -0.7926 0.6098 -0.0020
vn -0.3934 0.6210 -0.6779
vn -0.6502 0.5300 -0.5443
vn -0.7925 0.6098 -0.0020
vn -0.3933 0.6211 -0.6779
vn -0.6502 0.5300 -0.5444
vn -0.3933 0.6210 -0.6779
vn -0.3187 0.2747 -0.9072
vn -0.5132 0.2069 -0.8330
vn -0.5132 0.2068 -0.8330
vn -0.3706 -0.1891 -0.9093
vn -0.5437 -0.2079 -0.8132
vn -0.3707 -0.1891 -0.9093
vn -0.5437 -0.2080 -0.8131
vn -0.3707 -0.1892 -0.9093
vn -0.3172 -0.8195 -0.4773
vn -0.4024 -0.8611 -0.3106
vn -0.3171 -0.8195 -0.4773
vn -0.3171 -0.8196 -0.4773
vn -0.3706 -0.1892 -0.9093
vn -0.0000 -0.7779 -0.6284
vn -0.0000 -0.1669 -0.9860
vn -0.0000 -0.7778 -0.6285
vn -0.3186 0.2747 -0.9072
vn -0.0000 -0.1668 -0.9860
vn -0.0030 0.3159 -0.9488
vn 0.0001 -0.1668 -0.9860
vn -0.3186 0.2748 -0.9072
vn -0.0081 0.6354 -0.7721
vn -0.0016 0.9743 -0.2250
vn -0.0081 0.6355 -0.7721
vn -0.2068 -0.4026 0.8917
vn 0.3939 0.6160 -0.6822
vn 0.4394 -0.8322 0.3382
vn 0.0001 -0.9802 0.1979
vn 0.0001 -0.9991 0.0426
vn 0.4308 -0.9007 0.0556
vn 0.3254 -0.5878 0.7406
vn 0.4028 -0.8610 -0.3104
vn 0.0001 -0.9991 0.0425
vn 0.3170 -0.8196 -0.4772
vn 0.3170 -0.8197 -0.4771
vn 0.3254 -0.5879 0.7406
vn -0.0002 -0.5160 0.8566
vn 0.0001 -0.9802 0.1980
vn -0.3255 -0.5876 0.7408
vn -0.0000 -0.9802 0.1980
vn -0.3254 -0.5876 0.7408
vn -0.4389 -0.8324 0.3385
vn -0.0000 -0.9802 0.1979
vn -0.0000 -0.9991 0.0426
vn -0.4389 -0.8324 0.3384
vn -0.4303 -0.9010 0.0556
vn -0.4303 -0.9010 0.0555
vn -0.4024 -0.8612 -0.3106
vn 0.2060 -0.4011 0.8926
vn -0.1440 0.1559 0.9772
vn -0.2886 -0.4313 0.8548
vn -0.2136 -0.2207 0.9517
vn -0.2887 -0.4314 0.8548
vn -0.2136 -0.2206 0.9517
vn -0.6973 -0.0634 0.7139
vn -0.5279 0.5543 0.6436
vn -0.6973 -0.0633 0.7140
vn -0.7163 -0.3571 0.5995
vn -0.2887 -0.4313 0.8548
vn -0.6973 -0.0634 0.7140
vn -0.6974 -0.0634 0.7139
vn -0.7754 -0.3659 0.5146
vn -0.6542 -0.1273 0.7455
vn -0.6783 0.4984 0.5399
vn -0.6542 -0.1274 0.7455
vn -0.6542 -0.1273 0.7456
vn -0.8486 0.2924 0.4409
vn -0.5798 0.0398 0.8138
vn -0.6541 -0.1273 0.7456
vn -0.8486 0.2923 0.4409
vn -0.8498 0.4182 0.3210
vn -0.8945 0.4463 -0.0254
vn -0.8945 0.4463 -0.0255
vn -0.8330 0.3023 -0.4633
vn -0.5133 0.2068 -0.8329
vn -0.5437 -0.2079 -0.8131
vn -0.7708 -0.2877 -0.5684
vn -0.7708 -0.2877 -0.5683
vn -0.7708 -0.2878 -0.5684
vn -0.7424 -0.6663 0.0700
vn -0.7708 -0.2878 -0.5683
vn -0.4025 -0.8611 -0.3106
vn -0.7423 -0.6664 0.0700
vn -0.6864 -0.4218 0.5924
vn -0.6863 -0.4218 0.5925
vn -0.9237 -0.1267 -0.3616
vn -0.9237 -0.1266 -0.3616
vn -0.8171 -0.3532 0.4557
vn -0.9237 -0.1265 -0.3616
vn -0.6864 -0.4218 0.5925
vn -0.8171 -0.3531 0.4557
vn -0.8170 -0.3531 0.4558
vn -0.8791 0.3079 0.3638
vn -0.6864 -0.4217 0.5925
vn -0.8791 0.3078 0.3639
vn -0.8171 -0.3531 0.4558
vn -0.8791 0.3079 0.3639
vn -0.8486 0.2923 0.4410
vn -0.5797 0.0398 0.8138
vn -0.5795 0.3423 0.7396
vn -0.5795 0.3422 0.7396
vn -0.5796 0.3423 0.7396
vn -0.7643 -0.0619 0.6418
vn -0.7643 -0.0619 0.6419
vn -0.6737 -0.1890 0.7144
vn -0.3793 0.0774 0.9220
vn -0.6737 -0.1891 0.7144
vn -0.6863 -0.4217 0.5925
vn -0.5069 -0.3917 0.7679
vn -0.5068 -0.3917 0.7679
vn -0.5796 0.3423 0.7395
vn -0.3792 0.0774 0.9221
vn -0.1438 -0.2171 0.9655
vn -0.0002 -0.1809 0.9835
vn -0.1438 -0.2172 0.9655
vn -0.1834 0.1249 0.9751
vn -0.0510 0.1488 0.9875
vn 0.0001 0.1506 0.9886
vn -0.0002 -0.1808 0.9835
vn 0.0512 0.1487 0.9876
vn -0.0001 -0.5160 0.8566
vn 0.3254 -0.5878 0.7407
vn 0.1437 -0.2174 0.9655
vn 0.1437 -0.2174 0.9654
vn 0.1832 0.1246 0.9752
vn 0.1437 -0.2173 0.9655
vn 0.3791 0.0774 0.9221
vn 0.1832 0.1246 0.9751
vn 0.5070 -0.3918 0.7677
vn 0.5070 -0.3919 0.7677
vn 0.3255 -0.5878 0.7406
vn 0.6864 -0.4222 0.5922
vn 0.5796 0.3419 0.7397
vn 0.6864 -0.4222 0.5921
vn 0.5796 0.3420 0.7397
vn 0.6739 -0.1889 0.7143
vn 0.3792 0.0774 0.9221
vn 0.7644 -0.0619 0.6418
vn 0.6530 -0.1276 0.7465
vn 0.5795 0.3419 0.7398
vn 0.8480 0.2882 0.4448
vn 0.7426 -0.6660 0.0700
vn 0.4395 -0.8322 0.3382
vn 0.4309 -0.9007 0.0556
vn 0.7426 -0.6661 0.0700
vn 0.7733 -0.2818 -0.5680
vn 0.7733 -0.2819 -0.5680
vn 0.5457 -0.2045 -0.8127
vn 0.5457 -0.2044 -0.8127
vn 0.5192 0.2075 -0.8291
vn 0.8803 0.3007 0.3669
vn 0.8803 0.3008 0.3669
vn 0.8945 0.4464 -0.0238
vn 0.7272 0.5848 0.3596
vn 0.8945 0.4463 -0.0238
vn 0.8151 -0.3578 0.4556
vn 0.8946 0.4463 -0.0238
vn 0.9225 -0.1195 -0.3670
vn 0.8151 -0.3578 0.4555
vn 0.9225 -0.1196 -0.3670
vn 0.7732 -0.2819 -0.5680
vn 0.8342 0.3052 -0.4593
vn 0.8945 0.4464 -0.0239
vn 0.8342 0.3053 -0.4592
vn 0.8342 0.3053 -0.4593
vn 0.5192 0.2076 -0.8291
vn 0.6572 0.5250 -0.5408
vn 0.6573 0.5250 -0.5408
vn -0.4694 0.8828 0.0201
vn 0.4195 0.7532 0.5067
vn 0.3335 0.8227 0.4604
vn -0.4433 0.8864 0.1332
vn -0.9256 0.1976 -0.3229
vn -0.9162 -0.0028 -0.4007
vn -0.4432 0.8865 0.1332
vn -0.9162 -0.0027 -0.4007
vn -0.4694 0.8828 0.0200
vn -0.9588 0.0934 -0.2684
vn -0.4693 0.8828 0.0201
vn -0.1575 0.9275 -0.3391
vn -0.9588 0.0934 -0.2683
vn -0.4676 0.5852 0.6625
vn 0.4194 0.7532 0.5068
vn -0.1576 0.9275 -0.3391
vn 0.4488 0.6254 0.6384
vn -0.4675 0.5852 0.6625
vn 0.4487 0.6254 0.6384
vn 0.4195 0.7531 0.5068
vn 0.4488 0.6253 0.6384
vn 0.8538 -0.0481 0.5183
vn 0.0531 -0.3476 0.9361
vn 0.8538 -0.0482 0.5183
vn 0.4487 0.6253 0.6384
vn -0.4675 0.5853 0.6624
vn 0.9039 0.0081 0.4277
vn 0.6967 -0.7045 0.1349
vn 0.8538 -0.0482 0.5184
vn 0.5431 -0.7833 0.3023
vn 0.6967 -0.7045 0.1348
vn 0.6967 -0.7046 0.1348
vn 0.5431 -0.7834 0.3023
vn 0.0945 -0.9761 -0.1957
vn 0.5432 -0.7833 0.3023
vn 0.0400 -0.9970 0.0664
vn 0.0531 -0.3476 0.9362
vn -0.5478 -0.7228 -0.4213
vn -0.6039 -0.5701 0.5570
vn 0.0399 -0.9970 0.0664
vn 0.0531 -0.3475 0.9362
vn -0.4675 0.5853 0.6625
vn -0.6038 -0.5702 0.5570
vn -0.5514 -0.7585 -0.3475
vn -0.5514 -0.7584 -0.3475
vn -0.5479 -0.7227 -0.4213
vn -0.9256 0.1975 -0.3229
vn -0.5514 -0.7585 -0.3474
vn -0.6038 -0.5701 0.5570
vn -0.6039 -0.5701 0.5571
vn -0.9588 0.0935 -0.2684
vn -0.9162 -0.0027 -0.4008
vn 0.3335 0.8227 0.4603
vn 0.9039 0.0082 0.4277
vn 0.4694 0.8828 0.0201
vn 0.4433 0.8864 0.1333
vn -0.3335 0.8227 0.4604
vn -0.4195 0.7532 0.5067
vn 0.9162 -0.0027 -0.4008
vn 0.9256 0.1976 -0.3229
vn 0.4432 0.8865 0.1332
vn 0.4694 0.8828 0.0200
vn 0.9162 -0.0027 -0.4007
vn 0.9588 0.0934 -0.2683
vn 0.9162 -0.0028 -0.4007
vn 0.4693 0.8828 0.0201
vn 0.1575 0.9275 -0.3391
vn 0.9588 0.0934 -0.2684
vn 0.4693 0.8828 0.0200
vn 0.4675 0.5853 0.6625
vn -0.4195 0.7532 0.5068
vn -0.4487 0.6254 0.6384
vn 0.1576 0.9275 -0.3391
vn -0.4488 0.6253 0.6384
vn 0.4675 0.5852 0.6625
vn -0.4195 0.7531 0.5067
vn -0.8538 -0.0481 0.5183
vn -0.0531 -0.3476 0.9361
vn -0.8538 -0.0482 0.5184
vn 0.4676 0.5852 0.6625
vn -0.0531 -0.3476 0.9362
vn -0.9039 0.0081 0.4277
vn -0.6967 -0.7045 0.1349
vn -0.5431 -0.7833 0.3023
vn -0.5431 -0.7834 0.3023
vn -0.6967 -0.7046 0.1348
vn -0.0945 -0.9761 -0.1957
vn -0.0400 -0.9970 0.0664
vn 0.5478 -0.7228 -0.4213
vn 0.6039 -0.5701 0.5570
vn -0.0531 -0.3475 0.9362
vn -0.0399 -0.9970 0.0664
vn 0.4676 0.5853 0.6624
vn 0.5514 -0.7585 -0.3475
vn 0.5514 -0.7585 -0.3474
vn 0.5479 -0.7227 -0.4213
vn 0.9256 0.1975 -0.3230
vn 0.5514 -0.7584 -0.3475
vn 0.9256 0.1976 -0.3228
vn 0.6038 -0.5702 0.5570
vn 0.6039 -0.5701 0.5571
vn 0.6039 -0.5702 0.5570
vn -0.3335 0.8227 0.4603
vn -0.9039 0.0082 0.4277
vn 0.3209 0.2731 -0.9069
vn -0.0029 0.3159 -0.9488
vn 0.3210 0.2731 -0.9069
vn 0.3940 0.6160 -0.6822
vn 0.5191 0.2076 -0.8291
vn -0.0029 0.3158 -0.9488
vn 0.3209 0.2730 -0.9069
vn 0.3716 -0.1879 -0.9092
vn 0.3717 -0.1878 -0.9092
vn 0.3210 0.2730 -0.9069
vn 0.5191 0.2075 -0.8291
vn 0.0001 -0.1669 -0.9860
vn 0.3171 -0.8196 -0.4772
vn 0.3717 -0.1879 -0.9091
vn 0.5456 -0.2045 -0.8127
vn 0.3171 -0.8196 -0.4771
vt 0.421479 0.438192
vt 0.453581 0.416974
vt 0.413973 0.455599
vt 0.500168 0.445293
vt 0.500168 0.463690
vt 0.546754 0.416974
vt 0.453587 0.435903
vt 0.459798 0.507068
vt 0.546749 0.435903
vt 0.540746 0.507457
vt 0.499957 0.664066
vt 0.586362 0.455599
vt 0.578856 0.438192
vt 0.604443 0.471198
vt 0.630009 0.653397
vt 0.667279 0.460947
vt 0.609832 0.407127
vt 0.606711 0.384132
vt 0.671244 0.411474
vt 0.643511 0.378648
vt 0.682442 0.383003
vt 0.721152 0.400518
vt 0.758596 0.467446
vt 0.816691 0.387210
vt 0.753434 0.381970
vt 0.833872 0.481276
vt 0.797148 0.644087
vt 0.667716 0.781901
vt 0.991067 0.717895
vt 0.981210 0.881501
vt 1.210734 0.661307
vt 0.499746 0.797417
vt 0.331939 0.781900
vt 0.499211 0.994397
vt 0.372725 0.649628
vt 0.401115 0.462327
vt 0.341274 0.444614
vt 0.207374 0.639179
vt 0.022055 0.881491
vt 0.012185 0.717848
vt -0.385836 0.748557
vt -0.205732 0.661145
vt -0.438878 0.489186
vt -0.238073 0.482879
vt -0.438866 0.255248
vt -0.244708 0.247270
vt -0.385819 0.135052
vt -0.205719 0.174944
vt -0.499998 0.127729
vt -0.499999 0.253822
vt -0.500003 0.492267
vt -0.500004 0.766494
vt 1.388848 0.748745
vt 0.831793 0.204248
vt 0.500000 0.118702
vt 0.500000 0.064023
vt 1.031183 0.153609
vt 0.621376 0.216857
vt 1.210734 0.175027
vt 1.388848 0.135051
vt 1.500002 0.127483
vt 0.500000 0.196163
vt 0.379013 0.216763
vt 0.194246 0.204831
vt -0.026282 0.153525
vt 0.393624 0.384132
vt 0.390538 0.407029
vt 0.332351 0.405315
vt 0.356825 0.378648
vt 0.317916 0.382959
vt 0.281198 0.399607
vt 0.246688 0.461803
vt 0.184973 0.390840
vt 0.249709 0.377973
vt 0.151694 0.491898
vt 0.010443 0.427824
vt -0.165827 0.473698
vt -0.146699 0.262609
vt -0.003328 0.200413
vt 0.228269 0.320729
vt 0.010509 0.255377
vt 0.060802 0.257861
vt 0.058770 0.364795
vt 0.320412 0.359547
vt 0.309997 0.398687
vt 0.339146 0.393543
vt 0.369674 0.383985
vt 0.333788 0.337074
vt 0.424079 0.355729
vt 0.500168 0.353938
vt 0.403338 0.449067
vt 0.457303 0.442531
vt 0.500168 0.479554
vt 0.543032 0.442531
vt 0.576257 0.355729
vt 0.596998 0.453679
vt 0.630661 0.383985
vt 0.666547 0.337114
vt 0.777549 0.315565
vt 0.679924 0.359548
vt 0.661189 0.393543
vt 0.690496 0.398922
vt 1.007728 0.200446
vt 1.152484 0.262752
vt 1.249480 0.247035
vt 1.243471 0.482545
vt 0.942063 0.364847
vt 0.992804 0.427890
vt 0.940031 0.257910
vt 0.992735 0.255572
vt 1.170442 0.473285
vt 0.920071 0.477499
vt 0.943875 0.479189
vt 0.944195 0.387708
vt 0.919404 0.387851
vt 0.904263 0.379373
vt 0.905576 0.480013
vt 0.910278 0.573210
vt 0.921927 0.562103
vt 0.928821 0.695681
vt 0.941119 0.565023
vt 0.950458 0.482162
vt 0.943823 0.579647
vt 0.951017 0.381612
vt 0.944147 0.374860
vt 0.943895 0.484505
vt 0.927606 0.371408
vt 0.928031 0.484846
vt 0.911086 0.373278
vt 0.922014 0.585436
vt 0.912159 0.482985
vt 1.500002 0.766555
vt 1.441309 0.489253
vt 1.500002 0.492336
vt 1.441309 0.255146
vt 1.500002 0.253681
s 0
usemtl body
f 3/1/1 2/2/2 1/3/3
f 5/4/4 4/5/5 2/2/6
f 4/5/5 5/4/4 6/6/7
f 4/5/8 7/7/9 2/2/10
f 2/2/2 7/7/11 8/3/12
f 7/7/11 9/8/13 8/3/12
f 7/7/11 4/5/14 9/8/15
f 10/9/16 4/5/14 6/6/17
f 4/5/5 10/9/18 11/10/19
f 12/11/20 4/5/5 11/10/21
f 4/5/5 13/11/20 9/8/15
f 10/9/18 6/6/22 14/12/23
f 6/6/17 15/13/24 14/12/23
f 10/9/25 14/12/26 16/14/27
f 17/10/28 10/9/16 16/14/29
f 17/10/21 16/14/30 18/15/31
f 16/14/27 14/12/26 19/16/32
f 18/15/33 16/14/34 19/16/32
f 14/12/23 20/17/35 19/16/36
f 20/17/35 14/12/26 21/18/37
f 19/16/36 20/17/35 22/19/38
f 20/17/39 21/18/40 22/19/41
f 21/18/40 23/20/42 22/19/38
f 24/21/43 22/19/44 23/20/45
f 24/21/43 25/22/46 22/19/41
f 19/16/36 22/19/41 26/23/47
f 22/19/44 25/22/48 26/23/49
f 18/15/50 19/16/32 26/23/51
f 26/23/49 25/22/46 27/24/52
f 25/22/46 28/25/53 27/24/54
f 26/23/55 27/24/52 29/26/56
f 30/27/57 18/15/50 26/23/49
f 30/27/57 26/23/58 29/26/59
f 30/27/57 31/28/60 18/15/50
f 31/28/60 30/27/57 32/29/61
f 13/11/62 18/15/31 31/28/63
f 33/30/64 31/28/65 32/29/66
f 33/30/64 32/29/66 34/31/67
f 35/32/68 13/11/69 31/28/63
f 35/32/70 31/28/63 36/30/71
f 13/11/72 35/32/73 37/33/74
f 37/33/74 35/32/75 38/34/76
f 39/35/77 13/11/78 37/33/79
f 9/8/80 13/11/20 39/35/77
f 9/8/15 39/35/81 40/36/82
f 9/8/15 40/36/83 41/3/12
f 40/36/82 39/35/77 42/37/84
f 43/3/12 40/36/83 42/37/84
f 39/35/85 37/33/86 44/38/87
f 42/37/88 39/35/85 44/38/89
f 44/38/90 37/33/86 45/39/91
f 45/39/92 37/33/74 46/34/76
f 47/40/93 44/38/90 45/39/91
f 47/40/93 45/39/91 48/41/94
f 49/42/95 47/40/96 48/41/97
f 49/42/98 48/41/99 50/43/100
f 51/44/101 49/42/98 50/43/100
f 51/44/102 50/43/100 52/45/103
f 53/46/104 51/44/102 52/45/105
f 53/46/106 52/45/107 54/47/108
f 55/48/109 53/46/106 54/47/110
f 54/47/111 52/45/112 56/49/113
f 52/45/112 57/50/114 56/49/115
f 52/45/103 50/43/116 57/50/117
f 50/43/116 58/51/118 57/50/119
f 50/43/120 48/41/97 58/51/118
f 48/41/99 59/52/121 58/51/118
f 45/39/92 60/34/122 59/52/123
f 48/41/97 61/39/91 59/52/123
f 64/11/20 63/10/21 62/15/50
f 66/12/26 65/13/124 21/18/40
f 69/34/122 68/30/64 67/53/125
f 71/34/76 35/32/70 70/30/64
f 74/54/126 73/55/127 72/56/128
f 76/57/129 74/54/126 75/56/128
f 78/58/130 77/55/127 74/54/126
f 76/57/129 80/56/128 79/59/131
f 82/56/132 81/60/133 79/59/131
f 84/56/128 83/61/113 81/60/134
f 78/58/135 86/62/136 85/55/137
f 86/62/136 87/63/138 85/55/139
f 87/63/140 89/64/141 88/55/142
f 91/56/143 90/55/142 89/64/144
f 93/65/145 92/56/143 89/64/141
f 93/65/146 95/48/147 94/47/110
f 96/56/143 93/65/146 94/47/111
f 98/56/143 94/47/110 97/49/113
f 100/1/148 43/3/149 99/66/150
f 102/3/149 101/67/151 99/66/152
f 101/67/151 102/3/149 42/37/84
f 99/66/150 101/67/153 103/68/154
f 101/67/151 42/37/155 103/68/156
f 104/69/157 99/66/158 103/68/159
f 103/68/160 105/70/161 104/69/157
f 106/71/162 105/70/161 103/68/154
f 107/72/163 103/68/154 42/37/84
f 106/71/164 103/68/160 107/72/163
f 107/72/163 42/37/84 44/38/89
f 106/71/165 107/72/163 108/73/166
f 109/74/167 106/71/168 108/73/166
f 108/73/169 107/72/163 110/75/170
f 107/72/163 44/38/87 110/75/170
f 110/75/170 44/38/87 111/40/93
f 112/76/171 110/75/170 111/40/93
f 112/76/172 111/40/93 113/42/95
f 114/73/169 110/75/170 112/76/171
f 115/77/173 112/76/172 113/42/95
f 115/77/173 113/42/95 116/44/174
f 115/77/173 116/44/174 117/46/175
f 118/78/176 115/77/173 117/46/104
f 115/77/173 118/78/177 112/76/172
f 118/78/178 117/46/106 119/48/147
f 120/79/179 118/78/180 119/48/109
f 121/65/145 120/79/179 119/48/181
f 121/65/145 122/64/144 120/79/182
f 122/64/141 123/80/183 120/79/179
f 122/64/141 124/63/138 123/80/184
f 118/78/180 125/81/185 112/76/171
f 126/79/182 125/81/186 118/78/178
f 127/82/187 125/81/188 120/79/179
f 127/82/187 112/76/171 125/81/186
f 123/80/189 127/82/190 128/79/179
f 127/82/191 129/83/192 112/76/171
f 123/80/193 129/83/194 127/82/195
f 129/83/196 114/73/166 112/76/171
f 123/80/184 114/73/169 129/83/196
f 123/80/183 130/74/167 114/73/197
f 130/74/198 123/80/183 131/84/199
f 130/74/167 131/84/200 132/71/168
f 132/71/162 131/84/201 133/85/202
f 133/85/203 131/84/199 134/86/204
f 135/87/205 134/86/206 131/84/199
f 123/80/207 136/88/208 131/84/199
f 136/88/209 135/87/205 131/84/210
f 124/63/138 136/88/209 123/80/189
f 135/87/211 136/88/209 137/89/212
f 124/63/138 137/89/212 136/88/209
f 138/90/213 137/89/214 124/63/138
f 135/87/211 137/89/212 139/91/215
f 140/92/216 139/91/215 137/89/212
f 140/92/216 137/89/212 138/90/213
f 141/62/136 138/90/213 124/63/138
f 142/93/217 140/92/216 138/90/218
f 143/94/219 142/93/217 138/90/213
f 138/90/213 141/62/220 144/58/221
f 145/95/222 143/94/219 138/90/218
f 145/95/223 138/90/213 144/58/221
f 146/96/224 143/94/219 145/95/225
f 145/95/222 147/97/226 146/96/227
f 145/95/223 144/58/221 148/98/228
f 148/98/229 147/97/226 145/95/222
f 148/98/229 144/58/230 149/99/231
f 144/58/230 150/54/126 149/99/231
f 147/97/226 148/98/229 151/100/232
f 148/98/229 149/99/233 151/100/234
f 152/101/235 147/97/236 151/100/232
f 151/100/232 153/102/237 152/101/235
f 151/100/232 154/22/48 153/102/237
f 151/100/232 155/25/53 154/22/238
f 149/99/233 155/25/53 151/100/239
f 155/25/53 149/99/233 156/24/240
f 149/99/233 150/54/126 157/103/241
f 150/54/242 158/57/243 157/103/244
f 157/103/241 158/57/243 159/104/245
f 158/57/243 160/59/131 159/104/246
f 159/104/246 160/59/131 161/105/247
f 159/104/245 161/105/248 162/106/249
f 156/24/240 149/99/233 163/107/250
f 29/26/56 156/24/52 163/107/251
f 164/108/252 29/26/56 163/107/251
f 165/27/253 29/26/56 164/108/252
f 166/29/66 165/27/57 164/108/254
f 149/99/233 167/109/255 163/107/251
f 163/107/250 167/109/255 164/108/256
f 149/99/233 168/103/244 167/109/255
f 167/109/255 157/103/241 169/110/257
f 167/109/258 169/110/259 164/108/256
f 159/104/260 164/108/252 169/110/259
f 159/104/245 169/110/259 170/103/241
f 171/111/261 159/104/245 162/106/249
f 159/104/245 171/111/261 164/108/256
f 166/29/66 164/108/262 171/111/263
f 171/111/264 162/106/265 172/31/266
f 172/31/267 166/29/66 171/111/263
f 175/112/268 174/113/269 173/114/270
f 176/115/271 175/112/268 173/114/270
f 179/116/272 178/117/273 177/115/274
f 178/117/275 180/112/276 177/115/274
f 178/117/273 181/118/277 180/112/278
f 181/118/277 182/119/279 180/112/268
f 181/118/280 183/120/281 182/119/279
f 180/112/276 182/119/279 184/113/282
f 182/119/283 185/121/284 184/113/269
f 182/119/279 186/120/285 185/121/286
f 184/113/287 185/121/288 187/122/289
f 185/121/286 188/123/290 187/122/291
f 188/123/290 185/121/292 189/120/293
f 192/124/294 191/122/291 190/125/295
f 191/122/296 193/126/297 190/125/298
f 190/125/299 193/126/300 194/127/301
f 191/122/291 195/123/290 193/126/302
f 193/126/300 196/128/303 194/127/301
f 193/126/302 195/123/304 196/128/303
f 194/127/301 196/128/303 197/129/305
f 195/123/304 198/130/306 196/128/307
f 195/123/308 199/120/309 198/130/310
f 196/128/303 200/131/311 197/129/305
f 196/128/303 198/130/306 200/131/312
f 197/129/313 200/131/311 201/116/314
f 200/131/312 202/117/275 201/116/272
f 200/131/315 198/130/316 202/117/273
f 198/130/317 203/118/318 202/117/319
f 198/130/306 204/120/285 203/118/277
f 207/113/269 206/122/296 205/124/294
f 208/114/320 207/113/269 205/124/321
f 211/112/322 210/115/323 209/114/324
f 212/113/325 211/112/322 209/114/324
f 215/117/326 214/116/327 213/115/328
f 216/112/329 215/117/330 213/115/323
f 217/118/331 215/117/332 216/112/333
f 218/119/334 217/118/335 216/112/336
f 217/118/331 218/119/334 219/120/337
f 218/119/334 216/112/329 220/113/338
f 221/121/339 218/119/340 220/113/325
f 218/119/334 221/121/341 222/120/342
f 221/121/341 220/113/343 223/122/344
f 224/123/345 221/121/339 223/122/346
f 225/120/347 221/121/339 224/123/348
f 228/122/346 227/124/349 226/125/350
f 229/126/351 228/122/344 226/125/350
f 229/126/352 226/125/353 230/127/354
f 231/123/345 228/122/346 229/126/352
f 232/128/355 229/126/352 230/127/354
f 231/123/348 229/126/351 232/128/355
f 232/128/355 230/127/354 233/129/356
f 234/130/357 231/123/358 232/128/359
f 231/123/345 234/130/357 235/120/360
f 236/131/361 232/128/355 233/129/356
f 234/130/357 232/128/355 236/131/361
f 236/131/362 233/129/363 237/116/364
f 238/117/326 236/131/365 237/116/366
f 234/130/367 236/131/365 238/117/332
f 239/118/335 234/130/368 238/117/330
f 234/130/369 239/118/335 240/120/342
f 243/113/325 242/114/370 241/124/371
f 244/122/346 243/113/325 241/124/349
f 247/132/123 246/34/76 245/53/125
f 247/132/121 245/53/125 248/133/372
f 249/134/373 247/132/121 248/133/372
f 248/133/374 245/53/125 34/31/266
f 245/53/375 250/30/64 34/31/266
f 251/106/376 248/133/374 34/31/266
f 249/134/377 248/133/378 252/135/379
f 252/135/380 248/133/381 251/106/382
f 253/136/119 249/134/373 252/135/380
f 254/105/248 252/135/380 251/106/382
f 253/136/383 252/135/379 255/60/384
f 255/60/384 252/135/385 254/105/386
f 256/61/113 253/136/383 255/60/134
f 257/59/131 255/60/387 254/105/247
