# Blender 4.1.0
# www.blender.org
mtllib saber_DLC_LOD1.mtl
o saber_DLC_LOD1
v -0.420925 0.422806 0.473359
v -0.414615 0.452640 0.488734
v -0.425504 0.453625 0.511094
v 0.420925 0.422806 0.473359
v 0.425504 0.453625 0.511094
v 0.414615 0.452640 0.488734
v -0.070678 0.423395 0.477527
v -0.073739 0.455941 0.501363
v 0.000000 0.521342 0.478899
v 0.070678 0.423395 0.477527
v 0.073739 0.455941 0.501363
v -0.070678 0.423395 0.477527
v 0.000000 0.485674 0.464403
v 0.070678 0.423395 0.477527
v -0.073739 0.455941 0.501363
v 0.000000 0.554715 0.489679
v 0.073739 0.455941 0.501363
v -0.079342 0.482606 0.504797
v -0.148064 0.473235 0.483147
v -0.144860 0.454542 0.488696
v 0.079342 0.482606 0.504797
v 0.000000 0.604588 0.453509
v 0.148064 0.473235 0.483147
v 0.144860 0.454338 0.489124
v 0.066672 0.568912 0.461620
v 0.125417 0.517631 0.468068
v 0.126584 0.640052 0.373830
v -0.066672 0.568912 0.461620
v 0.000000 0.683672 0.381971
v -0.125417 0.517631 0.468070
v -0.126626 0.640946 0.372870
v 0.204853 0.508739 0.449871
v -0.204853 0.508772 0.449852
v 0.127196 0.735900 0.284304
v 0.000000 0.757174 0.295119
v 0.196789 0.401433 0.492313
v 0.198894 0.374972 0.484364
v 0.258851 0.427594 0.438104
v 0.144860 0.454338 0.489124
v 0.265778 0.451164 0.432822
v 0.256396 0.487969 0.397091
v 0.191966 0.347136 0.461949
v 0.144860 0.454338 0.489124
v 0.234455 0.375914 0.439323
v 0.265463 0.400866 0.403335
v 0.298972 0.411037 0.365334
v 0.319200 0.456912 0.372590
v 0.319722 0.474186 0.333465
v 0.401806 0.401545 0.325392
v 0.346299 0.382769 0.337087
v 0.361706 0.467017 0.274467
v 0.432487 0.363857 0.243190
v 0.323431 0.581123 0.251932
v 0.237377 0.614141 0.329412
v 0.228584 0.690888 0.266718
v 0.370471 0.563422 0.192500
v 0.412644 0.453889 0.208211
v 0.288055 0.646685 0.241368
v 0.321807 0.666668 0.184428
v 0.356183 0.690180 0.082088
v 0.321807 0.666668 0.184428
v 0.422245 0.560426 0.091542
v 0.375465 0.702270 -0.036099
v 0.243189 0.753266 0.177426
v 0.462120 0.449111 0.101818
v 0.449115 0.572053 -0.028452
v 0.364421 0.684356 -0.152308
v 0.434873 0.556437 -0.147215
v 0.332068 0.658092 -0.244281
v 0.491994 0.472481 -0.024083
v 0.509818 0.335903 0.100678
v 0.411557 0.247743 0.272447
v 0.401806 0.401545 0.325392
v 0.384067 0.551261 -0.247687
v 0.296166 0.629467 -0.297194
v 0.316853 0.558654 -0.319446
v 0.468606 0.448443 -0.143495
v 0.409977 0.435564 -0.253793
v 0.330788 0.455863 -0.341302
v 0.497256 0.330278 -0.160439
v 0.410673 0.341379 -0.285587
v 0.328838 0.350222 -0.364184
v 0.379326 0.250630 -0.322850
v 0.309293 0.260234 -0.383424
v 0.551725 0.359890 -0.064934
v 0.361843 0.162913 -0.288799
v 0.295321 0.178498 -0.357965
v 0.522705 0.243806 -0.184977
v 0.537614 0.231749 0.066031
v 0.319328 0.103709 -0.268471
v 0.280148 0.128883 -0.330832
v 0.363345 0.074062 -0.152342
v 0.438939 0.136599 -0.170736
v 0.389807 0.055771 -0.011712
v 0.620829 0.270723 -0.093233
v 0.509840 0.124806 -0.030835
v 0.461392 0.128961 0.114569
v 0.364675 0.062929 0.124103
v 0.324865 0.087647 0.249078
v 0.376414 0.146842 0.256603
v 0.288356 0.113676 0.317838
v 0.315673 0.164576 0.327307
v 0.224015 0.091179 0.349271
v 0.341900 0.278852 0.390080
v 0.225440 0.165177 0.401700
v 0.121056 0.072524 0.385387
v 0.383806 0.313165 0.359488
v 0.346299 0.382769 0.337087
v 0.263017 0.325158 0.398949
v 0.298972 0.411037 0.365334
v 0.265463 0.400866 0.403335
v 0.234455 0.375914 0.439323
v 0.191966 0.347136 0.461949
v 0.287030 0.272968 0.428825
v 0.221997 0.294127 0.458073
v 0.115740 0.171041 0.457154
v -0.000000 0.070742 0.408231
v 0.120517 0.285618 0.489675
v 0.000000 0.173115 0.478703
v -0.121056 0.072525 0.385387
v 0.000000 0.289975 0.502725
v 0.000000 0.347507 0.490124
v 0.121531 0.342905 0.481155
v 0.138213 0.418579 0.468861
v 0.070678 0.423395 0.477527
v 0.000000 0.485674 0.464403
v -0.070678 0.423395 0.477527
v -0.115740 0.171041 0.457154
v -0.224015 0.091179 0.349271
v -0.120517 0.286156 0.489675
v -0.121531 0.342954 0.481155
v -0.138213 0.418579 0.468861
v -0.191966 0.347233 0.461949
v -0.225440 0.165177 0.401700
v -0.288356 0.113676 0.317838
v -0.221997 0.294400 0.458073
v -0.263017 0.325158 0.398949
v -0.234455 0.375932 0.439323
v -0.265463 0.400866 0.403342
v -0.298972 0.411037 0.365351
v -0.346299 0.382881 0.337101
v -0.315673 0.164576 0.327307
v -0.324865 0.087648 0.249078
v -0.287030 0.272968 0.428825
v -0.341900 0.278852 0.390080
v -0.376413 0.146842 0.256603
v -0.411557 0.247743 0.272447
v -0.364675 0.062929 0.124103
v -0.383806 0.313165 0.359493
v -0.401743 0.401461 0.325283
v -0.432305 0.363808 0.242560
v -0.461392 0.128934 0.114568
v -0.389807 0.055771 -0.011712
v -0.537788 0.231746 0.065521
v -0.509840 0.124786 -0.030835
v -0.509658 0.335950 0.099338
v -0.439343 0.135461 -0.169294
v -0.363330 0.073892 -0.152077
v -0.319407 0.103609 -0.267896
v -0.361729 0.162829 -0.288168
v -0.280148 0.128883 -0.330832
v -0.295321 0.178499 -0.357965
v -0.379372 0.250630 -0.322820
v -0.309332 0.260234 -0.383412
v -0.520943 0.243438 -0.184973
v -0.620872 0.270765 -0.093233
v -0.551723 0.359890 -0.066384
v -0.408082 0.338172 -0.285515
v -0.329019 0.350222 -0.364118
v -0.503186 0.327243 -0.166911
v -0.409414 0.435515 -0.257666
v -0.331050 0.455863 -0.342810
v -0.492134 0.472668 -0.031401
v -0.468755 0.448151 -0.149355
v -0.384219 0.551261 -0.252537
v -0.317085 0.558654 -0.321888
v -0.435096 0.556382 -0.154730
v -0.332241 0.658092 -0.246632
v -0.296384 0.629467 -0.298800
v -0.364491 0.684356 -0.155797
v -0.375440 0.702195 -0.040202
v -0.449405 0.572088 -0.037201
v -0.356080 0.690021 0.077907
v -0.422239 0.560425 0.083754
v -0.321665 0.666573 0.180962
v -0.462028 0.449429 0.095867
v -0.370346 0.563357 0.187425
v -0.287933 0.646647 0.238792
v -0.412463 0.453889 0.204619
v -0.361557 0.467017 0.272499
v -0.401743 0.401461 0.325283
v -0.323296 0.581089 0.248651
v -0.319200 0.456912 0.372577
v -0.319676 0.474186 0.332899
v -0.256396 0.487969 0.397112
v -0.237355 0.614173 0.328356
v -0.298972 0.411037 0.365351
v -0.258851 0.427594 0.438108
v -0.346299 0.382881 0.337101
v -0.265463 0.400866 0.403342
v -0.234455 0.375932 0.439323
v -0.191966 0.347233 0.461949
v -0.265778 0.451164 0.432832
v -0.228523 0.690890 0.265751
v -0.127196 0.735888 0.284840
v -0.196789 0.401399 0.492352
v -0.198894 0.374927 0.484410
v -0.144860 0.454542 0.488696
v -0.144860 0.454542 0.488696
v -0.243088 0.753266 0.177492
v -0.321665 0.666573 0.180962
v -0.356080 0.690021 0.077907
v -0.134546 0.831481 0.168159
v -0.262971 0.805643 0.061638
v -0.375440 0.702195 -0.040202
v -0.271623 0.823091 -0.059794
v -0.364491 0.684356 -0.155797
v -0.142605 0.894589 0.033755
v 0.000000 0.868283 0.163076
v -0.264422 0.792249 -0.172294
v -0.332241 0.658092 -0.246632
v 0.134546 0.831391 0.164925
v -0.146590 0.905124 -0.097512
v 0.000000 0.932457 0.016375
v 0.000000 0.924958 -0.122553
v 0.142605 0.893697 0.027063
v 0.000000 0.924958 -0.122553
v -0.246837 0.735114 -0.259472
v -0.296384 0.629467 -0.298800
v -0.142605 0.857557 -0.209108
v 0.000000 0.924958 -0.122553
v 0.263057 0.805497 0.059435
v 0.356183 0.690180 0.082088
v 0.146590 0.903669 -0.105527
v 0.000000 0.924958 -0.122553
v 0.271630 0.822777 -0.063558
v 0.375465 0.702270 -0.036099
v 0.264399 0.792075 -0.175819
v 0.364421 0.684356 -0.152308
v 0.142605 0.856865 -0.215750
v 0.246705 0.735126 -0.261464
v 0.332068 0.658092 -0.244281
v 0.000000 0.882278 -0.233869
v 0.000000 0.924958 -0.122553
v 0.000000 0.801764 -0.306922
v 0.134732 0.784507 -0.292837
v 0.000000 0.715108 -0.354958
v 0.232683 0.672664 -0.322154
v 0.296166 0.629467 -0.297194
v 0.316853 0.558654 -0.319446
v 0.127740 0.701932 -0.346089
v 0.234000 0.586316 -0.368846
v 0.330788 0.455863 -0.341302
v 0.126109 0.607776 -0.398129
v 0.000000 0.613810 -0.403038
v 0.237375 0.479994 -0.407511
v 0.328838 0.350222 -0.364184
v 0.125652 0.490897 -0.447698
v 0.000000 0.491754 -0.459084
v 0.236255 0.365705 -0.429535
v 0.309293 0.260234 -0.383424
v 0.124456 0.368624 -0.476876
v -0.000000 0.362920 -0.490910
v 0.228593 0.259784 -0.427703
v 0.295321 0.178498 -0.357965
v 0.121026 0.254509 -0.480196
v -0.000000 0.249218 -0.500970
v 0.220507 0.174283 -0.409453
v 0.280148 0.128883 -0.330832
v 0.219046 0.109998 -0.371028
v 0.118017 0.159817 -0.459640
v -0.000000 0.151521 -0.479369
v 0.118833 0.084087 -0.412142
v -0.000000 0.070354 -0.431573
v -0.144860 0.454542 0.488696
v -0.138213 0.418579 0.468861
v -0.073739 0.455941 0.501363
v -0.070678 0.423395 0.477527
v -0.070678 0.423395 0.477527
v -0.138213 0.418579 0.468861
v 0.126584 0.640052 0.373830
v 0.066672 0.568912 0.461620
v 0.000000 0.683672 0.381971
v 0.138213 0.418579 0.468861
v 0.144860 0.454338 0.489124
v 0.138213 0.418579 0.468861
v 0.070678 0.423395 0.477527
v 0.070678 0.423395 0.477527
v 0.073739 0.455941 0.501363
v 0.000000 0.604588 0.453509
v 0.000000 0.683672 0.381971
v 0.066672 0.568912 0.461620
v -0.137912 0.474303 0.262285
v -0.215995 0.414741 0.428981
v -0.290388 0.438578 0.390013
v -0.209709 0.505184 0.237510
v -0.209709 0.505184 0.237510
v -0.290388 0.438578 0.390013
v -0.349523 0.412180 0.361125
v -0.277128 0.474303 0.202536
v -0.277128 0.474303 0.202536
v -0.379499 0.338342 0.361615
v -0.300676 0.399749 0.177846
v -0.349523 0.412180 0.361125
v -0.414732 0.371501 0.416005
v -0.366083 0.428504 0.399236
v -0.290388 0.438578 0.390013
v -0.421650 0.387167 0.444179
v -0.313777 0.436129 0.423026
v -0.215995 0.414741 0.428981
v -0.375880 0.422026 0.421976
v -0.420925 0.422806 0.473359
v -0.273148 0.407486 0.483816
v -0.190503 0.343044 0.450817
v -0.274729 0.354629 0.517395
v -0.331090 0.435391 0.442915
v -0.389645 0.438181 0.455278
v -0.414615 0.452640 0.488734
v -0.302911 0.418746 0.493590
v -0.315186 0.383546 0.530073
v -0.359570 0.448196 0.467787
v -0.349216 0.448280 0.504029
v -0.360809 0.437963 0.538177
v -0.393612 0.456446 0.476152
v -0.395892 0.475689 0.507022
v -0.425504 0.453625 0.511094
v -0.375083 0.461970 0.482655
v -0.395892 0.475689 0.507022
v -0.370095 0.465756 0.505340
v -0.381482 0.467949 0.528470
v -0.395892 0.475689 0.507022
v -0.401461 0.464721 0.537896
v -0.127342 0.325196 0.237656
v -0.190503 0.343044 0.450817
v -0.103794 0.399749 0.262344
v -0.220368 0.272851 0.446002
v -0.194761 0.294315 0.202680
v -0.274729 0.354629 0.517395
v -0.288093 0.243638 0.419833
v -0.266558 0.325196 0.177907
v -0.306288 0.298262 0.509582
v -0.315186 0.383546 0.530073
v -0.354007 0.270611 0.386538
v -0.300676 0.399749 0.177846
v -0.379499 0.338342 0.361615
v -0.366950 0.283517 0.483152
v -0.355416 0.345756 0.537882
v -0.360809 0.437963 0.538177
v -0.415502 0.313824 0.443684
v -0.414732 0.371501 0.416005
v -0.400270 0.328625 0.523998
v -0.389174 0.423695 0.553608
v -0.381482 0.467949 0.528470
v -0.401461 0.464721 0.537896
v -0.432799 0.347254 0.480486
v -0.421650 0.387167 0.444179
v -0.417975 0.407897 0.542355
v -0.419435 0.457900 0.530714
v -0.395892 0.475689 0.507022
v -0.434310 0.411212 0.507863
v -0.420925 0.422806 0.473359
v -0.419435 0.457900 0.530714
v -0.425504 0.453625 0.511094
v -0.395892 0.475689 0.507022
v -0.103794 0.399749 0.262344
v -0.190503 0.343044 0.450817
v -0.215995 0.414741 0.428981
v -0.137912 0.474303 0.262285
v 0.137912 0.474303 0.262285
v 0.209709 0.505184 0.237510
v 0.290388 0.438578 0.390013
v 0.215995 0.414741 0.428981
v 0.209709 0.505184 0.237510
v 0.277128 0.474303 0.202536
v 0.349523 0.412180 0.361125
v 0.290388 0.438578 0.390013
v 0.277128 0.474303 0.202536
v 0.300676 0.399749 0.177846
v 0.379499 0.338342 0.361615
v 0.349523 0.412180 0.361125
v 0.414732 0.371501 0.416005
v 0.366083 0.428504 0.399236
v 0.290388 0.438578 0.390013
v 0.421650 0.387167 0.444179
v 0.313777 0.436129 0.423026
v 0.215995 0.414741 0.428981
v 0.375880 0.422026 0.421976
v 0.420925 0.422806 0.473359
v 0.273148 0.407486 0.483816
v 0.190503 0.343044 0.450817
v 0.274729 0.354629 0.517395
v 0.331090 0.435391 0.442915
v 0.389645 0.438181 0.455278
v 0.414615 0.452640 0.488734
v 0.302911 0.418746 0.493590
v 0.315186 0.383546 0.530073
v 0.359570 0.448196 0.467787
v 0.349216 0.448280 0.504029
v 0.360809 0.437963 0.538177
v 0.393612 0.456446 0.476152
v 0.395892 0.475689 0.507022
v 0.425504 0.453625 0.511094
v 0.375083 0.461970 0.482655
v 0.395892 0.475689 0.507022
v 0.370095 0.465756 0.505340
v 0.381482 0.467949 0.528470
v 0.395892 0.475689 0.507022
v 0.401461 0.464721 0.537896
v 0.127342 0.325196 0.237656
v 0.103794 0.399749 0.262344
v 0.190503 0.343044 0.450817
v 0.220368 0.272851 0.446002
v 0.194761 0.294315 0.202680
v 0.274729 0.354629 0.517395
v 0.288093 0.243638 0.419833
v 0.266558 0.325196 0.177907
v 0.306288 0.298262 0.509582
v 0.315186 0.383546 0.530073
v 0.354007 0.270611 0.386538
v 0.300676 0.399749 0.177846
v 0.379499 0.338342 0.361615
v 0.366950 0.283517 0.483152
v 0.355416 0.345756 0.537882
v 0.360809 0.437963 0.538177
v 0.415502 0.313824 0.443684
v 0.414732 0.371501 0.416005
v 0.400270 0.328625 0.523998
v 0.389174 0.423695 0.553608
v 0.381482 0.467949 0.528470
v 0.401461 0.464721 0.537896
v 0.432799 0.347254 0.480486
v 0.421650 0.387167 0.444179
v 0.417975 0.407897 0.542355
v 0.419435 0.457900 0.530714
v 0.395892 0.475689 0.507022
v 0.434310 0.411212 0.507863
v 0.420925 0.422806 0.473359
v 0.419435 0.457900 0.530714
v 0.425504 0.453625 0.511094
v 0.395892 0.475689 0.507022
v 0.103794 0.399749 0.262344
v 0.137912 0.474303 0.262285
v 0.215995 0.414741 0.428981
v 0.190503 0.343044 0.450817
v -0.127196 0.735888 0.284840
v 0.000000 0.757174 0.295119
v 0.000000 0.683672 0.381971
v -0.126626 0.640946 0.372870
v -0.323296 0.581089 0.248651
v -0.287933 0.646647 0.238792
v -0.228523 0.690890 0.265751
v -0.237355 0.614173 0.328356
v 0.000000 0.882278 -0.233869
v 0.000000 0.924958 -0.122553
v -0.134737 0.784477 -0.288598
v 0.000000 0.801764 -0.306922
v -0.232855 0.672664 -0.321638
v -0.127763 0.701870 -0.344247
v 0.000000 0.715108 -0.354958
v 0.000000 0.613810 -0.403038
v -0.126143 0.607776 -0.397874
v 0.000000 0.491754 -0.459084
v -0.234179 0.586316 -0.369455
v -0.317085 0.558654 -0.321888
v -0.125681 0.490897 -0.447746
v -0.000000 0.362920 -0.490910
v -0.237535 0.479994 -0.407757
v -0.331050 0.455863 -0.342810
v -0.124456 0.368624 -0.476941
v -0.000000 0.249218 -0.500970
v -0.236334 0.365705 -0.429533
v -0.329019 0.350222 -0.364118
v -0.121027 0.254509 -0.480196
v -0.000000 0.151521 -0.479369
v -0.228593 0.259784 -0.427739
v -0.309332 0.260234 -0.383412
v -0.118018 0.159817 -0.459640
v -0.000000 0.070354 -0.431573
v -0.118834 0.084088 -0.412142
v -0.220507 0.174284 -0.409453
v -0.295321 0.178499 -0.357965
v -0.219046 0.109998 -0.371028
v -0.280148 0.128883 -0.330832
v 0.324865 0.087647 0.249078
v 0.224015 0.091179 0.349271
v 0.288356 0.113676 0.317838
v 0.241277 0.046297 0.255501
v 0.364675 0.062929 0.124103
v 0.121056 0.072524 0.385387
v 0.268260 0.020228 0.127920
v 0.389807 0.055771 -0.011712
v 0.129014 0.010287 0.277206
v -0.000000 0.070742 0.408231
v 0.281923 0.018293 -0.019705
v 0.363345 0.074062 -0.152342
v 0.142413 -0.018508 0.142233
v -0.000000 0.004322 0.294098
v -0.121056 0.072525 0.385387
v 0.267888 0.032080 -0.173192
v 0.319328 0.103709 -0.268471
v 0.149277 -0.016877 -0.024348
v -0.000000 -0.031174 0.155775
v -0.000000 -0.025007 -0.020900
v -0.129014 0.010287 0.277206
v -0.224015 0.091179 0.349271
v 0.239116 0.064702 -0.294919
v 0.280148 0.128883 -0.330832
v 0.219046 0.109998 -0.371028
v 0.142399 -0.007692 -0.196951
v -0.000000 -0.025007 -0.020900
v 0.128656 0.026086 -0.329846
v 0.118833 0.084087 -0.412142
v -0.000000 -0.025340 -0.204389
v -0.000000 -0.025007 -0.020900
v -0.000000 0.008354 -0.344280
v -0.000000 0.070354 -0.431573
v -0.241277 0.046298 0.255501
v -0.288356 0.113676 0.317838
v -0.324865 0.087648 0.249078
v -0.142413 -0.018508 0.142233
v -0.000000 -0.025007 -0.020900
v -0.268259 0.020228 0.127920
v -0.364675 0.062929 0.124103
v -0.149277 -0.016876 -0.024348
v -0.000000 -0.025007 -0.020900
v -0.281923 0.018293 -0.019705
v -0.389807 0.055771 -0.011712
v -0.267888 0.032080 -0.173192
v -0.363330 0.073892 -0.152077
v -0.142399 -0.007692 -0.196951
v -0.239117 0.064702 -0.294919
v -0.319407 0.103609 -0.267896
v -0.000000 -0.025340 -0.204389
v -0.000000 -0.025007 -0.020900
v -0.000000 0.008354 -0.344280
v -0.128656 0.026086 -0.329846
v -0.000000 0.070354 -0.431573
v -0.118834 0.084088 -0.412142
v -0.219046 0.109998 -0.371028
v -0.280148 0.128883 -0.330832
vn -0.9482 0.3145 0.0440
vn -0.7456 0.4730 -0.4694
vn -0.8517 0.3232 -0.4125
vn 0.7456 0.4730 -0.4694
vn 0.9482 0.3145 0.0440
vn 0.8517 0.3232 -0.4125
vn -0.0001 -0.2935 0.9560
vn 0.2418 -0.3663 0.8985
vn 0.2023 -0.5042 0.8396
vn -0.2429 -0.3661 0.8983
vn 0.0001 -0.2935 0.9560
vn -0.2043 -0.5066 0.8376
vn -0.0000 -0.4682 0.8836
vn -0.0000 -0.2935 0.9560
vn -0.2044 -0.5066 0.8376
vn -0.0000 0.4189 0.9080
vn 0.2419 -0.3663 0.8985
vn -0.2430 -0.3661 0.8983
vn -0.0979 0.2451 0.9645
vn -0.2738 0.3181 0.9076
vn 0.0362 -0.3014 0.9528
vn 0.0976 0.2463 0.9643
vn -0.2429 -0.3660 0.8983
vn -0.0000 0.6046 0.7965
vn 0.2743 0.3196 0.9070
vn -0.0344 -0.3000 0.9533
vn 0.2742 0.3196 0.9070
vn 0.2975 0.5596 0.7735
vn 0.0977 0.2463 0.9643
vn 0.0976 0.2464 0.9642
vn 0.3029 0.5184 0.7997
vn 0.2975 0.5597 0.7735
vn 0.3609 0.6352 0.6829
vn -0.2981 0.5599 0.7731
vn -0.0979 0.2452 0.9645
vn 0.0011 0.7092 0.7050
vn -0.2981 0.5599 0.7730
vn -0.0001 0.6046 0.7965
vn -0.2982 0.5599 0.7730
vn -0.3030 0.5192 0.7992
vn -0.2739 0.3181 0.9076
vn -0.3630 0.6347 0.6822
vn 0.4756 0.5261 0.7050
vn 0.3028 0.5184 0.7997
vn 0.4756 0.5261 0.7051
vn 0.3608 0.6352 0.6829
vn -0.3030 0.5191 0.7992
vn -0.4766 0.5278 0.7030
vn -0.4767 0.5278 0.7030
vn -0.3630 0.6346 0.6822
vn 0.0012 0.7092 0.7050
vn 0.2975 0.7092 0.6392
vn 0.0040 0.7492 0.6624
vn 0.2974 0.7092 0.6392
vn 0.4006 0.1049 0.9102
vn 0.4756 0.5260 0.7051
vn 0.4006 0.1048 0.9103
vn 0.2742 0.3195 0.9070
vn 0.1645 -0.4346 0.8855
vn 0.1644 -0.4346 0.8855
vn 0.7303 -0.2403 0.6395
vn 0.4006 0.1048 0.9102
vn 0.2743 0.3195 0.9070
vn -0.0344 -0.3001 0.9533
vn 0.1643 -0.4346 0.8855
vn 0.6221 0.3820 0.6834
vn 0.6222 0.3820 0.6834
vn 0.6108 0.5287 0.5894
vn 0.3609 0.6352 0.6828
vn 0.1644 -0.4345 0.8855
vn 0.1822 -0.5307 0.8277
vn 0.7303 -0.2403 0.6394
vn 0.1823 -0.5308 0.8277
vn 0.1822 -0.5308 0.8277
vn 0.7274 -0.4224 0.5408
vn 0.7592 -0.4382 0.4812
vn 0.7274 -0.4224 0.5407
vn 0.7592 -0.4383 0.4813
vn 0.5422 -0.2053 0.8148
vn 0.7303 -0.2404 0.6395
vn 0.6492 0.4184 0.6351
vn 0.6492 0.4185 0.6352
vn 0.6853 0.5149 0.5150
vn 0.6107 0.5288 0.5894
vn 0.6492 0.4184 0.6352
vn 0.6222 0.3819 0.6834
vn 0.5421 -0.2053 0.8148
vn 0.8087 0.3190 0.4943
vn 0.5421 -0.2054 0.8148
vn 0.3346 0.0401 0.9415
vn 0.8086 0.3191 0.4944
vn 0.8086 0.3190 0.4944
vn 0.7784 0.4649 0.4219
vn 0.8904 0.2082 0.4048
vn 0.6842 0.5155 0.5158
vn 0.7212 0.4198 0.5510
vn 0.7784 0.4649 0.4220
vn 0.7213 0.4198 0.5510
vn 0.5683 0.5311 0.6285
vn 0.6107 0.5287 0.5895
vn 0.4881 0.6280 0.6061
vn 0.5683 0.5311 0.6284
vn 0.8072 0.3947 0.4388
vn 0.8358 0.3791 0.3971
vn 0.8904 0.2083 0.4048
vn 0.8073 0.3947 0.4388
vn 0.6664 0.5104 0.5434
vn 0.6665 0.5104 0.5434
vn 0.7213 0.4198 0.5509
vn 0.7287 0.5298 0.4339
vn 0.7288 0.5298 0.4339
vn 0.7807 0.5575 0.2823
vn 0.6664 0.5105 0.5434
vn 0.8574 0.4121 0.3083
vn 0.8574 0.4121 0.3084
vn 0.8574 0.4122 0.3083
vn 0.8188 0.5739 0.0144
vn 0.5442 0.6961 0.4684
vn 0.5442 0.6960 0.4684
vn 0.8359 0.3791 0.3971
vn 0.8680 0.3607 0.3413
vn 0.9016 0.4313 0.0326
vn 0.8188 0.5739 0.0143
vn 0.9016 0.4313 0.0325
vn 0.7935 0.5366 -0.2869
vn 0.9016 0.4314 0.0325
vn 0.8764 0.3727 -0.3050
vn 0.7935 0.5367 -0.2869
vn 0.8764 0.3727 -0.3051
vn 0.7159 0.4811 -0.5060
vn 0.9253 0.3762 0.0479
vn 0.9253 0.3762 0.0478
vn 0.8948 0.2132 0.3922
vn 0.8903 0.2082 0.4049
vn 0.8032 -0.2682 0.5320
vn 0.8948 0.2131 0.3922
vn 0.8032 -0.2682 0.5319
vn 0.8763 0.3727 -0.3051
vn 0.7941 0.3069 -0.5246
vn 0.7159 0.4810 -0.5061
vn 0.7941 0.3069 -0.5247
vn 0.6111 0.4195 -0.6713
vn 0.6512 0.2950 -0.6992
vn 0.6112 0.4195 -0.6712
vn 0.8888 0.2665 -0.3727
vn 0.9253 0.3761 0.0478
vn 0.8888 0.2666 -0.3727
vn 0.7989 0.2189 -0.5602
vn 0.6513 0.2950 -0.6992
vn 0.8888 0.2665 -0.3728
vn 0.6641 0.2020 -0.7198
vn 0.7859 0.3052 -0.5377
vn 0.8889 0.2665 -0.3727
vn 0.7769 0.1247 -0.6171
vn 0.6394 0.1008 -0.7623
vn 0.6641 0.2019 -0.7199
vn 0.6864 -0.1805 -0.7045
vn 0.6393 0.1008 -0.7623
vn 0.7769 0.1246 -0.6171
vn 0.5886 -0.1304 -0.7979
vn 0.8669 0.4971 -0.0371
vn 0.7859 0.3053 -0.5377
vn 0.8669 0.4970 -0.0371
vn 0.6863 -0.1806 -0.7045
vn 0.6263 -0.5241 -0.5771
vn 0.5885 -0.1304 -0.7979
vn 0.5621 -0.3966 -0.7257
vn 0.7859 0.3052 -0.5378
vn 0.7175 -0.2530 -0.6489
vn 0.7176 -0.2530 -0.6489
vn 0.8949 0.2131 0.3922
vn 0.8890 -0.1813 0.4205
vn 0.5233 -0.7237 -0.4499
vn 0.5621 -0.3967 -0.7257
vn 0.5416 -0.5754 -0.6128
vn 0.4821 -0.8311 -0.2772
vn 0.5234 -0.7237 -0.4498
vn 0.6263 -0.5242 -0.5771
vn 0.6022 -0.6583 -0.4516
vn 0.6864 -0.1806 -0.7045
vn 0.6022 -0.6584 -0.4516
vn 0.4821 -0.8311 -0.2773
vn 0.4354 -0.8996 -0.0331
vn 0.6022 -0.6584 -0.4515
vn 0.9835 -0.0875 -0.1583
vn 0.8890 -0.1814 0.4205
vn 0.6934 -0.7194 -0.0414
vn 0.9835 -0.0875 -0.1582
vn 0.6933 -0.7194 -0.0414
vn 0.4353 -0.8997 -0.0331
vn 0.8890 -0.1814 0.4204
vn 0.9835 -0.0875 -0.1584
vn 0.7149 -0.5850 0.3830
vn 0.4353 -0.8997 -0.0330
vn 0.7150 -0.5849 0.3830
vn 0.7149 -0.5849 0.3830
vn 0.4843 -0.8431 0.2338
vn 0.5207 -0.7548 0.3989
vn 0.4843 -0.8430 0.2339
vn 0.6798 -0.5282 0.5088
vn 0.5208 -0.7547 0.3990
vn 0.5308 -0.6060 0.5925
vn 0.6221 -0.4626 0.6317
vn 0.5308 -0.6060 0.5926
vn 0.4013 -0.6833 0.6100
vn 0.6150 -0.2904 0.7331
vn 0.6150 -0.2905 0.7331
vn 0.6220 -0.4626 0.6317
vn 0.4421 -0.4807 0.7573
vn 0.4420 -0.4807 0.7573
vn 0.2267 -0.7264 0.6488
vn 0.8031 -0.2683 0.5320
vn 0.7751 -0.0296 0.6311
vn 0.7752 -0.0296 0.6311
vn 0.8086 0.3190 0.4943
vn 0.7752 -0.0296 0.6310
vn 0.5298 0.3204 0.7853
vn 0.5299 0.3203 0.7852
vn 0.3347 0.0401 0.9415
vn 0.5299 0.3204 0.7852
vn 0.7644 -0.0619 0.6418
vn 0.6739 -0.1889 0.7143
vn 0.3656 0.1075 0.9245
vn 0.5298 0.3204 0.7852
vn 0.5258 -0.3149 0.7902
vn 0.5258 -0.3149 0.7901
vn 0.4050 -0.1057 0.9082
vn 0.5257 -0.3149 0.7902
vn 0.4050 -0.1056 0.9082
vn 0.3656 0.1076 0.9246
vn 0.4049 -0.1056 0.9082
vn 0.2296 -0.4335 0.8714
vn 0.2266 -0.7264 0.6488
vn -0.0000 -0.7316 0.6817
vn 0.3656 0.1075 0.9246
vn 0.1843 -0.1068 0.9771
vn 0.1842 -0.1069 0.9771
vn 0.2296 -0.4334 0.8714
vn -0.0002 -0.4076 0.9132
vn -0.0003 -0.4075 0.9132
vn -0.2266 -0.7264 0.6488
vn -0.0002 -0.0977 0.9952
vn -0.0002 -0.4075 0.9132
vn 0.2296 -0.4334 0.8715
vn -0.0002 -0.0978 0.9952
vn 0.0002 0.1563 0.9877
vn 0.3655 0.1075 0.9246
vn 0.1397 0.1418 0.9800
vn 0.1842 -0.1068 0.9771
vn 0.1835 0.1181 0.9759
vn 0.1834 0.1181 0.9759
vn 0.0360 0.1384 0.9897
vn 0.0360 0.1385 0.9897
vn -0.0000 0.1392 0.9903
vn -0.0360 0.1385 0.9897
vn -0.0003 -0.4076 0.9132
vn -0.2297 -0.4330 0.8716
vn -0.0003 -0.0977 0.9952
vn -0.2298 -0.4330 0.8716
vn -0.4013 -0.6833 0.6100
vn -0.1843 -0.1064 0.9771
vn -0.1843 -0.1065 0.9771
vn -0.1394 0.1422 0.9800
vn -0.1842 -0.1064 0.9771
vn 0.0001 0.1563 0.9877
vn -0.1835 0.1182 0.9759
vn -0.3656 0.1079 0.9245
vn -0.4420 -0.4806 0.7574
vn -0.4420 -0.4805 0.7574
vn -0.5308 -0.6060 0.5925
vn -0.4050 -0.1055 0.9082
vn -0.4049 -0.1055 0.9082
vn -0.4050 -0.1056 0.9082
vn -0.4420 -0.4805 0.7575
vn -0.3656 0.1080 0.9245
vn -0.5299 0.3206 0.7851
vn -0.3657 0.1080 0.9245
vn -0.6737 -0.1891 0.7144
vn -0.5298 0.3207 0.7852
vn -0.7643 -0.0619 0.6419
vn -0.5298 0.3206 0.7852
vn -0.6737 -0.1890 0.7144
vn -0.5428 -0.2050 0.8145
vn -0.7643 -0.0619 0.6418
vn -0.3355 0.0402 0.9412
vn -0.5299 0.3206 0.7852
vn -0.5428 -0.2049 0.8145
vn -0.4421 -0.4805 0.7574
vn -0.6221 -0.4626 0.6317
vn -0.5307 -0.6060 0.5925
vn -0.5207 -0.7548 0.3990
vn -0.5255 -0.3150 0.7904
vn -0.5255 -0.3150 0.7903
vn -0.5298 0.3207 0.7851
vn -0.6220 -0.4626 0.6317
vn -0.6149 -0.2904 0.7332
vn -0.6149 -0.2905 0.7332
vn -0.6797 -0.5282 0.5089
vn -0.6150 -0.2904 0.7331
vn -0.8040 -0.2668 0.5314
vn -0.6798 -0.5282 0.5089
vn -0.5207 -0.7548 0.3989
vn -0.6798 -0.5282 0.5088
vn -0.4843 -0.8431 0.2339
vn -0.7754 -0.0292 0.6308
vn -0.6149 -0.2904 0.7331
vn -0.7754 -0.0293 0.6308
vn -0.7754 -0.0291 0.6308
vn -0.8099 0.3258 0.4878
vn -0.8041 -0.2668 0.5314
vn -0.8099 0.3257 0.4878
vn -0.8907 0.2171 0.3994
vn -0.6797 -0.5282 0.5088
vn -0.7152 -0.5846 0.3832
vn -0.7152 -0.5845 0.3832
vn -0.4843 -0.8431 0.2338
vn -0.4349 -0.8999 -0.0316
vn -0.8893 -0.1786 0.4209
vn -0.6945 -0.7183 -0.0411
vn -0.4349 -0.8999 -0.0317
vn -0.7152 -0.5845 0.3831
vn -0.8893 -0.1787 0.4209
vn -0.8932 0.2225 0.3907
vn -0.8040 -0.2667 0.5314
vn -0.8893 -0.1785 0.4209
vn -0.6040 -0.6575 -0.4505
vn -0.6040 -0.6574 -0.4505
vn -0.4803 -0.8319 -0.2780
vn -0.5231 -0.7235 -0.4504
vn -0.6255 -0.5249 -0.5773
vn -0.5432 -0.5753 -0.6115
vn -0.6254 -0.5249 -0.5773
vn -0.5632 -0.3975 -0.7245
vn -0.5432 -0.5753 -0.6116
vn -0.6847 -0.1858 -0.7048
vn -0.5631 -0.3974 -0.7245
vn -0.6846 -0.1858 -0.7048
vn -0.5905 -0.1306 -0.7964
vn -0.5632 -0.3974 -0.7245
vn -0.6945 -0.7183 -0.0412
vn -0.7141 -0.2852 -0.6393
vn -0.6040 -0.6574 -0.4506
vn -0.9828 -0.0880 -0.1624
vn -0.8725 0.4879 -0.0242
vn -0.9828 -0.0881 -0.1624
vn -0.8725 0.4879 -0.0241
vn -0.6847 -0.1857 -0.7048
vn -0.7611 0.1325 -0.6349
vn -0.7612 0.1325 -0.6349
vn -0.6414 0.0938 -0.7615
vn -0.7923 0.2768 -0.5438
vn -0.7923 0.2767 -0.5438
vn -0.7889 0.2100 -0.5776
vn -0.6604 0.1903 -0.7264
vn -0.9240 0.3793 0.0480
vn -0.9241 0.3792 0.0480
vn -0.8726 0.4879 -0.0241
vn -0.8799 0.2713 -0.3902
vn -0.7612 0.1325 -0.6348
vn -0.8799 0.2713 -0.3901
vn -0.7889 0.2100 -0.5775
vn -0.9241 0.3792 0.0479
vn -0.7923 0.2768 -0.5437
vn -0.7879 0.3058 -0.5345
vn -0.6411 0.2951 -0.7084
vn -0.8740 0.3725 -0.3120
vn -0.7046 0.4926 -0.5108
vn -0.6411 0.2952 -0.7084
vn -0.5979 0.4306 -0.6761
vn -0.7868 0.5448 -0.2902
vn -0.7046 0.4926 -0.5107
vn -0.7879 0.3058 -0.5344
vn -0.7879 0.3059 -0.5344
vn -0.8190 0.5736 0.0141
vn -0.7868 0.5448 -0.2901
vn -0.8740 0.3726 -0.3119
vn -0.9015 0.4317 0.0301
vn -0.8740 0.3725 -0.3119
vn -0.8799 0.2714 -0.3901
vn -0.7863 0.5499 0.2818
vn -0.8190 0.5736 0.0142
vn -0.9015 0.4317 0.0302
vn -0.8587 0.4119 0.3050
vn -0.9015 0.4318 0.0302
vn -0.8587 0.4118 0.3050
vn -0.7366 0.5212 0.4310
vn -0.8665 0.3682 0.3371
vn -0.8113 0.3951 0.4309
vn -0.6755 0.5042 0.5380
vn -0.8360 0.3863 0.3898
vn -0.8932 0.2226 0.3907
vn -0.8907 0.2172 0.3994
vn -0.7812 0.4692 0.4119
vn -0.8359 0.3863 0.3899
vn -0.7812 0.4692 0.4118
vn -0.7276 0.4211 0.5415
vn -0.6755 0.5043 0.5380
vn -0.7276 0.4210 0.5416
vn -0.6508 0.4240 0.6299
vn -0.7811 0.4692 0.4119
vn -0.6887 0.5188 0.5065
vn -0.6886 0.5189 0.5065
vn -0.7276 0.4211 0.5416
vn -0.6886 0.5188 0.5066
vn -0.6135 0.5313 0.5842
vn -0.5744 0.5307 0.6232
vn -0.5427 -0.2050 0.8145
vn -0.8098 0.3258 0.4878
vn -0.7305 -0.2404 0.6392
vn -0.6508 0.4240 0.6298
vn -0.3355 0.0401 0.9412
vn -0.7591 -0.4383 0.4813
vn -0.7276 -0.4233 0.5398
vn -0.7276 -0.4233 0.5399
vn -0.1832 -0.5295 0.8283
vn -0.7304 -0.2404 0.6393
vn -0.6508 0.4239 0.6299
vn -0.6223 0.3829 0.6827
vn -0.6135 0.5314 0.5841
vn -0.6223 0.3830 0.6827
vn -0.7305 -0.2403 0.6393
vn -0.6135 0.5314 0.5842
vn -0.4971 0.6211 0.6059
vn -0.5743 0.5308 0.6232
vn -0.2975 0.7059 0.6428
vn -0.4971 0.6212 0.6059
vn -0.3973 0.1030 0.9119
vn -0.3973 0.1029 0.9119
vn -0.1649 -0.4333 0.8860
vn -0.2738 0.3181 0.9077
vn -0.1650 -0.4333 0.8860
vn -0.7305 -0.2404 0.6393
vn 0.0361 -0.3014 0.9528
vn -0.1833 -0.5295 0.8283
vn 0.0362 -0.3015 0.9528
vn -0.4971 0.6212 0.6058
vn -0.5536 0.6858 0.4724
vn -0.4972 0.6211 0.6058
vn -0.5536 0.6858 0.4723
vn -0.7862 0.5499 0.2819
vn -0.3196 0.7982 0.5106
vn -0.5536 0.6859 0.4724
vn 0.0039 0.7492 0.6624
vn -0.3195 0.7983 0.5106
vn -0.6219 0.7336 0.2739
vn -0.3196 0.7983 0.5105
vn -0.6219 0.7337 0.2739
vn -0.7862 0.5499 0.2818
vn -0.6219 0.7336 0.2738
vn -0.6219 0.7337 0.2738
vn -0.6609 0.7494 -0.0400
vn -0.7867 0.5449 -0.2901
vn -0.3599 0.9004 0.2442
vn -0.6218 0.7337 0.2739
vn -0.3599 0.9005 0.2442
vn 0.0081 0.8544 0.5196
vn -0.3195 0.7983 0.5105
vn 0.0081 0.8544 0.5195
vn -0.3599 0.9005 0.2443
vn -0.6609 0.7494 -0.0401
vn -0.6278 0.6871 -0.3657
vn -0.7867 0.5448 -0.2902
vn 0.0082 0.8544 0.5196
vn 0.3236 0.8023 0.5016
vn 0.3235 0.8023 0.5016
vn -0.3786 0.9159 -0.1337
vn -0.6278 0.6872 -0.3657
vn 0.0078 0.9777 0.2098
vn -0.3598 0.9005 0.2442
vn 0.0082 0.8544 0.5195
vn 0.0077 0.9777 0.2098
vn -0.3785 0.9159 -0.1337
vn 0.0078 0.9777 0.2097
vn -0.0008 0.9822 -0.1876
vn 0.3636 0.9015 0.2349
vn 0.3637 0.9014 0.2349
vn 0.0079 0.9777 0.2097
vn 0.3636 0.9015 0.2348
vn -0.0007 0.9822 -0.1876
vn -0.6278 0.6871 -0.3658
vn -0.5316 0.5981 -0.5997
vn -0.7046 0.4927 -0.5107
vn -0.5978 0.4306 -0.6761
vn -0.3785 0.9159 -0.1338
vn -0.3680 0.7917 -0.4877
vn -0.5316 0.5982 -0.5997
vn -0.0007 0.9822 -0.1877
vn -0.3679 0.7917 -0.4877
vn 0.6142 0.7417 0.2696
vn 0.6142 0.7416 0.2696
vn 0.7806 0.5576 0.2823
vn 0.3637 0.9014 0.2348
vn 0.3778 0.9155 -0.1386
vn 0.3777 0.9155 -0.1386
vn 0.7807 0.5576 0.2823
vn 0.6595 0.7505 -0.0413
vn 0.6595 0.7506 -0.0413
vn 0.8188 0.5740 0.0144
vn 0.6349 0.6803 -0.3661
vn 0.3778 0.9155 -0.1387
vn 0.6595 0.7506 -0.0414
vn 0.3621 0.7906 -0.4938
vn 0.3620 0.7906 -0.4938
vn 0.5434 0.5846 -0.6025
vn 0.5433 0.5846 -0.6025
vn 0.3777 0.9155 -0.1387
vn 0.3620 0.7906 -0.4939
vn -0.0099 0.8358 -0.5490
vn -0.0099 0.8357 -0.5490
vn -0.0122 0.6179 -0.7861
vn 0.6349 0.6803 -0.3662
vn 0.2997 0.6118 -0.7320
vn 0.2996 0.6119 -0.7320
vn 0.2997 0.6119 -0.7320
vn -0.0122 0.6179 -0.7862
vn 0.2996 0.6118 -0.7321
vn -0.0072 0.4862 -0.8738
vn 0.7158 0.4811 -0.5061
vn 0.4334 0.4829 -0.7609
vn 0.7159 0.4811 -0.5061
vn 0.2997 0.6118 -0.7321
vn 0.2176 0.4909 -0.8436
vn 0.2175 0.4909 -0.8436
vn 0.5433 0.5846 -0.6026
vn 0.4333 0.4829 -0.7609
vn 0.4318 0.3692 -0.8229
vn 0.2176 0.4908 -0.8436
vn 0.4318 0.3692 -0.8230
vn 0.6641 0.2020 -0.7199
vn 0.1887 0.4179 -0.8887
vn -0.0021 0.4299 -0.9029
vn -0.0073 0.4862 -0.8738
vn 0.4635 0.2459 -0.8513
vn 0.4634 0.2459 -0.8513
vn 0.1886 0.4179 -0.8887
vn 0.2077 0.3012 -0.9307
vn 0.2078 0.3012 -0.9307
vn -0.0001 0.3210 -0.9471
vn 0.4740 0.0944 -0.8755
vn 0.2078 0.3011 -0.9307
vn 0.4739 0.0944 -0.8755
vn 0.4740 0.0943 -0.8755
vn 0.5885 -0.1303 -0.7979
vn -0.0000 0.3209 -0.9471
vn 0.2077 0.3011 -0.9307
vn 0.2480 0.1273 -0.9604
vn 0.2481 0.1273 -0.9603
vn 0.0002 0.1495 -0.9888
vn 0.4717 -0.1114 -0.8747
vn 0.4739 0.0943 -0.8755
vn 0.4717 -0.1115 -0.8747
vn 0.5621 -0.3966 -0.7258
vn 0.0002 0.1494 -0.9888
vn 0.2874 -0.0847 -0.9541
vn 0.2875 -0.0847 -0.9540
vn 0.0001 -0.0718 -0.9974
vn 0.4766 -0.3432 -0.8094
vn 0.5416 -0.5754 -0.6129
vn 0.4660 -0.6056 -0.6450
vn 0.3027 -0.3509 -0.8862
vn 0.3027 -0.3509 -0.8861
vn 0.2874 -0.0847 -0.9540
vn -0.0000 -0.3668 -0.9303
vn 0.3026 -0.3509 -0.8862
vn 0.2934 -0.6564 -0.6950
vn 0.2933 -0.6565 -0.6950
vn -0.0000 -0.6884 -0.7254
vn -0.0000 -0.3669 -0.9303
vn 0.2933 -0.6564 -0.6950
vn 0.2559 -0.4872 0.8350
vn -0.1833 -0.5294 0.8283
vn 0.2022 -0.5042 0.8396
vn 0.0361 -0.3015 0.9528
vn -0.2582 -0.4910 0.8320
vn 0.1823 -0.5307 0.8277
vn -0.2043 -0.5066 0.8377
vn -0.2581 -0.4910 0.8321
vn 0.0001 0.6046 0.7965
vn -0.1095 0.9568 0.2694
vn 0.5396 0.6623 0.5198
vn 0.4909 0.7142 0.4990
vn -0.1322 0.9400 0.3146
vn -0.7588 0.6220 -0.1934
vn -0.1096 0.9568 0.2694
vn -0.1323 0.9400 0.3145
vn -0.7258 0.6852 -0.0603
vn -0.7587 0.6220 -0.1935
vn -0.1323 0.9400 0.3146
vn -0.9203 -0.0178 -0.3909
vn -0.8789 -0.1469 -0.4537
vn -0.7259 0.6852 -0.0604
vn -0.8789 -0.1469 -0.4538
vn -0.7259 0.6852 -0.0603
vn -0.8684 0.0333 -0.4947
vn -0.8684 0.0332 -0.4947
vn -0.5581 0.7011 -0.4438
vn -0.7588 0.6220 -0.1935
vn -0.5580 0.7012 -0.4438
vn -0.9044 0.2306 -0.3590
vn 0.0831 0.9912 0.1033
vn 0.5396 0.6623 0.5199
vn -0.9044 0.2305 -0.3590
vn -0.5100 0.7699 -0.3837
vn -0.5581 0.7012 -0.4438
vn -0.5100 0.7698 -0.3838
vn 0.4894 0.6525 0.5786
vn 0.5395 0.6623 0.5198
vn 0.4895 0.6524 0.5786
vn 0.8515 -0.0780 0.5186
vn 0.4894 0.6524 0.5786
vn 0.5313 -0.0291 0.8467
vn -0.5100 0.7698 -0.3837
vn 0.1909 0.9808 -0.0387
vn 0.0832 0.9912 0.1033
vn 0.1910 0.9808 -0.0386
vn -0.4163 0.6882 -0.5942
vn -0.5099 0.7699 -0.3838
vn -0.4162 0.6883 -0.5942
vn 0.1910 0.9808 -0.0387
vn -0.7456 0.4731 -0.4694
vn 0.5243 0.7335 0.4325
vn 0.5313 -0.0290 0.8467
vn 0.4895 0.6525 0.5786
vn 0.5243 0.7335 0.4326
vn 0.4175 0.1405 0.8977
vn 0.5314 -0.0291 0.8467
vn -0.4163 0.6883 -0.5941
vn 0.2809 0.9161 -0.2860
vn 0.1909 0.9808 -0.0386
vn 0.2810 0.9161 -0.2859
vn 0.6128 0.7366 0.2860
vn 0.4175 0.1405 0.8978
vn 0.2810 0.9161 -0.2860
vn 0.6128 0.7367 0.2860
vn 0.4664 0.3160 0.8262
vn -0.3290 0.6826 -0.6526
vn -0.3289 0.6826 -0.6526
vn -0.1941 0.9698 -0.1479
vn -0.3289 0.6826 -0.6525
vn -0.9482 0.3145 0.0441
vn -0.1942 0.9698 -0.1479
vn -0.7456 0.4731 -0.4693
vn 0.3044 0.8473 -0.4353
vn 0.3044 0.8473 -0.4352
vn -0.1941 0.9698 -0.1480
vn -0.1942 0.9697 -0.1479
vn 0.6101 0.7855 0.1039
vn 0.3045 0.8473 -0.4352
vn 0.4664 0.3161 0.8262
vn 0.6101 0.7854 0.1039
vn 0.4249 0.6497 0.6304
vn -0.1942 0.9697 -0.1480
vn 0.4249 0.6496 0.6304
vn -0.1473 0.4631 0.8740
vn 0.9039 0.0081 0.4277
vn 0.8515 -0.0780 0.5185
vn 0.6967 -0.7045 0.1349
vn 0.6025 -0.7420 0.2941
vn 0.6967 -0.7045 0.1348
vn 0.6967 -0.7046 0.1348
vn 0.0945 -0.9761 -0.1957
vn 0.8514 -0.0780 0.5186
vn 0.6024 -0.7420 0.2941
vn 0.0369 -0.9988 -0.0335
vn 0.0368 -0.9988 -0.0336
vn -0.5478 -0.7228 -0.4213
vn 0.2315 -0.6185 0.7509
vn 0.2314 -0.6185 0.7509
vn 0.0369 -0.9988 -0.0336
vn -0.5290 -0.7825 -0.3283
vn -0.5479 -0.7227 -0.4213
vn -0.5290 -0.7825 -0.3284
vn -0.8789 -0.1470 -0.4538
vn -0.9202 -0.0178 -0.3909
vn -0.3078 -0.8710 0.3828
vn 0.0368 -0.9988 -0.0335
vn -0.3078 -0.8711 0.3827
vn 0.4175 0.1404 0.8978
vn 0.0445 -0.3435 0.9381
vn 0.0444 -0.3435 0.9381
vn 0.0445 -0.3434 0.9381
vn -0.7704 -0.6241 -0.1305
vn -0.3078 -0.8711 0.3828
vn -0.7703 -0.6242 -0.1305
vn -0.4969 -0.5544 0.6676
vn -0.4969 -0.5545 0.6676
vn -0.7703 -0.6241 -0.1305
vn 0.0100 -0.0156 0.9998
vn 0.0100 -0.0157 0.9998
vn 0.0101 -0.0156 0.9998
vn -0.7703 -0.6241 -0.1306
vn -0.9267 -0.3469 0.1442
vn -0.4969 -0.5545 0.6675
vn -0.9267 -0.3470 0.1442
vn -0.8685 0.0332 -0.4946
vn -0.5953 -0.1969 0.7790
vn -0.4970 -0.5544 0.6676
vn -0.5954 -0.1969 0.7790
vn -0.7270 0.2922 0.6214
vn -0.5954 -0.1968 0.7790
vn -0.9816 -0.0457 0.1852
vn -0.9045 0.2305 -0.3589
vn -0.9816 -0.0458 0.1852
vn -0.9267 -0.3470 0.1443
vn -0.9044 0.2306 -0.3589
vn -0.9816 -0.0457 0.1853
vn -0.7270 0.2921 0.6214
vn 0.5396 0.6622 0.5199
vn 0.9039 0.0082 0.4277
vn 0.1095 0.9568 0.2694
vn 0.1322 0.9400 0.3146
vn -0.4909 0.7142 0.4991
vn -0.5396 0.6623 0.5199
vn -0.4909 0.7142 0.4990
vn 0.7587 0.6220 -0.1935
vn 0.7258 0.6852 -0.0603
vn 0.1323 0.9400 0.3146
vn 0.1096 0.9568 0.2694
vn 0.7588 0.6220 -0.1934
vn 0.8789 -0.1469 -0.4537
vn 0.9203 -0.0178 -0.3909
vn 0.7259 0.6852 -0.0604
vn 0.7588 0.6220 -0.1935
vn 0.7259 0.6852 -0.0603
vn 0.8684 0.0333 -0.4947
vn 0.8789 -0.1469 -0.4538
vn 0.7587 0.6220 -0.1934
vn 0.5581 0.7011 -0.4438
vn 0.8684 0.0332 -0.4947
vn 0.5580 0.7012 -0.4438
vn 0.9044 0.2306 -0.3590
vn -0.0831 0.9912 0.1033
vn 0.5100 0.7698 -0.3837
vn 0.9044 0.2305 -0.3590
vn 0.5581 0.7012 -0.4438
vn 0.5100 0.7698 -0.3838
vn 0.5580 0.7011 -0.4439
vn -0.4894 0.6525 0.5786
vn -0.5395 0.6623 0.5199
vn -0.4894 0.6524 0.5786
vn -0.8515 -0.0780 0.5186
vn -0.5313 -0.0291 0.8467
vn -0.4895 0.6524 0.5786
vn -0.1909 0.9808 -0.0387
vn 0.5099 0.7698 -0.3838
vn -0.1910 0.9808 -0.0386
vn 0.4163 0.6882 -0.5941
vn 0.4163 0.6883 -0.5941
vn 0.5099 0.7699 -0.3838
vn -0.1910 0.9808 -0.0387
vn 0.7456 0.4731 -0.4694
vn 0.4163 0.6882 -0.5942
vn -0.5243 0.7335 0.4325
vn -0.5313 -0.0290 0.8467
vn -0.4175 0.1405 0.8977
vn -0.2810 0.9161 -0.2860
vn 0.4162 0.6883 -0.5941
vn -0.1909 0.9808 -0.0386
vn -0.2810 0.9161 -0.2859
vn -0.6128 0.7367 0.2860
vn -0.5243 0.7335 0.4326
vn -0.4175 0.1405 0.8978
vn -0.5244 0.7335 0.4325
vn -0.4664 0.3160 0.8262
vn -0.6128 0.7366 0.2860
vn 0.3290 0.6826 -0.6526
vn 0.3289 0.6826 -0.6526
vn 0.1942 0.9698 -0.1479
vn 0.3289 0.6826 -0.6525
vn 0.1941 0.9697 -0.1480
vn -0.3044 0.8473 -0.4353
vn -0.3045 0.8473 -0.4352
vn 0.1942 0.9697 -0.1480
vn -0.3044 0.8473 -0.4352
vn -0.6101 0.7855 0.1039
vn -0.3045 0.8473 -0.4353
vn -0.4249 0.6497 0.6304
vn -0.6101 0.7854 0.1039
vn -0.4249 0.6496 0.6304
vn 0.1942 0.9697 -0.1479
vn 0.1473 0.4631 0.8740
vn -0.8514 -0.0781 0.5186
vn -0.9039 0.0081 0.4277
vn -0.6967 -0.7045 0.1349
vn -0.6025 -0.7420 0.2941
vn -0.6024 -0.7420 0.2941
vn -0.6967 -0.7046 0.1348
vn -0.0945 -0.9761 -0.1957
vn -0.0369 -0.9988 -0.0336
vn -0.0368 -0.9988 -0.0336
vn 0.5478 -0.7228 -0.4213
vn -0.2314 -0.6185 0.7509
vn -0.2314 -0.6185 0.7510
vn 0.5290 -0.7825 -0.3283
vn 0.5291 -0.7825 -0.3284
vn 0.5479 -0.7227 -0.4213
vn 0.5290 -0.7825 -0.3284
vn 0.3078 -0.8711 0.3828
vn 0.3078 -0.8710 0.3828
vn -0.0368 -0.9988 -0.0335
vn -0.0445 -0.3435 0.9381
vn -0.4175 0.1404 0.8978
vn -0.2315 -0.6185 0.7509
vn -0.0445 -0.3434 0.9381
vn 0.7704 -0.6241 -0.1305
vn 0.5291 -0.7825 -0.3283
vn 0.8789 -0.1470 -0.4538
vn 0.7703 -0.6242 -0.1305
vn 0.4969 -0.5545 0.6676
vn 0.3078 -0.8711 0.3827
vn -0.0100 -0.0156 0.9998
vn -0.0444 -0.3435 0.9381
vn -0.0100 -0.0157 0.9998
vn 0.4969 -0.5544 0.6676
vn -0.0101 -0.0156 0.9998
vn 0.9267 -0.3469 0.1442
vn 0.9267 -0.3470 0.1442
vn 0.4970 -0.5544 0.6675
vn 0.7703 -0.6241 -0.1305
vn 0.8685 0.0332 -0.4946
vn 0.5953 -0.1968 0.7790
vn 0.5953 -0.1969 0.7790
vn 0.5954 -0.1969 0.7790
vn 0.7270 0.2922 0.6214
vn 0.1474 0.4631 0.8740
vn 0.1472 0.4631 0.8740
vn 0.9816 -0.0458 0.1852
vn 0.9044 0.2305 -0.3589
vn 0.9816 -0.0457 0.1852
vn 0.9044 0.2306 -0.3589
vn 0.9816 -0.0457 0.1853
vn 0.9482 0.3145 0.0441
vn -0.9039 0.0082 0.4277
vn -0.5396 0.6622 0.5199
vn -0.4972 0.6211 0.6059
vn -0.0100 0.8358 -0.5490
vn -0.0100 0.8357 -0.5491
vn -0.3077 0.6186 -0.7230
vn -0.0123 0.6179 -0.7861
vn -0.4223 0.4964 -0.7584
vn -0.4223 0.4964 -0.7585
vn -0.0123 0.6179 -0.7862
vn -0.2215 0.4999 -0.8373
vn -0.2216 0.4999 -0.8373
vn -0.1881 0.4219 -0.8869
vn -0.1882 0.4219 -0.8869
vn -0.5978 0.4306 -0.6762
vn -0.4230 0.3733 -0.8256
vn -0.4230 0.3733 -0.8257
vn -0.2066 0.3013 -0.9309
vn -0.2066 0.3012 -0.9309
vn -0.0001 0.3209 -0.9471
vn 0.0001 0.1495 -0.9888
vn -0.4231 0.3733 -0.8257
vn -0.4586 0.2435 -0.8546
vn -0.4585 0.2436 -0.8547
vn -0.2067 0.3013 -0.9309
vn -0.2477 0.1270 -0.9605
vn -0.4585 0.2435 -0.8547
vn -0.2067 0.3012 -0.9309
vn -0.4725 0.0923 -0.8765
vn -0.4724 0.0923 -0.8765
vn -0.2873 -0.0849 -0.9541
vn -0.0000 -0.0718 -0.9974
vn -0.2477 0.1269 -0.9605
vn -0.2874 -0.0849 -0.9540
vn -0.0000 -0.0719 -0.9974
vn -0.4724 0.0922 -0.8765
vn -0.4717 -0.1116 -0.8747
vn -0.5904 -0.1306 -0.7965
vn -0.6413 0.0938 -0.7615
vn -0.3026 -0.3509 -0.8862
vn -0.4717 -0.1117 -0.8747
vn -0.2874 -0.0849 -0.9541
vn -0.3027 -0.3509 -0.8862
vn -0.3026 -0.3510 -0.8861
vn -0.0000 -0.6883 -0.7254
vn -0.2933 -0.6565 -0.6950
vn -0.5904 -0.1306 -0.7964
vn -0.4765 -0.3433 -0.8094
vn -0.3026 -0.3509 -0.8861
vn -0.4766 -0.3433 -0.8093
vn -0.3027 -0.3510 -0.8861
vn -0.2934 -0.6565 -0.6950
vn -0.4662 -0.6057 -0.6449
vn -0.4662 -0.6057 -0.6448
vn 0.5207 -0.7548 0.3990
vn 0.4013 -0.6833 0.6099
vn 0.3695 -0.8643 0.3412
vn 0.3695 -0.8643 0.3411
vn 0.2267 -0.7265 0.6487
vn 0.3382 -0.9310 0.1370
vn 0.2019 -0.9142 0.3515
vn 0.3382 -0.9311 0.1370
vn 0.2266 -0.7265 0.6487
vn -0.0000 -0.7317 0.6817
vn 0.3228 -0.9457 -0.0373
vn 0.3228 -0.9457 -0.0374
vn 0.4820 -0.8311 -0.2773
vn 0.1818 -0.9781 0.1009
vn -0.0000 -0.9291 0.3698
vn 0.2018 -0.9142 0.3515
vn 0.1818 -0.9782 0.1009
vn -0.2266 -0.7265 0.6487
vn 0.3229 -0.9457 -0.0374
vn 0.3637 -0.9099 -0.1995
vn 0.4820 -0.8311 -0.2772
vn 0.3636 -0.9099 -0.1996
vn 0.5233 -0.7237 -0.4498
vn 0.1818 -0.9781 0.1008
vn 0.1749 -0.9841 -0.0294
vn 0.3636 -0.9099 -0.1995
vn -0.0000 -0.9954 0.0961
vn 0.1818 -0.9782 0.1008
vn -0.0000 -0.9954 0.0960
vn 0.1749 -0.9842 -0.0294
vn -0.0000 -0.9997 -0.0240
vn -0.2018 -0.9142 0.3515
vn -0.0000 -0.9291 0.3699
vn -0.2267 -0.7265 0.6487
vn -0.4013 -0.6833 0.6099
vn -0.2019 -0.9141 0.3515
vn 0.4269 -0.8112 -0.3996
vn 0.4269 -0.8112 -0.3997
vn 0.4660 -0.6057 -0.6450
vn 0.2106 -0.9664 -0.1476
vn 0.2106 -0.9663 -0.1477
vn -0.0000 -0.9997 -0.0239
vn 0.2635 -0.8805 -0.3940
vn 0.2107 -0.9663 -0.1477
vn 0.2635 -0.8805 -0.3941
vn 0.2934 -0.6565 -0.6950
vn 0.2106 -0.9664 -0.1477
vn -0.0000 -0.9924 -0.1231
vn 0.2634 -0.8806 -0.3940
vn -0.0000 -0.9924 -0.1230
vn -0.0000 -0.9189 -0.3945
vn 0.2634 -0.8805 -0.3941
vn 0.2933 -0.6565 -0.6949
vn -0.0000 -0.9189 -0.3946
vn -0.0000 -0.6884 -0.7253
vn -0.3696 -0.8643 0.3412
vn -0.3695 -0.8643 0.3412
vn -0.2019 -0.9142 0.3515
vn -0.3695 -0.8643 0.3411
vn -0.1818 -0.9781 0.1009
vn -0.1818 -0.9782 0.1008
vn -0.3382 -0.9310 0.1370
vn -0.3382 -0.9311 0.1370
vn -0.4842 -0.8431 0.2338
vn -0.1750 -0.9841 -0.0294
vn -0.1749 -0.9841 -0.0294
vn -0.3227 -0.9458 -0.0371
vn -0.3227 -0.9458 -0.0372
vn -0.4348 -0.9000 -0.0316
vn -0.4348 -0.9000 -0.0317
vn -0.3635 -0.9099 -0.1996
vn -0.3636 -0.9099 -0.1996
vn -0.2107 -0.9664 -0.1476
vn -0.2107 -0.9663 -0.1476
vn -0.4271 -0.8110 -0.3998
vn -0.2106 -0.9664 -0.1476
vn -0.1749 -0.9841 -0.0293
vn -0.2106 -0.9664 -0.1477
vn -0.2107 -0.9663 -0.1477
vn -0.2635 -0.8805 -0.3940
vn -0.2634 -0.8806 -0.3940
vn -0.0001 -0.9189 -0.3945
vn -0.2634 -0.8805 -0.3941
vn -0.0001 -0.6884 -0.7253
vn -0.2635 -0.8805 -0.3941
vn -0.2934 -0.6565 -0.6949
vn -0.4272 -0.8110 -0.3998
vt 0.925973 0.693983
vt 0.924783 0.690400
vt 0.922343 0.683049
vt 0.500168 0.456815
vt 0.454566 0.427663
vt 0.453581 0.416974
vt 0.545770 0.427663
vt 0.546754 0.416974
vt 0.500168 0.445293
vt 0.500168 0.470565
vt 0.452608 0.444143
vt 0.409651 0.464299
vt 0.418296 0.446898
vt 0.547728 0.444143
vt 0.500168 0.503834
vt 0.590685 0.464299
vt 0.582040 0.446898
vt 0.535576 0.493666
vt 0.593448 0.494031
vt 0.593583 0.605727
vt 0.464760 0.493666
vt 0.500168 0.607828
vt 0.406888 0.494031
vt 0.406753 0.605727
vt 0.651860 0.476901
vt 0.354424 0.464096
vt 0.612344 0.710346
vt 0.500168 0.718794
vt 0.608783 0.418062
vt 0.610881 0.396192
vt 0.665490 0.401784
vt 0.676999 0.421164
vt 0.695885 0.472612
vt 0.606711 0.384132
vt 0.643511 0.378648
vt 0.682442 0.383003
vt 0.721152 0.400518
vt 0.732970 0.436712
vt 0.755676 0.473105
vt 0.788033 0.389630
vt 0.753434 0.381970
vt 0.806732 0.482100
vt 0.845349 0.384790
vt 0.792706 0.582423
vt 0.699604 0.596943
vt 0.710717 0.674740
vt 0.848200 0.580037
vt 0.861012 0.480452
vt 0.773187 0.636459
vt 0.821108 0.651716
vt 0.914151 0.702926
vt 0.932593 0.605383
vt 0.991067 0.717895
vt 0.767009 0.721674
vt 0.940031 0.488164
vt 0.992157 0.613295
vt 1.071299 0.705402
vt 1.053082 0.606789
vt 1.178924 0.675726
vt 0.992735 0.491417
vt 0.942063 0.364847
vt 0.842312 0.282301
vt 1.157306 0.591754
vt 1.242543 0.646887
vt 1.242903 0.581476
vt 1.046034 0.488653
vt 1.149467 0.482751
vt 1.243203 0.479367
vt 1.044196 0.364343
vt 1.147482 0.363754
vt 1.243332 0.363410
vt 1.149466 0.259724
vt 1.243203 0.261739
vt 0.992873 0.364362
vt 1.157306 0.206572
vt 1.242903 0.210905
vt 1.046034 0.256326
vt 0.940031 0.257910
vt 1.178924 0.168766
vt 1.242543 0.181289
vt 1.071299 0.155704
vt 1.053082 0.200400
vt 0.991067 0.151514
vt 0.992735 0.255572
vt 0.992157 0.198604
vt 0.932593 0.202381
vt 0.914151 0.158054
vt 0.806763 0.187582
vt 0.823080 0.224451
vt 0.749992 0.210911
vt 0.759484 0.244071
vt 0.699389 0.199826
vt 0.734786 0.316226
vt 0.677710 0.255750
vt 0.613288 0.184209
vt 0.766550 0.331867
vt 0.679924 0.359548
vt 0.690496 0.398922
vt 0.661189 0.393543
vt 0.630661 0.383985
vt 0.692291 0.323546
vt 0.640803 0.350682
vt 0.591972 0.262102
vt 0.499203 0.177152
vt 0.579779 0.346179
vt 0.500431 0.264762
vt 0.386866 0.184377
vt 0.500168 0.342804
vt 0.500168 0.365072
vt 0.572735 0.365279
vt 0.596998 0.453679
vt 0.543032 0.442531
vt 0.500168 0.479554
vt 0.457303 0.442531
vt 0.409254 0.262121
vt 0.301507 0.200604
vt 0.420556 0.346179
vt 0.427601 0.365279
vt 0.403338 0.449067
vt 0.369674 0.383985
vt 0.324140 0.256107
vt 0.251634 0.212868
vt 0.359532 0.350603
vt 0.320412 0.359547
vt 0.339146 0.393543
vt 0.309997 0.398687
vt 0.281198 0.399607
vt 0.249709 0.377973
vt 0.243967 0.246674
vt 0.194470 0.190361
vt 0.308045 0.323546
vt 0.265550 0.316226
vt 0.181175 0.231325
vt 0.179955 0.302957
vt 0.086682 0.157887
vt 0.233786 0.331867
vt 0.212757 0.389748
vt 0.157189 0.391933
vt 0.068241 0.202302
vt 0.012176 0.151289
vt 0.060802 0.257861
vt 0.011087 0.198369
vt 0.058770 0.364795
vt -0.046319 0.200490
vt -0.064739 0.155762
vt -0.173555 0.168694
vt -0.151697 0.206511
vt -0.237882 0.181195
vt -0.238248 0.210807
vt -0.143770 0.259703
vt -0.238553 0.261679
vt -0.039191 0.256408
vt 0.010509 0.255377
vt 0.010374 0.364280
vt -0.141766 0.363716
vt -0.238686 0.363347
vt -0.037333 0.364322
vt -0.143776 0.482687
vt -0.238559 0.479303
vt 0.010513 0.491367
vt -0.039191 0.488603
vt -0.151707 0.591663
vt -0.238258 0.581393
vt -0.046318 0.606753
vt -0.173568 0.675598
vt -0.237896 0.646691
vt -0.064738 0.705475
vt 0.012185 0.717848
vt 0.011093 0.613246
vt 0.086680 0.702876
vt 0.068063 0.605509
vt 0.181398 0.652276
vt 0.059410 0.489494
vt 0.132895 0.594220
vt 0.233350 0.626082
vt 0.119878 0.495705
vt 0.183511 0.488090
vt 0.198215 0.582177
vt 0.269929 0.437253
vt 0.242401 0.474064
vt 0.307672 0.466957
vt 0.300653 0.593742
vt 0.336754 0.397679
vt 0.317916 0.382959
vt 0.356825 0.378648
vt 0.393624 0.384132
vt 0.327949 0.412951
vt 0.290435 0.674593
vt 0.387992 0.710346
vt 0.391620 0.417866
vt 0.389455 0.396192
vt 0.233389 0.721669
vt 0.331939 0.781900
vt 0.132164 0.783849
vt 0.014554 0.808062
vt 0.223186 0.869820
vt 0.499746 0.797417
vt -0.111852 0.788284
vt 0.667716 0.781901
vt 0.022055 0.881491
vt 0.499203 0.880493
vt 0.499211 0.994397
vt 0.775245 0.869825
vt -0.236950 0.738620
vt -0.232923 0.872502
vt 0.868672 0.783867
vt 0.981210 0.881501
vt 0.988701 0.808090
vt 1.117894 0.788197
vt 1.237630 0.872686
vt 1.241604 0.738859
vt 1.500002 0.882645
vt 1.500002 0.811859
vt 1.363998 0.790005
vt 1.500002 0.721251
vt 1.305895 0.676441
vt 1.413698 0.707486
vt 1.328621 0.592429
vt 1.433471 0.608345
vt 1.500002 0.615736
vt 1.337159 0.483021
vt 1.441309 0.489253
vt 1.500002 0.492336
vt 1.339412 0.363514
vt 1.443413 0.363877
vt 1.500002 0.363665
vt 1.337159 0.259150
vt 1.441309 0.255146
vt 1.500002 0.253681
vt 1.328621 0.206105
vt 1.305897 0.168376
vt 1.433471 0.199378
vt 1.500002 0.196850
vt 1.413697 0.154645
vt 1.500002 0.149402
vt 0.421479 0.438192
vt 0.578856 0.438192
vt 0.928003 0.477329
vt 0.943875 0.479189
vt 0.944195 0.387708
vt 0.927674 0.389576
vt 0.912139 0.477670
vt 0.911134 0.386125
vt 0.904263 0.379373
vt 0.905576 0.480013
vt 0.910278 0.573210
vt 0.915539 0.563799
vt 0.916498 0.643109
vt 0.928314 0.560407
vt 0.920013 0.633331
vt 0.941119 0.565023
vt 0.950458 0.482162
vt 0.946453 0.574941
vt 0.928574 0.629620
vt 0.924206 0.677523
vt 0.937165 0.634151
vt 0.940754 0.644270
vt 0.928745 0.675415
vt 0.933301 0.677959
vt 0.935206 0.683665
vt 0.925947 0.686930
vt 0.928821 0.695681
vt 0.928783 0.685606
vt 0.931630 0.687203
vt 0.932821 0.690785
vt 0.931657 0.694255
vt 0.951017 0.381612
vt 0.944147 0.374860
vt 0.943895 0.484505
vt 0.927606 0.371408
vt 0.928031 0.484846
vt 0.911086 0.373278
vt 0.941192 0.584352
vt 0.912159 0.482985
vt 0.928417 0.587743
vt 0.937239 0.654049
vt 0.915612 0.583128
vt 0.928679 0.657759
vt 0.933344 0.689192
vt 0.920088 0.653228
vt 0.928805 0.691300
vt 0.928821 0.695579
vt 0.924248 0.688756
vt -0.500000 0.882632
vt -0.360710 0.789777
vt -0.500004 0.811800
vt -0.301955 0.676308
vt -0.410961 0.707338
vt -0.500003 0.721187
vt -0.500001 0.615668
vt -0.430950 0.608269
vt -0.500003 0.492267
vt -0.324931 0.592335
vt -0.438878 0.489186
vt -0.500001 0.363628
vt -0.333562 0.482955
vt -0.441001 0.363841
vt -0.499999 0.253822
vt -0.335838 0.363475
vt -0.438866 0.255248
vt -0.499998 0.196979
vt -0.333556 0.259127
vt -0.430941 0.199446
vt -0.499998 0.149646
vt -0.410946 0.154680
vt -0.324920 0.206041
vt -0.301941 0.168301
vt 0.757825 0.152311
vt 0.868672 0.118389
vt 0.660554 0.123866
vt 0.988701 0.107912
vt 0.775244 0.081917
vt 0.499203 0.110618
vt 1.117894 0.116303
vt 0.981210 0.061740
vt 0.499204 0.064378
vt 0.499215 0.011010
vt 0.338526 0.124252
vt 1.241603 0.139534
vt 1.237630 0.079188
vt 1.363998 0.115457
vt 1.499998 0.059057
vt 1.500002 0.105563
vt 0.242215 0.153615
vt 0.223184 0.081864
vt 0.132163 0.118312
vt 0.022053 0.061503
vt 0.014544 0.107712
vt -0.111852 0.116258
vt -0.232915 0.079012
vt -0.236933 0.139445
vt -0.499996 0.059020
vt -0.499997 0.105813
vt -0.360692 0.115424
s 0
usemtl body
f 3/1/1 2/2/2 1/3/3
f 6/2/4 5/1/5 4/3/6
f 9/4/7 8/5/8 7/6/9
f 11/7/10 9/4/11 10/8/12
f 13/9/13 9/4/14 12/6/9
f 9/4/14 13/9/13 14/8/15
f 9/4/14 16/10/16 15/5/17
f 16/10/16 9/4/14 17/7/18
f 16/10/16 18/11/19 15/5/8
f 15/5/8 18/11/19 19/12/20
f 20/13/21 15/5/8 19/12/20
f 21/14/22 16/10/16 17/7/23
f 16/10/16 22/15/24 18/11/19
f 22/15/24 16/10/16 21/14/22
f 21/14/22 17/7/23 23/16/25
f 17/7/18 24/17/26 23/16/27
f 25/18/28 22/15/24 21/14/29
f 25/18/28 21/14/30 26/19/31
f 21/14/22 23/16/25 26/19/31
f 25/18/32 26/19/31 27/20/33
f 22/15/24 28/21/34 18/11/35
f 29/22/36 28/21/37 22/15/38
f 18/11/19 28/21/39 30/23/40
f 19/12/41 18/11/19 30/23/40
f 28/21/37 29/22/36 31/24/42
f 30/23/40 28/21/39 31/24/42
f 32/25/43 26/19/44 23/16/27
f 26/19/44 32/25/45 27/20/46
f 30/23/47 33/26/48 19/12/20
f 33/26/49 30/23/40 31/24/50
f 29/22/51 27/20/46 34/27/52
f 35/28/53 29/22/51 34/27/54
f 23/16/25 36/29/55 32/25/56
f 36/29/57 23/16/58 37/30/59
f 37/30/60 38/31/61 36/29/62
f 23/16/63 39/17/64 37/30/65
f 32/25/56 36/29/55 40/32/66
f 38/31/61 40/32/67 36/29/62
f 32/25/43 41/33/68 27/20/69
f 32/25/43 40/32/67 41/33/68
f 37/30/70 42/34/71 38/31/72
f 37/30/70 43/17/26 42/34/73
f 42/34/74 44/35/75 38/31/61
f 45/36/76 38/31/61 44/35/77
f 45/36/78 46/37/79 38/31/80
f 40/32/67 38/31/61 47/38/81
f 38/31/72 46/37/79 47/38/82
f 48/39/83 41/33/84 40/32/67
f 47/38/85 48/39/83 40/32/86
f 47/38/82 46/37/87 49/40/88
f 46/37/89 50/41/90 49/40/91
f 47/38/82 49/40/92 51/42/93
f 48/39/83 47/38/81 51/42/93
f 51/42/93 49/40/92 52/43/94
f 48/39/95 53/44/96 41/33/68
f 48/39/83 51/42/97 53/44/98
f 53/44/96 54/45/99 41/33/68
f 41/33/100 54/45/99 27/20/33
f 54/45/99 55/46/101 27/20/33
f 55/46/101 54/45/102 53/44/96
f 55/46/101 34/27/52 27/20/33
f 56/47/103 53/44/98 51/42/97
f 57/48/104 51/42/97 52/43/105
f 57/48/104 56/47/106 51/42/97
f 58/49/107 55/46/101 53/44/96
f 58/49/108 53/44/109 56/47/106
f 59/50/110 58/49/107 56/47/103
f 59/50/111 56/47/106 60/51/112
f 55/46/101 58/49/113 61/50/110
f 56/47/106 62/52/114 60/51/112
f 56/47/106 57/48/104 62/52/115
f 60/51/112 62/52/116 63/53/117
f 34/27/52 55/46/101 64/54/118
f 64/54/119 55/46/101 61/50/110
f 57/48/120 65/55/121 62/52/115
f 57/48/120 52/43/94 65/55/121
f 62/52/116 66/56/122 63/53/117
f 62/52/114 65/55/121 66/56/122
f 63/53/123 66/56/124 67/57/125
f 66/56/126 68/58/127 67/57/128
f 67/57/128 68/58/129 69/59/130
f 65/55/121 70/60/131 66/56/122
f 66/56/124 70/60/132 68/58/127
f 52/43/105 71/61/133 65/55/121
f 65/55/121 71/61/133 70/60/131
f 52/43/134 72/62/135 71/61/136
f 73/40/92 72/62/137 52/43/94
f 68/58/138 74/63/139 69/59/130
f 69/59/140 74/63/141 75/64/142
f 74/63/139 76/65/143 75/64/144
f 68/58/129 77/66/145 74/63/139
f 70/60/146 77/66/147 68/58/129
f 74/63/141 78/67/148 76/65/149
f 77/66/150 78/67/148 74/63/139
f 78/67/148 79/68/151 76/65/149
f 70/60/132 80/69/152 77/66/153
f 77/66/150 80/69/152 78/67/148
f 78/67/148 81/70/154 79/68/151
f 80/69/152 81/70/154 78/67/148
f 81/70/154 82/71/155 79/68/156
f 81/70/154 83/72/157 82/71/158
f 80/69/152 83/72/157 81/70/159
f 83/72/157 84/73/160 82/71/158
f 70/60/131 85/74/161 80/69/162
f 71/61/133 85/74/163 70/60/131
f 83/72/164 86/75/165 84/73/166
f 86/75/165 87/76/167 84/73/166
f 80/69/168 88/77/169 83/72/164
f 85/74/161 88/77/170 80/69/162
f 71/61/171 89/78/172 85/74/161
f 72/62/135 89/78/172 71/61/136
f 86/75/165 90/79/173 87/76/174
f 90/79/173 91/80/175 87/76/174
f 92/81/176 90/79/177 86/75/178
f 93/82/179 86/75/165 83/72/180
f 93/82/181 92/81/182 86/75/165
f 88/77/170 93/82/181 83/72/164
f 94/83/183 92/81/176 93/82/184
f 85/74/161 95/84/185 88/77/170
f 89/78/186 95/84/185 85/74/161
f 96/85/187 93/82/184 88/77/169
f 95/84/188 96/85/189 88/77/169
f 96/85/189 94/83/190 93/82/181
f 89/78/191 96/85/189 95/84/192
f 97/86/193 94/83/194 96/85/189
f 89/78/191 97/86/195 96/85/187
f 72/62/135 97/86/196 89/78/186
f 97/86/193 98/87/197 94/83/194
f 99/88/198 98/87/199 97/86/193
f 100/89/200 99/88/201 97/86/193
f 72/62/135 100/89/200 97/86/196
f 101/90/202 99/88/201 100/89/200
f 102/91/203 101/90/202 100/89/200
f 101/90/204 102/91/203 103/92/205
f 72/62/135 104/93/206 100/89/200
f 104/93/207 102/91/203 100/89/200
f 102/91/208 105/94/209 103/92/205
f 103/92/205 105/94/210 106/95/211
f 104/93/206 72/62/212 107/96/213
f 107/96/214 72/62/137 73/40/92
f 108/41/90 107/96/214 73/40/215
f 107/96/216 108/41/90 104/93/207
f 104/93/207 108/41/90 109/97/217
f 109/97/218 108/41/219 110/37/79
f 109/97/220 110/37/79 111/98/221
f 109/97/218 111/98/221 112/99/222
f 112/99/222 113/100/223 109/97/224
f 104/93/206 114/101/225 102/91/208
f 114/101/226 104/93/206 109/97/220
f 114/101/225 105/94/209 102/91/208
f 115/102/227 114/101/225 109/97/220
f 114/101/228 115/102/229 105/94/210
f 113/100/230 115/102/231 109/97/220
f 105/94/210 116/103/232 106/95/211
f 115/102/229 116/103/232 105/94/209
f 106/95/233 116/103/232 117/104/234
f 115/102/229 113/100/235 118/105/236
f 118/105/237 116/103/238 115/102/229
f 116/103/232 119/106/239 117/104/234
f 117/104/234 119/106/240 120/107/241
f 121/108/242 119/106/243 116/103/244
f 118/105/237 121/108/245 116/103/244
f 121/108/242 118/105/237 122/109/246
f 113/100/247 123/110/248 118/105/249
f 118/105/249 123/110/248 122/109/246
f 123/110/248 113/100/247 124/111/250
f 124/111/251 125/112/252 123/110/248
f 123/110/248 125/112/252 122/109/246
f 125/112/253 126/113/254 122/109/246
f 126/113/254 127/114/255 122/109/246
f 119/106/256 128/115/257 120/107/241
f 119/106/243 121/108/258 128/115/257
f 120/107/241 128/115/259 129/116/260
f 130/117/261 121/108/258 122/109/246
f 121/108/258 130/117/262 128/115/257
f 127/114/255 131/118/263 122/109/246
f 131/118/263 130/117/264 122/109/265
f 127/114/255 132/119/266 131/118/263
f 133/120/267 131/118/263 132/119/266
f 131/118/263 133/120/267 130/117/261
f 128/115/259 134/121/268 129/116/260
f 129/116/260 134/121/269 135/122/270
f 128/115/259 130/117/262 136/123/271
f 133/120/267 136/123/272 130/117/261
f 128/115/259 136/123/273 134/121/274
f 136/123/271 133/120/275 137/124/276
f 133/120/277 138/125/278 137/124/279
f 139/126/280 137/124/281 138/125/282
f 140/127/283 137/124/281 139/126/284
f 141/128/285 137/124/286 140/127/287
f 134/121/288 142/129/289 135/122/290
f 135/122/270 142/129/289 143/130/291
f 136/123/272 144/131/292 134/121/274
f 144/131/293 136/123/272 137/124/294
f 134/121/288 144/131/293 142/129/295
f 145/132/296 144/131/293 137/124/279
f 141/128/285 145/132/297 137/124/279
f 144/131/293 145/132/296 142/129/295
f 142/129/295 146/133/298 143/130/291
f 142/129/295 145/132/296 146/133/298
f 145/132/299 147/134/300 146/133/301
f 143/130/302 146/133/303 148/135/304
f 141/128/285 149/136/305 145/132/299
f 147/134/300 145/132/306 149/136/307
f 149/136/308 141/128/285 150/137/309
f 147/134/310 149/136/305 150/137/311
f 147/134/300 150/137/311 151/138/312
f 146/133/313 152/139/314 148/135/304
f 146/133/303 147/134/300 152/139/315
f 148/135/316 152/139/314 153/140/317
f 147/134/300 154/141/318 152/139/315
f 152/139/315 155/142/319 153/140/320
f 152/139/321 154/141/322 155/142/319
f 147/134/300 151/138/312 156/143/323
f 147/134/324 156/143/323 154/141/325
f 153/140/320 155/142/319 157/144/326
f 153/140/320 157/144/327 158/145/328
f 158/145/328 157/144/326 159/146/329
f 157/144/327 160/147/330 159/146/329
f 159/146/329 160/147/330 161/148/331
f 160/147/332 162/149/333 161/148/334
f 160/147/330 163/150/335 162/149/336
f 157/144/327 163/150/335 160/147/330
f 163/150/337 164/151/338 162/149/339
f 155/142/340 165/152/341 157/144/327
f 157/144/342 165/152/341 163/150/335
f 154/141/322 166/153/343 155/142/319
f 155/142/319 166/153/343 165/152/341
f 154/141/322 167/154/344 166/153/345
f 166/153/343 167/154/346 165/152/341
f 154/141/318 156/143/323 167/154/346
f 163/150/347 168/155/348 164/151/338
f 168/155/349 169/156/350 164/151/338
f 165/152/341 170/157/351 163/150/347
f 167/154/344 170/157/351 165/152/341
f 170/157/352 168/155/349 163/150/347
f 168/155/349 171/158/353 169/156/350
f 171/158/353 172/159/354 169/156/350
f 167/154/344 173/160/355 170/157/351
f 156/143/323 173/160/356 167/154/357
f 170/157/351 174/161/358 168/155/359
f 174/161/360 171/158/361 168/155/359
f 173/160/362 174/161/360 170/157/363
f 171/158/353 175/162/364 172/159/354
f 175/162/364 176/163/365 172/159/354
f 174/161/358 177/164/366 171/158/361
f 177/164/366 175/162/364 171/158/361
f 175/162/364 178/165/367 176/163/368
f 178/165/367 179/166/369 176/163/368
f 180/167/370 178/165/371 175/162/372
f 177/164/366 180/167/370 175/162/373
f 181/168/374 180/167/375 177/164/376
f 182/169/377 177/164/378 174/161/379
f 182/169/377 181/168/374 177/164/376
f 173/160/362 182/169/377 174/161/379
f 183/170/380 181/168/381 182/169/382
f 184/171/383 183/170/380 182/169/384
f 184/171/385 182/169/382 173/160/356
f 185/172/386 183/170/380 184/171/383
f 186/173/387 184/171/385 173/160/356
f 156/143/323 186/173/387 173/160/356
f 187/174/388 185/172/386 184/171/383
f 187/174/388 184/171/385 186/173/387
f 188/175/389 185/172/386 187/174/388
f 189/176/390 186/173/387 156/143/391
f 189/176/390 187/174/388 186/173/387
f 151/138/392 189/176/390 156/143/323
f 190/177/393 189/176/394 151/138/312
f 187/174/388 189/176/394 190/177/393
f 191/137/311 190/177/395 151/138/392
f 192/178/396 188/175/397 187/174/388
f 192/178/398 187/174/388 190/177/393
f 191/137/309 193/179/399 190/177/400
f 190/177/393 194/180/401 192/178/398
f 193/179/399 194/180/402 190/177/400
f 192/178/403 194/180/404 195/181/405
f 196/182/406 192/178/398 195/181/405
f 197/127/407 193/179/399 191/137/408
f 197/127/283 198/183/409 193/179/410
f 199/128/411 197/127/407 191/137/311
f 197/127/287 200/184/412 198/183/409
f 198/183/409 200/184/412 201/185/413
f 201/185/414 202/186/415 198/183/416
f 194/180/402 193/179/417 203/187/418
f 195/181/419 194/180/402 203/187/420
f 198/183/421 203/187/420 193/179/417
f 196/182/406 195/181/422 31/24/50
f 204/188/423 196/182/424 31/24/50
f 195/181/419 33/26/49 31/24/42
f 203/187/420 33/26/49 195/181/419
f 205/189/425 204/188/426 31/24/42
f 206/190/427 33/26/49 203/187/420
f 203/187/420 198/183/421 206/190/428
f 206/190/427 19/12/41 33/26/49
f 198/183/416 207/191/429 206/190/427
f 19/12/430 206/190/427 207/191/431
f 202/186/415 207/191/429 198/183/432
f 208/13/433 207/191/429 202/186/434
f 209/13/435 19/12/41 207/191/429
f 204/188/436 205/189/425 210/192/437
f 204/188/438 210/192/437 211/172/386
f 188/175/397 204/188/438 211/172/386
f 211/172/386 210/192/439 212/170/440
f 205/189/425 213/193/441 210/192/442
f 205/189/425 35/28/443 213/193/444
f 210/192/437 214/194/445 212/170/440
f 210/192/442 213/193/446 214/194/447
f 212/170/448 214/194/449 215/168/381
f 214/194/450 216/195/451 215/168/381
f 215/168/374 216/195/451 217/167/452
f 213/193/446 218/196/453 214/194/454
f 214/194/450 218/196/455 216/195/451
f 35/28/443 219/197/456 213/193/444
f 213/193/457 219/197/458 218/196/459
f 216/195/460 220/198/461 217/167/452
f 217/167/462 220/198/461 221/165/371
f 219/197/463 35/28/53 222/199/464
f 35/28/53 34/27/52 222/199/465
f 222/199/464 34/27/52 64/54/118
f 218/196/455 223/200/466 216/195/451
f 216/195/460 223/200/466 220/198/467
f 219/197/458 224/201/468 218/196/469
f 219/197/470 222/199/464 224/201/468
f 218/196/455 224/201/471 223/200/472
f 224/201/473 225/202/474 223/200/472
f 222/199/464 226/203/475 224/201/468
f 222/199/464 64/54/118 226/203/476
f 224/201/477 226/203/478 227/202/479
f 220/198/480 228/204/481 221/165/482
f 221/165/367 228/204/481 229/166/483
f 223/200/484 230/205/485 220/198/461
f 220/198/480 230/205/485 228/204/486
f 223/200/484 231/202/487 230/205/488
f 64/54/118 232/206/489 226/203/478
f 64/54/119 61/50/110 232/206/490
f 61/50/110 233/51/491 232/206/490
f 226/203/492 232/206/489 234/207/493
f 226/203/478 234/207/494 235/202/479
f 232/206/490 233/51/495 236/208/496
f 232/206/489 236/208/497 234/207/493
f 233/51/495 237/53/498 236/208/497
f 236/208/496 237/53/123 238/209/499
f 237/53/123 239/57/128 238/209/499
f 234/207/500 236/208/501 240/210/502
f 236/208/501 238/209/499 240/210/503
f 238/209/499 239/57/128 241/211/504
f 239/57/128 242/59/130 241/211/505
f 234/207/506 240/210/507 243/212/508
f 244/202/479 234/207/494 243/212/508
f 243/212/509 240/210/507 245/213/510
f 240/210/507 238/209/511 246/214/512
f 240/210/507 246/214/513 245/213/510
f 238/209/511 241/211/505 246/214/514
f 245/213/515 246/214/516 247/215/517
f 241/211/505 242/59/518 248/216/519
f 242/59/520 249/64/142 248/216/519
f 248/216/519 249/64/142 250/65/143
f 246/214/521 241/211/505 251/217/522
f 246/214/516 251/217/523 247/215/517
f 241/211/524 248/216/525 251/217/522
f 252/218/526 248/216/519 250/65/143
f 251/217/527 248/216/525 252/218/528
f 252/218/526 250/65/143 253/68/529
f 247/215/517 251/217/523 254/219/530
f 254/219/530 251/217/527 252/218/528
f 255/220/531 247/215/532 254/219/530
f 256/221/533 252/218/526 253/68/151
f 254/219/530 252/218/528 256/221/534
f 256/221/533 253/68/529 257/71/158
f 255/220/531 254/219/535 258/222/536
f 258/222/537 254/219/530 256/221/533
f 259/223/538 255/220/531 258/222/536
f 260/224/539 256/221/533 257/71/158
f 258/222/540 256/221/533 260/224/541
f 260/224/542 257/71/158 261/73/543
f 259/223/544 258/222/545 262/225/546
f 262/225/547 258/222/536 260/224/541
f 263/226/548 259/223/544 262/225/546
f 264/227/549 260/224/542 261/73/543
f 262/225/547 260/224/550 264/227/549
f 264/227/551 261/73/166 265/76/552
f 263/226/553 262/225/546 266/228/554
f 266/228/555 262/225/547 264/227/549
f 267/229/556 263/226/548 266/228/554
f 268/230/557 264/227/551 265/76/552
f 266/228/555 264/227/551 268/230/557
f 268/230/557 265/76/174 269/80/558
f 270/231/559 268/230/557 269/80/558
f 267/229/556 266/228/554 271/232/560
f 271/232/561 266/228/562 268/230/557
f 271/232/561 268/230/557 270/231/559
f 272/233/563 267/229/556 271/232/564
f 273/234/565 271/232/561 270/231/559
f 272/233/563 271/232/561 273/234/566
f 274/235/567 272/233/568 273/234/569
f 276/236/570 275/13/21 202/186/571
f 278/6/572 277/5/8 209/13/573
f 280/236/570 279/6/572 209/13/573
f 283/22/51 282/18/32 281/20/46
f 285/17/64 284/237/574 42/34/575
f 287/8/576 286/237/577 39/17/64
f 289/7/10 288/8/576 39/17/64
f 292/18/32 291/22/51 290/15/578
f 295/238/579 294/239/580 293/240/581
f 296/241/582 295/238/579 293/240/581
f 299/242/583 298/238/584 297/241/585
f 300/243/586 299/242/587 297/241/588
f 303/244/589 302/245/590 301/243/591
f 302/245/592 304/242/583 301/243/593
f 302/245/592 305/246/594 304/242/583
f 305/246/595 306/247/596 304/242/597
f 304/242/583 306/247/598 307/238/579
f 305/246/595 308/248/599 306/247/596
f 306/247/596 309/249/600 307/238/579
f 307/238/579 309/249/600 310/239/601
f 308/248/602 311/250/603 306/247/604
f 306/247/596 311/250/605 309/249/600
f 308/248/599 312/3/3 311/250/605
f 309/249/600 313/251/606 310/239/607
f 310/239/601 313/251/608 314/252/609
f 313/251/610 315/253/611 314/252/609
f 311/250/612 316/254/613 309/249/600
f 309/249/614 316/254/615 313/251/606
f 312/3/3 317/255/616 311/250/605
f 311/250/617 317/255/618 316/254/619
f 312/3/3 318/2/620 317/255/616
f 313/251/610 319/256/621 315/253/622
f 316/254/619 319/256/621 313/251/623
f 319/256/624 320/257/625 315/253/626
f 317/255/627 321/258/628 316/254/629
f 316/254/615 321/258/630 319/256/621
f 319/256/624 322/259/631 320/257/632
f 321/258/633 322/259/634 319/256/621
f 322/259/631 323/260/635 320/257/632
f 318/2/620 324/261/636 317/255/616
f 317/255/627 324/261/637 321/258/633
f 318/2/620 325/262/638 324/261/639
f 326/1/640 325/262/641 318/2/642
f 324/261/637 327/263/643 321/258/633
f 321/258/633 327/263/644 322/259/634
f 324/261/637 328/262/645 327/263/644
f 327/263/644 328/262/646 329/264/647
f 327/263/648 329/264/647 322/259/634
f 322/259/631 329/264/647 323/260/649
f 329/264/650 330/265/651 323/260/635
f 329/264/647 331/262/652 330/265/653
f 330/265/651 331/262/646 332/266/654
f 335/267/655 334/252/656 333/268/657
f 334/252/609 336/269/658 333/268/659
f 333/268/660 336/269/658 337/270/661
f 334/252/662 338/253/611 336/269/658
f 336/269/663 339/271/664 337/270/661
f 337/270/661 339/271/665 340/272/666
f 338/253/611 341/273/667 336/269/663
f 336/269/658 341/273/668 339/271/669
f 338/253/611 342/257/625 341/273/667
f 339/271/665 343/274/670 340/272/666
f 340/272/671 343/274/672 344/244/589
f 343/274/672 345/245/673 344/244/674
f 341/273/668 346/275/675 339/271/665
f 339/271/676 346/275/677 343/274/670
f 342/257/678 347/276/679 341/273/667
f 341/273/668 347/276/680 346/275/675
f 342/257/632 348/260/635 347/276/681
f 343/274/672 349/277/682 345/245/673
f 346/275/683 349/277/684 343/274/670
f 349/277/684 350/246/595 345/245/592
f 347/276/679 351/278/685 346/275/683
f 346/275/675 351/278/686 349/277/687
f 348/260/635 352/279/688 347/276/680
f 347/276/680 352/279/689 351/278/685
f 348/260/635 353/265/651 352/279/690
f 353/265/653 354/266/654 352/279/690
f 349/277/691 355/280/692 350/246/595
f 351/278/693 355/280/694 349/277/687
f 355/280/694 356/248/602 350/246/695
f 352/279/689 357/281/696 351/278/697
f 352/279/690 354/266/654 357/281/698
f 351/278/697 357/281/696 355/280/692
f 354/266/654 358/282/699 357/281/700
f 354/266/654 359/262/638 358/282/699
f 355/280/694 360/283/701 356/248/702
f 357/281/696 360/283/703 355/280/704
f 360/283/701 361/3/3 356/248/705
f 357/281/696 362/282/699 360/283/706
f 360/283/701 363/1/1 361/3/3
f 362/282/699 363/1/640 360/283/701
f 362/282/707 364/262/652 363/1/1
f 367/239/708 366/252/662 365/267/655
f 368/240/581 367/239/601 365/267/709
f 371/238/710 370/241/711 369/240/712
f 372/239/713 371/238/710 369/240/714
f 375/242/715 374/243/716 373/241/717
f 376/238/718 375/242/719 373/241/717
f 379/245/720 378/244/721 377/243/722
f 380/242/723 379/245/720 377/243/724
f 381/246/725 379/245/726 380/242/727
f 382/247/728 381/246/729 380/242/723
f 382/247/730 380/242/727 383/238/710
f 384/248/731 381/246/729 382/247/728
f 385/249/732 382/247/728 383/238/710
f 385/249/732 383/238/710 386/239/713
f 387/250/733 384/248/734 382/247/735
f 387/250/736 382/247/737 385/249/732
f 388/3/6 384/248/731 387/250/736
f 389/251/738 385/249/732 386/239/739
f 389/251/740 386/239/713 390/252/741
f 391/253/742 389/251/743 390/252/741
f 392/254/744 387/250/745 385/249/732
f 392/254/746 385/249/732 389/251/738
f 393/255/747 388/3/6 387/250/736
f 393/255/748 387/250/749 392/254/750
f 394/2/751 388/3/6 393/255/752
f 395/256/753 389/251/740 391/253/754
f 395/256/753 392/254/750 389/251/738
f 396/257/755 395/256/753 391/253/742
f 397/258/756 393/255/757 392/254/758
f 397/258/759 392/254/750 395/256/753
f 398/259/760 395/256/761 396/257/762
f 398/259/760 397/258/756 395/256/763
f 399/260/764 398/259/765 396/257/762
f 400/261/766 394/2/751 393/255/752
f 400/261/767 393/255/752 397/258/756
f 401/262/768 394/2/751 400/261/769
f 401/262/770 402/1/5 394/2/751
f 403/263/771 400/261/767 397/258/756
f 403/263/772 397/258/756 398/259/760
f 404/262/770 400/261/767 403/263/771
f 404/262/773 403/263/774 405/264/775
f 405/264/775 403/263/776 398/259/765
f 405/264/775 398/259/765 399/260/764
f 406/265/777 405/264/778 399/260/764
f 407/262/773 405/264/775 406/265/779
f 407/262/780 406/265/777 408/266/781
f 411/252/782 410/267/783 409/268/784
f 412/269/785 411/252/741 409/268/784
f 412/269/786 409/268/787 413/270/788
f 414/253/742 411/252/741 412/269/785
f 415/271/789 412/269/786 413/270/788
f 415/271/790 413/270/788 416/272/791
f 417/273/792 414/253/742 412/269/786
f 417/273/792 412/269/786 415/271/789
f 418/257/762 414/253/742 417/273/793
f 419/274/794 415/271/789 416/272/791
f 419/274/795 416/272/796 420/244/721
f 421/245/726 419/274/797 420/244/721
f 422/275/798 417/273/792 415/271/790
f 422/275/799 415/271/800 419/274/794
f 423/276/801 418/257/802 417/273/803
f 423/276/801 417/273/793 422/275/799
f 424/260/764 418/257/762 423/276/804
f 425/277/805 419/274/806 421/245/807
f 425/277/808 422/275/798 419/274/794
f 426/246/729 425/277/808 421/245/726
f 427/278/809 423/276/801 422/275/810
f 427/278/809 422/275/799 425/277/805
f 428/279/811 424/260/764 423/276/812
f 428/279/813 423/276/812 427/278/814
f 429/265/777 424/260/764 428/279/815
f 430/266/781 429/265/777 428/279/811
f 431/280/816 425/277/805 426/246/729
f 431/280/817 427/278/818 425/277/819
f 432/248/734 431/280/816 426/246/820
f 433/281/821 428/279/813 427/278/814
f 430/266/781 428/279/811 433/281/822
f 433/281/823 427/278/818 431/280/817
f 434/282/824 430/266/825 433/281/821
f 435/262/780 430/266/826 434/282/824
f 436/283/827 431/280/817 432/248/828
f 436/283/827 433/281/822 431/280/816
f 437/3/6 436/283/829 432/248/830
f 438/282/824 433/281/822 436/283/831
f 439/1/5 436/283/831 437/3/6
f 439/1/832 438/282/824 436/283/831
f 440/262/780 438/282/824 439/1/5
f 443/239/713 442/240/714 441/267/833
f 444/252/741 443/239/834 441/267/783
f 447/22/36 446/28/443 445/189/425
f 448/24/42 447/22/36 445/189/425
f 451/188/835 450/175/389 449/178/398
f 452/182/406 451/188/438 449/178/403
f 454/202/474 453/284/836 230/205/488
f 230/205/488 453/284/837 455/285/838
f 230/205/485 455/285/838 228/204/486
f 453/284/837 456/286/839 455/285/838
f 228/204/481 455/285/838 457/287/840
f 228/204/481 457/287/841 229/166/483
f 455/285/838 456/286/842 458/288/843
f 455/285/838 458/288/844 457/287/841
f 456/286/842 459/289/532 458/288/843
f 458/288/843 459/289/532 460/290/531
f 461/291/845 458/288/843 460/290/531
f 457/287/841 458/288/843 461/291/846
f 461/291/845 460/290/531 462/292/538
f 229/166/847 457/287/841 463/293/848
f 463/293/849 457/287/841 461/291/846
f 464/163/368 229/166/847 463/293/848
f 465/294/850 461/291/845 462/292/538
f 463/293/849 461/291/846 465/294/850
f 465/294/851 462/292/852 466/295/853
f 464/163/368 463/293/854 467/296/855
f 467/296/856 463/293/849 465/294/857
f 468/159/354 464/163/365 467/296/855
f 469/297/858 465/294/851 466/295/853
f 467/296/859 465/294/860 469/297/858
f 469/297/858 466/295/853 470/298/556
f 468/159/354 467/296/855 471/299/861
f 471/299/862 467/296/859 469/297/858
f 472/156/350 468/159/354 471/299/861
f 473/300/863 469/297/858 470/298/864
f 471/299/862 469/297/865 473/300/866
f 473/300/863 470/298/867 474/301/563
f 472/156/350 471/299/868 475/302/869
f 475/302/869 471/299/868 473/300/866
f 476/151/870 472/156/871 475/302/869
f 477/303/872 473/300/863 474/301/563
f 475/302/873 473/300/874 477/303/875
f 477/303/876 474/301/568 478/304/877
f 479/305/878 477/303/876 478/304/567
f 476/151/879 475/302/873 480/306/880
f 480/306/880 475/302/873 477/303/881
f 480/306/882 477/303/883 479/305/884
f 481/149/336 476/151/879 480/306/882
f 482/307/885 480/306/880 479/305/884
f 481/149/336 480/306/882 482/307/886
f 483/148/334 481/149/333 482/307/886
f 486/90/202 485/92/205 484/88/887
f 485/92/888 487/308/889 484/88/887
f 484/88/198 487/308/890 488/87/197
f 485/92/205 489/95/891 487/308/889
f 487/308/890 490/309/892 488/87/197
f 488/87/197 490/309/892 491/83/194
f 489/95/891 492/310/893 487/308/889
f 487/308/890 492/310/893 490/309/894
f 489/95/895 493/104/896 492/310/893
f 490/309/894 494/311/897 491/83/194
f 491/83/190 494/311/898 495/81/899
f 492/310/893 496/312/900 490/309/894
f 490/309/894 496/312/900 494/311/897
f 493/104/896 497/313/901 492/310/893
f 492/310/902 497/313/901 496/312/903
f 493/104/896 498/107/904 497/313/901
f 494/311/905 499/314/906 495/81/907
f 495/81/899 499/314/908 500/79/909
f 496/312/910 501/315/911 494/311/897
f 494/311/897 501/315/911 499/314/912
f 497/313/901 502/316/913 496/312/900
f 496/312/914 502/316/915 501/315/916
f 502/316/915 503/317/917 501/315/911
f 498/107/904 504/318/918 497/313/919
f 497/313/901 504/318/918 502/316/913
f 498/107/920 505/116/921 504/318/922
f 499/314/908 506/319/923 500/79/909
f 500/79/173 506/319/924 507/80/175
f 506/319/924 508/231/925 507/80/175
f 501/315/911 509/320/926 499/314/912
f 499/314/908 509/320/927 506/319/923
f 501/315/911 510/317/928 509/320/926
f 506/319/924 511/321/929 508/231/925
f 509/320/930 511/321/929 506/319/923
f 511/321/931 512/234/932 508/231/925
f 509/320/933 513/322/934 511/321/935
f 514/317/928 513/322/936 509/320/926
f 513/322/934 515/323/937 511/321/935
f 511/321/938 515/323/937 512/234/939
f 515/323/940 516/235/941 512/234/939
f 505/116/921 518/122/290 517/324/942
f 505/116/921 517/324/943 504/318/944
f 518/122/290 519/130/291 517/324/943
f 504/318/944 517/324/945 520/325/946
f 504/318/944 520/325/946 502/316/915
f 502/316/915 520/325/947 521/317/928
f 517/324/945 519/130/302 522/326/948
f 517/324/945 522/326/949 520/325/946
f 519/130/302 523/135/950 522/326/948
f 520/325/946 522/326/949 524/327/951
f 520/325/947 524/327/952 525/317/928
f 522/326/948 523/135/950 526/328/953
f 522/326/949 526/328/954 524/327/952
f 523/135/950 527/140/955 526/328/954
f 526/328/954 527/140/956 528/329/957
f 527/140/320 529/145/328 528/329/958
f 524/327/951 526/328/954 530/330/959
f 526/328/954 528/329/958 530/330/960
f 528/329/958 529/145/328 531/331/961
f 529/145/328 532/146/329 531/331/961
f 524/327/952 530/330/962 533/332/936
f 534/317/928 524/327/963 533/332/936
f 533/332/936 530/330/964 535/333/937
f 530/330/965 528/329/957 536/334/966
f 530/330/962 536/334/967 535/333/937
f 528/329/958 531/331/961 536/334/966
f 535/333/968 536/334/969 537/304/941
f 536/334/969 538/305/878 537/304/970
f 536/334/971 531/331/961 538/305/972
f 531/331/961 539/307/886 538/305/972
f 531/331/973 532/146/329 539/307/886
f 532/146/329 540/148/331 539/307/886
