# Blender 4.1.0
# www.blender.org
mtllib slime_DLC_saber_LOD0.mtl
o slime_DLC_saber_LOD0
v -0.226583 0.342123 0.445016
v -0.231226 0.319649 0.464193
v -0.198472 0.266944 0.463151
v 0.226583 0.342123 0.445016
v 0.198472 0.266944 0.463151
v 0.231226 0.319649 0.464193
v 0.625433 0.407912 -0.103546
v 0.495626 0.244806 -0.029024
v 0.536293 0.389453 0.074340
v 0.508542 0.526083 0.121102
v 0.424098 0.372007 0.289947
v 0.442492 0.507782 0.283518
v 0.386591 0.512981 0.352769
v 0.453182 0.655258 0.133214
v 0.414030 0.626980 0.252281
v 0.549778 0.541946 -0.060644
v 0.625433 0.407912 -0.103546
v 0.445848 0.250569 0.121787
v 0.495626 0.244806 -0.029024
v 0.474317 0.678311 -0.003258
v 0.405394 0.750187 0.127967
v 0.421536 0.764608 -0.000000
v 0.357562 0.141835 -0.000000
v 0.428017 0.253005 -0.160227
v 0.531195 0.389212 -0.191726
v 0.339663 0.158541 0.127222
v 0.310091 0.189909 0.227706
v 0.339181 0.158898 -0.125898
v 0.378263 0.263564 0.256036
v 0.282438 0.217562 0.286167
v 0.306556 0.277617 0.311614
v 0.223977 0.189909 0.313821
v 0.364789 0.267553 -0.264498
v 0.310926 0.189272 -0.227323
v 0.231264 0.268941 0.367238
v 0.124414 0.163850 0.339879
v 0.327077 0.377045 0.336719
v 0.305523 0.277618 -0.323149
v 0.282284 0.217562 -0.283523
v 0.327432 0.376915 -0.366209
v 0.394706 0.379171 -0.313993
v 0.343116 0.500000 -0.355509
v 0.418879 0.513370 -0.283058
v 0.332991 0.623245 -0.332990
v 0.498533 0.516411 -0.161204
v 0.402485 0.629798 -0.246643
v 0.307884 0.722383 -0.307884
v 0.363509 0.732700 -0.232700
v 0.282438 0.782438 -0.282438
v 0.310091 0.810092 -0.223977
v 0.451654 0.655895 -0.133796
v 0.405394 0.750588 -0.127966
v 0.336150 0.836150 -0.124414
v 0.625433 0.407912 -0.103546
v 0.495626 0.244806 -0.029024
v 0.349247 0.849247 -0.000000
v 0.336150 0.836150 0.124414
v 0.363509 0.732700 0.236284
v 0.310092 0.810092 0.227672
v 0.321414 0.725072 0.299004
v 0.282438 0.782438 0.286167
v 0.368843 0.606385 0.326483
v 0.326006 0.599028 0.381514
v 0.223977 0.810092 0.313820
v 0.232503 0.863201 0.236233
v 0.310092 0.810092 0.227672
v 0.247360 0.904753 0.127764
v 0.336150 0.836150 0.124414
v 0.254486 0.921536 -0.000000
v 0.349247 0.849247 -0.000000
v 0.247360 0.904753 -0.127764
v 0.336150 0.836150 -0.124414
v 0.232503 0.863201 -0.232503
v 0.310091 0.810092 -0.223977
v 0.223977 0.810092 -0.310092
v 0.282438 0.782438 -0.282438
v 0.307884 0.722383 -0.307884
v 0.232700 0.732700 -0.363509
v 0.332991 0.623245 -0.332990
v 0.124414 0.836150 -0.336150
v 0.127764 0.904753 -0.247360
v 0.133654 0.953687 -0.133654
v 0.136851 0.973523 -0.000000
v 0.245842 0.626980 -0.402269
v 0.343116 0.500000 -0.355509
v 0.127966 0.747753 -0.405394
v 0.000000 0.849247 -0.349247
v 0.000000 0.921536 -0.254486
v 0.000000 0.973523 -0.136851
v 0.000000 0.987852 -0.000000
v 0.000000 0.754486 -0.421536
v 0.133654 0.953687 0.133655
v 0.000000 0.987852 -0.000000
v 0.133505 0.633505 -0.453181
v 0.000000 0.636851 -0.473523
v 0.127764 0.904753 0.251089
v 0.252778 0.500000 -0.418706
v 0.327432 0.376915 -0.366209
v 0.136495 0.500000 -0.472291
v -0.000000 0.500000 -0.487852
v 0.245842 0.373020 -0.402269
v 0.305523 0.277618 -0.323149
v 0.133505 0.366495 -0.453181
v -0.000000 0.363149 -0.473523
v 0.232700 0.267300 -0.363509
v 0.282284 0.217562 -0.283523
v 0.223977 0.189908 -0.310091
v 0.127966 0.252248 -0.405394
v -0.000000 0.245514 -0.421536
v 0.124414 0.163850 -0.336150
v -0.000000 0.150753 -0.349247
v -0.495626 0.244807 -0.029024
v -0.625433 0.407912 -0.103546
v -0.536525 0.389587 0.073777
v -0.508552 0.526134 0.120975
v -0.424098 0.372007 0.289947
v -0.549778 0.541946 -0.060644
v -0.625433 0.407912 -0.103546
v -0.445848 0.250569 0.121787
v -0.495626 0.244807 -0.029024
v -0.357563 0.141835 -0.000000
v -0.428179 0.252003 -0.158782
v -0.529273 0.388642 -0.191489
v -0.339125 0.158746 -0.125663
v -0.339663 0.158542 0.127222
v -0.310935 0.188697 -0.226785
v -0.378263 0.263565 0.256036
v -0.310091 0.189909 0.227706
v -0.364537 0.267753 -0.263815
v -0.282284 0.217562 -0.283523
v -0.305523 0.277618 -0.323149
v -0.394706 0.379171 -0.313993
v -0.327432 0.376915 -0.366209
v -0.306556 0.277617 0.311613
v -0.282438 0.217562 0.286167
v -0.416230 0.510701 -0.282176
v -0.343116 0.500000 -0.355509
v -0.327077 0.377045 0.336719
v -0.231264 0.268941 0.367237
v -0.223977 0.189909 0.313820
v -0.505666 0.508329 -0.168318
v -0.401898 0.629714 -0.247074
v -0.332991 0.623245 -0.332990
v -0.238692 0.379699 0.405885
v -0.127905 0.253859 0.409123
v -0.124414 0.163850 0.339879
v -0.451667 0.655879 -0.133850
v -0.363509 0.732700 -0.232700
v -0.307885 0.722383 -0.307884
v -0.310091 0.810092 -0.223977
v -0.282438 0.782438 -0.282438
v -0.336150 0.836150 -0.124414
v -0.405394 0.750588 -0.127966
v -0.349247 0.849247 -0.000000
v -0.421536 0.764608 -0.000000
v -0.336150 0.836150 0.124414
v -0.474316 0.678311 -0.003258
v -0.405394 0.750187 0.127966
v -0.310091 0.810091 0.227672
v -0.363508 0.732700 0.236284
v -0.282438 0.782438 0.286167
v -0.625433 0.407912 -0.103546
v -0.495626 0.244807 -0.029024
v -0.453181 0.655258 0.133214
v -0.414030 0.626980 0.252281
v -0.442492 0.507782 0.283518
v -0.368843 0.606385 0.326483
v -0.321414 0.725072 0.299004
v -0.386591 0.512981 0.352769
v -0.223977 0.810092 0.313820
v -0.310091 0.810091 0.227672
v -0.358639 0.451448 0.371423
v -0.326006 0.599028 0.381514
v -0.232503 0.863201 0.236232
v -0.336150 0.836150 0.124414
v -0.307902 0.442422 0.396068
v -0.282573 0.472944 0.415755
v -0.343713 0.479115 0.396924
v -0.320110 0.557185 0.415625
v -0.248802 0.592213 0.473983
v -0.246212 0.648770 0.437561
v -0.324063 0.511986 0.428801
v -0.291039 0.522577 0.454342
v -0.183236 0.382715 0.431961
v -0.271596 0.495041 0.451816
v -0.249859 0.537768 0.485477
v -0.240820 0.517361 0.484508
v -0.172016 0.544102 0.496636
v -0.189419 0.558784 0.505925
v -0.140273 0.574506 0.511972
v -0.130742 0.553005 0.481524
v -0.070519 0.585695 0.485402
v -0.154009 0.622659 0.505275
v -0.075251 0.604748 0.509417
v -0.131252 0.373490 0.456756
v -0.130742 0.553005 0.481524
v -0.000000 0.500000 0.491581
v -0.070519 0.585695 0.485402
v -0.000000 0.630117 0.488833
v 0.070519 0.585695 0.485402
v 0.130742 0.553005 0.481524
v -0.000000 0.363150 0.477252
v 0.131252 0.373490 0.456756
v 0.183236 0.382715 0.431962
v -0.000000 0.245515 0.425265
v -0.000000 0.150753 0.352976
v 0.127905 0.253859 0.409123
v 0.238692 0.379699 0.405885
v 0.282573 0.472944 0.415755
v 0.307902 0.442422 0.396068
v 0.238692 0.379699 0.405885
v 0.358639 0.451447 0.371423
v 0.343713 0.479115 0.396924
v 0.320110 0.557185 0.415625
v 0.248802 0.592213 0.473983
v 0.324063 0.511986 0.428801
v 0.291039 0.522577 0.454342
v 0.271596 0.495041 0.451816
v 0.249859 0.537768 0.485477
v 0.240820 0.517361 0.484508
v 0.172016 0.544102 0.496636
v 0.189419 0.558784 0.505925
v 0.140273 0.574506 0.511972
v 0.130742 0.553005 0.481524
v 0.070519 0.585695 0.485402
v 0.154009 0.622659 0.505275
v 0.246212 0.648770 0.437561
v 0.075251 0.604748 0.509417
v 0.187900 0.673884 0.465098
v 0.128107 0.764210 0.416489
v 0.238741 0.734253 0.375561
v 0.144845 0.688969 0.469590
v 0.082593 0.641702 0.511905
v 0.000000 0.646641 0.500127
v -0.000000 0.630117 0.488833
v 0.000000 0.674146 0.508296
v 0.069495 0.705356 0.474637
v 0.000000 0.776837 0.432434
v 0.124414 0.836150 0.339879
v 0.000000 0.715082 0.482158
v -0.082593 0.641702 0.511905
v -0.069495 0.705356 0.474637
v -0.128107 0.764210 0.416489
v -0.144845 0.688969 0.469590
v -0.187900 0.673884 0.465098
v -0.238741 0.734253 0.375561
v -0.124414 0.836150 0.339879
v -0.000000 0.849247 0.352976
v -0.127764 0.904752 0.251089
v -0.000000 0.921536 0.258215
v -0.247360 0.904753 0.127764
v -0.349247 0.849247 -0.000000
v -0.133654 0.953687 0.133655
v 0.000000 0.973523 0.136851
v 0.000000 0.987852 -0.000000
v -0.254486 0.921536 -0.000000
v -0.336150 0.836150 -0.124414
v -0.136851 0.973523 -0.000000
v 0.000000 0.987852 -0.000000
v -0.247360 0.904753 -0.127764
v -0.310091 0.810092 -0.223977
v -0.133654 0.953687 -0.133654
v 0.000000 0.987852 -0.000000
v -0.232504 0.863201 -0.232503
v -0.282438 0.782438 -0.282438
v -0.127764 0.904753 -0.247360
v -0.223977 0.810092 -0.310091
v 0.000000 0.973523 -0.136851
v 0.000000 0.987852 -0.000000
v 0.000000 0.921536 -0.254486
v -0.124414 0.836150 -0.336150
v 0.000000 0.849247 -0.349247
v 0.000000 0.754486 -0.421536
v -0.127967 0.747753 -0.405394
v 0.000000 0.636851 -0.473523
v -0.232700 0.732700 -0.363509
v -0.307885 0.722383 -0.307884
v -0.133505 0.633505 -0.453181
v -0.000000 0.500000 -0.487852
v -0.245842 0.626980 -0.402269
v -0.332991 0.623245 -0.332990
v -0.136495 0.500000 -0.472291
v -0.000000 0.363149 -0.473523
v -0.252778 0.500000 -0.418706
v -0.343116 0.500000 -0.355509
v -0.133506 0.366495 -0.453181
v -0.000000 0.245514 -0.421536
v -0.245842 0.373020 -0.402269
v -0.327432 0.376915 -0.366209
v -0.127967 0.252248 -0.405394
v -0.000000 0.150753 -0.349247
v -0.124414 0.163850 -0.336150
v -0.232700 0.267300 -0.363508
v -0.305523 0.277618 -0.323149
v -0.223977 0.189909 -0.310091
v -0.282284 0.217562 -0.283523
v -0.282573 0.472944 0.415755
v -0.250639 0.397161 0.432175
v -0.183236 0.382715 0.431961
v -0.181680 0.345031 0.444509
v -0.226583 0.342123 0.445016
v -0.181040 0.285223 0.457157
v -0.198472 0.266944 0.463151
v -0.181961 0.237693 0.464111
v -0.250766 0.354233 0.457989
v -0.231226 0.319649 0.464193
v -0.269565 0.405521 0.444321
v -0.282573 0.472944 0.415755
v -0.231624 0.316866 0.484929
v -0.198472 0.266944 0.463151
v -0.247664 0.359061 0.485280
v -0.262003 0.421118 0.479505
v -0.229478 0.440226 0.511181
v -0.282573 0.472944 0.415755
v -0.271596 0.495041 0.451816
v -0.240820 0.517361 0.484508
v -0.172016 0.544102 0.496636
v -0.168205 0.456506 0.513615
v -0.130742 0.553005 0.481524
v -0.204756 0.314547 0.506034
v -0.191753 0.267239 0.484933
v -0.176825 0.319925 0.507348
v -0.218088 0.365077 0.516297
v -0.171252 0.369979 0.516567
v -0.147644 0.371625 0.496913
v -0.157990 0.325962 0.491679
v -0.171374 0.271283 0.474895
v -0.140030 0.450656 0.497540
v -0.130742 0.553005 0.481524
v -0.152738 0.353652 0.475078
v -0.181040 0.285223 0.457157
v -0.171374 0.271283 0.474895
v -0.181680 0.345031 0.444509
v -0.183236 0.382715 0.431961
v -0.142466 0.436111 0.480310
v -0.130742 0.553005 0.481524
v -0.171374 0.271283 0.474895
v -0.191753 0.267239 0.484933
v -0.181961 0.237693 0.464111
v -0.191753 0.267239 0.484933
v -0.181961 0.237693 0.464111
v -0.198472 0.266944 0.463151
v 0.282573 0.472944 0.415755
v 0.183236 0.382715 0.431962
v 0.250639 0.397161 0.432175
v 0.181680 0.345031 0.444509
v 0.226583 0.342123 0.445016
v 0.181040 0.285223 0.457157
v 0.198472 0.266944 0.463151
v 0.181961 0.237693 0.464111
v 0.250766 0.354233 0.457989
v 0.231226 0.319649 0.464193
v 0.269565 0.405521 0.444321
v 0.282573 0.472944 0.415755
v 0.231624 0.316866 0.484929
v 0.198472 0.266944 0.463151
v 0.247664 0.359061 0.485280
v 0.262003 0.421118 0.479505
v 0.229478 0.440226 0.511181
v 0.282573 0.472944 0.415755
v 0.271596 0.495041 0.451816
v 0.240820 0.517361 0.484508
v 0.172016 0.544102 0.496636
v 0.168205 0.456506 0.513615
v 0.130742 0.553005 0.481524
v 0.204756 0.314547 0.506034
v 0.191753 0.267239 0.484933
v 0.176825 0.319925 0.507348
v 0.218088 0.365077 0.516297
v 0.171252 0.369979 0.516567
v 0.147644 0.371625 0.496913
v 0.157990 0.325962 0.491679
v 0.171374 0.271283 0.474895
v 0.140030 0.450656 0.497540
v 0.130742 0.553005 0.481524
v 0.152738 0.353652 0.475078
v 0.181040 0.285223 0.457157
v 0.171374 0.271283 0.474895
v 0.181680 0.345031 0.444509
v 0.183236 0.382715 0.431962
v 0.142466 0.436111 0.480310
v 0.130742 0.553005 0.481524
v 0.191753 0.267239 0.484933
v 0.171374 0.271283 0.474895
v 0.181961 0.237693 0.464111
v 0.191753 0.267239 0.484933
v 0.198472 0.266944 0.463151
v 0.181961 0.237693 0.464111
v 0.124414 0.163850 -0.336150
v -0.000000 0.150753 -0.349247
v -0.000000 0.078464 -0.254486
v 0.127764 0.095247 -0.247360
v 0.223977 0.189908 -0.310091
v -0.000000 0.026477 -0.136851
v 0.232503 0.136799 -0.232503
v 0.282284 0.217562 -0.283523
v 0.310926 0.189272 -0.227323
v 0.133654 0.046313 -0.133654
v -0.000000 0.012148 -0.000000
v 0.247360 0.095247 -0.127764
v 0.339181 0.158898 -0.125898
v 0.136851 0.026477 -0.000000
v -0.000000 0.012148 -0.000000
v 0.254486 0.078464 -0.000000
v 0.357562 0.141835 -0.000000
v 0.247360 0.095248 0.127764
v 0.339663 0.158541 0.127222
v 0.133654 0.046313 0.133655
v 0.232503 0.136799 0.236233
v 0.310091 0.189909 0.227706
v 0.223977 0.189909 0.313821
v 0.282438 0.217562 0.286167
v 0.124414 0.163850 0.339879
v 0.127764 0.095248 0.251089
v -0.000000 0.150753 0.352976
v -0.000000 0.078464 0.258214
v -0.124414 0.163850 0.339879
v -0.000000 0.026477 0.136851
v -0.000000 0.012148 -0.000000
v -0.127764 0.095248 0.251089
v -0.223977 0.189909 0.313820
v -0.133654 0.046313 0.133655
v -0.000000 0.012148 -0.000000
v -0.232504 0.136799 0.236232
v -0.282438 0.217562 0.286167
v -0.310091 0.189909 0.227706
v -0.247360 0.095248 0.127764
v -0.339663 0.158542 0.127222
v -0.136851 0.026477 -0.000000
v -0.000000 0.012148 -0.000000
v -0.254486 0.078464 -0.000000
v -0.357563 0.141835 -0.000000
v -0.247360 0.095248 -0.127764
v -0.339125 0.158746 -0.125663
v -0.133654 0.046313 -0.133654
v -0.232504 0.136799 -0.232503
v -0.310935 0.188697 -0.226785
v -0.000000 0.026477 -0.136851
v -0.000000 0.012148 -0.000000
v -0.000000 0.078464 -0.254486
v -0.127764 0.095247 -0.247360
v -0.000000 0.150753 -0.349247
v -0.124414 0.163850 -0.336150
v -0.223977 0.189909 -0.310091
v -0.282284 0.217562 -0.283523
vn -0.6958 -0.5214 -0.4940
vn -0.7332 -0.5048 -0.4556
vn -0.1963 -0.3161 -0.9282
vn 0.7332 -0.5048 -0.4556
vn 0.6958 -0.5214 -0.4940
vn 0.1963 -0.3162 -0.9282
vn 0.9031 -0.1753 0.3920
vn 0.7333 -0.6799 -0.0061
vn 0.9864 -0.1102 -0.1217
vn 0.7633 -0.2861 0.5792
vn 0.9031 -0.1752 0.3920
vn 0.9175 0.2023 0.3425
vn 0.8751 0.1493 0.4602
vn 0.7704 0.1558 0.6183
vn 0.8751 0.1494 0.4603
vn 0.9175 0.2024 0.3425
vn 0.8645 0.3978 0.3073
vn 0.8751 0.1495 0.4603
vn 0.8180 0.3690 0.4413
vn 0.8180 0.3691 0.4412
vn 0.8979 0.4394 -0.0263
vn 0.9864 -0.1103 -0.1217
vn 0.7633 -0.2862 0.5792
vn 0.7417 -0.5771 0.3418
vn 0.7333 -0.6798 -0.0061
vn 0.8879 0.4596 0.0167
vn 0.8879 0.4596 0.0168
vn 0.8028 0.5338 0.2658
vn 0.8879 0.4597 0.0168
vn 0.8226 0.5686 0.0018
vn 0.8028 0.5338 0.2657
vn 0.7416 -0.5772 0.3418
vn 0.5809 -0.8140 -0.0014
vn 0.7333 -0.6799 -0.0062
vn 0.5809 -0.8140 -0.0015
vn 0.6274 -0.6528 -0.4246
vn 0.6274 -0.6527 -0.4246
vn 0.7060 -0.2222 -0.6724
vn 0.5833 -0.7609 0.2843
vn 0.5648 -0.6987 0.4391
vn 0.5833 -0.7608 0.2844
vn 0.5876 -0.7585 -0.2818
vn 0.6274 -0.6528 -0.4245
vn 0.6098 -0.5599 0.5609
vn 0.5647 -0.6987 0.4391
vn 0.5251 -0.5874 0.6158
vn 0.6098 -0.5599 0.5610
vn 0.6099 -0.5598 0.5609
vn 0.5222 -0.4141 0.7455
vn 0.5251 -0.5873 0.6159
vn 0.6098 -0.5598 0.5610
vn 0.5222 -0.4142 0.7455
vn 0.4236 -0.6360 0.6450
vn 0.5876 -0.7585 -0.2819
vn 0.6267 -0.5573 -0.5447
vn 0.5622 -0.6958 -0.4470
vn 0.6267 -0.5572 -0.5447
vn 0.4789 -0.4299 0.7654
vn 0.2361 -0.6858 0.6884
vn 0.4960 -0.3843 0.7787
vn 0.5222 -0.4141 0.7456
vn 0.4960 -0.3843 0.7786
vn 0.6267 -0.5572 -0.5448
vn 0.5621 -0.6958 -0.4471
vn 0.5120 -0.4822 -0.7109
vn 0.5097 -0.6162 -0.6004
vn 0.5549 -0.2029 -0.8068
vn 0.6752 -0.2087 -0.7075
vn 0.5550 -0.2029 -0.8067
vn 0.6752 -0.2086 -0.7075
vn 0.5550 -0.2028 -0.8068
vn 0.6211 0.0930 -0.7782
vn 0.7060 -0.2223 -0.6724
vn 0.7721 0.1711 -0.6120
vn 0.7721 0.1711 -0.6121
vn 0.6562 0.2644 -0.7068
vn 0.7908 0.3282 -0.5166
vn 0.6753 -0.2086 -0.7075
vn 0.7721 0.1710 -0.6120
vn 0.7908 0.3282 -0.5167
vn 0.7060 -0.2223 -0.6725
vn 0.7790 0.3272 -0.5348
vn 0.6562 0.2644 -0.7067
vn 0.7791 0.3271 -0.5348
vn 0.7790 0.3272 -0.5349
vn 0.6456 0.4003 -0.6503
vn 0.7547 0.4511 -0.4765
vn 0.7791 0.3272 -0.5348
vn 0.6456 0.4004 -0.6503
vn 0.5835 0.5649 -0.5835
vn 0.6376 0.6426 -0.4249
vn 0.7546 0.4511 -0.4764
vn 0.8544 0.3876 -0.3462
vn 0.7547 0.4511 -0.4764
vn 0.8544 0.3876 -0.3461
vn 0.7908 0.3283 -0.5166
vn 0.8034 0.5259 -0.2793
vn 0.6748 0.6974 -0.2414
vn 0.8034 0.5259 -0.2792
vn 0.8880 0.4596 0.0167
vn 0.8879 0.4597 0.0167
vn 0.9864 -0.1103 -0.1216
vn 0.7060 -0.2222 -0.6725
vn 0.6917 0.7221 0.0003
vn 0.8027 0.5339 0.2657
vn 0.6917 0.7222 0.0004
vn 0.6759 0.6974 0.2383
vn 0.7550 0.4888 0.4370
vn 0.6401 0.6494 0.4105
vn 0.7551 0.4888 0.4370
vn 0.6680 0.4744 0.5733
vn 0.6401 0.6494 0.4106
vn 0.5862 0.5888 0.5565
vn 0.6680 0.4744 0.5734
vn 0.8027 0.5338 0.2657
vn 0.8180 0.3691 0.4413
vn 0.7551 0.4887 0.4371
vn 0.7345 0.3661 0.5714
vn 0.6680 0.4743 0.5734
vn 0.6827 0.4166 0.6003
vn 0.7703 0.1558 0.6183
vn 0.5862 0.5888 0.5566
vn 0.4344 0.6735 0.5980
vn 0.4344 0.6736 0.5980
vn 0.4513 0.7752 0.4421
vn 0.6400 0.6495 0.4106
vn 0.4512 0.7752 0.4421
vn 0.4512 0.7752 0.4420
vn 0.6400 0.6495 0.4105
vn 0.4876 0.8387 0.2425
vn 0.6759 0.6974 0.2382
vn 0.5028 0.8644 -0.0000
vn 0.6917 0.7222 0.0003
vn 0.4874 0.8379 -0.2458
vn 0.6748 0.6974 -0.2415
vn 0.4498 0.7716 -0.4498
vn 0.4227 0.6410 -0.6407
vn 0.4641 0.4377 -0.7701
vn 0.6456 0.4003 -0.6504
vn 0.6561 0.2644 -0.7068
vn 0.4226 0.6410 -0.6407
vn 0.2344 0.6889 -0.6859
vn 0.4640 0.4377 -0.7701
vn 0.2458 0.8379 -0.4874
vn 0.2569 0.9317 -0.2569
vn 0.2570 0.9316 -0.2569
vn 0.4876 0.8388 0.2425
vn 0.2586 0.9660 -0.0000
vn 0.5027 0.8644 -0.0001
vn 0.2570 0.9317 -0.2569
vn 0.4945 0.2422 -0.8348
vn 0.6211 0.0931 -0.7782
vn 0.2484 0.4837 -0.8393
vn 0.2344 0.6889 -0.6860
vn 0.2484 0.4836 -0.8393
vn 0.4944 0.2422 -0.8348
vn 0.2343 0.6889 -0.6859
vn -0.0000 0.7083 -0.7060
vn -0.0000 0.7082 -0.7060
vn 0.2343 0.6889 -0.6860
vn 0.2483 0.4836 -0.8393
vn -0.0000 0.8644 -0.5028
vn -0.0000 0.9660 -0.2586
vn 0.2569 0.9317 -0.2570
vn 0.2585 0.9660 -0.0000
vn -0.0000 0.9660 -0.2585
vn -0.0000 1.0000 -0.0000
vn -0.0000 0.5017 -0.8650
vn 0.2571 0.9325 0.2535
vn 0.2586 0.9660 0.0001
vn 0.2570 0.9326 0.2535
vn 0.4512 0.7753 0.4420
vn 0.2571 0.9325 0.2536
vn -0.0000 0.5017 -0.8651
vn 0.2649 0.2503 -0.9312
vn 0.2650 0.2503 -0.9312
vn -0.0000 0.2551 -0.9669
vn 0.0001 0.5017 -0.8651
vn 0.2464 0.8417 0.4804
vn 0.2650 0.2502 -0.9312
vn 0.4798 0.0250 -0.8770
vn -0.0000 0.2550 -0.9669
vn 0.2649 0.2502 -0.9312
vn 0.2692 -0.0000 -0.9631
vn 0.2693 -0.0000 -0.9631
vn -0.0000 -0.0000 -1.0000
vn 0.4382 -0.2314 -0.8686
vn 0.4798 0.0249 -0.8770
vn 0.4382 -0.2315 -0.8686
vn 0.5119 -0.4822 -0.7109
vn 0.2649 -0.2503 -0.9312
vn 0.2650 -0.2502 -0.9312
vn 0.2693 -0.0000 -0.9630
vn -0.0000 -0.2550 -0.9669
vn 0.2649 -0.2502 -0.9312
vn 0.4134 -0.4607 -0.7854
vn 0.2650 -0.2503 -0.9312
vn 0.4133 -0.4607 -0.7854
vn 0.4096 -0.6482 -0.6419
vn -0.0000 -0.2551 -0.9669
vn 0.2483 -0.4836 -0.8393
vn 0.2484 -0.4836 -0.8393
vn 0.4133 -0.4607 -0.7855
vn 0.4095 -0.6482 -0.6419
vn -0.0000 -0.5017 -0.8651
vn 0.2344 -0.6889 -0.6859
vn 0.2484 -0.4837 -0.8393
vn 0.0001 -0.5017 -0.8650
vn 0.2343 -0.6889 -0.6860
vn -0.0000 -0.7082 -0.7060
vn -0.0000 -0.5017 -0.8650
vn -0.9031 -0.1750 0.3920
vn -0.9855 -0.1096 -0.1294
vn -0.7343 -0.6788 -0.0055
vn -0.7636 -0.2860 0.5789
vn -0.9174 0.2023 0.3426
vn -0.9032 -0.1749 0.3921
vn -0.9032 -0.1750 0.3920
vn -0.8993 0.4370 -0.0195
vn -0.8993 0.4370 -0.0194
vn -0.7636 -0.2861 0.5789
vn -0.7419 -0.5768 0.3419
vn -0.7418 -0.5769 0.3419
vn -0.7342 -0.6789 -0.0055
vn -0.5807 -0.8141 -0.0003
vn -0.5807 -0.8141 -0.0004
vn -0.6291 -0.6514 -0.4240
vn -0.7343 -0.6788 -0.0056
vn -0.7054 -0.2541 -0.6617
vn -0.6292 -0.6514 -0.4241
vn -0.6292 -0.6514 -0.4240
vn -0.5868 -0.7589 -0.2824
vn -0.5833 -0.7609 0.2843
vn -0.7419 -0.5769 0.3418
vn -0.5868 -0.7589 -0.2825
vn -0.6291 -0.6514 -0.4241
vn -0.5627 -0.6950 -0.4476
vn -0.6099 -0.5599 0.5609
vn -0.5833 -0.7608 0.2844
vn -0.6099 -0.5598 0.5609
vn -0.7635 -0.2861 0.5789
vn -0.5648 -0.6987 0.4391
vn -0.6098 -0.5599 0.5609
vn -0.5833 -0.7609 0.2844
vn -0.6269 -0.5571 -0.5446
vn -0.5626 -0.6950 -0.4477
vn -0.5116 -0.6152 -0.5998
vn -0.5138 -0.4827 -0.7092
vn -0.6742 -0.2168 -0.7060
vn -0.6742 -0.2169 -0.7060
vn -0.5138 -0.4826 -0.7093
vn -0.6741 -0.2169 -0.7061
vn -0.5580 -0.2028 -0.8047
vn -0.5222 -0.4142 0.7455
vn -0.6098 -0.5599 0.5610
vn -0.5647 -0.6987 0.4391
vn -0.5251 -0.5873 0.6159
vn -0.5222 -0.4141 0.7455
vn -0.6742 -0.2167 -0.7061
vn -0.7552 0.1878 -0.6280
vn -0.5579 -0.2027 -0.8047
vn -0.7552 0.1877 -0.6280
vn -0.6268 0.0929 -0.7736
vn -0.4960 -0.3844 0.7786
vn -0.7635 -0.2860 0.5789
vn -0.6098 -0.5598 0.5610
vn -0.4960 -0.3843 0.7786
vn -0.4789 -0.4300 0.7654
vn -0.4236 -0.6360 0.6450
vn -0.7936 0.3145 -0.5208
vn -0.6741 -0.2168 -0.7061
vn -0.7937 0.3144 -0.5208
vn -0.6742 -0.2168 -0.7061
vn -0.7709 0.3298 -0.5449
vn -0.7710 0.3297 -0.5449
vn -0.6606 0.2604 -0.7041
vn -0.5060 -0.3260 0.7985
vn -0.4961 -0.3843 0.7786
vn -0.4789 -0.4299 0.7654
vn -0.2324 -0.4889 0.8408
vn -0.4236 -0.6360 0.6451
vn -0.2361 -0.6858 0.6884
vn -0.2324 -0.4888 0.8409
vn -0.8454 0.3980 -0.3561
vn -0.8455 0.3980 -0.3561
vn -0.7710 0.3297 -0.5448
vn -0.7553 0.1878 -0.6280
vn -0.7551 0.4505 -0.4764
vn -0.6606 0.2604 -0.7042
vn -0.6459 0.4001 -0.6502
vn -0.7550 0.4505 -0.4764
vn -0.6376 0.6426 -0.4249
vn -0.6458 0.4002 -0.6502
vn -0.5835 0.5649 -0.5835
vn -0.6748 0.6974 -0.2415
vn -0.8035 0.5255 -0.2796
vn -0.7710 0.3298 -0.5448
vn -0.8035 0.5256 -0.2796
vn -0.6917 0.7222 0.0003
vn -0.6748 0.6974 -0.2414
vn -0.8226 0.5687 0.0017
vn -0.8226 0.5686 0.0017
vn -0.8455 0.3981 -0.3560
vn -0.6759 0.6974 0.2382
vn -0.8226 0.5687 0.0018
vn -0.8873 0.4610 0.0169
vn -0.8455 0.3980 -0.3560
vn -0.7937 0.3145 -0.5208
vn -0.8872 0.4610 0.0169
vn -0.8226 0.5686 0.0018
vn -0.8027 0.5339 0.2657
vn -0.6760 0.6974 0.2383
vn -0.8028 0.5338 0.2657
vn -0.8872 0.4610 0.0170
vn -0.6401 0.6494 0.4105
vn -0.6759 0.6974 0.2383
vn -0.7551 0.4888 0.4370
vn -0.8027 0.5339 0.2658
vn -0.5862 0.5888 0.5565
vn -0.6401 0.6494 0.4106
vn -0.7550 0.4888 0.4371
vn -0.9855 -0.1096 -0.1293
vn -0.9855 -0.1095 -0.1293
vn -0.9174 0.2024 0.3426
vn -0.8645 0.3978 0.3073
vn -0.8645 0.3978 0.3074
vn -0.8180 0.3690 0.4412
vn -0.8752 0.1493 0.4601
vn -0.8752 0.1493 0.4602
vn -0.7345 0.3661 0.5714
vn -0.6680 0.4744 0.5734
vn -0.6680 0.4743 0.5733
vn -0.7551 0.4888 0.4371
vn -0.7345 0.3662 0.5713
vn -0.7636 -0.2860 0.5790
vn -0.7704 0.1557 0.6183
vn -0.7703 0.1558 0.6183
vn -0.4345 0.6735 0.5980
vn -0.5862 0.5888 0.5566
vn -0.4344 0.6735 0.5980
vn -0.6400 0.6494 0.4106
vn -0.5742 -0.3199 0.7536
vn -0.7703 0.1557 0.6183
vn -0.5741 -0.3200 0.7536
vn -0.6826 0.4166 0.6003
vn -0.6680 0.4743 0.5734
vn -0.6827 0.4166 0.6003
vn -0.4344 0.6736 0.5980
vn -0.4512 0.7752 0.4421
vn -0.6400 0.6495 0.4106
vn -0.6400 0.6495 0.4105
vn -0.4513 0.7752 0.4420
vn -0.4440 -0.4232 0.7898
vn -0.5060 -0.3261 0.7985
vn -0.4441 -0.4231 0.7898
vn -0.4440 -0.4231 0.7898
vn -0.3830 -0.3970 0.8340
vn -0.3831 -0.3971 0.8340
vn -0.5742 -0.3200 0.7536
vn -0.6449 -0.1572 0.7480
vn -0.3830 -0.3971 0.8340
vn -0.6448 -0.1572 0.7480
vn -0.6448 -0.1571 0.7480
vn -0.7205 0.3058 0.6223
vn -0.7205 0.3059 0.6223
vn -0.5872 0.3539 0.7280
vn -0.6018 0.4883 0.6320
vn -0.6868 -0.0792 0.7226
vn -0.7206 0.3058 0.6223
vn -0.6868 -0.0792 0.7225
vn -0.6318 -0.0668 0.7723
vn -0.7205 0.3058 0.6224
vn -0.6317 -0.0668 0.7723
vn -0.5872 0.3538 0.7280
vn -0.3831 -0.3970 0.8340
vn -0.4220 -0.2620 0.8679
vn -0.5782 -0.4269 0.6953
vn -0.6317 -0.0669 0.7723
vn -0.4367 -0.0823 0.8958
vn -0.6318 -0.0669 0.7723
vn -0.4367 -0.0822 0.8958
vn -0.3148 -0.3634 0.8768
vn -0.3147 -0.3633 0.8769
vn 0.1166 -0.5390 0.8342
vn -0.4366 -0.0822 0.8959
vn 0.1165 -0.5390 0.8342
vn -0.2152 -0.0663 0.9743
vn -0.4368 -0.0822 0.8958
vn -0.5871 0.3539 0.7281
vn 0.1183 -0.3248 0.9383
vn 0.3179 -0.6846 0.6560
vn 0.1183 -0.3248 0.9384
vn 0.3669 -0.6735 0.6417
vn -0.2251 0.3236 0.9190
vn -0.5871 0.3538 0.7280
vn -0.2250 0.3236 0.9190
vn -0.2151 -0.0663 0.9743
vn 0.1933 -0.3333 0.9228
vn 0.1184 -0.3248 0.9384
vn -0.2274 -0.2688 0.9360
vn -0.4220 -0.2619 0.8679
vn -0.1485 -0.1094 0.9828
vn -0.0000 -0.0975 0.9952
vn -0.0666 0.0171 0.9976
vn -0.0000 0.0211 0.9998
vn -0.0666 0.0172 0.9976
vn 0.0666 0.0172 0.9976
vn -0.0000 -0.0974 0.9952
vn 0.1485 -0.1094 0.9828
vn 0.0666 0.0171 0.9976
vn -0.0001 -0.2947 0.9556
vn -0.2323 -0.4888 0.8409
vn -0.0000 -0.2947 0.9556
vn 0.2274 -0.2688 0.9360
vn 0.0001 -0.2947 0.9556
vn 0.4220 -0.2619 0.8679
vn -0.0000 -0.4959 0.8684
vn -0.0000 -0.2948 0.9556
vn 0.2274 -0.2689 0.9360
vn -0.2323 -0.4889 0.8409
vn -0.0000 -0.7065 0.7077
vn 0.2323 -0.4888 0.8409
vn 0.2323 -0.4889 0.8409
vn 0.4220 -0.2620 0.8679
vn 0.2324 -0.4888 0.8409
vn 0.4788 -0.4300 0.7654
vn 0.5060 -0.3260 0.7985
vn 0.3831 -0.3970 0.8341
vn 0.4961 -0.3843 0.7786
vn 0.5061 -0.3260 0.7985
vn 0.4960 -0.3844 0.7786
vn 0.4441 -0.4231 0.7898
vn 0.5060 -0.3261 0.7985
vn 0.4440 -0.4231 0.7898
vn 0.3831 -0.3970 0.8340
vn 0.4971 -0.3845 0.7779
vn 0.5741 -0.3200 0.7536
vn 0.4440 -0.4232 0.7898
vn 0.5742 -0.3199 0.7536
vn 0.7703 0.1557 0.6183
vn 0.6449 -0.1572 0.7480
vn 0.6448 -0.1572 0.7480
vn 0.3830 -0.3971 0.8340
vn 0.6449 -0.1571 0.7480
vn 0.7205 0.3058 0.6224
vn 0.7206 0.3058 0.6223
vn 0.7205 0.3059 0.6223
vn 0.5872 0.3539 0.7280
vn 0.6448 -0.1571 0.7480
vn 0.6868 -0.0792 0.7225
vn 0.6318 -0.0668 0.7723
vn 0.6317 -0.0668 0.7723
vn 0.5872 0.3538 0.7280
vn 0.6317 -0.0669 0.7723
vn 0.5782 -0.4269 0.6953
vn 0.4367 -0.0823 0.8958
vn 0.4367 -0.0822 0.8958
vn 0.3148 -0.3634 0.8768
vn -0.1166 -0.5390 0.8342
vn 0.3147 -0.3633 0.8769
vn 0.4367 -0.0823 0.8959
vn 0.2151 -0.0663 0.9743
vn -0.1165 -0.5390 0.8342
vn 0.4367 -0.0822 0.8959
vn 0.5871 0.3538 0.7281
vn -0.1183 -0.3248 0.9383
vn -0.1183 -0.3248 0.9384
vn -0.3179 -0.6846 0.6560
vn -0.3669 -0.6735 0.6417
vn 0.2250 0.3236 0.9190
vn 0.2251 0.3237 0.9190
vn 0.2152 -0.0663 0.9743
vn 0.5871 0.3539 0.7280
vn 0.6826 0.4167 0.6003
vn 0.6018 0.4883 0.6319
vn 0.6018 0.4883 0.6320
vn -0.1933 -0.3333 0.9228
vn -0.1184 -0.3248 0.9384
vn 0.4361 0.5538 0.7094
vn 0.4360 0.5538 0.7094
vn 0.4361 0.5538 0.7093
vn 0.6018 0.4884 0.6319
vn 0.2836 0.6707 0.6854
vn 0.5379 0.5562 0.6334
vn 0.6017 0.4884 0.6320
vn 0.5379 0.5562 0.6335
vn 0.4345 0.6735 0.5980
vn 0.2836 0.6706 0.6854
vn 0.2134 0.5407 0.8137
vn 0.0969 0.3107 0.9456
vn 0.2133 0.5407 0.8137
vn 0.0970 0.3106 0.9456
vn 0.2250 0.3237 0.9190
vn -0.0000 -0.3155 0.9489
vn -0.0000 -0.3156 0.9489
vn -0.0001 -0.6751 0.7378
vn 0.0001 -0.6751 0.7377
vn -0.0001 -0.3156 0.9489
vn -0.0000 0.3634 0.9316
vn 0.0001 -0.3156 0.9489
vn 0.0969 0.3106 0.9456
vn -0.0000 0.3633 0.9317
vn -0.1933 -0.3332 0.9228
vn 0.1722 0.5597 0.8106
vn 0.0970 0.3107 0.9455
vn 0.2835 0.6706 0.6855
vn -0.0000 0.7101 0.7041
vn 0.2454 0.7373 0.6295
vn 0.0001 0.7101 0.7041
vn 0.2835 0.6707 0.6854
vn 0.2453 0.7373 0.6295
vn 0.0001 0.5714 0.8207
vn 0.0970 0.3107 0.9456
vn -0.0000 0.5714 0.8207
vn 0.0969 0.3107 0.9455
vn -0.0969 0.3107 0.9456
vn 0.1933 -0.3332 0.9228
vn -0.0970 0.3107 0.9455
vn -0.0969 0.3106 0.9456
vn -0.2250 0.3237 0.9190
vn -0.0001 0.5714 0.8207
vn -0.1722 0.5597 0.8106
vn -0.2835 0.6707 0.6855
vn -0.2133 0.5407 0.8137
vn -0.2251 0.3237 0.9190
vn -0.0970 0.3107 0.9456
vn -0.2835 0.6706 0.6855
vn -0.2134 0.5407 0.8137
vn -0.4360 0.5538 0.7094
vn -0.2836 0.6707 0.6854
vn -0.6018 0.4884 0.6319
vn -0.4361 0.5538 0.7093
vn -0.2836 0.6706 0.6854
vn -0.5379 0.5562 0.6335
vn -0.6017 0.4884 0.6320
vn -0.5379 0.5562 0.6334
vn -0.2454 0.7373 0.6295
vn -0.2835 0.6707 0.6854
vn -0.0001 0.7101 0.7041
vn -0.2453 0.7373 0.6295
vn -0.0000 0.7656 0.6433
vn -0.2464 0.8417 0.4804
vn -0.2463 0.8417 0.4804
vn -0.0000 0.8683 0.4960
vn -0.0001 0.7656 0.6433
vn 0.2463 0.8417 0.4804
vn -0.4512 0.7753 0.4420
vn -0.4876 0.8387 0.2425
vn -0.0000 0.8684 0.4959
vn -0.2571 0.9325 0.2535
vn 0.2463 0.8418 0.4804
vn -0.0000 0.9669 0.2552
vn -0.2570 0.9325 0.2535
vn -0.4876 0.8387 0.2424
vn -0.5028 0.8644 -0.0000
vn -0.2571 0.9326 0.2535
vn -0.2585 0.9660 -0.0000
vn -0.2586 0.9660 -0.0000
vn -0.0000 0.9669 0.2551
vn -0.4874 0.8379 -0.2458
vn -0.4874 0.8379 -0.2457
vn -0.2586 0.9660 -0.0001
vn -0.2570 0.9317 -0.2569
vn -0.2569 0.9317 -0.2569
vn -0.4498 0.7716 -0.4498
vn -0.5834 0.5649 -0.5835
vn -0.2458 0.8379 -0.4874
vn -0.4227 0.6410 -0.6407
vn -0.5835 0.5649 -0.5834
vn -0.4226 0.6410 -0.6407
vn -0.2569 0.9317 -0.2570
vn -0.2343 0.6889 -0.6859
vn -0.2344 0.6889 -0.6859
vn -0.2484 0.4836 -0.8393
vn -0.2483 0.4836 -0.8393
vn -0.4641 0.4377 -0.7701
vn -0.2650 0.2503 -0.9312
vn -0.2649 0.2502 -0.9312
vn -0.6458 0.4001 -0.6502
vn -0.4641 0.4376 -0.7701
vn -0.4945 0.2422 -0.8348
vn -0.4944 0.2423 -0.8348
vn -0.6605 0.2605 -0.7042
vn -0.2693 -0.0000 -0.9631
vn -0.2649 0.2503 -0.9312
vn -0.4944 0.2422 -0.8348
vn -0.2650 0.2502 -0.9312
vn -0.2693 -0.0000 -0.9630
vn -0.6605 0.2604 -0.7042
vn -0.4798 0.0250 -0.8770
vn -0.2649 -0.2502 -0.9312
vn -0.2692 -0.0000 -0.9631
vn -0.4798 0.0249 -0.8770
vn -0.2650 -0.2502 -0.9312
vn -0.2649 -0.2503 -0.9312
vn -0.0001 -0.5017 -0.8651
vn -0.6268 0.0928 -0.7736
vn -0.4382 -0.2314 -0.8686
vn -0.2483 -0.4836 -0.8393
vn -0.4382 -0.2315 -0.8686
vn -0.2650 -0.2503 -0.9312
vn -0.2484 -0.4836 -0.8393
vn -0.2343 -0.6889 -0.6860
vn -0.5579 -0.2028 -0.8048
vn -0.4133 -0.4607 -0.7854
vn -0.4134 -0.4607 -0.7854
vn -0.4133 -0.4608 -0.7854
vn -0.2484 -0.4837 -0.8393
vn -0.2344 -0.6889 -0.6860
vn -0.5579 -0.2028 -0.8047
vn -0.4095 -0.6482 -0.6420
vn -0.2344 -0.6889 -0.6859
vn -0.5138 -0.4827 -0.7093
vn -0.4095 -0.6482 -0.6419
vn 0.4825 -0.1853 -0.8561
vn -0.2384 -0.3141 -0.9190
vn -0.9928 -0.1083 0.0512
vn 0.4826 -0.1852 -0.8561
vn 0.4481 -0.1918 -0.8732
vn -0.2384 -0.3142 -0.9190
vn -0.1963 -0.3162 -0.9282
vn -0.2383 -0.3142 -0.9190
vn 0.3822 -0.3089 -0.8709
vn 0.3822 -0.3090 -0.8709
vn -0.6958 -0.5215 -0.4939
vn -0.6957 -0.5216 -0.4939
vn 0.2347 -0.9348 -0.2667
vn -0.2384 -0.3142 -0.9189
vn -0.1964 -0.3162 -0.9282
vn -0.9035 -0.3869 -0.1842
vn -0.1964 -0.3162 -0.9281
vn -0.9747 -0.2234 0.0072
vn -0.9747 -0.2235 0.0073
vn -0.7333 -0.5048 -0.4555
vn -0.7784 -0.4354 0.4521
vn -0.7332 -0.5048 -0.4555
vn -0.8104 -0.2096 0.5471
vn -0.7785 -0.4354 0.4521
vn -0.8449 -0.0243 0.5343
vn -0.9747 -0.2235 0.0072
vn -0.8105 -0.2096 0.5470
vn -0.8449 -0.0242 0.5344
vn -0.3871 0.1166 0.9146
vn -0.8450 -0.0242 0.5343
vn -0.8557 0.0622 0.5137
vn -0.8557 0.0622 0.5138
vn -0.3872 0.1166 0.9146
vn -0.4122 0.2076 0.8871
vn -0.3871 0.1167 0.9146
vn 0.0924 0.2028 0.9748
vn 0.1020 0.1428 0.9845
vn 0.0924 0.2028 0.9749
vn 0.6427 0.1238 0.7561
vn 0.0925 0.2028 0.9748
vn 0.1021 0.1428 0.9845
vn -0.7784 -0.4354 0.4522
vn -0.3158 -0.3157 0.8948
vn -0.2193 -0.6811 0.6985
vn 0.3182 -0.2943 0.9012
vn -0.3157 -0.3157 0.8948
vn -0.3331 -0.0810 0.9394
vn -0.3331 -0.0811 0.9394
vn 0.2177 -0.0458 0.9749
vn 0.2177 -0.0459 0.9749
vn 0.1020 0.1427 0.9845
vn 0.2178 -0.0459 0.9749
vn 0.8459 -0.1090 0.5221
vn 0.3183 -0.2943 0.9012
vn 0.9122 -0.3082 0.2701
vn 0.9031 -0.3709 0.2162
vn 0.9122 -0.3081 0.2701
vn 0.6946 0.0307 0.7187
vn 0.1021 0.1427 0.9845
vn 0.8555 -0.1258 -0.5024
vn 0.8458 -0.1090 0.5222
vn 0.8555 -0.1258 -0.5023
vn 0.6947 0.0306 0.7187
vn 0.9031 -0.3710 0.2162
vn 0.2347 -0.9348 -0.2666
vn 0.8554 -0.1258 -0.5024
vn 0.8821 -0.0892 -0.4626
vn 0.8821 -0.0892 -0.4625
vn -0.2194 -0.6811 0.6985
vn 0.9031 -0.3710 0.2161
vn 0.9032 -0.3709 0.2162
vn 0.2346 -0.9348 -0.2666
vn -0.6957 -0.5215 -0.4940
vn -0.2193 -0.6812 0.6985
vn -0.2193 -0.6811 0.6986
vn 0.2384 -0.3142 -0.9190
vn -0.4825 -0.1852 -0.8561
vn 0.9928 -0.1083 0.0512
vn -0.4481 -0.1918 -0.8732
vn -0.4826 -0.1852 -0.8561
vn 0.2384 -0.3142 -0.9189
vn 0.2383 -0.3142 -0.9190
vn -0.3822 -0.3089 -0.8709
vn 0.6958 -0.5216 -0.4939
vn 0.1963 -0.3161 -0.9282
vn 0.6958 -0.5215 -0.4939
vn -0.2345 -0.9348 -0.2667
vn 0.1964 -0.3162 -0.9282
vn 0.9035 -0.3869 -0.1842
vn 0.9747 -0.2235 0.0073
vn 0.2384 -0.3141 -0.9189
vn 0.9928 -0.1084 0.0512
vn 0.7332 -0.5048 -0.4555
vn 0.7784 -0.4355 0.4521
vn 0.7785 -0.4354 0.4521
vn 0.9747 -0.2235 0.0072
vn 0.8104 -0.2096 0.5471
vn 0.8449 -0.0243 0.5343
vn 0.8105 -0.2096 0.5470
vn 0.8449 -0.0243 0.5344
vn 0.3871 0.1166 0.9146
vn 0.8557 0.0622 0.5137
vn 0.8450 -0.0242 0.5343
vn 0.8449 -0.0242 0.5344
vn 0.8557 0.0622 0.5138
vn 0.3872 0.1167 0.9146
vn 0.4122 0.2076 0.8871
vn 0.3871 0.1167 0.9146
vn -0.0925 0.2028 0.9748
vn -0.1020 0.1428 0.9845
vn -0.0924 0.2028 0.9749
vn -0.6427 0.1238 0.7561
vn -0.1021 0.1428 0.9845
vn 0.3158 -0.3157 0.8948
vn 0.7784 -0.4354 0.4522
vn 0.2193 -0.6811 0.6985
vn 0.3157 -0.3157 0.8948
vn -0.3182 -0.2943 0.9012
vn 0.2193 -0.6811 0.6986
vn 0.3331 -0.0811 0.9394
vn 0.3331 -0.0810 0.9394
vn -0.2177 -0.0458 0.9749
vn -0.2177 -0.0459 0.9749
vn -0.1020 0.1427 0.9845
vn -0.8459 -0.1090 0.5221
vn -0.2178 -0.0459 0.9749
vn -0.9122 -0.3082 0.2701
vn -0.3183 -0.2942 0.9012
vn -0.9122 -0.3081 0.2701
vn -0.9031 -0.3709 0.2162
vn -0.6946 0.0307 0.7187
vn -0.8459 -0.1091 0.5221
vn -0.1021 0.1427 0.9845
vn -0.8554 -0.1258 -0.5024
vn -0.8555 -0.1258 -0.5023
vn -0.8458 -0.1090 0.5222
vn -0.6947 0.0308 0.7187
vn -0.3822 -0.3090 -0.8709
vn -0.9122 -0.3081 0.2702
vn -0.2346 -0.9348 -0.2668
vn -0.4481 -0.1918 -0.8731
vn -0.8821 -0.0892 -0.4626
vn -0.8821 -0.0892 -0.4625
vn -0.6427 0.1239 0.7560
vn -0.9032 -0.3709 0.2162
vn 0.2194 -0.6811 0.6985
vn -0.3183 -0.2943 0.9012
vn -0.9032 -0.3709 0.2161
vn -0.2347 -0.9348 -0.2666
vn -0.2346 -0.9348 -0.2667
vn 0.6958 -0.5215 -0.4940
vn 0.6957 -0.5215 -0.4940
vn -0.0000 -0.8644 -0.5028
vn 0.2343 -0.6889 -0.6859
vn 0.2458 -0.8379 -0.4874
vn 0.4095 -0.6483 -0.6419
vn -0.0000 -0.9660 -0.2586
vn 0.4380 -0.7757 -0.4543
vn 0.4381 -0.7757 -0.4543
vn 0.5097 -0.6163 -0.6003
vn 0.4381 -0.7757 -0.4544
vn 0.2569 -0.9317 -0.2570
vn 0.2569 -0.9317 -0.2569
vn -0.0000 -1.0000 -0.0000
vn -0.0000 -0.9660 -0.2585
vn 0.4628 -0.8491 -0.2545
vn 0.5621 -0.6958 -0.4470
vn 0.4628 -0.8492 -0.2545
vn 0.4628 -0.8492 -0.2544
vn 0.5621 -0.6959 -0.4470
vn 0.2586 -0.9660 -0.0001
vn 0.2570 -0.9317 -0.2569
vn 0.2585 -0.9660 -0.0000
vn 0.4715 -0.8819 -0.0005
vn 0.4714 -0.8819 -0.0005
vn 0.2586 -0.9660 -0.0000
vn 0.4630 -0.8498 0.2520
vn 0.4715 -0.8819 -0.0004
vn 0.2571 -0.9325 0.2535
vn 0.4714 -0.8819 -0.0004
vn 0.4629 -0.8498 0.2520
vn 0.4417 -0.7766 0.4492
vn 0.5833 -0.7609 0.2844
vn 0.5647 -0.6988 0.4391
vn 0.4418 -0.7766 0.4492
vn 0.4417 -0.7765 0.4493
vn 0.4417 -0.7766 0.4493
vn 0.2464 -0.8417 0.4804
vn 0.2463 -0.8417 0.4804
vn -0.0000 -0.8683 0.4960
vn 0.2570 -0.9326 0.2535
vn -0.0000 -0.9669 0.2552
vn -0.0000 -0.8684 0.4959
vn 0.2570 -0.9325 0.2536
vn -0.0000 -0.9669 0.2551
vn -0.2361 -0.6859 0.6884
vn -0.2463 -0.8417 0.4804
vn -0.2464 -0.8417 0.4804
vn -0.2463 -0.8418 0.4804
vn -0.2570 -0.9326 0.2535
vn -0.4417 -0.7766 0.4493
vn -0.4417 -0.7766 0.4492
vn -0.2571 -0.9325 0.2535
vn -0.4417 -0.7765 0.4493
vn -0.5647 -0.6988 0.4391
vn -0.4630 -0.8498 0.2520
vn -0.2571 -0.9325 0.2536
vn -0.4630 -0.8498 0.2519
vn -0.2586 -0.9660 0.0001
vn -0.2585 -0.9660 -0.0000
vn -0.4714 -0.8819 -0.0003
vn -0.2586 -0.9660 -0.0000
vn -0.4714 -0.8819 -0.0004
vn -0.4625 -0.8494 -0.2541
vn -0.2570 -0.9317 -0.2569
vn -0.2569 -0.9317 -0.2569
vn -0.4625 -0.8494 -0.2542
vn -0.4377 -0.7759 -0.4544
vn -0.5626 -0.6951 -0.4476
vn -0.2569 -0.9317 -0.2570
vn -0.2570 -0.9316 -0.2569
vn -0.2458 -0.8379 -0.4874
vn -0.4376 -0.7759 -0.4544
vn -0.2457 -0.8379 -0.4874
vn -0.2343 -0.6889 -0.6859
vn -0.0000 -0.7083 -0.7060
vn -0.4376 -0.7759 -0.4545
vn -0.4095 -0.6483 -0.6419
vn -0.4377 -0.7758 -0.4544
vn -0.5626 -0.6950 -0.4476
vt 1.003403 0.608147
vt 1.007801 0.551445
vt 1.010915 0.491263
vt 0.930477 0.303311
vt 0.992157 0.198604
vt 0.992735 0.255572
vt 0.816546 0.305249
vt 0.913447 0.400118
vt 0.829702 0.395848
vt 0.786344 0.389275
vt 0.918868 0.508002
vt 0.847007 0.489326
vt 0.992873 0.364362
vt 0.901906 0.222304
vt 0.992735 0.491417
vt 0.932593 0.605383
vt 0.992157 0.613295
vt 0.991067 0.151514
vt 1.053082 0.200400
vt 1.046034 0.256326
vt 0.882042 0.162642
vt 0.804811 0.182575
vt 1.071299 0.155704
vt 0.815756 0.234956
vt 0.760448 0.194487
vt 0.761537 0.229919
vt 0.710536 0.173801
vt 1.157306 0.206572
vt 1.178924 0.168766
vt 0.702488 0.208944
vt 0.621760 0.157921
vt 0.762019 0.284206
vt 1.242903 0.210905
vt 1.242543 0.181289
vt 1.243203 0.261739
vt 1.149466 0.259724
vt 1.243332 0.363410
vt 1.147482 0.363754
vt 1.243203 0.479367
vt 1.044196 0.364343
vt 1.149467 0.482751
vt 1.242903 0.581476
vt 1.157306 0.591754
vt 1.242543 0.646887
vt 1.178924 0.675726
vt 1.046034 0.488653
vt 1.053082 0.606789
vt 1.071299 0.705402
vt 0.991067 0.717895
vt 0.914151 0.702926
vt 0.852699 0.584688
vt 0.828822 0.661679
vt 0.799968 0.581382
vt 0.779475 0.642755
vt 0.797357 0.469035
vt 0.760901 0.455703
vt 0.722173 0.671016
vt 0.772830 0.727402
vt 0.868672 0.783867
vt 0.988701 0.808090
vt 1.117894 0.788197
vt 1.241604 0.738859
vt 1.305895 0.676441
vt 1.328621 0.592429
vt 1.413698 0.707486
vt 1.363998 0.790005
vt 1.237630 0.872686
vt 0.981210 0.881501
vt 1.337159 0.483021
vt 1.433471 0.608345
vt 1.500002 0.721251
vt 1.500002 0.811859
vt 1.500002 0.882645
vt 0.499211 0.994397
vt 1.500002 0.615736
vt 0.775245 0.869825
vt 1.441309 0.489253
vt 1.500002 0.492336
vt 0.667918 0.781983
vt 1.339412 0.363514
vt 1.443413 0.363877
vt 1.500002 0.363665
vt 1.337159 0.259150
vt 1.441309 0.255146
vt 1.500002 0.253681
vt 1.328621 0.206105
vt 1.305897 0.168376
vt 1.433471 0.199378
vt 1.500002 0.196850
vt 1.413697 0.154645
vt 1.500002 0.149402
vt 0.071220 0.303357
vt 0.010509 0.255377
vt 0.011087 0.198369
vt 0.183230 0.305850
vt 0.087756 0.400319
vt 0.010374 0.364280
vt 0.099702 0.222522
vt 0.012176 0.151289
vt -0.046319 0.200490
vt -0.039191 0.256408
vt -0.064739 0.155762
vt 0.120183 0.161477
vt -0.173555 0.168694
vt 0.184304 0.235382
vt 0.197033 0.181757
vt -0.151697 0.206511
vt -0.237882 0.181195
vt -0.238248 0.210807
vt -0.143770 0.259703
vt -0.238553 0.261679
vt 0.237683 0.230160
vt 0.240236 0.194080
vt -0.141766 0.363716
vt -0.238686 0.363347
vt 0.236995 0.284492
vt 0.295941 0.208931
vt 0.290124 0.173173
vt -0.037333 0.364322
vt -0.143776 0.482687
vt -0.238559 0.479303
vt 0.303169 0.262201
vt 0.390403 0.205775
vt 0.378132 0.157563
vt -0.039191 0.488603
vt -0.151707 0.591663
vt -0.238258 0.581393
vt -0.173568 0.675598
vt -0.237896 0.646691
vt -0.064738 0.705475
vt -0.046318 0.606753
vt 0.012185 0.717848
vt 0.011093 0.613246
vt 0.086680 0.702876
vt 0.010513 0.491367
vt 0.068063 0.605509
vt 0.171639 0.661939
vt 0.137057 0.591759
vt 0.218924 0.642739
vt 0.081550 0.508370
vt 0.150524 0.492062
vt 0.169442 0.397035
vt 0.200756 0.470006
vt 0.198431 0.581366
vt 0.212249 0.389896
vt 0.276229 0.671008
vt 0.227527 0.337745
vt 0.237479 0.455703
vt 0.226581 0.727389
vt 0.254356 0.316170
vt 0.280663 0.340996
vt 0.238245 0.344736
vt 0.260694 0.420621
vt 0.318738 0.438852
vt 0.308644 0.496378
vt 0.271234 0.368458
vt 0.294775 0.377056
vt 0.348707 0.260631
vt 0.303666 0.350471
vt 0.327659 0.388416
vt 0.331178 0.349391
vt 0.369114 0.326943
vt 0.364763 0.401590
vt 0.395806 0.408322
vt 0.399461 0.284357
vt 0.445563 0.243821
vt 0.384252 0.458336
vt 0.442899 0.416218
vt 0.396870 0.258971
vt 0.397893 0.417785
vt 0.500000 0.365006
vt 0.443984 0.450881
vt 0.500000 0.490532
vt 0.554437 0.450881
vt 0.600539 0.417785
vt 0.500000 0.257489
vt 0.601561 0.258972
vt 0.649721 0.260635
vt 0.499754 0.203604
vt 0.499835 0.156099
vt 0.608797 0.205696
vt 0.695257 0.262208
vt 0.718144 0.341003
vt 0.744046 0.316179
vt 0.771133 0.337475
vt 0.760136 0.344736
vt 0.737686 0.420621
vt 0.680453 0.438852
vt 0.727146 0.368458
vt 0.704415 0.377056
vt 0.696334 0.350471
vt 0.672341 0.388416
vt 0.668822 0.349391
vt 0.630886 0.326943
vt 0.635237 0.401590
vt 0.604194 0.408322
vt 0.600539 0.284357
vt 0.554437 0.243821
vt 0.615748 0.458336
vt 0.689737 0.496378
vt 0.557100 0.416218
vt 0.638473 0.519355
vt 0.610497 0.613237
vt 0.706365 0.576445
vt 0.607679 0.533158
vt 0.559559 0.481054
vt 0.500000 0.424951
vt 0.500000 0.226148
vt 0.500000 0.514603
vt 0.557000 0.557546
vt 0.500000 0.626376
vt 0.625353 0.701101
vt 0.500000 0.568842
vt 0.440441 0.481054
vt 0.443000 0.557546
vt 0.388693 0.613237
vt 0.392321 0.533158
vt 0.360717 0.519355
vt 0.292015 0.576445
vt 0.373052 0.701100
vt 0.500000 0.714653
vt 0.331125 0.781981
vt 0.499873 0.800940
vt 0.132164 0.783849
vt 0.223186 0.869820
vt 0.499203 0.880493
vt 0.014554 0.808062
vt 0.022055 0.881491
vt -0.111852 0.788284
vt -0.232923 0.872502
vt -0.236950 0.738620
vt -0.360710 0.789777
vt -0.301955 0.676308
vt -0.500000 0.882632
vt -0.500004 0.811800
vt -0.410961 0.707338
vt -0.500003 0.721187
vt -0.500001 0.615668
vt -0.430950 0.608269
vt -0.500003 0.492267
vt -0.324931 0.592335
vt -0.438878 0.489186
vt -0.500001 0.363628
vt -0.333562 0.482955
vt -0.441001 0.363841
vt -0.499999 0.253822
vt -0.335838 0.363475
vt -0.438866 0.255248
vt -0.499998 0.196979
vt -0.333556 0.259127
vt -0.430941 0.199446
vt -0.499998 0.149646
vt -0.410946 0.154680
vt -0.324920 0.206041
vt -0.301941 0.168301
vt 1.014500 0.403432
vt 1.010828 0.439536
vt 1.008667 0.296225
vt 1.014500 0.464197
vt 1.007405 0.580082
vt 1.000115 0.643048
vt 1.007801 0.506473
vt 1.007751 0.452688
vt 1.003798 0.563561
vt 1.003798 0.515686
vt 1.003798 0.459108
vt 1.000115 0.459108
vt 1.004969 0.296225
vt 1.000236 0.296225
vt 0.995448 0.296225
vt 0.996258 0.459108
vt 0.991558 0.296225
vt 1.000115 0.565175
vt 1.000115 0.608422
vt 0.996258 0.563561
vt 1.000115 0.519978
vt 0.996258 0.515686
vt 0.992642 0.507459
vt 0.992642 0.552204
vt 0.997081 0.608133
vt 0.992642 0.454091
vt 0.989320 0.492133
vt 0.992895 0.580082
vt 0.985520 0.464197
vt 0.985500 0.403432
vt 0.989371 0.440440
vt 1.500002 0.105563
vt 1.363998 0.115457
vt 1.499998 0.059057
vt 1.241603 0.139534
vt 1.237630 0.079188
vt 0.499215 0.011010
vt 1.117894 0.116303
vt 0.981210 0.061740
vt 0.988701 0.107912
vt 0.849799 0.119844
vt 0.775244 0.081917
vt 0.757250 0.145552
vt 0.664361 0.115867
vt 0.499731 0.108611
vt 0.499204 0.064378
vt 0.335444 0.115185
vt 0.223184 0.081864
vt 0.244946 0.144095
vt 0.152584 0.118953
vt 0.022053 0.061503
vt 0.014544 0.107712
vt -0.111852 0.116258
vt -0.232915 0.079012
vt -0.236933 0.139445
vt -0.499996 0.059020
vt -0.499997 0.105813
vt -0.360692 0.115424
s 0
usemtl body
f 3/1/1 2/2/2 1/3/3
f 6/2/4 5/1/5 4/3/6
f 9/4/7 8/5/8 7/6/9
f 11/7/10 9/4/11 10/8/12
f 12/9/13 11/7/10 10/8/12
f 13/10/14 11/7/10 12/9/15
f 12/9/15 10/8/16 14/11/17
f 13/10/14 12/9/18 15/12/19
f 15/12/20 12/9/15 14/11/17
f 10/8/16 9/4/11 16/13/21
f 9/4/7 17/6/22 16/13/21
f 11/7/23 18/14/24 9/4/7
f 9/4/7 18/14/24 19/5/25
f 14/11/17 10/8/16 20/15/26
f 10/8/16 16/13/21 20/15/27
f 15/12/20 14/11/17 21/16/28
f 14/11/17 20/15/29 22/17/30
f 21/16/31 14/11/17 22/17/30
f 18/14/32 23/18/33 19/5/8
f 19/5/34 23/18/35 24/19/36
f 19/5/8 24/19/37 25/20/38
f 18/14/32 26/21/39 23/18/33
f 27/22/40 26/21/41 18/14/32
f 23/18/35 28/23/42 24/19/43
f 29/24/44 27/22/45 18/14/32
f 30/25/46 27/22/45 29/24/47
f 11/7/23 29/24/48 18/14/24
f 31/26/49 30/25/50 29/24/51
f 31/26/49 29/24/51 11/7/23
f 30/25/50 31/26/52 32/27/53
f 24/19/36 28/23/54 33/28/55
f 28/23/54 34/29/56 33/28/57
f 31/26/49 35/30/58 32/27/53
f 32/27/53 35/30/58 36/31/59
f 37/32/60 31/26/61 11/7/10
f 31/26/49 37/32/62 35/30/58
f 33/28/63 34/29/64 38/33/65
f 34/29/64 39/34/66 38/33/65
f 33/28/63 38/33/65 40/35/67
f 24/19/37 33/28/63 41/36/68
f 41/36/68 33/28/63 40/35/69
f 41/36/70 40/35/71 42/37/72
f 25/20/73 24/19/37 41/36/68
f 43/38/74 41/36/70 42/37/72
f 43/38/75 42/37/72 44/39/76
f 45/40/77 41/36/78 43/38/79
f 45/40/80 25/20/81 41/36/70
f 46/41/82 43/38/74 44/39/83
f 45/40/77 43/38/74 46/41/84
f 46/41/85 44/39/76 47/42/86
f 48/43/87 46/41/88 47/42/86
f 48/43/87 47/42/89 49/44/90
f 50/45/91 48/43/92 49/44/90
f 51/46/93 46/41/84 48/43/94
f 51/46/95 45/40/96 46/41/88
f 52/47/97 48/43/94 50/45/91
f 52/47/97 51/46/95 48/43/94
f 53/48/98 52/47/99 50/45/91
f 20/15/100 45/40/96 51/46/95
f 20/15/101 51/46/95 52/47/99
f 20/15/29 16/13/21 45/40/96
f 16/13/21 25/20/73 45/40/77
f 16/13/21 54/6/22 25/20/73
f 54/6/102 55/5/8 25/20/103
f 22/17/30 20/15/101 52/47/99
f 22/17/30 52/47/99 53/48/98
f 56/49/104 22/17/30 53/48/98
f 21/16/105 22/17/30 56/49/106
f 57/50/107 21/16/105 56/49/106
f 58/51/108 21/16/105 57/50/107
f 59/52/109 58/51/110 57/50/107
f 60/53/111 58/51/108 59/52/112
f 61/54/113 60/53/114 59/52/112
f 58/51/110 15/12/20 21/16/115
f 15/12/116 58/51/117 60/53/111
f 62/55/118 15/12/116 60/53/119
f 62/55/118 13/10/14 15/12/116
f 63/56/120 62/55/118 60/53/119
f 63/56/120 13/10/121 62/55/118
f 61/54/122 64/57/123 60/53/114
f 64/57/124 61/54/113 65/58/125
f 61/54/113 66/52/126 65/58/127
f 65/58/128 66/52/129 67/59/130
f 66/52/129 68/50/107 67/59/130
f 67/59/130 68/50/131 69/60/132
f 68/50/131 70/49/133 69/60/132
f 69/60/132 70/49/133 71/61/134
f 70/49/133 72/48/98 71/61/134
f 71/61/134 72/48/135 73/62/136
f 72/48/135 74/45/91 73/62/136
f 73/62/136 74/45/91 75/63/137
f 74/45/91 76/44/90 75/63/137
f 75/63/137 76/44/90 77/42/89
f 78/64/138 75/63/137 77/42/89
f 78/64/138 77/42/139 79/39/140
f 73/62/136 75/63/141 80/65/142
f 80/65/142 75/63/141 78/64/143
f 71/61/134 73/62/136 81/66/144
f 81/66/144 73/62/136 80/65/142
f 69/60/132 71/61/134 82/67/145
f 82/67/146 71/61/134 81/66/144
f 67/59/147 69/60/132 83/68/148
f 83/68/148 69/60/149 82/67/150
f 84/69/151 78/64/138 79/39/76
f 84/69/151 79/39/76 85/37/152
f 86/70/153 80/65/154 78/64/143
f 86/70/155 78/64/138 84/69/156
f 81/66/144 80/65/157 87/71/158
f 87/71/159 80/65/160 86/70/161
f 88/72/162 81/66/144 87/71/159
f 82/67/145 81/66/144 88/72/162
f 89/73/163 82/67/164 88/72/162
f 83/68/165 82/67/145 89/73/166
f 90/74/167 83/68/165 89/73/166
f 91/75/168 87/71/159 86/70/161
f 92/76/169 67/59/130 83/68/170
f 92/76/171 83/68/165 93/74/167
f 65/58/172 67/59/130 92/76/173
f 91/75/174 86/70/155 94/77/175
f 94/77/176 86/70/155 84/69/156
f 95/78/177 91/75/178 94/77/175
f 96/79/179 65/58/172 92/76/169
f 64/57/124 65/58/127 96/79/179
f 94/77/180 84/69/156 97/80/181
f 97/80/181 84/69/151 85/37/72
f 97/80/181 85/37/72 98/35/71
f 95/78/182 94/77/183 99/81/184
f 99/81/185 94/77/180 97/80/181
f 100/82/186 95/78/182 99/81/185
f 101/83/187 97/80/188 98/35/67
f 99/81/185 97/80/188 101/83/187
f 101/83/189 98/35/67 102/33/190
f 100/82/186 99/81/185 103/84/191
f 103/84/192 99/81/193 101/83/187
f 104/85/194 100/82/186 103/84/195
f 105/86/196 101/83/189 102/33/65
f 103/84/197 101/83/189 105/86/196
f 105/86/198 102/33/190 106/34/66
f 107/87/199 105/86/196 106/34/66
f 104/85/200 103/84/197 108/88/201
f 108/88/202 103/84/197 105/86/203
f 108/88/202 105/86/198 107/87/204
f 109/89/205 104/85/200 108/88/201
f 110/90/206 108/88/207 107/87/204
f 109/89/208 108/88/202 110/90/209
f 111/91/210 109/89/211 110/90/209
f 114/92/212 113/93/213 112/94/214
f 116/95/215 115/96/216 114/92/217
f 114/92/218 115/96/216 117/97/219
f 114/92/218 117/97/220 118/93/213
f 116/95/221 114/92/218 119/98/222
f 119/98/222 114/92/218 120/94/214
f 119/98/223 120/94/224 121/99/225
f 121/99/226 120/94/224 122/100/227
f 120/94/228 123/101/229 122/100/230
f 121/99/226 122/100/231 124/102/232
f 125/103/233 119/98/234 121/99/225
f 124/102/235 122/100/236 126/104/237
f 127/105/238 119/98/223 125/103/239
f 127/105/240 116/95/241 119/98/222
f 128/106/242 127/105/243 125/103/244
f 122/100/236 129/107/245 126/104/237
f 126/104/246 129/107/245 130/108/247
f 129/107/245 131/109/248 130/108/247
f 122/100/230 132/110/249 129/107/245
f 129/107/245 132/110/250 131/109/251
f 122/100/236 123/101/229 132/110/249
f 132/110/252 133/111/253 131/109/251
f 134/112/254 127/105/255 128/106/256
f 135/113/257 134/112/258 128/106/242
f 132/110/259 136/114/260 133/111/261
f 136/114/262 137/115/263 133/111/253
f 138/116/264 116/95/265 127/105/266
f 134/112/258 138/116/267 127/105/266
f 139/117/268 134/112/258 135/113/257
f 140/118/269 139/117/268 135/113/257
f 123/101/229 141/119/270 132/110/271
f 141/119/272 136/114/260 132/110/273
f 136/114/260 142/120/274 137/115/263
f 142/120/275 143/121/276 137/115/263
f 144/122/277 138/116/278 134/112/258
f 139/117/279 144/122/277 134/112/258
f 145/123/280 139/117/268 140/118/281
f 146/124/282 145/123/283 140/118/269
f 141/119/270 147/125/284 136/114/260
f 147/125/285 142/120/286 136/114/287
f 142/120/274 148/126/288 143/121/289
f 148/126/288 149/127/290 143/121/276
f 148/126/291 150/128/292 149/127/293
f 150/128/292 151/129/294 149/127/293
f 152/130/295 150/128/292 148/126/288
f 153/131/296 148/126/288 142/120/297
f 153/131/298 152/130/295 148/126/288
f 147/125/284 153/131/296 142/120/297
f 154/132/299 152/130/300 153/131/298
f 155/133/301 154/132/299 153/131/298
f 155/133/302 153/131/296 147/125/303
f 156/134/304 154/132/299 155/133/305
f 157/135/306 147/125/307 141/119/308
f 157/135/309 155/133/310 147/125/303
f 158/136/311 156/134/312 155/133/310
f 158/136/313 155/133/310 157/135/314
f 159/137/315 156/134/316 158/136/311
f 160/138/317 159/137/315 158/136/318
f 161/139/319 159/137/320 160/138/321
f 117/97/220 157/135/314 141/119/270
f 117/97/220 141/119/308 123/101/229
f 162/93/322 117/97/220 123/101/229
f 163/94/214 162/93/323 123/101/229
f 115/96/324 157/135/314 117/97/220
f 164/140/325 158/136/313 157/135/314
f 160/138/317 158/136/313 164/140/326
f 115/96/324 164/140/325 157/135/314
f 165/141/327 164/140/325 115/96/324
f 165/141/327 160/138/317 164/140/326
f 166/142/328 165/141/327 115/96/324
f 116/95/215 166/142/329 115/96/216
f 160/138/317 165/141/327 167/143/330
f 167/143/330 165/141/327 166/142/329
f 168/144/331 161/139/319 160/138/321
f 168/144/332 160/138/333 167/143/334
f 116/95/335 169/145/336 166/142/329
f 169/145/337 167/143/330 166/142/329
f 170/146/338 161/139/339 168/144/331
f 161/139/319 170/146/340 171/137/341
f 116/95/265 172/147/342 169/145/343
f 116/95/241 138/116/264 172/147/344
f 167/143/330 173/148/345 168/144/346
f 169/145/337 173/148/347 167/143/330
f 170/146/348 174/149/349 171/137/350
f 171/137/351 174/149/352 175/134/316
f 176/150/353 172/147/344 138/116/264
f 144/122/354 176/150/355 138/116/264
f 176/150/356 177/151/357 172/147/342
f 177/151/358 176/150/356 144/122/277
f 172/147/359 178/152/360 169/145/337
f 177/151/361 178/152/362 172/147/359
f 169/145/343 178/152/363 179/153/364
f 179/153/364 173/148/347 169/145/337
f 173/148/347 179/153/365 180/154/366
f 168/144/346 173/148/347 181/155/367
f 181/155/367 173/148/347 180/154/366
f 178/152/362 182/156/368 179/153/369
f 178/152/362 177/151/358 182/156/370
f 182/156/370 183/157/371 179/153/372
f 177/151/361 183/157/373 182/156/370
f 179/153/372 183/157/371 180/154/374
f 177/151/375 144/122/277 184/158/376
f 184/158/376 144/122/277 139/117/279
f 185/159/377 183/157/378 177/151/375
f 145/123/283 184/158/376 139/117/279
f 186/160/379 183/157/380 185/159/377
f 180/154/374 183/157/371 186/160/381
f 187/161/382 186/160/379 185/159/377
f 187/161/383 188/162/384 186/160/385
f 188/162/386 189/163/387 186/160/388
f 186/160/381 189/163/387 180/154/389
f 190/164/390 189/163/387 188/162/384
f 191/165/391 190/164/392 188/162/384
f 191/165/391 192/166/393 190/164/392
f 189/163/387 193/167/394 180/154/395
f 190/164/390 193/167/396 189/163/397
f 192/166/393 194/168/398 190/164/390
f 190/164/399 194/168/398 193/167/396
f 145/123/283 195/169/400 184/158/376
f 184/158/401 195/169/400 196/170/402
f 197/171/403 196/170/402 195/169/400
f 196/170/402 197/171/403 198/172/404
f 197/171/403 199/173/405 198/172/406
f 200/174/407 199/173/405 197/171/408
f 201/175/409 200/174/410 197/171/403
f 202/176/411 195/169/400 145/123/412
f 202/176/413 197/171/403 195/169/400
f 203/177/414 201/175/409 197/171/403
f 202/176/415 203/177/414 197/171/403
f 204/178/416 201/175/409 203/177/414
f 205/179/417 202/176/418 145/123/412
f 203/177/419 202/176/418 205/179/417
f 205/179/417 145/123/420 146/124/282
f 206/180/421 205/179/417 146/124/282
f 207/181/422 203/177/414 205/179/417
f 207/181/423 205/179/417 206/180/421
f 204/178/424 203/177/414 207/181/425
f 36/31/59 207/181/423 206/180/421
f 35/30/426 207/181/425 36/31/59
f 35/30/58 204/178/424 207/181/425
f 35/30/58 208/182/427 204/178/424
f 204/178/416 208/182/427 209/183/428
f 37/32/429 208/182/430 35/30/58
f 37/32/431 210/184/432 208/182/433
f 211/182/427 210/184/434 209/183/435
f 37/32/436 212/185/437 210/184/438
f 209/183/428 210/184/432 212/185/439
f 212/185/437 37/32/431 11/7/23
f 13/10/440 212/185/439 11/7/10
f 213/186/441 212/185/439 13/10/121
f 213/186/442 209/183/443 212/185/437
f 213/186/444 13/10/440 214/187/445
f 63/56/120 214/187/446 13/10/121
f 214/187/447 63/56/120 215/188/448
f 209/183/443 213/186/449 216/189/450
f 216/189/450 213/186/442 214/187/446
f 217/190/451 209/183/443 216/189/450
f 217/190/452 216/189/450 214/187/445
f 217/190/451 214/187/445 215/188/453
f 217/190/454 218/191/455 209/183/435
f 217/190/454 219/192/456 218/191/455
f 217/190/452 215/188/453 219/192/457
f 219/192/456 220/193/458 218/191/455
f 221/194/459 220/193/460 219/192/461
f 222/195/462 221/194/463 219/192/464
f 222/195/462 219/192/457 215/188/465
f 222/195/462 223/196/466 221/194/459
f 223/196/467 224/197/468 221/194/459
f 225/198/469 224/197/468 223/196/466
f 226/199/470 223/196/467 222/195/462
f 226/199/471 222/195/472 215/188/473
f 63/56/474 227/200/475 215/188/448
f 63/56/474 60/53/119 227/200/476
f 228/201/477 225/198/469 223/196/478
f 228/201/477 223/196/467 226/199/470
f 229/202/479 215/188/473 227/200/476
f 229/202/480 226/199/471 215/188/473
f 229/202/481 227/200/482 230/203/483
f 60/53/114 231/204/484 227/200/476
f 227/200/485 231/204/486 230/203/483
f 64/57/487 231/204/484 60/53/114
f 231/204/486 64/57/123 230/203/488
f 229/202/480 232/205/489 226/199/471
f 232/205/489 229/202/480 230/203/483
f 233/206/490 226/199/471 232/205/491
f 233/206/492 228/201/477 226/199/493
f 228/201/477 234/207/494 225/198/469
f 234/207/495 235/208/496 225/198/469
f 235/208/497 234/207/495 192/166/393
f 234/207/498 194/168/398 192/166/393
f 236/209/499 234/207/498 228/201/477
f 234/207/500 236/209/499 194/168/398
f 233/206/501 236/209/502 228/201/503
f 237/210/504 233/206/505 232/205/491
f 237/210/504 232/205/491 230/203/506
f 238/211/507 237/210/504 230/203/506
f 64/57/124 239/212/508 230/203/483
f 238/211/509 230/203/510 239/212/511
f 239/212/511 64/57/124 96/79/179
f 237/210/504 240/213/512 233/206/513
f 240/213/514 236/209/499 233/206/515
f 237/210/504 238/211/507 240/213/514
f 236/209/502 241/214/516 194/168/517
f 236/209/499 240/213/514 241/214/518
f 194/168/398 241/214/519 193/167/520
f 240/213/521 242/215/522 241/214/516
f 238/211/507 242/215/522 240/213/514
f 242/215/522 238/211/507 243/216/523
f 241/214/518 242/215/522 244/217/524
f 193/167/525 241/214/526 244/217/524
f 244/217/524 242/215/522 243/216/527
f 244/217/528 245/218/529 193/167/525
f 245/218/529 244/217/528 243/216/530
f 193/167/525 245/218/529 180/154/389
f 180/154/366 245/218/529 181/155/367
f 181/155/531 245/218/532 243/216/533
f 246/219/534 181/155/535 243/216/530
f 246/219/534 168/144/331 181/155/367
f 246/219/536 170/146/340 168/144/331
f 170/146/340 246/219/534 243/216/530
f 247/220/537 170/146/348 243/216/530
f 243/216/538 238/211/539 247/220/540
f 170/146/348 247/220/540 174/149/349
f 238/211/507 248/221/541 247/220/540
f 248/221/541 238/211/507 239/212/511
f 247/220/537 249/222/542 174/149/349
f 247/220/540 248/221/541 249/222/543
f 248/221/541 239/212/511 250/223/544
f 248/221/545 250/223/544 249/222/543
f 239/212/511 96/79/546 250/223/544
f 174/149/547 249/222/542 251/224/548
f 174/149/352 251/224/548 175/134/316
f 175/134/316 251/224/548 252/132/299
f 249/222/543 250/223/549 253/225/550
f 249/222/542 253/225/550 251/224/548
f 250/223/544 96/79/551 254/226/552
f 250/223/549 254/226/552 253/225/553
f 96/79/551 92/76/171 254/226/552
f 254/226/552 92/76/171 255/74/167
f 251/224/554 256/227/555 252/132/299
f 251/224/548 253/225/550 256/227/555
f 252/132/299 256/227/555 257/130/300
f 253/225/556 254/226/552 258/228/557
f 253/225/550 258/228/558 256/227/555
f 254/226/559 259/74/167 258/228/557
f 256/227/555 260/229/560 257/130/300
f 256/227/555 258/228/558 260/229/561
f 257/130/300 260/229/560 261/128/292
f 258/228/562 262/230/563 260/229/560
f 258/228/557 263/74/167 262/230/564
f 260/229/560 264/231/565 261/128/292
f 260/229/560 262/230/564 264/231/565
f 261/128/292 264/231/565 265/129/566
f 262/230/564 266/232/567 264/231/565
f 264/231/565 267/233/568 265/129/569
f 264/231/565 266/232/567 267/233/570
f 262/230/571 268/234/163 266/232/567
f 269/74/167 268/234/166 262/230/564
f 268/234/163 270/235/162 266/232/567
f 266/232/567 270/235/162 271/236/572
f 266/232/567 271/236/573 267/233/570
f 270/235/162 272/237/159 271/236/572
f 271/236/572 272/237/159 273/238/168
f 274/239/574 271/236/572 273/238/168
f 267/233/570 271/236/573 274/239/574
f 274/239/575 273/238/174 275/240/177
f 265/129/294 267/233/568 276/241/576
f 276/241/576 267/233/570 274/239/574
f 277/127/293 265/129/294 276/241/576
f 278/242/577 274/239/575 275/240/177
f 276/241/576 274/239/574 278/242/577
f 278/242/578 275/240/182 279/243/186
f 277/127/579 276/241/580 280/244/581
f 280/244/582 276/241/576 278/242/577
f 281/121/583 277/127/293 280/244/581
f 282/245/584 278/242/585 279/243/186
f 280/244/586 278/242/587 282/245/588
f 282/245/584 279/243/186 283/246/194
f 281/121/589 280/244/581 284/247/590
f 284/247/590 280/244/586 282/245/584
f 285/115/263 281/121/589 284/247/590
f 286/248/591 282/245/592 283/246/194
f 284/247/593 282/245/584 286/248/594
f 286/248/595 283/246/200 287/249/596
f 285/115/597 284/247/593 288/250/598
f 288/250/598 284/247/593 286/248/594
f 289/111/261 285/115/597 288/250/598
f 290/251/599 286/248/595 287/249/205
f 288/250/600 286/248/601 290/251/602
f 290/251/599 287/249/211 291/252/210
f 292/253/603 290/251/599 291/252/210
f 289/111/604 288/250/600 293/254/605
f 293/254/606 288/250/600 290/251/602
f 293/254/607 290/251/608 292/253/609
f 294/109/251 289/111/610 293/254/606
f 295/255/611 293/254/607 292/253/612
f 294/109/613 293/254/606 295/255/611
f 296/108/247 294/109/248 295/255/614
f 299/256/615 298/257/616 297/258/617
f 299/256/618 300/259/619 298/257/620
f 300/259/619 301/3/621 298/257/622
f 300/259/619 302/260/623 301/3/621
f 302/260/624 303/1/625 301/3/621
f 303/1/626 302/260/624 304/261/627
f 298/257/628 301/3/629 305/262/630
f 305/262/630 301/3/631 306/2/2
f 307/263/632 298/257/628 305/262/630
f 298/257/628 307/263/633 308/258/617
f 305/262/630 306/2/634 309/264/635
f 306/2/636 310/1/625 309/264/635
f 307/263/633 305/262/630 311/265/637
f 311/265/637 305/262/630 309/264/638
f 312/266/639 307/263/640 311/265/641
f 312/266/642 311/265/637 313/267/643
f 307/263/640 312/266/639 314/258/617
f 312/266/644 315/268/645 314/258/617
f 315/268/646 312/266/642 313/267/647
f 316/269/648 315/268/646 313/267/649
f 316/269/648 313/267/649 317/270/650
f 313/267/649 318/271/651 317/270/652
f 319/272/653 317/270/654 318/271/655
f 309/264/656 320/273/657 311/265/637
f 309/264/656 321/274/658 320/273/657
f 322/275/659 320/273/660 321/274/658
f 311/265/637 323/276/661 313/267/643
f 320/273/657 323/276/662 311/265/637
f 313/267/649 323/276/661 324/277/663
f 324/277/664 323/276/662 320/273/660
f 318/271/665 313/267/643 324/277/664
f 322/275/659 324/277/664 320/273/660
f 324/277/666 325/278/667 318/271/651
f 322/275/668 326/279/669 324/277/664
f 326/279/669 325/278/667 324/277/664
f 327/280/670 326/279/671 322/275/659
f 325/278/667 328/281/672 318/271/673
f 328/281/672 329/272/653 318/271/655
f 326/279/671 330/282/674 325/278/667
f 325/278/675 330/282/676 328/281/677
f 331/283/623 330/282/676 326/279/669
f 332/280/678 331/283/623 326/279/669
f 332/280/670 304/261/679 331/283/624
f 330/282/680 331/283/623 333/284/619
f 330/282/680 333/284/619 334/285/618
f 330/282/676 335/286/681 328/281/672
f 335/286/681 330/282/680 334/285/618
f 328/281/672 335/286/682 336/272/653
f 335/286/681 334/285/618 336/272/653
f 338/274/683 337/280/684 322/275/659
f 337/280/685 338/274/683 339/261/686
f 342/1/687 341/261/686 340/274/688
f 342/1/1 340/274/689 309/264/638
f 345/257/690 344/256/691 343/258/692
f 346/259/693 344/256/694 345/257/695
f 347/3/6 346/259/693 345/257/696
f 348/260/697 346/259/693 347/3/6
f 349/1/698 348/260/697 347/3/699
f 348/260/697 349/1/700 350/261/701
f 347/3/702 345/257/695 351/262/703
f 347/3/702 351/262/703 352/2/4
f 345/257/695 353/263/704 351/262/703
f 353/263/704 345/257/705 354/258/706
f 352/2/707 351/262/703 355/264/708
f 356/1/700 352/2/707 355/264/709
f 351/262/703 353/263/710 357/265/711
f 351/262/703 357/265/711 355/264/709
f 353/263/710 358/266/712 357/265/713
f 357/265/711 358/266/714 359/267/715
f 358/266/712 353/263/704 360/258/706
f 361/268/716 358/266/717 360/258/692
f 358/266/718 361/268/719 359/267/720
f 361/268/719 362/269/721 359/267/722
f 359/267/722 362/269/721 363/270/723
f 364/271/724 359/267/722 363/270/725
f 363/270/723 365/272/726 364/271/727
f 366/273/728 355/264/729 357/265/711
f 367/274/730 355/264/729 366/273/728
f 366/273/731 368/275/732 367/274/733
f 369/276/734 357/265/711 359/267/715
f 369/276/734 366/273/728 357/265/711
f 369/276/735 359/267/715 370/277/736
f 369/276/734 370/277/737 366/273/731
f 359/267/715 364/271/738 370/277/736
f 370/277/737 368/275/732 366/273/731
f 371/278/739 370/277/740 364/271/738
f 372/279/741 368/275/742 370/277/737
f 371/278/739 372/279/743 370/277/737
f 372/279/741 373/280/744 368/275/732
f 374/281/745 371/278/746 364/271/747
f 375/272/726 374/281/745 364/271/747
f 376/282/748 372/279/741 371/278/739
f 376/282/749 371/278/750 374/281/751
f 376/282/749 377/283/697 372/279/741
f 377/283/752 378/280/744 372/279/753
f 350/261/754 378/280/744 377/283/752
f 377/283/697 376/282/748 379/284/693
f 379/284/755 376/282/748 380/285/694
f 381/286/756 376/282/748 374/281/745
f 376/282/748 381/286/756 380/285/694
f 381/286/757 374/281/745 382/272/758
f 380/285/694 381/286/756 382/272/726
f 384/280/759 383/274/760 368/275/761
f 383/274/760 384/280/762 385/261/763
f 388/261/764 387/1/765 386/274/730
f 386/274/733 387/1/766 355/264/709
f 391/287/767 390/91/210 389/90/768
f 392/288/769 391/287/767 389/90/768
f 392/288/769 389/90/206 393/87/770
f 394/289/771 391/287/767 392/288/769
f 395/290/772 392/288/769 393/87/770
f 395/290/773 393/87/199 396/34/774
f 397/29/64 395/290/775 396/34/774
f 398/291/776 394/289/771 392/288/769
f 398/291/777 392/288/769 395/290/772
f 399/292/778 394/289/779 398/291/777
f 400/293/780 395/290/773 397/29/781
f 400/293/782 398/291/777 395/290/772
f 401/23/54 400/293/783 397/29/784
f 402/294/785 398/291/786 400/293/783
f 402/294/787 403/292/778 398/291/777
f 404/295/788 400/293/783 401/23/42
f 404/295/789 402/294/790 400/293/783
f 405/18/35 404/295/788 401/23/42
f 406/296/791 404/295/792 405/18/33
f 407/21/39 406/296/791 405/18/33
f 408/297/793 402/294/790 404/295/794
f 406/296/795 408/297/793 404/295/789
f 409/298/796 406/296/791 407/21/797
f 410/22/798 409/298/799 407/21/39
f 411/27/53 409/298/800 410/22/45
f 412/25/50 411/27/53 410/22/45
f 411/27/53 413/31/59 409/298/801
f 409/298/796 414/299/802 406/296/795
f 413/31/59 414/299/802 409/298/801
f 414/299/802 408/297/793 406/296/791
f 413/31/59 415/180/421 414/299/803
f 415/180/421 416/300/804 414/299/803
f 414/299/803 416/300/804 408/297/793
f 415/180/421 417/124/282 416/300/804
f 408/297/805 418/301/806 402/294/787
f 416/300/807 418/301/806 408/297/808
f 418/301/809 419/292/778 402/294/787
f 417/124/810 420/302/811 416/300/804
f 416/300/804 420/302/811 418/301/806
f 417/124/282 421/118/269 420/302/812
f 420/302/813 422/303/814 418/301/806
f 418/301/806 422/303/814 423/292/778
f 421/118/269 424/304/815 420/302/812
f 420/302/812 424/304/816 422/303/817
f 421/118/269 425/113/257 424/304/818
f 425/113/257 426/106/256 424/304/818
f 424/304/816 426/106/819 427/305/820
f 424/304/816 427/305/820 422/303/821
f 426/106/819 428/103/244 427/305/820
f 422/303/817 427/305/822 429/306/823
f 422/303/814 429/306/824 430/292/778
f 427/305/820 428/103/233 431/307/825
f 427/305/820 431/307/825 429/306/826
f 428/103/233 432/99/225 431/307/825
f 431/307/827 432/99/226 433/308/828
f 432/99/226 434/102/232 433/308/828
f 429/306/826 431/307/827 435/309/829
f 431/307/827 433/308/828 435/309/830
f 433/308/831 434/102/232 436/310/832
f 434/102/232 437/104/833 436/310/832
f 429/306/824 435/309/830 438/311/779
f 439/292/778 429/306/824 438/311/779
f 438/311/771 435/309/834 440/312/767
f 435/309/835 433/308/831 441/313/836
f 435/309/830 441/313/836 440/312/767
f 433/308/831 436/310/837 441/313/836
f 440/312/767 441/313/838 442/252/210
f 441/313/836 443/253/839 442/252/840
f 441/313/836 436/310/841 443/253/612
f 436/310/841 444/255/842 443/253/612
f 436/310/843 437/104/844 444/255/842
f 437/104/844 445/108/247 444/255/614
