# Blender 4.1.0
# www.blender.org
mtllib slime_DLC_saber_LOD1.mtl
o slime_DLC_saber_LOD1
v -0.226583 0.183309 0.445225
v -0.231226 0.170688 0.464387
v -0.198472 0.127115 0.463197
v 0.226583 0.183147 0.445222
v 0.198472 0.127689 0.463197
v 0.231226 0.170660 0.464387
v 0.501511 0.250279 -0.181663
v 0.489606 0.132067 -0.020754
v 0.620211 0.252189 -0.079028
v 0.620211 0.252189 -0.079028
v 0.544979 0.379823 -0.039220
v 0.546916 0.253677 0.093002
v 0.475582 0.371138 -0.144607
v 0.517190 0.375792 0.135157
v 0.426137 0.237239 0.293768
v 0.451994 0.148876 0.132902
v 0.475751 0.530245 0.009353
v 0.489606 0.132067 -0.020754
v 0.399948 0.137266 -0.180834
v 0.354202 0.252708 -0.338230
v 0.352400 0.060809 -0.024345
v 0.342013 0.081472 0.122302
v 0.320612 0.069389 -0.173773
v 0.310956 0.095751 0.229259
v 0.330477 0.156306 -0.305243
v 0.286248 0.096545 -0.286551
v 0.380089 0.149832 0.259501
v 0.282609 0.107809 0.286598
v 0.306738 0.148121 0.312077
v 0.223977 0.086108 0.313821
v 0.276307 0.168773 -0.372976
v 0.258263 0.120201 -0.344953
v 0.294125 0.255385 -0.400547
v 0.310759 0.368774 -0.375697
v 0.382825 0.374341 -0.287777
v 0.311615 0.495818 -0.338923
v 0.380759 0.496782 -0.240901
v 0.298103 0.609773 -0.305431
v 0.231264 0.130455 0.367257
v 0.124414 0.060253 0.339879
v 0.440883 0.517712 -0.121059
v 0.354241 0.616122 -0.226386
v 0.278664 0.682068 -0.277375
v 0.307857 0.710370 -0.218338
v 0.401364 0.628301 -0.120063
v 0.335842 0.734874 -0.118194
v 0.422835 0.632242 0.007923
v 0.349272 0.737096 0.006330
v 0.457014 0.506266 0.142038
v 0.406023 0.615013 0.133412
v 0.336150 0.714666 0.130466
v 0.444456 0.352592 0.287892
v 0.386799 0.348722 0.354446
v 0.415110 0.469914 0.256625
v 0.363572 0.588606 0.240489
v 0.310092 0.678303 0.233179
v 0.321414 0.575552 0.302975
v 0.282438 0.643524 0.291181
v 0.368913 0.440853 0.328883
v 0.326006 0.427815 0.383704
v 0.358702 0.292828 0.372404
v 0.327174 0.223785 0.337262
v 0.223977 0.672985 0.319382
v 0.232503 0.739972 0.242920
v 0.310092 0.678303 0.233179
v 0.247360 0.796001 0.135384
v 0.336150 0.714666 0.130466
v 0.254486 0.826866 0.008001
v 0.349272 0.737096 0.006330
v 0.247360 0.823163 -0.120039
v 0.335842 0.734874 -0.118194
v 0.232503 0.780143 -0.225709
v 0.307857 0.710370 -0.218338
v 0.222808 0.718965 -0.304480
v 0.278664 0.682068 -0.277375
v 0.298103 0.609773 -0.305431
v 0.227583 0.629445 -0.363162
v 0.311615 0.495818 -0.338923
v 0.124414 0.758091 -0.329946
v 0.127764 0.835198 -0.239616
v 0.133654 0.889963 -0.124783
v 0.136851 0.893549 0.009237
v 0.233285 0.508861 -0.414155
v 0.310759 0.368774 -0.375697
v 0.127181 0.656476 -0.405082
v 0.000000 0.779670 -0.342821
v 0.000000 0.861679 -0.246404
v 0.000000 0.923692 -0.127585
v 0.000000 0.921195 0.009670
v -0.000000 0.672843 -0.420630
v 0.133654 0.857173 0.142451
v 0.000000 0.921195 0.009670
v 0.130298 0.526244 -0.465351
v 0.000000 0.538326 -0.484721
v 0.127764 0.787145 0.258720
v 0.233087 0.376711 -0.445047
v 0.294125 0.255385 -0.400547
v 0.130626 0.386639 -0.497270
v -0.000000 0.394424 -0.511760
v 0.224570 0.256790 -0.443353
v 0.276307 0.168773 -0.372976
v 0.126639 0.259721 -0.492356
v -0.000000 0.266066 -0.510117
v 0.213749 0.165871 -0.419824
v 0.258263 0.120201 -0.344953
v 0.207752 0.104608 -0.379678
v 0.121574 0.161398 -0.461918
v -0.000000 0.164065 -0.476998
v 0.118905 0.091048 -0.412244
v -0.000000 0.089197 -0.426735
v 0.620211 0.252189 -0.079028
v 0.489606 0.132067 -0.020754
v -0.489571 0.132595 -0.020806
v -0.620210 0.254124 -0.078999
v -0.547112 0.253465 0.092487
v -0.517255 0.370911 0.135109
v -0.426137 0.225966 0.293768
v -0.545299 0.383347 -0.039186
v -0.620210 0.254124 -0.078999
v -0.451923 0.145551 0.132866
v -0.489571 0.132595 -0.020806
v -0.352086 0.060976 -0.024091
v -0.400286 0.136503 -0.179300
v -0.499440 0.249857 -0.181796
v -0.320533 0.069380 -0.173578
v -0.342119 0.079309 0.122383
v -0.286385 0.095961 -0.285867
v -0.380081 0.141459 0.259487
v -0.310956 0.090352 0.229259
v -0.330241 0.156420 -0.304660
v -0.258254 0.120201 -0.344978
v -0.276147 0.169429 -0.373362
v -0.354196 0.252708 -0.338242
v -0.294125 0.255355 -0.400549
v -0.306742 0.138500 0.312063
v -0.282609 0.101370 0.286598
v -0.380212 0.371743 -0.287381
v -0.310910 0.367424 -0.375515
v -0.327199 0.209197 0.337264
v -0.231264 0.126374 0.367237
v -0.223977 0.082456 0.313820
v -0.481453 0.360396 -0.152155
v -0.380066 0.496051 -0.241456
v -0.311587 0.495244 -0.339009
v -0.238692 0.203490 0.406154
v -0.127905 0.111922 0.409123
v -0.124414 0.059182 0.339879
v -0.440847 0.515922 -0.120902
v -0.354190 0.615628 -0.226323
v -0.298080 0.609339 -0.305416
v -0.307824 0.709977 -0.218343
v -0.278631 0.681654 -0.277396
v -0.335842 0.734955 -0.118194
v -0.401346 0.628381 -0.120095
v -0.349272 0.737314 0.006330
v -0.422826 0.632366 0.007909
v -0.336150 0.714093 0.130466
v -0.477213 0.530169 0.009506
v -0.406404 0.611529 0.134068
v -0.310091 0.676189 0.233162
v -0.363578 0.584488 0.240512
v -0.282438 0.643358 0.291181
v -0.620210 0.254124 -0.078999
v -0.489571 0.132595 -0.020806
v -0.457069 0.501623 0.142125
v -0.415078 0.462333 0.256584
v -0.444474 0.340614 0.287928
v -0.368913 0.432669 0.328898
v -0.321414 0.572785 0.303000
v -0.386791 0.336959 0.354446
v -0.223977 0.672309 0.319382
v -0.310091 0.676189 0.233162
v -0.358688 0.276203 0.372293
v -0.326006 0.420550 0.383704
v -0.232503 0.737536 0.242903
v -0.336150 0.714093 0.130466
v -0.307902 0.262598 0.396737
v -0.282573 0.286908 0.416588
v -0.343713 0.301901 0.397987
v -0.320110 0.374281 0.417334
v -0.248802 0.408981 0.475950
v -0.246212 0.473824 0.440290
v -0.324063 0.329536 0.430090
v -0.291039 0.338392 0.455703
v -0.183236 0.201742 0.432179
v -0.271596 0.311791 0.452914
v -0.249859 0.354850 0.486924
v -0.240820 0.337138 0.485803
v -0.172016 0.366928 0.498137
v -0.189419 0.381979 0.507602
v -0.140273 0.400093 0.513780
v -0.130742 0.372956 0.482958
v -0.070519 0.415451 0.487210
v -0.154009 0.446543 0.507543
v -0.075251 0.440573 0.511569
v -0.131252 0.200984 0.457059
v -0.130742 0.372956 0.482958
v -0.000000 0.339101 0.492712
v -0.070519 0.415451 0.487210
v -0.000000 0.462972 0.491144
v 0.070519 0.407976 0.487210
v 0.130742 0.367527 0.482958
v -0.000000 0.207092 0.477597
v 0.131252 0.205744 0.457059
v 0.183236 0.201822 0.432179
v -0.000000 0.115327 0.425279
v -0.000000 0.056295 0.352976
v 0.127905 0.111922 0.409123
v 0.238692 0.209809 0.406163
v 0.282573 0.295469 0.416579
v 0.307902 0.274546 0.396779
v 0.238692 0.209809 0.406163
v 0.343713 0.313341 0.397987
v 0.320110 0.381066 0.417317
v 0.248802 0.410459 0.475940
v 0.324063 0.337792 0.430074
v 0.291039 0.344207 0.455693
v 0.271596 0.317394 0.452905
v 0.249859 0.357552 0.486924
v 0.240820 0.339744 0.485798
v 0.172016 0.362837 0.498121
v 0.189419 0.378600 0.507585
v 0.140273 0.395076 0.513780
v 0.130742 0.367527 0.482958
v 0.070519 0.407976 0.487210
v 0.154009 0.441720 0.507543
v 0.246212 0.474435 0.440278
v 0.075251 0.431833 0.511566
v 0.187900 0.499258 0.468070
v 0.128107 0.611579 0.421048
v 0.238741 0.582469 0.379674
v 0.144845 0.519570 0.472799
v 0.082593 0.468526 0.514439
v -0.000000 0.482111 0.502683
v -0.000000 0.462972 0.491144
v 0.000000 0.511452 0.511187
v 0.069495 0.545995 0.478136
v -0.000000 0.620976 0.437134
v 0.124414 0.698974 0.346013
v 0.000000 0.555159 0.485698
v -0.082593 0.476587 0.514439
v -0.069495 0.548046 0.478136
v -0.128107 0.611312 0.421049
v -0.144845 0.523947 0.472806
v -0.187900 0.502208 0.468072
v -0.238741 0.583622 0.379689
v -0.124414 0.698605 0.346013
v -0.000000 0.710914 0.359320
v -0.127764 0.785406 0.258709
v -0.000000 0.804884 0.266190
v -0.247360 0.795541 0.135384
v -0.349272 0.737314 0.006330
v -0.133654 0.855484 0.142445
v 0.000000 0.881092 0.146077
v 0.000000 0.921195 0.009670
v -0.254486 0.827284 0.008001
v -0.335842 0.734955 -0.118194
v -0.136851 0.893610 0.009237
v 0.000000 0.921195 0.009670
v -0.247360 0.823217 -0.120039
v -0.307824 0.709977 -0.218343
v -0.133654 0.890009 -0.124783
v 0.000000 0.921195 0.009670
v -0.232504 0.779914 -0.225722
v -0.278631 0.681654 -0.277396
v -0.127764 0.835198 -0.239616
v -0.222808 0.718711 -0.304489
v 0.000000 0.923692 -0.127585
v 0.000000 0.921195 0.009670
v 0.000000 0.861679 -0.246404
v -0.124414 0.757757 -0.329946
v 0.000000 0.779670 -0.342821
v -0.000000 0.672843 -0.420630
v -0.127180 0.656380 -0.405082
v 0.000000 0.538326 -0.484721
v -0.227572 0.629301 -0.363168
v -0.298080 0.609339 -0.305416
v -0.130284 0.525633 -0.465423
v -0.000000 0.394424 -0.511760
v -0.233264 0.508373 -0.414234
v -0.311587 0.495244 -0.339009
v -0.130602 0.385000 -0.497430
v -0.000000 0.266066 -0.510117
v -0.233098 0.375127 -0.445094
v -0.310910 0.367424 -0.375515
v -0.126639 0.259884 -0.492356
v -0.000000 0.164065 -0.476998
v -0.224570 0.256727 -0.443481
v -0.294125 0.255355 -0.400549
v -0.121567 0.162070 -0.461918
v -0.000000 0.089197 -0.426735
v -0.118905 0.091048 -0.412244
v -0.213690 0.166625 -0.420020
v -0.276147 0.169429 -0.373362
v -0.207762 0.104657 -0.379693
v -0.258254 0.120201 -0.344978
v -0.282573 0.286908 0.416588
v -0.250639 0.225240 0.432579
v -0.183236 0.201742 0.432179
v -0.181680 0.178889 0.444666
v -0.226583 0.183309 0.445225
v -0.181040 0.139038 0.457228
v -0.198472 0.127115 0.463197
v -0.181961 0.107448 0.464130
v -0.250766 0.200602 0.458321
v -0.231226 0.170688 0.464387
v -0.269565 0.240329 0.444881
v -0.282573 0.286908 0.416588
v -0.231624 0.171932 0.485139
v -0.198472 0.127115 0.463197
v -0.247664 0.208291 0.485645
v -0.262003 0.254254 0.480155
v -0.229478 0.273659 0.511930
v -0.282573 0.286908 0.416588
v -0.271596 0.311791 0.452914
v -0.240820 0.337138 0.485803
v -0.172016 0.366928 0.498137
v -0.168205 0.289375 0.514452
v -0.130742 0.372956 0.482958
v -0.204756 0.173401 0.506240
v -0.191753 0.132090 0.485004
v -0.176825 0.176771 0.507566
v -0.218088 0.217432 0.516686
v -0.171252 0.220936 0.516971
v -0.147644 0.216436 0.497288
v -0.157990 0.177480 0.491888
v -0.171374 0.132969 0.474966
v -0.140030 0.283465 0.498297
v -0.130742 0.372956 0.482958
v -0.152738 0.195323 0.475339
v -0.181040 0.139038 0.457228
v -0.171374 0.132969 0.474966
v -0.181680 0.178889 0.444666
v -0.183236 0.201742 0.432179
v -0.142466 0.264951 0.480939
v -0.130742 0.372956 0.482958
v -0.171374 0.132969 0.474966
v -0.191753 0.132090 0.485004
v -0.181961 0.107448 0.464130
v -0.191753 0.132090 0.485004
v -0.181961 0.107448 0.464130
v -0.198472 0.127115 0.463197
v 0.282573 0.295469 0.416579
v 0.183236 0.201822 0.432179
v 0.250639 0.230518 0.432597
v 0.181680 0.179023 0.444666
v 0.226583 0.183147 0.445222
v 0.181040 0.139070 0.457228
v 0.198472 0.127689 0.463197
v 0.181961 0.107594 0.464130
v 0.250766 0.200808 0.458321
v 0.231226 0.170660 0.464387
v 0.269565 0.245096 0.444881
v 0.282573 0.295469 0.416579
v 0.262003 0.260504 0.480155
v 0.231624 0.172086 0.485139
v 0.198472 0.127689 0.463197
v 0.247664 0.208072 0.485642
v 0.229478 0.276501 0.511930
v 0.271596 0.317394 0.452905
v 0.282573 0.295469 0.416579
v 0.240820 0.339744 0.485798
v 0.172016 0.362837 0.498121
v 0.168205 0.287803 0.514447
v 0.130742 0.367527 0.482958
v 0.204756 0.173337 0.506240
v 0.191753 0.132435 0.485004
v 0.176825 0.176685 0.507558
v 0.218088 0.217157 0.516686
v 0.171252 0.220936 0.516971
v 0.147644 0.217131 0.497288
v 0.157990 0.177279 0.491888
v 0.171374 0.132655 0.474966
v 0.140030 0.280710 0.498297
v 0.130742 0.367527 0.482958
v 0.152738 0.195355 0.475339
v 0.181040 0.139070 0.457228
v 0.171374 0.132655 0.474966
v 0.181680 0.179023 0.444666
v 0.183236 0.201822 0.432179
v 0.142466 0.266191 0.480932
v 0.130742 0.367527 0.482958
v 0.191753 0.132435 0.485004
v 0.171374 0.132655 0.474966
v 0.181961 0.107594 0.464130
v 0.191753 0.132435 0.485004
v 0.198472 0.127689 0.463197
v 0.181961 0.107594 0.464130
v 0.118905 0.091048 -0.412244
v -0.000000 0.089197 -0.426735
v -0.000000 0.034179 -0.352762
v 0.123011 0.038637 -0.340090
v 0.207752 0.104608 -0.379678
v -0.000000 -0.000425 -0.242235
v 0.217685 0.061724 -0.310794
v 0.258263 0.120201 -0.344953
v 0.286248 0.096545 -0.286551
v 0.130316 0.003696 -0.230146
v -0.000000 -0.003536 -0.084435
v 0.236276 0.029628 -0.201952
v 0.320612 0.069389 -0.173773
v 0.135969 -0.004953 -0.075177
v -0.000000 -0.003536 -0.084435
v 0.250754 0.021265 -0.052365
v 0.352400 0.060809 -0.024345
v 0.248050 0.041693 0.105558
v 0.342013 0.081472 0.122302
v 0.133654 0.016646 0.097322
v 0.232582 0.061611 0.233425
v 0.310956 0.095751 0.229259
v 0.223977 0.086108 0.313821
v 0.282609 0.107809 0.286598
v 0.124414 0.060253 0.339879
v 0.127764 0.035698 0.245208
v -0.000000 0.056295 0.352976
v -0.000000 0.028580 0.251187
v -0.124414 0.059182 0.339879
v -0.000000 0.012981 0.095087
v -0.000000 -0.003536 -0.084435
v -0.127764 0.034420 0.245208
v -0.223977 0.082456 0.313820
v -0.133654 0.016498 0.097322
v -0.000000 -0.003536 -0.084435
v -0.232582 0.058016 0.233425
v -0.282609 0.101370 0.286598
v -0.310956 0.090352 0.229259
v -0.247769 0.041499 0.104968
v -0.342119 0.079309 0.122383
v -0.135978 -0.005203 -0.075134
v -0.000000 -0.003536 -0.084435
v -0.250840 0.021086 -0.052121
v -0.352086 0.060976 -0.024091
v -0.236265 0.029697 -0.201987
v -0.320533 0.069380 -0.173578
v -0.130313 0.003747 -0.230146
v -0.217719 0.061528 -0.310684
v -0.286385 0.095961 -0.285867
v -0.000000 -0.000425 -0.242235
v -0.000000 -0.003536 -0.084435
v -0.000000 0.034179 -0.352762
v -0.123185 0.038441 -0.340090
v -0.000000 0.089197 -0.426735
v -0.118905 0.091048 -0.412244
v -0.207762 0.104657 -0.379693
v -0.258254 0.120201 -0.344978
vn -0.6718 -0.6407 -0.3719
vn -0.7496 -0.6077 -0.2625
vn -0.2751 -0.4417 -0.8539
vn 0.7490 -0.6105 -0.2575
vn 0.6713 -0.6430 -0.3687
vn 0.2817 -0.4235 -0.8610
vn 0.9557 -0.1776 -0.2346
vn 0.6158 -0.7867 -0.0431
vn 0.7277 -0.1915 -0.6586
vn 0.8850 0.4446 -0.1386
vn 0.9557 -0.1777 -0.2346
vn 0.7278 -0.1916 -0.6585
vn 0.8992 -0.2141 0.3816
vn 0.8849 0.4446 -0.1386
vn 0.8849 0.4446 -0.1387
vn 0.7277 -0.1916 -0.6586
vn 0.8003 0.2962 -0.5213
vn 0.9044 0.2368 0.3549
vn 0.8992 -0.2140 0.3815
vn 0.7433 -0.3374 0.5776
vn 0.9044 0.2367 0.3549
vn 0.7433 -0.3375 0.5776
vn 0.6410 -0.7056 0.3022
vn 0.8992 -0.2141 0.3815
vn 0.9104 0.4131 -0.0236
vn 0.8003 0.2963 -0.5212
vn 0.9044 0.2368 0.3548
vn 0.6158 -0.7867 -0.0430
vn 0.6246 -0.6611 -0.4158
vn 0.7515 -0.1376 -0.6452
vn 0.7277 -0.1916 -0.6585
vn 0.6245 -0.6611 -0.4158
vn 0.7515 -0.1377 -0.6452
vn 0.6409 -0.7056 0.3022
vn 0.4295 -0.9031 0.0044
vn 0.4295 -0.9031 0.0043
vn 0.4296 -0.8812 0.1972
vn 0.4295 -0.9030 0.0044
vn 0.5277 -0.8154 -0.2381
vn 0.6246 -0.6611 -0.4157
vn 0.4434 -0.8489 0.2879
vn 0.6848 -0.5189 -0.5117
vn 0.5678 -0.7141 -0.4095
vn 0.6848 -0.5189 -0.5116
vn 0.5539 -0.6819 0.4778
vn 0.4651 -0.7650 0.4455
vn 0.4433 -0.8489 0.2879
vn 0.5539 -0.6818 0.4778
vn 0.5540 -0.6818 0.4778
vn 0.5272 -0.5366 0.6589
vn 0.4651 -0.7650 0.4456
vn 0.5272 -0.5365 0.6589
vn 0.3689 -0.8296 0.4190
vn 0.6080 -0.4163 -0.6761
vn 0.5645 -0.6015 -0.5653
vn 0.6080 -0.4162 -0.6761
vn 0.6605 -0.1183 -0.7415
vn 0.6604 -0.1183 -0.7415
vn 0.6605 -0.1182 -0.7415
vn 0.7132 0.1250 -0.6897
vn 0.8089 0.1560 -0.5669
vn 0.7133 0.1250 -0.6897
vn 0.7335 0.2314 -0.6391
vn 0.8004 0.2962 -0.5212
vn 0.7516 -0.1376 -0.6452
vn 0.8182 0.2451 -0.5201
vn 0.8004 0.2962 -0.5213
vn 0.8182 0.2451 -0.5200
vn 0.7183 0.3231 -0.6162
vn 0.4834 -0.5825 0.6535
vn 0.3690 -0.8296 0.4190
vn 0.3689 -0.8297 0.4190
vn 0.1724 -0.8869 0.4286
vn 0.8786 0.2949 -0.3756
vn 0.8786 0.2949 -0.3755
vn 0.8106 0.3404 -0.4765
vn 0.8106 0.3405 -0.4765
vn 0.6602 0.4729 -0.5835
vn 0.7195 0.5459 -0.4293
vn 0.8105 0.3405 -0.4766
vn 0.8585 0.4244 -0.2878
vn 0.9104 0.4130 -0.0236
vn 0.7594 0.6136 -0.2164
vn 0.8680 0.4965 0.0064
vn 0.7594 0.6136 -0.2163
vn 0.7618 0.6462 0.0457
vn 0.8530 0.3984 0.3371
vn 0.8680 0.4965 0.0065
vn 0.8530 0.3983 0.3371
vn 0.8224 0.4871 0.2939
vn 0.7618 0.6462 0.0458
vn 0.7226 0.6278 0.2893
vn 0.7618 0.6462 0.0459
vn 0.8424 0.1750 0.5096
vn 0.8530 0.3983 0.3372
vn 0.8424 0.1750 0.5097
vn 0.7435 0.1634 0.6485
vn 0.8424 0.1749 0.5097
vn 0.7911 0.3658 0.4903
vn 0.7910 0.3659 0.4903
vn 0.8530 0.3984 0.3372
vn 0.7435 0.1635 0.6485
vn 0.8424 0.1751 0.5097
vn 0.7910 0.3658 0.4904
vn 0.7587 0.4403 0.4801
vn 0.7226 0.6277 0.2894
vn 0.7588 0.4402 0.4801
vn 0.8224 0.4870 0.2939
vn 0.6708 0.5769 0.4661
vn 0.6711 0.4142 0.6149
vn 0.6707 0.5769 0.4662
vn 0.7910 0.3658 0.4903
vn 0.7587 0.4402 0.4801
vn 0.6072 0.5142 0.6057
vn 0.7114 0.3490 0.6099
vn 0.7115 0.3490 0.6099
vn 0.7910 0.3659 0.4904
vn 0.6749 0.3730 0.6367
vn 0.6748 0.3730 0.6367
vn 0.5821 -0.3702 0.7240
vn 0.5820 -0.3703 0.7240
vn 0.5130 -0.4667 0.7204
vn 0.5130 -0.4667 0.7205
vn 0.5272 -0.5365 0.6590
vn 0.4834 -0.5824 0.6536
vn 0.4473 0.5973 0.6657
vn 0.4868 0.6978 0.5255
vn 0.6072 0.5143 0.6057
vn 0.4867 0.6978 0.5255
vn 0.6707 0.5770 0.4661
vn 0.5500 0.7684 0.3271
vn 0.5500 0.7684 0.3270
vn 0.5895 0.8034 0.0838
vn 0.5852 0.7851 -0.2026
vn 0.7593 0.6137 -0.2163
vn 0.5852 0.7851 -0.2027
vn 0.7594 0.6137 -0.2164
vn 0.5365 0.7064 -0.4616
vn 0.7593 0.6137 -0.2164
vn 0.7195 0.5460 -0.4293
vn 0.7194 0.5460 -0.4293
vn 0.4951 0.5779 -0.6488
vn 0.6602 0.4730 -0.5835
vn 0.7182 0.3231 -0.6162
vn 0.5332 0.4084 -0.7409
vn 0.7334 0.2315 -0.6391
vn 0.2907 0.6482 -0.7038
vn 0.2906 0.6482 -0.7039
vn 0.5365 0.7065 -0.4616
vn 0.3199 0.7937 -0.5174
vn 0.2906 0.6482 -0.7038
vn 0.5852 0.7852 -0.2026
vn 0.3519 0.9109 -0.2157
vn 0.3518 0.9108 -0.2158
vn 0.5852 0.7852 -0.2027
vn 0.5500 0.7685 0.3270
vn 0.3448 0.9312 0.1181
vn 0.3518 0.9109 -0.2157
vn 0.5627 0.2651 -0.7830
vn 0.2919 0.4796 -0.8275
vn 0.2907 0.6482 -0.7039
vn 0.5626 0.2651 -0.7830
vn 0.3198 0.7937 -0.5174
vn -0.0005 0.6816 -0.7317
vn -0.0004 0.6816 -0.7317
vn -0.0002 0.8379 -0.5458
vn -0.0004 0.6817 -0.7317
vn 0.3518 0.9109 -0.2158
vn 0.0002 0.9750 -0.2221
vn 0.3447 0.9312 0.1181
vn 0.0002 0.9750 -0.2220
vn -0.0014 0.9906 0.1369
vn 0.3447 0.9313 0.1181
vn -0.0005 0.5087 -0.8609
vn 0.3084 0.8734 0.3768
vn -0.0014 0.9906 0.1370
vn 0.5500 0.7685 0.3271
vn 0.2947 0.3039 -0.9060
vn 0.2919 0.4795 -0.8275
vn -0.0006 0.3202 -0.9474
vn 0.2654 0.7624 0.5901
vn 0.3084 0.8734 0.3769
vn 0.2948 0.3038 -0.9060
vn 0.5481 0.0968 -0.8308
vn -0.0006 0.3201 -0.9474
vn 0.2843 0.0928 -0.9542
vn 0.2844 0.0928 -0.9542
vn -0.0001 0.1009 -0.9949
vn 0.5012 -0.1370 -0.8544
vn 0.6604 -0.1182 -0.7415
vn 0.5013 -0.1370 -0.8544
vn -0.0001 0.1008 -0.9949
vn 0.2648 -0.1511 -0.9524
vn 0.2649 -0.1511 -0.9524
vn 0.0004 -0.1463 -0.9892
vn -0.0000 0.1008 -0.9949
vn 0.4555 -0.3962 -0.7972
vn 0.4554 -0.3962 -0.7972
vn 0.4555 -0.3963 -0.7972
vn 0.5644 -0.6015 -0.5653
vn 0.4182 -0.6499 -0.6347
vn 0.2341 -0.4155 -0.8789
vn 0.4554 -0.3963 -0.7972
vn 0.2341 -0.4156 -0.8789
vn -0.0006 -0.4215 -0.9068
vn 0.2015 -0.6869 -0.6982
vn -0.0006 -0.4216 -0.9068
vn -0.0004 -0.6916 -0.7223
vn -0.9014 -0.2125 0.3772
vn -0.9557 -0.1685 -0.2412
vn -0.6197 -0.7833 -0.0498
vn -0.7502 -0.3469 0.5629
vn -0.9003 0.2360 0.3659
vn -0.9014 -0.2124 0.3773
vn -0.9014 -0.2124 0.3772
vn -0.9003 0.2360 0.3658
vn -0.8858 0.4447 -0.1327
vn -0.9557 -0.1686 -0.2412
vn -0.6466 -0.7093 0.2807
vn -0.9014 -0.2125 0.3773
vn -0.6197 -0.7832 -0.0499
vn -0.6465 -0.7094 0.2807
vn -0.6196 -0.7833 -0.0499
vn -0.4277 -0.9039 -0.0006
vn -0.6197 -0.7833 -0.0499
vn -0.6266 -0.6605 -0.4137
vn -0.7242 -0.2297 -0.6503
vn -0.6266 -0.6605 -0.4136
vn -0.5282 -0.8151 -0.2381
vn -0.4229 -0.8887 0.1774
vn -0.5282 -0.8150 -0.2381
vn -0.5689 -0.7132 -0.4095
vn -0.5532 -0.7004 0.4509
vn -0.5533 -0.7004 0.4510
vn -0.7502 -0.3470 0.5629
vn -0.4319 -0.8634 0.2606
vn -0.5532 -0.7004 0.4510
vn -0.4229 -0.8886 0.1774
vn -0.6849 -0.5189 -0.5116
vn -0.5665 -0.5986 -0.5664
vn -0.6089 -0.4169 -0.6748
vn -0.5664 -0.5986 -0.5664
vn -0.7509 -0.1452 -0.6442
vn -0.6849 -0.5188 -0.5116
vn -0.7242 -0.2297 -0.6502
vn -0.7509 -0.1453 -0.6442
vn -0.6631 -0.1187 -0.7391
vn -0.6089 -0.4169 -0.6749
vn -0.5118 -0.5612 0.6505
vn -0.4408 -0.7858 0.4339
vn -0.4320 -0.8634 0.2606
vn -0.7509 -0.1451 -0.6442
vn -0.7967 0.1735 -0.5789
vn -0.6631 -0.1186 -0.7391
vn -0.7179 0.1242 -0.6850
vn -0.5046 -0.4820 0.7163
vn -0.5118 -0.5611 0.6506
vn -0.4572 -0.5936 0.6623
vn -0.4407 -0.7858 0.4339
vn -0.3444 -0.8391 0.4211
vn -0.7989 0.2859 -0.5292
vn -0.7989 0.2858 -0.5292
vn -0.8120 0.2494 -0.5276
vn -0.8121 0.2493 -0.5276
vn -0.7370 0.2267 -0.6367
vn -0.5043 -0.4142 0.7577
vn -0.5118 -0.5611 0.6505
vn -0.4573 -0.5935 0.6623
vn -0.1791 -0.6492 0.7392
vn -0.1597 -0.8875 0.4322
vn -0.3444 -0.8391 0.4210
vn -0.8700 0.3055 -0.3871
vn -0.8121 0.2494 -0.5276
vn -0.8113 0.3383 -0.4767
vn -0.7370 0.2268 -0.6368
vn -0.8113 0.3383 -0.4768
vn -0.7191 0.3226 -0.6155
vn -0.7370 0.2268 -0.6367
vn -0.8113 0.3384 -0.4767
vn -0.7194 0.5449 -0.4307
vn -0.6611 0.4723 -0.5830
vn -0.7593 0.6132 -0.2179
vn -0.8582 0.4231 -0.2907
vn -0.8582 0.4231 -0.2908
vn -0.7628 0.6448 0.0489
vn -0.8680 0.4965 0.0107
vn -0.7628 0.6448 0.0488
vn -0.8700 0.3055 -0.3870
vn -0.7237 0.6234 0.2961
vn -0.8680 0.4965 0.0108
vn -0.9093 0.4159 -0.0163
vn -0.8222 0.4811 0.3041
vn -0.6736 0.5722 0.4679
vn -0.7625 0.4305 0.4831
vn -0.6736 0.5721 0.4679
vn -0.8222 0.4811 0.3042
vn -0.6142 0.5144 0.5985
vn -0.7624 0.4305 0.4831
vn -0.8858 0.4446 -0.1327
vn -0.8502 0.3929 0.3504
vn -0.9093 0.4159 -0.0162
vn -0.7625 0.4304 0.4830
vn -0.8502 0.3929 0.3503
vn -0.9093 0.4158 -0.0162
vn -0.7912 0.3568 0.4966
vn -0.9002 0.2361 0.3659
vn -0.7625 0.4304 0.4831
vn -0.8415 0.1690 0.5131
vn -0.9002 0.2360 0.3659
vn -0.7912 0.3568 0.4967
vn -0.7172 0.3379 0.6094
vn -0.8415 0.1690 0.5132
vn -0.6817 0.4040 0.6100
vn -0.7464 0.1581 0.6464
vn -0.7464 0.1582 0.6464
vn -0.4491 0.6017 0.6605
vn -0.6816 0.4040 0.6100
vn -0.4491 0.6018 0.6604
vn -0.5797 -0.3675 0.7272
vn -0.5797 -0.3675 0.7273
vn -0.6882 0.3617 0.6290
vn -0.6882 0.3616 0.6290
vn -0.4863 0.6980 0.5256
vn -0.4863 0.6981 0.5256
vn -0.7236 0.6234 0.2961
vn -0.4691 -0.4665 0.7499
vn -0.5046 -0.4820 0.7162
vn -0.4691 -0.4664 0.7499
vn -0.4691 -0.4664 0.7500
vn -0.4097 -0.4197 0.8099
vn -0.5797 -0.3674 0.7273
vn -0.5043 -0.4141 0.7578
vn -0.5798 -0.3675 0.7272
vn -0.6587 -0.1646 0.7342
vn -0.4097 -0.4198 0.8099
vn -0.7157 0.2843 0.6380
vn -0.7157 0.2843 0.6379
vn -0.5978 0.3233 0.7336
vn -0.6817 0.4039 0.6100
vn -0.6150 0.4137 0.6713
vn -0.6587 -0.1645 0.7342
vn -0.6863 -0.0937 0.7213
vn -0.7157 0.2842 0.6380
vn -0.6586 -0.1646 0.7342
vn -0.6267 -0.0797 0.7752
vn -0.7156 0.2843 0.6380
vn -0.6863 -0.0937 0.7212
vn -0.5978 0.3232 0.7336
vn -0.4090 -0.3407 0.8466
vn -0.4089 -0.3407 0.8466
vn -0.4572 -0.5935 0.6624
vn -0.5532 -0.4444 0.7046
vn -0.6267 -0.0797 0.7751
vn -0.1791 -0.6492 0.7393
vn -0.4089 -0.3408 0.8466
vn -0.4294 -0.0981 0.8978
vn -0.6267 -0.0798 0.7752
vn -0.4294 -0.0980 0.8978
vn -0.2847 -0.3800 0.8801
vn -0.2847 -0.3799 0.8801
vn 0.1246 -0.5180 0.8463
vn -0.4293 -0.0980 0.8978
vn -0.2140 -0.0715 0.9742
vn -0.2141 -0.0715 0.9742
vn 0.1567 -0.3272 0.9319
vn -0.2141 -0.0716 0.9742
vn 0.3465 -0.6083 0.7141
vn 0.1568 -0.3272 0.9319
vn 0.1247 -0.5180 0.8462
vn 0.3863 -0.5960 0.7039
vn -0.2517 0.2845 0.9250
vn -0.2517 0.2845 0.9251
vn 0.3863 -0.5960 0.7040
vn 0.1965 -0.3033 0.9324
vn 0.1568 -0.3271 0.9319
vn -0.1791 -0.6491 0.7393
vn -0.1935 -0.3242 0.9260
vn -0.1935 -0.3241 0.9260
vn -0.1309 -0.1224 0.9838
vn -0.0029 -0.1045 0.9945
vn -0.1934 -0.3241 0.9260
vn -0.0029 -0.1044 0.9945
vn -0.0689 0.0083 0.9976
vn -0.0030 -0.1045 0.9945
vn -0.0017 0.0127 0.9999
vn 0.0695 0.0086 0.9975
vn 0.1275 -0.1327 0.9829
vn 0.0695 0.0085 0.9975
vn 0.0044 -0.3353 0.9421
vn -0.1790 -0.6491 0.7393
vn 0.0044 -0.3352 0.9421
vn 0.1924 -0.3212 0.9272
vn 0.0045 -0.3352 0.9421
vn 0.4110 -0.3527 0.8406
vn 0.1276 -0.1327 0.9829
vn 0.1925 -0.3213 0.9272
vn 0.0041 -0.6237 0.7816
vn 0.0045 -0.3353 0.9421
vn 0.0041 -0.6238 0.7816
vn -0.1790 -0.6492 0.7392
vn 0.0029 -0.8954 0.4452
vn 0.1882 -0.6468 0.7391
vn 0.1924 -0.3213 0.9272
vn 0.1882 -0.6469 0.7390
vn 0.4110 -0.3528 0.8406
vn 0.1883 -0.6468 0.7390
vn 0.1883 -0.6469 0.7390
vn 0.5366 -0.4014 0.7422
vn 0.5367 -0.4014 0.7422
vn 0.4363 -0.4319 0.7894
vn 0.5011 -0.4732 0.7246
vn 0.5366 -0.4014 0.7423
vn 0.5011 -0.4731 0.7246
vn 0.5820 -0.3702 0.7240
vn 0.6677 -0.1718 0.7243
vn 0.4362 -0.4320 0.7893
vn 0.6677 -0.1719 0.7243
vn 0.7044 0.2924 0.6468
vn 0.5801 0.3295 0.7450
vn 0.4362 -0.4320 0.7894
vn 0.6881 -0.0994 0.7188
vn 0.6313 -0.0825 0.7711
vn 0.6880 -0.0994 0.7189
vn 0.6314 -0.0825 0.7711
vn 0.5801 0.3294 0.7450
vn 0.6313 -0.0826 0.7711
vn 0.5705 -0.4504 0.6868
vn 0.4363 -0.4320 0.7893
vn 0.4379 -0.0966 0.8938
vn 0.5704 -0.4504 0.6868
vn 0.3021 -0.3891 0.8703
vn -0.1073 -0.5267 0.8433
vn 0.3020 -0.3891 0.8703
vn 0.2146 -0.0780 0.9736
vn -0.1072 -0.5267 0.8433
vn 0.4380 -0.0966 0.8938
vn 0.5800 0.3294 0.7450
vn -0.1421 -0.3264 0.9345
vn -0.1073 -0.5266 0.8433
vn -0.3271 -0.6183 0.7146
vn -0.1073 -0.5267 0.8432
vn -0.3931 -0.6017 0.6953
vn 0.2419 0.2833 0.9280
vn -0.1421 -0.3263 0.9345
vn 0.2420 0.2833 0.9280
vn 0.5994 0.4230 0.6796
vn 0.5801 0.3295 0.7449
vn -0.2153 -0.3125 0.9252
vn -0.2153 -0.3124 0.9252
vn 0.4383 0.4725 0.7646
vn 0.5800 0.3295 0.7450
vn 0.5993 0.4230 0.6796
vn 0.4383 0.4726 0.7646
vn 0.5993 0.4231 0.6796
vn 0.2867 0.5924 0.7529
vn 0.5406 0.4816 0.6897
vn 0.5406 0.4816 0.6898
vn 0.2866 0.5924 0.7529
vn 0.5406 0.4817 0.6897
vn 0.5406 0.4817 0.6898
vn 0.4382 0.4726 0.7646
vn 0.2563 0.4617 0.8492
vn 0.2866 0.5924 0.7530
vn 0.1200 0.2702 0.9553
vn 0.1200 0.2701 0.9553
vn -0.2152 -0.3124 0.9252
vn -0.0150 -0.2992 0.9541
vn -0.0151 -0.2993 0.9540
vn -0.0392 -0.6066 0.7940
vn -0.0391 -0.6066 0.7940
vn -0.0150 -0.2993 0.9540
vn 0.3862 -0.5960 0.7040
vn 0.0142 0.3338 0.9425
vn 0.1199 0.2702 0.9553
vn 0.0141 0.3338 0.9425
vn 0.1918 0.4996 0.8447
vn 0.0002 0.6398 0.7685
vn 0.2461 0.6561 0.7134
vn 0.2460 0.6562 0.7134
vn 0.0132 0.5229 0.8523
vn 0.0132 0.5230 0.8523
vn 0.0142 0.3337 0.9426
vn -0.1249 0.2869 0.9498
vn 0.1965 -0.3032 0.9324
vn 0.0131 0.5229 0.8523
vn -0.1249 0.2870 0.9498
vn -0.2516 0.2845 0.9251
vn -0.1828 0.5153 0.8373
vn 0.0001 0.6398 0.7685
vn -0.1828 0.5154 0.8372
vn -0.1828 0.5153 0.8372
vn -0.2872 0.5964 0.7495
vn -0.2646 0.4779 0.8376
vn -0.2517 0.2846 0.9250
vn -0.1250 0.2869 0.9498
vn -0.2872 0.5964 0.7496
vn -0.4477 0.4741 0.7582
vn -0.4477 0.4741 0.7581
vn -0.6149 0.4137 0.6713
vn -0.6150 0.4138 0.6713
vn -0.5494 0.4785 0.6850
vn -0.5495 0.4785 0.6850
vn -0.4491 0.6018 0.6605
vn -0.2480 0.6589 0.7102
vn -0.2479 0.6589 0.7102
vn -0.4862 0.6981 0.5256
vn -0.0018 0.6807 0.7326
vn -0.2701 0.7621 0.5885
vn -0.4862 0.6980 0.5257
vn -0.0019 0.6807 0.7326
vn -0.2700 0.7621 0.5885
vn -0.0043 0.7878 0.6159
vn -0.0044 0.7878 0.6159
vn 0.2654 0.7625 0.5901
vn -0.2700 0.7621 0.5884
vn -0.5476 0.7672 0.3340
vn -0.7236 0.6234 0.2962
vn -0.3105 0.8707 0.3815
vn -0.3106 0.8707 0.3815
vn -0.0041 0.9163 0.4006
vn -0.0042 0.9163 0.4005
vn -0.0041 0.9163 0.4005
vn -0.5883 0.8040 0.0866
vn -0.5475 0.7672 0.3340
vn -0.3106 0.8707 0.3814
vn -0.5883 0.8040 0.0867
vn -0.7627 0.6449 0.0488
vn -0.3105 0.8707 0.3814
vn -0.3443 0.9310 0.1214
vn -0.5852 0.7848 -0.2042
vn -0.7593 0.6132 -0.2178
vn -0.3444 0.9310 0.1213
vn -0.5851 0.7848 -0.2042
vn -0.7194 0.5450 -0.4307
vn -0.3444 0.9310 0.1214
vn -0.3515 0.9108 -0.2164
vn -0.5851 0.7848 -0.2041
vn -0.3515 0.9109 -0.2164
vn -0.5369 0.7055 -0.4627
vn -0.5851 0.7848 -0.2043
vn -0.5368 0.7055 -0.4627
vn -0.6610 0.4724 -0.5830
vn -0.3203 0.7932 -0.5180
vn -0.5368 0.7055 -0.4626
vn -0.4955 0.5777 -0.6486
vn -0.4955 0.5778 -0.6486
vn 0.0001 0.9750 -0.2221
vn -0.3202 0.7932 -0.5180
vn 0.0001 0.9750 -0.2220
vn -0.0003 0.8379 -0.5458
vn -0.2912 0.6479 -0.7038
vn -0.3203 0.7931 -0.5180
vn -0.2912 0.6480 -0.7038
vn -0.2912 0.6479 -0.7039
vn -0.0006 0.6816 -0.7317
vn -0.0006 0.5088 -0.8609
vn -0.2924 0.4793 -0.8275
vn -0.2911 0.6479 -0.7039
vn -0.0007 0.3202 -0.9474
vn -0.6610 0.4723 -0.5830
vn -0.5335 0.4082 -0.7408
vn -0.5334 0.4082 -0.7408
vn -0.7190 0.3226 -0.6156
vn -0.2953 0.3028 -0.9061
vn -0.2923 0.4793 -0.8275
vn -0.5334 0.4082 -0.7409
vn -0.2954 0.3028 -0.9061
vn -0.0007 0.3201 -0.9474
vn -0.5629 0.2640 -0.7833
vn -0.5628 0.2640 -0.7833
vn -0.7369 0.2268 -0.6368
vn -0.2844 0.0924 -0.9543
vn -0.2953 0.3028 -0.9062
vn -0.2844 0.0924 -0.9542
vn -0.2843 0.0923 -0.9543
vn -0.7370 0.2267 -0.6368
vn -0.5629 0.2640 -0.7832
vn -0.5487 0.0970 -0.8304
vn -0.5486 0.0970 -0.8304
vn -0.7369 0.2267 -0.6368
vn -0.2640 -0.1522 -0.9524
vn 0.0003 -0.1463 -0.9892
vn -0.5486 0.0969 -0.8305
vn -0.2844 0.0923 -0.9542
vn -0.2641 -0.1523 -0.9524
vn -0.2640 -0.1523 -0.9524
vn -0.7179 0.1241 -0.6850
vn -0.5486 0.0969 -0.8304
vn -0.5010 -0.1381 -0.8543
vn -0.5010 -0.1381 -0.8544
vn -0.2342 -0.4154 -0.8790
vn -0.5010 -0.1382 -0.8544
vn -0.2341 -0.4154 -0.8790
vn -0.2021 -0.6852 -0.6998
vn -0.2341 -0.4155 -0.8790
vn -0.6630 -0.1187 -0.7391
vn -0.5010 -0.1382 -0.8543
vn -0.4546 -0.3966 -0.7975
vn -0.4546 -0.3967 -0.7975
vn -0.2342 -0.4154 -0.8789
vn -0.6631 -0.1188 -0.7391
vn -0.4188 -0.6474 -0.6368
vn -0.2022 -0.6852 -0.6998
vn -0.4189 -0.6474 -0.6368
vn -0.4189 -0.6474 -0.6367
vn 0.4937 -0.2554 -0.8313
vn -0.3380 -0.4215 -0.8414
vn -0.9873 -0.1398 0.0754
vn 0.4764 -0.2645 -0.8385
vn -0.3380 -0.4216 -0.8414
vn 0.4763 -0.2645 -0.8385
vn -0.3380 -0.4216 -0.8415
vn 0.3742 -0.4077 -0.8329
vn 0.3742 -0.4078 -0.8329
vn -0.6718 -0.6407 -0.3718
vn 0.3743 -0.4077 -0.8329
vn 0.2086 -0.9702 -0.1233
vn -0.2752 -0.4417 -0.8539
vn -0.8859 -0.4576 -0.0759
vn -0.7496 -0.6077 -0.2624
vn -0.9629 -0.2557 0.0859
vn -0.8859 -0.4575 -0.0760
vn -0.3381 -0.4215 -0.8414
vn -0.9873 -0.1397 0.0754
vn -0.7256 -0.4797 0.4934
vn -0.7255 -0.4797 0.4935
vn -0.9629 -0.2558 0.0859
vn -0.8860 -0.4575 -0.0759
vn -0.7859 -0.2583 0.5619
vn -0.8859 -0.4575 -0.0759
vn -0.7255 -0.4797 0.4934
vn -0.8408 -0.0321 0.5404
vn -0.7859 -0.2583 0.5618
vn -0.7858 -0.2583 0.5619
vn -0.3946 0.1362 0.9087
vn -0.9629 -0.2557 0.0860
vn -0.8582 0.0692 0.5086
vn -0.8408 -0.0320 0.5404
vn -0.4222 0.2334 0.8759
vn -0.4222 0.2333 0.8760
vn 0.0876 0.2242 0.9706
vn -0.3945 0.1362 0.9087
vn 0.0991 0.1613 0.9819
vn 0.6426 0.1333 0.7545
vn 0.0877 0.2242 0.9706
vn 0.0992 0.1613 0.9819
vn -0.2997 -0.3497 0.8876
vn -0.2008 -0.7027 0.6826
vn 0.2857 -0.3312 0.8993
vn -0.2007 -0.7027 0.6826
vn -0.3226 -0.0997 0.9413
vn -0.3225 -0.0998 0.9413
vn -0.3225 -0.0997 0.9413
vn 0.2235 -0.0582 0.9730
vn -0.2997 -0.3497 0.8877
vn 0.2857 -0.3311 0.8993
vn -0.2997 -0.3496 0.8877
vn 0.8378 -0.1398 0.5278
vn 0.8400 -0.3835 0.3839
vn 0.2235 -0.0581 0.9730
vn 0.8400 -0.3835 0.3838
vn 0.8377 -0.1399 0.5278
vn 0.8553 -0.4542 0.2494
vn 0.8378 -0.1399 0.5278
vn 0.6901 0.0319 0.7230
vn 0.6901 0.0319 0.7231
vn 0.8727 -0.1611 -0.4610
vn 0.8400 -0.3834 0.3838
vn 0.8552 -0.4543 0.2494
vn 0.8726 -0.1611 -0.4610
vn 0.3743 -0.4078 -0.8329
vn 0.8726 -0.1611 -0.4611
vn 0.8926 -0.0990 -0.4398
vn 0.6900 0.0319 0.7231
vn 0.8926 -0.0990 -0.4399
vn 0.4936 -0.2554 -0.8313
vn 0.6426 0.1332 0.7545
vn 0.6427 0.1332 0.7545
vn -0.2008 -0.7028 0.6825
vn 0.8553 -0.4542 0.2493
vn 0.8553 -0.4543 0.2493
vn 0.2086 -0.9702 -0.1232
vn 0.2085 -0.9702 -0.1233
vn -0.2007 -0.7027 0.6825
vn -0.2007 -0.7028 0.6825
vn 0.3513 -0.3975 -0.8477
vn -0.4694 -0.2538 -0.8457
vn 0.9877 -0.1338 0.0804
vn -0.4667 -0.2592 -0.8456
vn 0.3513 -0.3976 -0.8477
vn 0.2817 -0.4234 -0.8610
vn -0.4666 -0.2592 -0.8456
vn -0.3831 -0.4074 -0.8290
vn -0.4666 -0.2593 -0.8456
vn 0.6713 -0.6430 -0.3686
vn -0.3831 -0.4075 -0.8290
vn 0.6713 -0.6429 -0.3687
vn -0.1910 -0.9737 -0.1239
vn 0.2818 -0.4234 -0.8610
vn 0.3514 -0.3976 -0.8476
vn 0.8970 -0.4300 -0.1020
vn 0.7490 -0.6106 -0.2575
vn 0.3514 -0.3975 -0.8476
vn 0.9663 -0.2486 0.0674
vn 0.8970 -0.4301 -0.1019
vn 0.9662 -0.2486 0.0674
vn 0.8416 -0.0267 0.5394
vn 0.7490 -0.6105 -0.2574
vn 0.8970 -0.4300 -0.1019
vn 0.7253 -0.4818 0.4917
vn 0.8971 -0.4300 -0.1019
vn 0.9662 -0.2487 0.0674
vn 0.7951 -0.2462 0.5542
vn 0.7253 -0.4819 0.4917
vn 0.7951 -0.2462 0.5543
vn 0.8416 -0.0267 0.5395
vn 0.3868 0.1380 0.9118
vn 0.8625 0.0663 0.5016
vn 0.3867 0.1380 0.9118
vn 0.8626 0.0663 0.5016
vn 0.4190 0.2390 0.8760
vn 0.4189 0.2391 0.8760
vn -0.0886 0.2326 0.9685
vn -0.1108 0.1621 0.9805
vn -0.6383 0.1368 0.7575
vn -0.1109 0.1621 0.9805
vn 0.2987 -0.3515 0.8873
vn 0.7252 -0.4819 0.4918
vn 0.1990 -0.7028 0.6830
vn 0.2987 -0.3516 0.8872
vn 0.2986 -0.3516 0.8873
vn -0.2862 -0.3307 0.8993
vn 0.3322 -0.0983 0.9381
vn 0.3321 -0.0983 0.9381
vn -0.2198 -0.0585 0.9738
vn 0.2986 -0.3515 0.8873
vn -0.8406 -0.1411 0.5229
vn -0.2199 -0.0585 0.9738
vn -0.8411 -0.3823 0.3825
vn -0.2863 -0.3307 0.8993
vn -0.2198 -0.0586 0.9738
vn -0.8406 -0.1412 0.5229
vn -0.8411 -0.3823 0.3826
vn -0.2199 -0.0586 0.9738
vn -0.8548 -0.4560 0.2475
vn -0.6957 0.0306 0.7177
vn -0.6383 0.1369 0.7575
vn -0.6957 0.0307 0.7177
vn -0.8718 -0.1598 -0.4631
vn -0.3830 -0.4074 -0.8290
vn -0.8548 -0.4560 0.2476
vn -0.8412 -0.3822 0.3826
vn -0.8717 -0.1598 -0.4632
vn -0.8938 -0.1032 -0.4364
vn -0.8718 -0.1598 -0.4632
vn -0.8938 -0.1031 -0.4365
vn -0.4693 -0.2538 -0.8457
vn -0.8938 -0.1031 -0.4364
vn -0.8549 -0.4560 0.2475
vn -0.1909 -0.9738 -0.1239
vn 0.0003 -0.8979 -0.4402
vn 0.2015 -0.6870 -0.6982
vn 0.1797 -0.8859 -0.4277
vn 0.4182 -0.6499 -0.6346
vn 0.0003 -0.9878 -0.1556
vn 0.0003 -0.8979 -0.4401
vn 0.3986 -0.8253 -0.4000
vn 0.1798 -0.8859 -0.4277
vn 0.3987 -0.8253 -0.4000
vn 0.1403 -0.9768 -0.1616
vn 0.3986 -0.8253 -0.3999
vn 0.0006 -0.9993 0.0367
vn 0.0003 -0.9878 -0.1555
vn 0.3552 -0.9167 -0.1828
vn 0.3987 -0.8253 -0.3999
vn 0.3552 -0.9168 -0.1828
vn 0.1067 -0.9937 0.0339
vn 0.3552 -0.9168 -0.1827
vn 0.1066 -0.9937 0.0339
vn 0.0005 -0.9993 0.0367
vn 0.1402 -0.9769 -0.1615
vn 0.2991 -0.9539 0.0242
vn 0.5276 -0.8154 -0.2381
vn 0.2783 -0.9486 0.1509
vn 0.2784 -0.9485 0.1509
vn 0.4294 -0.9031 0.0044
vn 0.1073 -0.9865 0.1235
vn 0.1067 -0.9937 0.0340
vn 0.1074 -0.9865 0.1235
vn 0.3013 -0.9286 0.2165
vn 0.3689 -0.8297 0.4189
vn 0.1358 -0.9735 0.1841
vn 0.1358 -0.9735 0.1842
vn 0.3012 -0.9286 0.2165
vn 0.0029 -0.8955 0.4451
vn 0.0030 -0.8955 0.4451
vn 0.0034 -0.9852 0.1714
vn -0.1597 -0.8876 0.4321
vn 0.0034 -0.9852 0.1715
vn 0.0016 -0.9940 0.1098
vn 0.0017 -0.9940 0.1098
vn 0.0005 -0.9993 0.0368
vn 0.1066 -0.9937 0.0340
vn -0.1597 -0.8876 0.4322
vn -0.1258 -0.9758 0.1790
vn -0.1258 -0.9758 0.1789
vn -0.1598 -0.8875 0.4321
vn -0.3444 -0.8392 0.4210
vn -0.1257 -0.9758 0.1789
vn -0.1037 -0.9874 0.1197
vn -0.2860 -0.9369 0.2013
vn -0.1038 -0.9874 0.1197
vn -0.4407 -0.7858 0.4338
vn -0.2860 -0.9368 0.2013
vn -0.4407 -0.7859 0.4338
vn -0.2860 -0.9368 0.2014
vn -0.4319 -0.8635 0.2605
vn -0.2720 -0.9520 0.1404
vn -0.4228 -0.8887 0.1774
vn -0.1063 -0.9938 0.0334
vn -0.2989 -0.9540 0.0225
vn -0.2988 -0.9540 0.0225
vn -0.2989 -0.9540 0.0224
vn -0.3554 -0.9167 -0.1823
vn -0.1400 -0.9769 -0.1616
vn -0.2988 -0.9540 0.0224
vn -0.3554 -0.9168 -0.1823
vn -0.1400 -0.9769 -0.1615
vn -0.3554 -0.9167 -0.1824
vn -0.3987 -0.8255 -0.3996
vn -0.5689 -0.7133 -0.4095
vn -0.1399 -0.9769 -0.1616
vn -0.1062 -0.9938 0.0334
vn -0.1796 -0.8860 -0.4276
vn -0.3986 -0.8255 -0.3995
vn -0.1796 -0.8859 -0.4277
vn -0.1797 -0.8859 -0.4276
vn -0.2021 -0.6852 -0.6997
vn -0.3986 -0.8255 -0.3996
vn -0.4188 -0.6474 -0.6367
vt 1.003403 0.608147
vt 1.007801 0.551445
vt 1.010915 0.491263
vt 0.992735 0.255572
vt 0.992157 0.198604
vt 1.046034 0.256326
vt 0.992873 0.364362
vt 0.930477 0.303311
vt 1.044196 0.364343
vt 0.913447 0.400118
vt 0.816546 0.305249
vt 0.901906 0.222304
vt 0.992735 0.491417
vt 1.053082 0.200400
vt 1.149466 0.259724
vt 0.991067 0.151514
vt 0.882042 0.162642
vt 1.071299 0.155704
vt 0.804811 0.182575
vt 1.157306 0.206572
vt 1.178924 0.168766
vt 0.815756 0.234956
vt 0.760448 0.194487
vt 0.761537 0.229919
vt 0.710536 0.173801
vt 1.242903 0.210905
vt 1.242543 0.181289
vt 1.243203 0.261739
vt 1.243332 0.363410
vt 1.147482 0.363754
vt 1.243203 0.479367
vt 1.149467 0.482751
vt 1.242903 0.581476
vt 0.702488 0.208944
vt 0.621760 0.157921
vt 1.046034 0.488653
vt 1.157306 0.591754
vt 1.242543 0.646887
vt 1.178924 0.675726
vt 1.053082 0.606789
vt 1.071299 0.705402
vt 0.992157 0.613295
vt 0.991067 0.717895
vt 0.918868 0.508002
vt 0.932593 0.605383
vt 0.914151 0.702926
vt 0.829702 0.395848
vt 0.786344 0.389275
vt 0.847007 0.489326
vt 0.852699 0.584688
vt 0.828822 0.661679
vt 0.799968 0.581382
vt 0.779475 0.642755
vt 0.797357 0.469035
vt 0.760901 0.455703
vt 0.771133 0.337475
vt 0.762019 0.284206
vt 0.722173 0.671016
vt 0.772830 0.727402
vt 0.868672 0.783867
vt 0.988701 0.808090
vt 1.117894 0.788197
vt 1.241604 0.738859
vt 1.305895 0.676441
vt 1.328621 0.592429
vt 1.413698 0.707486
vt 1.363998 0.790005
vt 1.237630 0.872686
vt 0.981210 0.881501
vt 1.337159 0.483021
vt 1.433471 0.608345
vt 1.500002 0.721251
vt 1.500002 0.811859
vt 1.500002 0.882645
vt 0.499211 0.994397
vt 1.500002 0.615736
vt 0.775245 0.869825
vt 1.441309 0.489253
vt 1.500002 0.492336
vt 0.667918 0.781983
vt 1.339412 0.363514
vt 1.443413 0.363877
vt 1.500002 0.363665
vt 1.337159 0.259150
vt 1.441309 0.255146
vt 1.500002 0.253681
vt 1.328621 0.206105
vt 1.305897 0.168376
vt 1.433471 0.199378
vt 1.500002 0.196850
vt 1.413697 0.154645
vt 1.500002 0.149402
vt 0.071220 0.303357
vt 0.010509 0.255377
vt 0.011087 0.198369
vt 0.183230 0.305850
vt 0.087756 0.400319
vt 0.010374 0.364280
vt 0.099702 0.222522
vt 0.012176 0.151289
vt -0.046319 0.200490
vt -0.039191 0.256408
vt -0.064739 0.155762
vt 0.120183 0.161477
vt -0.173555 0.168694
vt 0.184304 0.235382
vt 0.197033 0.181757
vt -0.151697 0.206511
vt -0.237882 0.181195
vt -0.238248 0.210807
vt -0.143770 0.259703
vt -0.238553 0.261679
vt 0.237683 0.230160
vt 0.240236 0.194080
vt -0.141766 0.363716
vt -0.238686 0.363347
vt 0.236995 0.284492
vt 0.295941 0.208931
vt 0.290124 0.173173
vt -0.037333 0.364322
vt -0.143776 0.482687
vt -0.238559 0.479303
vt 0.303169 0.262201
vt 0.390403 0.205775
vt 0.378132 0.157563
vt -0.039191 0.488603
vt -0.151707 0.591663
vt -0.238258 0.581393
vt -0.173568 0.675598
vt -0.237896 0.646691
vt -0.064738 0.705475
vt -0.046318 0.606753
vt 0.012185 0.717848
vt 0.011093 0.613246
vt 0.086680 0.702876
vt 0.010513 0.491367
vt 0.068063 0.605509
vt 0.171639 0.661939
vt 0.137057 0.591759
vt 0.218924 0.642739
vt 0.081550 0.508370
vt 0.150524 0.492062
vt 0.169442 0.397035
vt 0.200756 0.470006
vt 0.198431 0.581366
vt 0.212249 0.389896
vt 0.276229 0.671008
vt 0.227527 0.337745
vt 0.237479 0.455703
vt 0.226581 0.727389
vt 0.254356 0.316170
vt 0.280663 0.340996
vt 0.238245 0.344736
vt 0.260694 0.420621
vt 0.318738 0.438852
vt 0.308644 0.496378
vt 0.271234 0.368458
vt 0.294775 0.377056
vt 0.348707 0.260631
vt 0.303666 0.350471
vt 0.327659 0.388416
vt 0.331178 0.349391
vt 0.369114 0.326943
vt 0.364763 0.401590
vt 0.395806 0.408322
vt 0.399461 0.284357
vt 0.445563 0.243821
vt 0.384252 0.458336
vt 0.442899 0.416218
vt 0.396870 0.258971
vt 0.397893 0.417785
vt 0.500000 0.365006
vt 0.443984 0.450881
vt 0.500000 0.490532
vt 0.554437 0.450881
vt 0.600539 0.417785
vt 0.500000 0.257489
vt 0.601561 0.258972
vt 0.649721 0.260635
vt 0.499754 0.203604
vt 0.499835 0.156099
vt 0.608797 0.205696
vt 0.695257 0.262208
vt 0.718144 0.341003
vt 0.744046 0.316179
vt 0.760136 0.344736
vt 0.737686 0.420621
vt 0.680453 0.438852
vt 0.727146 0.368458
vt 0.704415 0.377056
vt 0.696334 0.350471
vt 0.672341 0.388416
vt 0.668822 0.349391
vt 0.630886 0.326943
vt 0.635237 0.401590
vt 0.604194 0.408322
vt 0.600539 0.284357
vt 0.554437 0.243821
vt 0.615748 0.458336
vt 0.689737 0.496378
vt 0.557100 0.416218
vt 0.638473 0.519355
vt 0.610497 0.613237
vt 0.706365 0.576445
vt 0.607679 0.533158
vt 0.559559 0.481054
vt 0.500000 0.424951
vt 0.500000 0.226148
vt 0.500000 0.514603
vt 0.557000 0.557546
vt 0.500000 0.626376
vt 0.625353 0.701101
vt 0.500000 0.568842
vt 0.440441 0.481054
vt 0.443000 0.557546
vt 0.388693 0.613237
vt 0.392321 0.533158
vt 0.360717 0.519355
vt 0.292015 0.576445
vt 0.373052 0.701100
vt 0.500000 0.714653
vt 0.331125 0.781981
vt 0.499873 0.800940
vt 0.132164 0.783849
vt 0.223186 0.869820
vt 0.499203 0.880493
vt 0.014554 0.808062
vt 0.022055 0.881491
vt -0.111852 0.788284
vt -0.232923 0.872502
vt -0.236950 0.738620
vt -0.360710 0.789777
vt -0.301955 0.676308
vt -0.500000 0.882632
vt -0.500004 0.811800
vt -0.410961 0.707338
vt -0.500003 0.721187
vt -0.500001 0.615668
vt -0.430950 0.608269
vt -0.500003 0.492267
vt -0.324931 0.592335
vt -0.438878 0.489186
vt -0.500001 0.363628
vt -0.333562 0.482955
vt -0.441001 0.363841
vt -0.499999 0.253822
vt -0.335838 0.363475
vt -0.438866 0.255248
vt -0.499998 0.196979
vt -0.333556 0.259127
vt -0.430941 0.199446
vt -0.499998 0.149646
vt -0.410946 0.154680
vt -0.324920 0.206041
vt -0.301941 0.168301
vt 1.014500 0.403432
vt 1.010828 0.439536
vt 1.008667 0.296225
vt 1.014500 0.464197
vt 1.007405 0.580082
vt 1.000115 0.643048
vt 1.007801 0.506473
vt 1.007751 0.452688
vt 1.003798 0.563561
vt 1.003798 0.515686
vt 1.003798 0.459108
vt 1.000115 0.459108
vt 1.004969 0.296225
vt 1.000236 0.296225
vt 0.995448 0.296225
vt 0.996258 0.459108
vt 0.991558 0.296225
vt 1.000115 0.565175
vt 1.000115 0.608422
vt 0.996258 0.563561
vt 1.000115 0.519978
vt 0.996258 0.515686
vt 0.992642 0.507459
vt 0.992642 0.552204
vt 0.997081 0.608133
vt 0.992642 0.454091
vt 0.989320 0.492133
vt 0.992895 0.580082
vt 0.985520 0.464197
vt 0.985500 0.403432
vt 0.989371 0.440440
vt 1.500002 0.105563
vt 1.363998 0.115457
vt 1.499998 0.059057
vt 1.241603 0.139534
vt 1.237630 0.079188
vt 0.499215 0.011010
vt 1.117894 0.116303
vt 0.981210 0.061740
vt 0.988701 0.107912
vt 0.849799 0.119844
vt 0.775244 0.081917
vt 0.757250 0.145552
vt 0.664361 0.115867
vt 0.499731 0.108611
vt 0.499204 0.064378
vt 0.335444 0.115185
vt 0.223184 0.081864
vt 0.244946 0.144095
vt 0.152584 0.118953
vt 0.022053 0.061503
vt 0.014544 0.107712
vt -0.111852 0.116258
vt -0.232915 0.079012
vt -0.236933 0.139445
vt -0.499996 0.059020
vt -0.499997 0.105813
vt -0.360692 0.115424
s 0
usemtl body
f 3/1/1 2/2/2 1/3/3
f 6/2/4 5/1/5 4/3/6
f 9/4/7 8/5/8 7/6/9
f 11/7/10 10/4/11 7/6/12
f 12/8/13 10/4/11 11/7/14
f 11/7/15 7/6/16 13/9/17
f 14/10/18 12/8/19 11/7/14
f 15/11/20 12/8/19 14/10/21
f 15/11/22 16/12/23 12/8/24
f 17/13/25 11/7/15 13/9/26
f 14/10/27 11/7/14 17/13/25
f 12/8/24 16/12/23 18/5/28
f 18/5/8 19/14/29 7/6/12
f 13/9/17 7/6/16 20/15/30
f 7/6/31 19/14/32 20/15/33
f 16/12/34 21/16/35 18/5/28
f 18/5/8 21/16/36 19/14/32
f 16/12/34 22/17/37 21/16/35
f 21/16/38 23/18/39 19/14/40
f 24/19/41 22/17/37 16/12/34
f 19/14/32 23/18/39 25/20/42
f 19/14/29 25/20/42 20/15/33
f 23/18/39 26/21/43 25/20/44
f 27/22/45 24/19/41 16/12/34
f 28/23/46 24/19/47 27/22/48
f 15/11/22 27/22/49 16/12/34
f 29/24/50 28/23/51 27/22/48
f 29/24/52 27/22/48 15/11/22
f 28/23/51 29/24/50 30/25/53
f 25/20/42 26/21/43 31/26/54
f 26/21/43 32/27/55 31/26/54
f 25/20/42 31/26/56 33/28/57
f 20/15/33 25/20/42 33/28/58
f 20/15/30 33/28/59 34/29/60
f 35/30/61 20/15/30 34/29/60
f 35/30/61 34/29/62 36/31/63
f 13/9/64 20/15/65 35/30/61
f 37/32/66 35/30/61 36/31/63
f 13/9/67 35/30/61 37/32/68
f 37/32/66 36/31/63 38/33/69
f 29/24/50 39/34/70 30/25/71
f 30/25/72 39/34/70 40/35/73
f 41/36/74 13/9/64 37/32/68
f 17/13/25 13/9/64 41/36/75
f 42/37/76 37/32/68 38/33/69
f 41/36/74 37/32/68 42/37/76
f 42/37/77 38/33/69 43/38/78
f 44/39/79 42/37/80 43/38/78
f 45/40/81 41/36/74 42/37/76
f 45/40/81 42/37/77 44/39/79
f 17/13/82 41/36/75 45/40/81
f 46/41/83 45/40/81 44/39/79
f 47/42/84 45/40/81 46/41/85
f 47/42/84 17/13/25 45/40/81
f 48/43/86 47/42/84 46/41/85
f 49/44/87 17/13/25 47/42/88
f 49/44/89 14/10/18 17/13/25
f 50/45/90 47/42/88 48/43/91
f 50/45/90 49/44/87 47/42/88
f 51/46/92 50/45/90 48/43/93
f 52/47/94 14/10/18 49/44/95
f 52/47/96 15/11/22 14/10/21
f 53/48/97 15/11/20 52/47/98
f 54/49/99 52/47/94 49/44/95
f 54/49/100 49/44/101 50/45/90
f 53/48/102 52/47/103 54/49/104
f 55/50/105 50/45/90 51/46/106
f 55/50/107 54/49/100 50/45/108
f 56/51/109 55/50/105 51/46/106
f 57/52/110 55/50/105 56/51/111
f 54/49/112 55/50/113 57/52/110
f 58/53/114 57/52/110 56/51/111
f 59/54/115 53/48/102 54/49/104
f 59/54/116 54/49/117 57/52/110
f 60/55/118 53/48/97 59/54/116
f 60/55/119 59/54/116 57/52/110
f 53/48/97 61/56/120 15/11/20
f 61/56/121 62/57/122 15/11/22
f 62/57/123 29/24/124 15/11/22
f 29/24/52 62/57/122 39/34/125
f 58/53/114 63/58/126 57/52/110
f 63/58/126 58/53/114 64/59/127
f 58/53/128 65/51/111 64/59/129
f 64/59/129 65/51/130 66/60/131
f 65/51/130 67/46/92 66/60/131
f 66/60/132 67/46/92 68/61/133
f 67/46/92 69/43/91 68/61/133
f 68/61/133 69/43/91 70/62/134
f 69/43/91 71/41/135 70/62/134
f 70/62/136 71/41/137 72/63/138
f 71/41/139 73/39/140 72/63/138
f 72/63/138 73/39/141 74/64/142
f 73/39/141 75/38/143 74/64/142
f 74/64/142 75/38/78 76/33/144
f 77/65/145 74/64/142 76/33/144
f 77/65/145 76/33/144 78/31/146
f 72/63/138 74/64/142 79/66/147
f 79/66/148 74/64/142 77/65/145
f 70/62/136 72/63/149 80/67/150
f 80/67/150 72/63/138 79/66/151
f 68/61/133 70/62/152 81/68/153
f 81/68/154 70/62/155 80/67/150
f 66/60/156 68/61/133 82/69/157
f 82/69/157 68/61/133 81/68/158
f 83/70/159 77/65/145 78/31/146
f 83/70/159 78/31/63 84/29/60
f 85/71/160 79/66/161 77/65/145
f 85/71/160 77/65/145 83/70/162
f 80/67/163 79/66/151 86/72/164
f 86/72/165 79/66/148 85/71/160
f 87/73/166 80/67/163 86/72/167
f 81/68/168 80/67/150 87/73/166
f 88/74/169 81/68/154 87/73/166
f 82/69/170 81/68/158 88/74/171
f 89/75/172 82/69/173 88/74/171
f 90/76/174 86/72/164 85/71/160
f 91/77/175 66/60/156 82/69/157
f 91/77/175 82/69/170 92/75/176
f 64/59/129 66/60/177 91/77/175
f 90/76/174 85/71/160 93/78/178
f 93/78/178 85/71/179 83/70/162
f 94/79/180 90/76/174 93/78/178
f 95/80/181 64/59/129 91/77/182
f 63/58/126 64/59/129 95/80/181
f 93/78/183 83/70/159 96/81/184
f 96/81/184 83/70/159 84/29/60
f 96/81/184 84/29/60 97/28/59
f 94/79/185 93/78/178 98/82/186
f 98/82/187 93/78/178 96/81/184
f 99/83/188 94/79/185 98/82/186
f 100/84/189 96/81/184 97/28/190
f 98/82/187 96/81/184 100/84/189
f 100/84/191 97/28/57 101/26/56
f 99/83/192 98/82/186 102/85/193
f 102/85/194 98/82/186 100/84/189
f 103/86/195 99/83/196 102/85/193
f 104/87/197 100/84/189 101/26/56
f 102/85/193 100/84/189 104/87/198
f 104/87/199 101/26/54 105/27/200
f 106/88/201 104/87/199 105/27/55
f 103/86/195 102/85/193 107/89/202
f 107/89/202 102/85/193 104/87/203
f 107/89/204 104/87/203 106/88/201
f 108/90/205 103/86/195 107/89/202
f 109/91/206 107/89/204 106/88/201
f 108/90/207 107/89/204 109/91/206
f 110/92/208 108/90/207 109/91/206
f 12/8/24 112/5/28 111/4/7
f 115/93/209 114/94/210 113/95/211
f 117/96/212 116/97/213 115/93/214
f 115/93/215 116/97/216 118/98/217
f 115/93/209 118/98/217 119/94/218
f 117/96/212 115/93/209 120/99/219
f 120/99/219 115/93/220 121/95/221
f 120/99/222 121/95/223 122/100/224
f 122/100/224 121/95/225 123/101/226
f 121/95/225 124/102/227 123/101/226
f 122/100/224 123/101/228 125/103/229
f 126/104/230 120/99/222 122/100/224
f 125/103/231 123/101/226 127/105/232
f 128/106/233 120/99/222 126/104/230
f 128/106/234 117/96/235 120/99/219
f 129/107/236 128/106/237 126/104/238
f 123/101/226 130/108/239 127/105/232
f 127/105/232 130/108/239 131/109/240
f 130/108/239 132/110/241 131/109/242
f 123/101/226 133/111/243 130/108/244
f 130/108/244 133/111/243 132/110/241
f 123/101/226 124/102/245 133/111/243
f 133/111/246 134/112/247 132/110/248
f 135/113/249 128/106/237 129/107/236
f 136/114/250 135/113/249 129/107/251
f 133/111/252 137/115/253 134/112/254
f 137/115/253 138/116/255 134/112/247
f 139/117/256 117/96/212 128/106/237
f 135/113/257 139/117/256 128/106/234
f 140/118/258 135/113/249 136/114/259
f 141/119/260 140/118/258 136/114/259
f 124/102/227 142/120/261 133/111/243
f 142/120/262 137/115/253 133/111/243
f 137/115/253 143/121/263 138/116/255
f 143/121/264 144/122/265 138/116/255
f 145/123/266 139/117/256 135/113/267
f 140/118/268 145/123/266 135/113/257
f 146/124/269 140/118/258 141/119/260
f 147/125/270 146/124/269 141/119/271
f 142/120/261 148/126/272 137/115/253
f 148/126/272 143/121/273 137/115/253
f 143/121/273 149/127/274 144/122/275
f 149/127/276 150/128/277 144/122/278
f 149/127/279 151/129/280 150/128/277
f 151/129/280 152/130/281 150/128/277
f 153/131/282 151/129/280 149/127/279
f 154/132/283 149/127/274 143/121/273
f 154/132/283 153/131/282 149/127/279
f 148/126/272 154/132/284 143/121/273
f 155/133/285 153/131/282 154/132/283
f 156/134/286 155/133/287 154/132/283
f 156/134/286 154/132/283 148/126/288
f 157/135/289 155/133/285 156/134/290
f 158/136/291 148/126/288 142/120/261
f 158/136/291 156/134/286 148/126/288
f 159/137/292 157/135/289 156/134/290
f 159/137/292 156/134/290 158/136/291
f 160/138/293 157/135/289 159/137/292
f 161/139/294 160/138/295 159/137/296
f 162/140/297 160/138/295 161/139/298
f 118/98/217 158/136/291 142/120/261
f 118/98/299 142/120/261 124/102/245
f 163/94/210 118/98/217 124/102/245
f 164/95/225 163/94/210 124/102/245
f 116/97/216 158/136/291 118/98/217
f 165/141/300 159/137/292 158/136/301
f 161/139/302 159/137/296 165/141/300
f 116/97/216 165/141/303 158/136/304
f 166/142/305 165/141/300 116/97/306
f 166/142/305 161/139/307 165/141/300
f 167/143/308 166/142/305 116/97/309
f 117/96/212 167/143/308 116/97/216
f 161/139/298 166/142/310 168/144/311
f 168/144/311 166/142/310 167/143/312
f 169/145/313 162/140/297 161/139/298
f 169/145/313 161/139/294 168/144/311
f 117/96/212 170/146/314 167/143/312
f 170/146/315 168/144/311 167/143/312
f 171/147/316 162/140/297 169/145/317
f 162/140/297 171/147/318 172/138/293
f 117/96/212 173/148/319 170/146/314
f 117/96/212 139/117/256 173/148/320
f 168/144/311 174/149/321 169/145/313
f 170/146/315 174/149/322 168/144/311
f 171/147/318 175/150/323 172/138/293
f 172/138/293 175/150/324 176/135/325
f 177/151/326 173/148/320 139/117/327
f 145/123/266 177/151/328 139/117/256
f 177/151/329 178/152/330 173/148/331
f 178/152/330 177/151/329 145/123/332
f 173/148/333 179/153/334 170/146/314
f 178/152/335 179/153/334 173/148/320
f 170/146/314 179/153/334 180/154/336
f 180/154/337 174/149/322 170/146/315
f 174/149/321 180/154/336 181/155/338
f 169/145/339 174/149/321 182/156/340
f 182/156/340 174/149/321 181/155/338
f 179/153/341 183/157/342 180/154/343
f 179/153/344 178/152/335 183/157/342
f 183/157/342 184/158/345 180/154/346
f 178/152/335 184/158/345 183/157/347
f 180/154/343 184/158/345 181/155/348
f 178/152/330 145/123/332 185/159/349
f 185/159/350 145/123/266 140/118/351
f 186/160/352 184/158/353 178/152/330
f 146/124/354 185/159/355 140/118/351
f 187/161/356 184/158/357 186/160/352
f 181/155/348 184/158/353 187/161/358
f 188/162/359 187/161/356 186/160/352
f 188/162/360 189/163/361 187/161/362
f 189/163/361 190/164/363 187/161/358
f 187/161/358 190/164/364 181/155/348
f 191/165/365 190/164/366 189/163/361
f 192/166/367 191/165/368 189/163/369
f 192/166/367 193/167/370 191/165/368
f 190/164/364 194/168/371 181/155/348
f 191/165/368 194/168/372 190/164/363
f 193/167/373 195/169/374 191/165/368
f 191/165/375 195/169/374 194/168/372
f 146/124/376 196/170/377 185/159/349
f 185/159/349 196/170/378 197/171/379
f 198/172/380 197/171/379 196/170/381
f 197/171/379 198/172/382 199/173/383
f 198/172/384 200/174/385 199/173/383
f 201/175/386 200/174/385 198/172/380
f 202/176/387 201/175/388 198/172/380
f 203/177/389 196/170/378 146/124/390
f 203/177/391 198/172/384 196/170/378
f 204/178/392 202/176/387 198/172/380
f 203/177/393 204/178/392 198/172/380
f 205/179/394 202/176/395 204/178/396
f 206/180/397 203/177/389 146/124/376
f 204/178/396 203/177/398 206/180/397
f 206/180/399 146/124/400 147/125/270
f 207/181/401 206/180/399 147/125/270
f 208/182/402 204/178/403 206/180/397
f 208/182/404 206/180/399 207/181/401
f 205/179/405 204/178/396 208/182/406
f 40/35/73 208/182/404 207/181/401
f 39/34/70 208/182/407 40/35/73
f 39/34/125 205/179/405 208/182/406
f 39/34/125 209/183/408 205/179/405
f 62/57/122 209/183/409 39/34/125
f 205/179/394 209/183/408 210/184/410
f 62/57/122 211/185/411 209/183/409
f 212/183/412 211/185/413 210/184/410
f 62/57/122 61/56/121 211/185/411
f 210/184/410 211/185/413 61/56/414
f 213/186/415 210/184/416 61/56/414
f 213/186/417 61/56/120 53/48/97
f 213/186/415 53/48/97 214/187/418
f 60/55/119 214/187/418 53/48/102
f 214/187/418 60/55/119 215/188/419
f 210/184/420 213/186/415 216/189/421
f 216/189/421 213/186/415 214/187/418
f 217/190/422 210/184/416 216/189/421
f 217/190/422 216/189/423 214/187/418
f 217/190/424 214/187/418 215/188/425
f 217/190/426 218/191/427 210/184/428
f 217/190/426 219/192/429 218/191/430
f 217/190/422 215/188/425 219/192/429
f 219/192/429 220/193/431 218/191/427
f 221/194/432 220/193/433 219/192/429
f 222/195/434 221/194/435 219/192/436
f 222/195/434 219/192/429 215/188/437
f 222/195/434 223/196/438 221/194/439
f 223/196/438 224/197/440 221/194/441
f 225/198/442 224/197/440 223/196/438
f 226/199/443 223/196/444 222/195/434
f 226/199/445 222/195/434 215/188/437
f 60/55/119 227/200/446 215/188/447
f 60/55/119 57/52/110 227/200/446
f 228/201/448 225/198/442 223/196/438
f 228/201/449 223/196/438 226/199/443
f 229/202/450 215/188/451 227/200/452
f 229/202/450 226/199/443 215/188/451
f 229/202/453 227/200/454 230/203/455
f 57/52/110 231/204/456 227/200/446
f 227/200/454 231/204/457 230/203/458
f 63/58/126 231/204/459 57/52/110
f 231/204/460 63/58/126 230/203/458
f 229/202/461 232/205/462 226/199/443
f 232/205/462 229/202/461 230/203/463
f 233/206/464 226/199/443 232/205/462
f 233/206/465 228/201/466 226/199/443
f 228/201/448 234/207/467 225/198/442
f 234/207/468 235/208/469 225/198/442
f 235/208/470 234/207/471 193/167/472
f 234/207/471 195/169/374 193/167/373
f 236/209/473 234/207/468 228/201/449
f 234/207/471 236/209/473 195/169/374
f 233/206/474 236/209/475 228/201/449
f 237/210/476 233/206/464 232/205/462
f 237/210/476 232/205/462 230/203/463
f 238/211/477 237/210/476 230/203/463
f 63/58/126 239/212/478 230/203/458
f 238/211/477 230/203/458 239/212/479
f 239/212/479 63/58/126 95/80/181
f 237/210/476 240/213/480 233/206/464
f 240/213/480 236/209/473 233/206/464
f 237/210/476 238/211/477 240/213/481
f 236/209/482 241/214/483 195/169/484
f 236/209/475 240/213/485 241/214/486
f 195/169/374 241/214/483 194/168/487
f 240/213/485 242/215/488 241/214/486
f 238/211/489 242/215/490 240/213/485
f 242/215/491 238/211/489 243/216/492
f 241/214/486 242/215/488 244/217/493
f 194/168/494 241/214/495 244/217/493
f 244/217/493 242/215/488 243/216/496
f 244/217/493 245/218/497 194/168/371
f 245/218/498 244/217/493 243/216/492
f 194/168/494 245/218/497 181/155/338
f 181/155/338 245/218/498 182/156/499
f 182/156/500 245/218/498 243/216/492
f 246/219/501 182/156/499 243/216/492
f 246/219/502 169/145/313 182/156/340
f 246/219/501 171/147/318 169/145/313
f 171/147/503 246/219/501 243/216/492
f 247/220/504 171/147/503 243/216/492
f 243/216/492 238/211/489 247/220/505
f 171/147/318 247/220/504 175/150/506
f 238/211/489 248/221/507 247/220/505
f 248/221/507 238/211/477 239/212/479
f 247/220/504 249/222/508 175/150/509
f 247/220/505 248/221/510 249/222/511
f 248/221/507 239/212/479 250/223/512
f 248/221/507 250/223/513 249/222/511
f 239/212/479 95/80/514 250/223/512
f 175/150/506 249/222/515 251/224/516
f 175/150/324 251/224/516 176/135/517
f 176/135/325 251/224/516 252/133/285
f 249/222/515 250/223/512 253/225/518
f 249/222/515 253/225/519 251/224/516
f 250/223/512 95/80/514 254/226/520
f 250/223/512 254/226/521 253/225/518
f 95/80/514 91/77/182 254/226/522
f 254/226/522 91/77/182 255/75/176
f 251/224/516 256/227/523 252/133/285
f 251/224/524 253/225/525 256/227/526
f 252/133/527 256/227/523 257/131/282
f 253/225/528 254/226/521 258/228/529
f 253/225/525 258/228/529 256/227/526
f 254/226/521 259/75/176 258/228/529
f 256/227/523 260/229/530 257/131/531
f 256/227/523 258/228/532 260/229/533
f 257/131/282 260/229/530 261/129/534
f 258/228/535 262/230/536 260/229/537
f 258/228/529 263/75/172 262/230/538
f 260/229/530 264/231/539 261/129/534
f 260/229/540 262/230/536 264/231/541
f 261/129/534 264/231/541 265/130/542
f 262/230/536 266/232/543 264/231/544
f 264/231/539 267/233/545 265/130/542
f 264/231/541 266/232/543 267/233/546
f 262/230/536 268/234/547 266/232/548
f 269/75/172 268/234/549 262/230/536
f 268/234/547 270/235/550 266/232/548
f 266/232/548 270/235/550 271/236/551
f 266/232/552 271/236/551 267/233/546
f 270/235/550 272/237/164 271/236/553
f 271/236/554 272/237/555 273/238/556
f 274/239/557 271/236/558 273/238/556
f 267/233/545 271/236/554 274/239/557
f 274/239/557 273/238/174 275/240/559
f 265/130/560 267/233/545 276/241/561
f 276/241/562 267/233/545 274/239/557
f 277/128/563 265/130/560 276/241/561
f 278/242/564 274/239/565 275/240/559
f 276/241/566 274/239/557 278/242/567
f 278/242/564 275/240/568 279/243/188
f 277/128/563 276/241/561 280/244/569
f 280/244/570 276/241/566 278/242/567
f 281/122/571 277/128/277 280/244/569
f 282/245/572 278/242/573 279/243/188
f 280/244/570 278/242/567 282/245/574
f 282/245/575 279/243/192 283/246/195
f 281/122/576 280/244/577 284/247/578
f 284/247/579 280/244/570 282/245/574
f 285/116/255 281/122/580 284/247/579
f 286/248/581 282/245/572 283/246/582
f 284/247/583 282/245/584 286/248/585
f 286/248/586 283/246/582 287/249/205
f 285/116/587 284/247/588 288/250/589
f 288/250/590 284/247/588 286/248/585
f 289/112/247 285/116/255 288/250/589
f 290/251/591 286/248/586 287/249/205
f 288/250/592 286/248/586 290/251/591
f 290/251/593 287/249/207 291/252/208
f 292/253/594 290/251/595 291/252/208
f 289/112/596 288/250/597 293/254/598
f 293/254/598 288/250/597 290/251/591
f 293/254/599 290/251/600 292/253/594
f 294/110/248 289/112/601 293/254/598
f 295/255/602 293/254/598 292/253/603
f 294/110/248 293/254/598 295/255/604
f 296/109/242 294/110/241 295/255/605
f 299/256/606 298/257/607 297/258/608
f 299/256/606 300/259/609 298/257/610
f 300/259/611 301/3/3 298/257/612
f 300/259/611 302/260/613 301/3/3
f 302/260/614 303/1/615 301/3/3
f 303/1/615 302/260/616 304/261/617
f 298/257/610 301/3/618 305/262/619
f 305/262/619 301/3/3 306/2/620
f 307/263/621 298/257/610 305/262/622
f 298/257/623 307/263/621 308/258/624
f 305/262/619 306/2/620 309/264/625
f 306/2/620 310/1/615 309/264/626
f 307/263/627 305/262/628 311/265/629
f 311/265/629 305/262/630 309/264/631
f 312/266/632 307/263/627 311/265/633
f 312/266/632 311/265/634 313/267/635
f 307/263/636 312/266/632 314/258/608
f 312/266/632 315/268/637 314/258/608
f 315/268/637 312/266/638 313/267/635
f 316/269/639 315/268/637 313/267/635
f 316/269/640 313/267/635 317/270/641
f 313/267/642 318/271/643 317/270/641
f 319/272/644 317/270/645 318/271/646
f 309/264/626 320/273/647 311/265/634
f 309/264/626 321/274/648 320/273/647
f 322/275/649 320/273/647 321/274/650
f 311/265/634 323/276/651 313/267/635
f 320/273/647 323/276/652 311/265/634
f 313/267/642 323/276/653 324/277/654
f 324/277/654 323/276/652 320/273/655
f 318/271/643 313/267/642 324/277/654
f 322/275/656 324/277/654 320/273/657
f 324/277/654 325/278/658 318/271/643
f 322/275/656 326/279/659 324/277/660
f 326/279/661 325/278/662 324/277/654
f 327/280/663 326/279/659 322/275/649
f 325/278/664 328/281/665 318/271/643
f 328/281/666 329/272/644 318/271/646
f 326/279/661 330/282/667 325/278/658
f 325/278/664 330/282/667 328/281/665
f 331/283/614 330/282/667 326/279/668
f 332/280/663 331/283/616 326/279/661
f 332/280/669 304/261/617 331/283/614
f 330/282/670 331/283/671 333/284/609
f 330/282/672 333/284/609 334/285/606
f 330/282/670 335/286/673 328/281/674
f 335/286/675 330/282/670 334/285/676
f 328/281/666 335/286/673 336/272/677
f 335/286/675 334/285/676 336/272/678
f 338/274/679 337/280/680 322/275/649
f 337/280/681 338/274/648 339/261/682
f 342/1/1 341/261/683 340/274/684
f 342/1/1 340/274/685 309/264/631
f 345/257/686 344/256/687 343/258/688
f 346/259/689 344/256/687 345/257/690
f 347/3/691 346/259/692 345/257/686
f 348/260/693 346/259/694 347/3/691
f 349/1/695 348/260/693 347/3/691
f 348/260/696 349/1/697 350/261/698
f 347/3/699 345/257/700 351/262/701
f 347/3/691 351/262/701 352/2/702
f 345/257/703 353/263/704 351/262/705
f 353/263/706 345/257/703 354/258/688
f 355/266/707 353/263/704 354/258/688
f 352/2/708 351/262/709 356/264/710
f 357/1/695 352/2/708 356/264/710
f 351/262/711 353/263/712 358/265/713
f 353/263/712 355/266/707 358/265/713
f 351/262/705 358/265/713 356/264/714
f 358/265/715 355/266/716 359/267/717
f 355/266/707 360/268/718 359/267/719
f 360/268/720 355/266/707 361/258/688
f 360/268/718 362/269/721 359/267/719
f 359/267/719 362/269/722 363/270/723
f 364/271/724 359/267/719 363/270/723
f 363/270/723 365/272/725 364/271/726
f 366/273/727 356/264/728 358/265/715
f 367/274/729 356/264/728 366/273/730
f 366/273/731 368/275/732 367/274/729
f 369/276/733 358/265/715 359/267/719
f 369/276/734 366/273/730 358/265/715
f 369/276/734 359/267/719 370/277/735
f 369/276/734 370/277/735 366/273/736
f 359/267/719 364/271/724 370/277/735
f 370/277/735 368/275/732 366/273/736
f 371/278/737 370/277/738 364/271/724
f 372/279/739 368/275/740 370/277/741
f 371/278/742 372/279/743 370/277/744
f 372/279/739 373/280/745 368/275/740
f 374/281/746 371/278/742 364/271/724
f 375/272/747 374/281/748 364/271/724
f 376/282/749 372/279/739 371/278/742
f 376/282/749 371/278/742 374/281/748
f 376/282/749 377/283/693 372/279/739
f 377/283/750 378/280/751 372/279/752
f 350/261/698 378/280/751 377/283/750
f 377/283/693 376/282/753 379/284/689
f 379/284/694 376/282/753 380/285/687
f 381/286/754 376/282/749 374/281/746
f 376/282/755 381/286/756 380/285/757
f 381/286/758 374/281/748 382/272/747
f 380/285/687 381/286/756 382/272/725
f 384/280/759 383/274/729 368/275/740
f 383/274/729 384/280/759 385/261/698
f 388/261/760 387/1/697 386/274/729
f 386/274/729 387/1/5 356/264/714
f 391/287/761 390/92/208 389/91/762
f 392/288/763 391/287/761 389/91/762
f 392/288/763 389/91/762 393/88/764
f 394/289/765 391/287/766 392/288/763
f 395/290/767 392/288/768 393/88/764
f 395/290/769 393/88/764 396/27/55
f 397/21/43 395/290/769 396/27/200
f 398/291/770 394/289/765 392/288/763
f 398/291/770 392/288/763 395/290/771
f 399/292/772 394/289/773 398/291/770
f 400/293/774 395/290/775 397/21/43
f 400/293/776 398/291/770 395/290/771
f 401/18/39 400/293/774 397/21/43
f 402/294/777 398/291/770 400/293/778
f 402/294/779 403/292/780 398/291/781
f 404/295/782 400/293/774 401/18/39
f 404/295/782 402/294/777 400/293/778
f 405/16/36 404/295/782 401/18/783
f 406/296/784 404/295/782 405/16/35
f 407/17/37 406/296/785 405/16/786
f 408/297/787 402/294/788 404/295/782
f 406/296/784 408/297/789 404/295/782
f 409/298/790 406/296/785 407/17/37
f 410/19/47 409/298/790 407/17/37
f 411/25/791 409/298/790 410/19/47
f 412/23/46 411/25/72 410/19/47
f 411/25/72 413/35/73 409/298/790
f 409/298/790 414/299/792 406/296/784
f 413/35/73 414/299/793 409/298/794
f 414/299/792 408/297/789 406/296/784
f 413/35/73 415/181/795 414/299/793
f 415/181/796 416/300/797 414/299/792
f 414/299/792 416/300/797 408/297/787
f 415/181/795 417/125/798 416/300/799
f 408/297/787 418/301/800 402/294/788
f 416/300/797 418/301/801 408/297/787
f 418/301/800 419/292/802 402/294/803
f 417/125/804 420/302/805 416/300/799
f 416/300/797 420/302/806 418/301/800
f 417/125/807 421/119/808 420/302/806
f 420/302/809 422/303/810 418/301/800
f 418/301/800 422/303/810 423/292/780
f 421/119/808 424/304/811 420/302/805
f 420/302/806 424/304/811 422/303/812
f 421/119/271 425/114/813 424/304/814
f 425/114/815 426/107/236 424/304/816
f 424/304/814 426/107/817 427/305/818
f 424/304/811 427/305/818 422/303/812
f 426/107/817 428/104/819 427/305/818
f 422/303/812 427/305/818 429/306/820
f 422/303/810 429/306/820 430/292/780
f 427/305/818 428/104/819 431/307/821
f 427/305/818 431/307/822 429/306/820
f 428/104/819 432/100/224 431/307/821
f 431/307/823 432/100/224 433/308/824
f 432/100/224 434/103/229 433/308/824
f 429/306/820 431/307/823 435/309/825
f 431/307/826 433/308/827 435/309/828
f 433/308/829 434/103/229 436/310/830
f 434/103/229 437/105/831 436/310/830
f 429/306/820 435/309/832 438/311/773
f 439/292/772 429/306/833 438/311/773
f 438/311/765 435/309/825 440/312/766
f 435/309/825 433/308/829 441/313/834
f 435/309/832 441/313/834 440/312/766
f 433/308/829 436/310/835 441/313/834
f 440/312/761 441/313/836 442/252/208
f 441/313/836 443/253/594 442/252/208
f 441/313/837 436/310/830 443/253/838
f 436/310/839 444/255/840 443/253/838
f 436/310/830 437/105/232 444/255/605
f 437/105/232 445/109/242 444/255/605
