# Blender 4.1.0
# www.blender.org
mtllib slime_saber_LOD2.mtl
o slime_saber_LOD2
v 0.134318 0.759692 -0.295397
v 0.147584 0.895254 -0.100475
v -0.000000 0.923370 -0.118078
v -0.134318 0.835681 0.184060
v -0.147584 0.895254 -0.100475
v -0.304803 0.680290 0.225034
v -0.361247 0.720542 -0.034184
v -0.134318 0.759692 -0.295396
v -0.128548 0.745307 0.298860
v -0.000000 0.760661 0.309640
v 0.000000 0.660820 0.409447
v -0.000000 0.860610 0.183333
v -0.000000 0.923370 -0.118078
v -0.130581 0.650414 0.393440
v -0.113929 0.527667 0.479190
v -0.190473 0.541063 0.451805
v -0.397517 0.482512 0.277308
v -0.521423 0.425011 -0.027580
v -0.435176 0.251885 0.259633
v -0.363647 0.405686 0.375090
v 0.128548 0.745307 0.298860
v -0.255539 0.453041 0.465624
v -0.236376 0.396161 0.483434
v -0.304803 0.641124 -0.270867
v -0.345468 0.336957 0.386425
v -0.294169 0.334873 0.410272
v -0.235373 0.370309 0.473594
v -0.141657 0.420709 0.508233
v 0.000000 0.500974 0.493020
v -0.132339 0.405527 0.476689
v -0.000000 0.484777 0.482064
v 0.132278 0.404363 0.476967
v 0.141863 0.424373 0.507287
v 0.113940 0.527834 0.479138
v 0.000000 0.533091 0.499179
v 0.235389 0.370891 0.473428
v 0.000000 0.584393 0.468297
v 0.236454 0.397227 0.483169
v 0.294187 0.335024 0.410247
v 0.130581 0.650414 0.393440
v 0.345464 0.336945 0.386439
v 0.197540 0.246506 0.424148
v 0.255605 0.453654 0.465447
v 0.190473 0.541063 0.451805
v 0.363668 0.405829 0.375052
v 0.435177 0.251884 0.259633
v 0.335782 0.259688 0.331277
v 0.197540 0.246506 0.424148
v 0.304804 0.688293 0.225034
v 0.397517 0.482512 0.277308
v 0.521423 0.425011 -0.027580
v 0.134318 0.835681 0.184060
v 0.147584 0.895254 -0.100475
v 0.361247 0.720542 -0.034184
v 0.147584 0.895254 -0.100475
v -0.000000 0.923370 -0.118078
v 0.304803 0.641124 -0.270868
v 0.134318 0.759692 -0.295397
v 0.407464 0.463263 -0.250465
v 0.128548 0.670605 -0.354788
v 0.337674 0.451400 -0.335846
v -0.000000 0.681631 -0.368760
v -0.000000 0.777843 -0.309817
v -0.000000 0.923370 -0.118078
v -0.000000 0.451712 -0.463610
v 0.134493 0.446705 -0.446473
v -0.000000 0.193666 -0.485825
v 0.134071 0.203054 -0.463801
v -0.000000 0.037713 -0.363194
v 0.336076 0.227840 -0.340272
v 0.124414 0.046819 -0.349167
v -0.000000 0.019155 -0.258254
v 0.450439 0.234138 -0.227249
v 0.296298 0.077355 -0.261807
v 0.349950 0.045305 -0.003599
v -0.000000 0.026275 -0.001174
v 0.598392 0.257504 -0.064094
v 0.479541 0.120429 -0.032058
v 0.349950 0.045305 -0.003599
v 0.529167 0.242498 0.098775
v 0.297294 0.099895 0.252135
v -0.000000 0.030094 0.249736
v -0.000000 0.026275 -0.001174
v 0.126190 0.095177 0.370772
v -0.000000 0.030094 0.249736
v 0.134070 0.239783 0.452258
v 0.132278 0.404363 0.476967
v -0.000000 0.054923 0.349247
v -0.000000 0.350562 0.487839
v -0.000000 0.484777 0.482064
v -0.132339 0.405527 0.476689
v -0.126190 0.095177 0.370772
v -0.297294 0.099895 0.252134
v -0.000000 0.222118 0.473523
v -0.134071 0.239783 0.452258
v -0.197521 0.246161 0.424168
v -0.335782 0.259688 0.331277
v -0.294169 0.334873 0.410272
v -0.349950 0.045305 -0.003599
v -0.000000 0.030094 0.249736
v -0.000000 0.026275 -0.001174
v -0.529167 0.242498 0.098775
v -0.479541 0.120429 -0.032058
v -0.598391 0.257504 -0.064094
v -0.450439 0.234138 -0.227249
v -0.349950 0.045305 -0.003599
v -0.407464 0.463263 -0.250465
v -0.337674 0.451400 -0.335846
v -0.296298 0.077355 -0.261807
v -0.336076 0.227840 -0.340272
v -0.134493 0.446705 -0.446473
v -0.000000 0.019155 -0.258254
v -0.000000 0.026275 -0.001174
v -0.134071 0.203054 -0.463801
v -0.124414 0.046819 -0.349167
v -0.000000 0.037713 -0.363194
v -0.000000 0.193666 -0.485825
v -0.000000 0.451712 -0.463610
v -0.000000 0.681631 -0.368760
v -0.128548 0.670605 -0.354788
v -0.000000 0.777843 -0.309817
v -0.147584 0.895254 -0.100475
v -0.000000 0.923370 -0.118078
v 0.294187 0.335024 0.410247
v 0.197540 0.246506 0.424148
v 0.269343 0.259459 0.433982
v 0.188150 0.147637 0.455222
v 0.245164 0.156881 0.460330
v 0.186214 0.059869 0.473646
v 0.153919 0.168429 0.493450
v 0.188150 0.147637 0.455222
v 0.143636 0.293223 0.485238
v 0.197540 0.246506 0.424148
v 0.132278 0.404363 0.476967
v -0.294169 0.334873 0.410272
v -0.268400 0.248282 0.434887
v -0.197521 0.246161 0.424168
v -0.188150 0.147637 0.455222
v -0.245164 0.156881 0.460330
v -0.186214 0.059869 0.473646
v -0.153919 0.168429 0.493450
v -0.188150 0.147637 0.455222
v -0.143636 0.293223 0.485238
v -0.197521 0.246161 0.424168
v -0.132339 0.405527 0.476689
v -0.226017 0.289027 0.497739
v -0.153919 0.168429 0.493450
v -0.210829 0.159656 0.501969
v -0.143636 0.293223 0.485238
v -0.132339 0.405527 0.476689
v -0.235373 0.370309 0.473594
v -0.294169 0.334873 0.410272
v -0.268400 0.248282 0.434887
v -0.210829 0.159656 0.501969
v -0.186214 0.059869 0.473646
v -0.245164 0.156881 0.460330
v 0.210829 0.159656 0.501969
v 0.186214 0.059869 0.473646
v 0.153919 0.168429 0.493450
v 0.245164 0.156881 0.460330
v 0.269343 0.259459 0.433982
v 0.226017 0.289027 0.497739
v 0.143636 0.293223 0.485238
v 0.294187 0.335024 0.410247
v 0.132278 0.404363 0.476967
v 0.235389 0.370891 0.473428
vn -0.0000 0.9836 -0.1805
vn 0.4694 0.8734 -0.1301
vn 0.4430 0.6986 -0.5619
vn -0.4727 0.8722 -0.1257
vn -0.4288 0.8516 0.3015
vn -0.0000 0.9836 -0.1804
vn -0.7244 0.5945 0.3490
vn -0.4289 0.8515 0.3015
vn -0.7777 0.6281 -0.0235
vn -0.7778 0.6281 -0.0235
vn -0.4727 0.8722 -0.1258
vn -0.4431 0.6986 -0.5619
vn -0.4289 0.8516 0.3016
vn -0.2871 0.7150 0.6375
vn -0.2870 0.7150 0.6375
vn -0.0000 0.7492 0.6623
vn -0.0001 0.6676 0.7445
vn -0.0000 0.9404 0.3402
vn -0.0000 0.9404 0.3401
vn -0.4419 0.5865 0.6788
vn -0.4418 0.5865 0.6789
vn -0.1608 0.3757 0.9127
vn -0.4418 0.5865 0.6788
vn -0.5618 0.5118 0.6499
vn -0.1608 0.3758 0.9127
vn -0.4419 0.5864 0.6789
vn -0.4419 0.5864 0.6788
vn -0.8224 0.4149 0.3893
vn -0.7245 0.5944 0.3490
vn -0.8223 0.4149 0.3894
vn -0.5619 0.5117 0.6499
vn -0.9107 0.4127 -0.0170
vn -0.8256 -0.3214 0.4638
vn -0.8224 0.4149 0.3894
vn -0.9107 0.4127 -0.0171
vn -0.7546 0.3142 0.5761
vn -0.8256 -0.3213 0.4638
vn -0.7546 0.3142 0.5760
vn -0.0000 0.6676 0.7445
vn 0.2757 0.7174 0.6398
vn -0.5619 0.5118 0.6499
vn -0.6022 0.4244 0.6762
vn -0.6023 0.4244 0.6761
vn -0.3516 -0.1072 0.9300
vn -0.6023 0.4243 0.6762
vn -0.3515 -0.1072 0.9300
vn -0.6698 0.5116 -0.5381
vn -0.6698 0.5117 -0.5381
vn -0.7777 0.6281 -0.0236
vn -0.4430 0.6986 -0.5619
vn -0.6361 -0.2899 0.7151
vn -0.6360 -0.2899 0.7151
vn -0.4002 -0.4220 0.8135
vn -0.6360 -0.2899 0.7152
vn -0.1698 -0.5966 0.7843
vn -0.0322 -0.1219 0.9920
vn -0.1698 -0.5966 0.7844
vn -0.0321 -0.1219 0.9920
vn 0.0007 -0.0225 0.9997
vn -0.1607 0.3757 0.9127
vn 0.2958 -0.6967 0.6535
vn 0.2958 -0.6967 0.6536
vn 0.0084 -0.7269 0.6867
vn 0.0083 -0.7269 0.6867
vn -0.2648 -0.6508 0.7116
vn 0.0326 -0.1167 0.9926
vn 0.1612 0.3773 0.9120
vn -0.0005 0.2804 0.9599
vn 0.1612 0.3773 0.9119
vn 0.0007 -0.0226 0.9997
vn 0.1745 -0.5565 0.8123
vn -0.0003 0.5861 0.8102
vn -0.0002 0.5861 0.8102
vn -0.0001 0.6676 0.7446
vn -0.0003 0.5862 0.8102
vn -0.0002 0.5862 0.8102
vn 0.3470 -0.1059 0.9319
vn 0.0326 -0.1168 0.9926
vn 0.3470 -0.1059 0.9318
vn 0.3471 -0.1059 0.9318
vn 0.3994 -0.4191 0.8154
vn -0.0000 0.6676 0.7446
vn 0.4417 0.5796 0.6848
vn 0.4417 0.5797 0.6848
vn 0.3993 -0.4191 0.8154
vn 0.6356 -0.2897 0.7156
vn 0.4966 -0.4565 0.7382
vn 0.6356 -0.2896 0.7157
vn 0.6028 0.4258 0.6748
vn 0.5608 0.5047 0.6563
vn 0.6027 0.4258 0.6748
vn 0.3471 -0.1059 0.9319
vn 0.7549 0.3142 0.5757
vn 0.6356 -0.2896 0.7156
vn 0.7549 0.3143 0.5757
vn 0.7549 0.3142 0.5756
vn 0.8256 -0.3214 0.4638
vn 0.5013 -0.4985 0.7073
vn 0.4966 -0.4566 0.7382
vn 0.2758 0.7174 0.6398
vn 0.7249 0.5950 0.3471
vn 0.7249 0.5950 0.3472
vn 0.7549 0.3143 0.5756
vn 0.8242 0.4111 0.3894
vn 0.8256 -0.3214 0.4637
vn 0.8243 0.4111 0.3894
vn 0.9117 0.4104 -0.0176
vn 0.7250 0.5949 0.3471
vn 0.8243 0.4111 0.3893
vn 0.9117 0.4104 -0.0177
vn 0.4225 0.8565 0.2963
vn 0.4225 0.8566 0.2963
vn 0.4693 0.8734 -0.1301
vn 0.4226 0.8565 0.2963
vn 0.7791 0.6263 -0.0272
vn 0.7791 0.6262 -0.0272
vn 0.0001 0.9404 0.3401
vn 0.7791 0.6263 -0.0273
vn 0.6698 0.5117 -0.5381
vn 0.4431 0.6986 -0.5619
vn 0.7791 0.6262 -0.0273
vn 0.8320 0.3070 -0.4621
vn 0.6698 0.5116 -0.5381
vn 0.6698 0.5116 -0.5382
vn 0.3069 0.4035 -0.8620
vn 0.8320 0.3070 -0.4622
vn 0.5598 0.1666 -0.8117
vn 0.3068 0.4035 -0.8620
vn -0.0000 0.4316 -0.9021
vn -0.0000 0.7368 -0.6761
vn -0.0000 0.2300 -0.9732
vn 0.3482 0.1984 -0.9162
vn 0.3483 0.1984 -0.9161
vn -0.0000 0.2299 -0.9732
vn -0.0000 -0.2353 -0.9719
vn 0.3699 -0.2122 -0.9045
vn 0.5598 0.1665 -0.8117
vn -0.0000 -0.2354 -0.9719
vn 0.0001 -0.7119 -0.7023
vn 0.5801 -0.1713 -0.7963
vn 0.8320 0.3069 -0.4622
vn 0.5801 -0.1712 -0.7964
vn 0.3356 -0.7052 -0.6245
vn -0.0000 -0.7119 -0.7023
vn 0.3699 -0.2123 -0.9045
vn 0.5801 -0.1713 -0.7964
vn -0.0000 -0.9986 -0.0526
vn 0.3356 -0.7053 -0.6245
vn 0.7923 -0.2205 -0.5689
vn 0.4588 -0.7828 -0.4203
vn 0.0001 -0.9986 -0.0526
vn 0.4589 -0.7828 -0.4203
vn 0.5801 -0.1714 -0.7963
vn 0.7923 -0.2206 -0.5689
vn 0.4589 -0.7829 -0.4202
vn 0.3745 -0.9235 0.0832
vn 0.4589 -0.7828 -0.4202
vn -0.0000 -0.9986 -0.0525
vn -0.0000 -0.9998 0.0215
vn 0.9605 -0.0475 -0.2743
vn 0.9605 -0.0474 -0.2744
vn 0.6034 -0.7933 0.0813
vn 0.6035 -0.7932 0.0813
vn 0.3745 -0.9235 0.0833
vn 0.7881 -0.3925 0.4742
vn 0.9604 -0.0474 -0.2744
vn 0.9118 0.4104 -0.0177
vn 0.7882 -0.3925 0.4741
vn 0.7881 -0.3925 0.4741
vn 0.6034 -0.7933 0.0814
vn 0.4573 -0.7777 0.4313
vn 0.4573 -0.7777 0.4314
vn 0.4572 -0.7777 0.4314
vn 0.5013 -0.4984 0.7073
vn 0.3744 -0.9235 0.0833
vn 0.4572 -0.7777 0.4313
vn -0.0000 -0.9896 0.1435
vn 0.3081 -0.6740 0.6714
vn 0.3080 -0.6740 0.6714
vn 0.2059 -0.3984 0.8938
vn 0.3080 -0.6740 0.6715
vn 0.1415 -0.0801 0.9867
vn 0.2058 -0.3983 0.8939
vn -0.0000 -0.7091 0.7051
vn 0.2057 -0.3984 0.8938
vn -0.0000 -0.7091 0.7052
vn 0.1414 -0.0801 0.9867
vn -0.0010 -0.0712 0.9975
vn -0.0011 -0.0712 0.9975
vn -0.0010 0.0430 0.9991
vn -0.0011 0.0430 0.9991
vn -0.1430 -0.0784 0.9866
vn -0.0011 -0.0711 0.9975
vn -0.3080 -0.6742 0.6712
vn -0.4573 -0.7779 0.4311
vn 0.2058 -0.3984 0.8938
vn -0.0000 -0.4526 0.8917
vn -0.0000 -0.4527 0.8917
vn -0.3080 -0.6742 0.6713
vn -0.2058 -0.3971 0.8944
vn -0.2058 -0.3972 0.8944
vn -0.2058 -0.3972 0.8943
vn -0.4966 -0.4566 0.7382
vn -0.1431 -0.0784 0.9866
vn -0.2059 -0.3972 0.8943
vn -0.4573 -0.7778 0.4311
vn -0.3081 -0.6742 0.6712
vn -0.5016 -0.4987 0.7069
vn -0.6360 -0.2900 0.7151
vn -0.3745 -0.9235 0.0832
vn -0.3745 -0.9235 0.0833
vn -0.0000 -0.9896 0.1436
vn -0.3744 -0.9235 0.0833
vn -0.0000 -0.9897 0.1435
vn -0.7882 -0.3925 0.4741
vn -0.7881 -0.3925 0.4741
vn -0.8256 -0.3214 0.4637
vn -0.6035 -0.7932 0.0813
vn -0.9605 -0.0474 -0.2744
vn -0.7881 -0.3925 0.4742
vn -0.9604 -0.0475 -0.2744
vn -0.6034 -0.7933 0.0813
vn -0.9605 -0.0474 -0.2743
vn -0.7923 -0.2205 -0.5689
vn -0.7923 -0.2206 -0.5689
vn -0.7924 -0.2205 -0.5688
vn -0.8320 0.3070 -0.4621
vn -0.6699 0.5116 -0.5381
vn -0.8320 0.3070 -0.4622
vn -0.5598 0.1665 -0.8117
vn -0.5598 0.1666 -0.8117
vn -0.4589 -0.7828 -0.4202
vn -0.5801 -0.1713 -0.7963
vn -0.4589 -0.7828 -0.4203
vn -0.3483 0.1984 -0.9161
vn -0.3483 0.1984 -0.9162
vn -0.4588 -0.7829 -0.4203
vn -0.4588 -0.7828 -0.4203
vn -0.5801 -0.1714 -0.7963
vn -0.3699 -0.2122 -0.9045
vn -0.3355 -0.7052 -0.6245
vn -0.0001 -0.9986 -0.0526
vn -0.3356 -0.7052 -0.6245
vn -0.3699 -0.2123 -0.9045
vn -0.3356 -0.7053 -0.6245
vn -0.3355 -0.7053 -0.6245
vn -0.3482 0.1984 -0.9162
vn -0.3069 0.4035 -0.8620
vn -0.3483 0.1985 -0.9161
vn -0.3068 0.4035 -0.8620
vn -0.6698 0.5116 -0.5382
vn -0.0000 0.4316 -0.9020
vn -0.0001 0.7368 -0.6761
vn 0.9483 -0.1643 0.2714
vn -0.4329 -0.2384 -0.8694
vn 0.8498 -0.0280 0.5264
vn -0.3984 -0.2025 -0.8946
vn 0.9483 -0.1644 0.2714
vn 0.9484 -0.1644 0.2713
vn 0.9449 -0.2510 0.2102
vn 0.9449 -0.2509 0.2103
vn -0.0340 -0.9631 0.2670
vn -0.3984 -0.2024 -0.8946
vn -0.0341 -0.9630 0.2672
vn -0.5527 -0.0520 0.8317
vn -0.5528 -0.0519 0.8317
vn -0.5528 0.0661 0.8307
vn -0.4329 -0.2384 -0.8693
vn -0.5527 0.0661 0.8308
vn -0.1959 0.1577 0.9679
vn 0.4414 -0.2331 -0.8665
vn -0.9554 -0.1726 0.2395
vn -0.8566 -0.0308 0.5150
vn 0.4078 -0.2037 -0.8900
vn -0.9554 -0.1725 0.2396
vn -0.9554 -0.1725 0.2395
vn 0.4078 -0.2037 -0.8901
vn -0.9378 -0.2526 0.2382
vn 0.0340 -0.9631 0.2670
vn -0.9378 -0.2527 0.2382
vn 0.0340 -0.9631 0.2671
vn 0.5528 -0.0519 0.8317
vn 0.5528 -0.0520 0.8317
vn 0.5558 0.0657 0.8287
vn 0.5558 0.0658 0.8287
vn 0.1998 0.1575 0.9671
vn -0.3250 -0.0835 0.9420
vn -0.3560 0.0627 0.9324
vn 0.5557 0.0658 0.8288
vn 0.1998 0.1576 0.9671
vn -0.3581 0.1148 0.9266
vn -0.3582 0.1148 0.9266
vn -0.8567 -0.0308 0.5150
vn -0.9554 -0.1727 0.2396
vn -0.9554 -0.1726 0.2396
vn -0.3250 -0.0836 0.9420
vn 0.0340 -0.9630 0.2672
vn -0.3251 -0.0835 0.9420
vn -0.9378 -0.2528 0.2382
vn -0.5528 -0.0520 0.8317
vn -0.0341 -0.9631 0.2671
vn 0.3347 -0.0830 0.9387
vn -0.0340 -0.9631 0.2671
vn 0.9449 -0.2510 0.2103
vn 0.3347 -0.0829 0.9387
vn 0.9484 -0.1643 0.2714
vn 0.3348 -0.0829 0.9387
vn 0.3516 0.0620 0.9341
vn 0.3517 0.0620 0.9341
vn -0.5527 0.0660 0.8308
vn 0.3517 0.0619 0.9341
vn 0.3516 0.0619 0.9341
vn 0.8498 -0.0281 0.5264
vn -0.1959 0.1577 0.9678
vn 0.3436 0.1186 0.9316
vn -0.1959 0.1578 0.9679
vt 0.500000 0.994397
vt 0.981210 0.881501
vt 1.363998 0.790005
vt 0.022055 0.881491
vt 0.330312 0.782062
vt 0.200178 0.649471
vt 0.012185 0.717848
vt -0.360710 0.789777
vt 0.369285 0.698657
vt 0.502232 0.710193
vt 0.501975 0.619628
vt 0.500000 0.804464
vt 0.384417 0.607312
vt 0.416015 0.500858
vt 0.355174 0.513824
vt 0.176283 0.467083
vt 0.010443 0.427824
vt 0.133373 0.261649
vt 0.209206 0.377820
vt 0.632388 0.699151
vt 0.312109 0.433903
vt 0.308630 0.379956
vt -0.205732 0.661145
vt 0.230966 0.323449
vt 0.277258 0.337184
vt 0.335358 0.335752
vt 0.396634 0.401693
vt 0.500859 0.418128
vt 0.400059 0.277721
vt 0.500490 0.219326
vt 0.601137 0.277348
vt 0.605022 0.401306
vt 0.586008 0.500544
vt 0.501025 0.507780
vt 0.657431 0.331324
vt 0.501125 0.562020
vt 0.692328 0.379544
vt 0.723004 0.336676
vt 0.618620 0.607695
vt 0.768082 0.322976
vt 0.672489 0.261421
vt 0.689373 0.433636
vt 0.647025 0.513944
vt 0.790282 0.377281
vt 0.865049 0.261688
vt 0.780060 0.263998
vt 0.801092 0.648878
vt 0.823708 0.466329
vt 0.992804 0.427890
vt 0.668120 0.782064
vt 0.991067 0.717895
vt 1.210734 0.661307
vt 1.149467 0.482751
vt 1.413698 0.707486
vt 1.243203 0.479367
vt 1.500002 0.721251
vt 1.500002 0.811859
vt 1.500002 0.492336
vt 1.441309 0.489253
vt 1.500002 0.253681
vt 1.441309 0.255146
vt 1.500002 0.149402
vt 1.243203 0.261739
vt 1.413697 0.154645
vt 1.432000 0.110510
vt 1.097750 0.258025
vt 1.210734 0.175027
vt 0.991067 0.151514
vt 0.501088 0.044751
vt 0.992381 0.259193
vt 0.992157 0.198604
vt 0.940031 0.257910
vt 0.808006 0.177467
vt 0.499477 0.116472
vt 0.616823 0.181327
vt 0.601561 0.258972
vt 0.600539 0.417785
vt 0.500000 0.153969
vt 0.500000 0.365006
vt 0.500000 0.490532
vt 0.397893 0.417785
vt 0.381609 0.181326
vt 0.190419 0.177411
vt 0.500000 0.257489
vt 0.396870 0.258971
vt 0.325938 0.261416
vt 0.218362 0.263969
vt 0.012176 0.151289
vt 0.060802 0.257861
vt 0.011087 0.198369
vt 0.010910 0.259027
vt -0.091481 0.258055
vt -0.143776 0.482687
vt -0.238559 0.479303
vt -0.205719 0.174944
vt -0.238553 0.261679
vt -0.438878 0.489186
vt -0.430344 0.110619
vt -0.438866 0.255248
vt -0.410946 0.154680
vt -0.499998 0.149646
vt -0.499999 0.253822
vt -0.500003 0.492267
vt -0.500003 0.721187
vt -0.410961 0.707338
vt -0.500004 0.811800
vt 1.009290 0.402344
vt 1.014500 0.359665
vt 1.008667 0.252458
vt 1.010940 0.468080
vt 1.007801 0.485192
vt 1.000178 0.573170
vt 0.989245 0.468370
vt 0.992642 0.486064
vt 0.991007 0.403498
vt 0.985500 0.359665
vt 0.991558 0.252458
vt -0.014500 0.359665
vt -0.009290 0.402344
vt -0.008667 0.252458
vt -0.010940 0.468080
vt -0.007801 0.485192
vt -0.000178 0.573170
vt 0.010755 0.468370
vt 0.007358 0.486064
vt 0.008993 0.403498
vt 0.014500 0.359665
vt 0.008442 0.252458
vt 0.003742 0.471919
vt -0.000057 0.415341
vt -0.000217 0.252458
vt -0.001007 0.497198
vt 1.000057 0.496841
vt 1.000057 0.415341
vt 1.000217 0.252458
s 0
usemtl body
f 3/1/1 2/2/2 1/3/3
f 5/4/4 4/5/5 3/1/6
f 6/6/7 4/5/8 5/4/4
f 7/7/9 6/6/7 5/4/4
f 7/7/10 5/4/11 8/8/12
f 4/5/13 6/6/7 9/9/14
f 9/9/15 10/10/16 4/5/5
f 11/11/17 10/10/16 9/9/15
f 10/10/16 12/12/18 4/5/5
f 4/5/5 12/12/19 13/1/1
f 14/13/20 9/9/14 6/6/7
f 14/13/21 11/11/17 9/9/15
f 15/14/22 11/11/17 14/13/23
f 16/15/24 15/14/25 14/13/26
f 16/15/24 14/13/27 6/6/7
f 17/16/28 6/6/29 7/7/9
f 17/16/30 16/15/31 6/6/7
f 18/17/32 17/16/28 7/7/9
f 19/18/33 17/16/34 18/17/35
f 17/16/30 20/19/36 16/15/31
f 17/16/34 19/18/37 20/19/38
f 10/10/16 11/11/39 21/20/40
f 10/10/16 21/20/40 12/12/18
f 15/14/22 16/15/41 22/21/42
f 20/19/36 22/21/43 16/15/41
f 20/19/36 23/22/44 22/21/45
f 23/22/46 15/14/22 22/21/43
f 18/17/35 7/7/10 24/23/47
f 24/23/48 7/7/49 8/8/50
f 19/18/37 25/24/51 20/19/36
f 25/24/52 23/22/44 20/19/36
f 26/25/53 23/22/46 25/24/54
f 27/26/55 23/22/44 26/25/53
f 28/27/56 23/22/44 27/26/57
f 28/27/58 15/14/22 23/22/44
f 28/27/58 29/28/59 15/14/60
f 30/29/61 28/27/58 27/26/55
f 28/27/58 30/29/61 29/28/59
f 30/29/62 31/30/63 29/28/59
f 31/30/64 32/31/65 29/28/59
f 32/31/65 33/32/66 29/28/59
f 29/28/59 33/32/66 34/33/67
f 35/34/68 29/28/59 34/33/69
f 29/28/70 35/34/68 15/14/22
f 33/32/66 32/31/65 36/35/71
f 35/34/68 37/36/72 15/14/22
f 37/36/73 35/34/68 34/33/67
f 11/11/74 15/14/22 37/36/75
f 34/33/67 11/11/39 37/36/76
f 38/37/77 33/32/78 36/35/71
f 34/33/67 33/32/78 38/37/79
f 38/37/80 36/35/71 39/38/81
f 11/11/82 34/33/67 40/39/83
f 11/11/39 40/39/84 21/20/40
f 38/37/77 39/38/85 41/40/86
f 42/41/87 41/40/88 39/38/85
f 34/33/67 38/37/77 43/42/89
f 34/33/69 44/43/90 40/39/84
f 44/43/90 34/33/67 43/42/91
f 38/37/92 45/44/93 43/42/89
f 38/37/80 41/40/94 45/44/95
f 43/42/89 45/44/95 44/43/90
f 45/44/96 41/40/94 46/45/97
f 41/40/86 47/46/98 46/45/97
f 47/46/98 41/40/86 48/41/99
f 21/20/100 40/39/84 49/47/101
f 40/39/83 44/43/90 49/47/102
f 45/44/103 50/48/104 44/43/90
f 46/45/105 50/48/106 45/44/96
f 44/43/90 50/48/104 49/47/102
f 50/48/106 46/45/97 51/49/107
f 49/47/108 50/48/109 51/49/110
f 49/47/101 52/50/111 21/20/40
f 21/20/40 52/50/112 12/12/18
f 12/12/19 52/50/112 53/2/113
f 52/50/114 49/47/101 54/51/115
f 54/51/116 49/47/108 51/49/107
f 55/2/2 52/50/114 54/51/115
f 56/1/1 12/12/117 55/2/113
f 55/2/2 54/51/118 57/52/119
f 58/3/120 55/2/2 57/52/119
f 54/51/121 51/49/110 59/53/122
f 57/52/123 54/51/118 59/53/122
f 57/52/124 60/54/125 58/3/3
f 59/53/126 61/55/127 57/52/123
f 57/52/124 61/55/127 60/54/125
f 58/3/3 60/54/128 62/56/129
f 63/57/130 58/3/3 62/56/129
f 63/57/130 64/1/1 58/3/3
f 62/56/129 60/54/128 65/58/131
f 60/54/128 66/59/132 65/58/131
f 61/55/127 66/59/133 60/54/125
f 65/58/134 66/59/132 67/60/135
f 66/59/132 68/61/136 67/60/135
f 68/61/136 66/59/133 61/55/137
f 67/60/138 68/61/136 69/62/139
f 70/63/140 61/55/137 59/53/141
f 70/63/142 68/61/136 61/55/137
f 68/61/136 71/64/143 69/62/144
f 71/64/143 68/61/145 70/63/146
f 72/65/147 69/62/144 71/64/148
f 73/66/149 70/63/140 59/53/126
f 59/53/126 51/49/110 73/66/149
f 74/67/150 71/64/143 70/63/140
f 72/65/151 71/64/143 74/67/152
f 74/67/152 70/63/153 73/66/154
f 72/65/147 74/67/155 75/68/156
f 73/66/154 75/68/156 74/67/157
f 72/65/158 75/68/156 76/69/159
f 51/49/107 77/70/160 73/66/154
f 77/70/161 78/71/162 73/66/149
f 73/66/149 78/71/163 79/68/164
f 80/72/165 77/70/166 51/49/167
f 80/72/168 78/71/163 77/70/166
f 51/49/110 46/45/97 80/72/169
f 78/71/163 80/72/169 46/45/97
f 75/68/164 78/71/170 46/45/105
f 46/45/97 81/73/171 75/68/164
f 81/73/172 46/45/97 47/46/98
f 81/73/173 47/46/174 48/41/87
f 75/68/175 81/73/176 82/74/177
f 83/69/159 75/68/175 82/74/177
f 84/75/178 81/73/172 48/41/87
f 84/75/179 85/74/177 81/73/171
f 48/41/87 86/76/180 84/75/181
f 48/41/87 87/77/182 86/76/183
f 84/75/181 88/78/184 85/74/177
f 84/75/179 86/76/185 88/78/186
f 86/76/183 87/77/187 89/79/188
f 89/79/189 87/77/187 90/80/190
f 90/80/191 91/81/192 89/79/193
f 88/78/184 92/82/194 85/74/177
f 93/83/195 85/74/177 92/82/194
f 86/76/196 94/84/197 88/78/184
f 94/84/197 86/76/183 89/79/188
f 88/78/184 94/84/198 92/82/199
f 89/79/189 91/81/192 95/85/200
f 94/84/197 89/79/189 95/85/201
f 94/84/198 95/85/202 92/82/199
f 96/86/203 95/85/201 91/81/204
f 92/82/194 95/85/205 96/86/203
f 93/83/206 92/82/207 96/86/203
f 97/87/208 93/83/206 96/86/203
f 96/86/203 25/24/54 97/87/208
f 98/25/53 25/24/54 96/86/203
f 19/18/33 97/87/208 25/24/209
f 97/87/208 19/18/33 93/83/206
f 99/88/210 93/83/206 19/18/33
f 99/88/211 100/74/212 93/83/195
f 99/88/213 101/69/159 100/74/214
f 99/88/211 19/18/33 102/89/215
f 102/89/216 19/18/217 18/17/35
f 103/90/218 99/88/211 102/89/215
f 102/89/215 104/91/219 103/90/218
f 102/89/220 18/17/32 104/91/221
f 103/90/222 104/91/223 105/92/224
f 104/91/223 18/17/35 105/92/225
f 106/88/211 103/90/218 105/92/226
f 105/92/224 18/17/35 107/93/227
f 107/93/227 18/17/35 24/23/228
f 107/93/229 108/94/230 105/92/224
f 24/23/47 108/94/231 107/93/229
f 105/92/225 109/95/232 99/88/211
f 108/94/230 110/96/233 105/92/224
f 105/92/225 110/96/233 109/95/234
f 111/97/235 108/94/231 24/23/47
f 110/96/233 108/94/230 111/97/236
f 109/95/237 112/98/147 99/88/213
f 112/98/147 113/69/159 99/88/213
f 109/95/238 110/96/239 114/99/240
f 114/99/240 110/96/233 111/97/236
f 109/95/234 115/100/241 112/98/242
f 115/100/243 109/95/234 114/99/244
f 112/98/147 115/100/245 116/101/144
f 117/102/135 116/101/144 115/100/246
f 114/99/244 117/102/138 115/100/243
f 118/103/134 117/102/135 114/99/240
f 111/97/247 118/103/134 114/99/240
f 119/104/129 118/103/131 111/97/247
f 120/105/248 111/97/249 24/23/47
f 120/105/250 119/104/129 111/97/236
f 8/8/50 120/105/248 24/23/251
f 121/106/130 119/104/252 120/105/250
f 8/8/50 121/106/130 120/105/250
f 8/8/50 122/4/11 121/106/130
f 5/4/4 123/1/1 121/106/253
f 126/107/254 125/108/255 124/109/256
f 127/110/257 125/108/255 126/107/258
f 127/110/257 126/107/259 128/111/260
f 128/111/261 129/112/262 127/110/257
f 131/113/263 129/112/264 130/114/265
f 131/113/257 130/114/266 132/115/267
f 131/113/257 132/115/267 133/116/255
f 133/116/268 132/115/269 134/117/270
f 137/118/271 136/119/272 135/120/273
f 137/118/271 138/121/274 136/119/275
f 136/119/276 138/121/277 139/122/278
f 140/123/279 139/122/280 138/121/277
f 140/123/281 142/124/274 141/125/282
f 141/125/283 142/124/277 143/126/284
f 143/126/285 142/124/277 144/127/271
f 143/126/285 144/127/271 145/128/286
f 148/129/287 147/125/283 146/130/288
f 147/125/283 149/126/289 146/130/288
f 149/126/289 150/128/290 146/130/288
f 150/128/290 151/131/291 146/130/288
f 146/130/288 151/131/292 152/120/293
f 153/119/294 146/130/288 152/120/293
f 146/130/288 153/119/295 154/132/296
f 155/123/297 147/125/283 154/132/298
f 153/119/294 156/122/280 154/132/298
f 156/122/299 155/123/281 154/132/287
f 159/114/300 158/112/301 157/133/302
f 158/112/303 160/111/304 157/133/305
f 160/111/304 161/107/306 157/133/307
f 159/114/300 157/133/305 162/134/308
f 161/107/254 162/134/309 157/133/305
f 163/115/310 159/114/300 162/134/311
f 162/134/312 161/107/254 164/109/313
f 165/117/314 163/115/269 162/134/308
f 166/135/315 162/134/309 164/109/256
f 166/135/315 165/117/316 162/134/309
