# Blender 4.1.0
# www.blender.org
mtllib slime_saber_LOD1.mtl
o slime_saber_LOD1
v 0.231022 0.195710 0.441027
v 0.199079 0.121925 0.459404
v 0.234238 0.171444 0.460297
v -0.231022 0.195710 0.441027
v -0.234238 0.171444 0.460297
v -0.199079 0.121925 0.459404
v 0.294187 0.335024 0.410247
v 0.189510 0.250754 0.427234
v 0.260595 0.273021 0.426377
v 0.185015 0.199197 0.440503
v 0.231022 0.195710 0.441027
v 0.181954 0.139843 0.453374
v 0.199079 0.121925 0.459404
v 0.182013 0.096158 0.460382
v 0.256091 0.206303 0.453980
v 0.234238 0.171444 0.460297
v 0.278090 0.257977 0.440383
v 0.294187 0.335024 0.410247
v 0.234109 0.167559 0.481047
v 0.199079 0.121925 0.459404
v 0.252531 0.210024 0.481263
v 0.270153 0.272547 0.475615
v 0.236103 0.291128 0.507365
v 0.294187 0.335024 0.410247
v 0.281666 0.348252 0.447602
v 0.248714 0.368167 0.480590
v 0.175787 0.396254 0.492091
v 0.171795 0.307270 0.509852
v 0.132278 0.404363 0.476967
v 0.206158 0.164923 0.502163
v 0.192099 0.121104 0.481187
v 0.177577 0.170481 0.503457
v 0.221558 0.215603 0.512264
v 0.173040 0.220892 0.512513
v 0.149046 0.223042 0.492850
v 0.158793 0.176804 0.487767
v 0.171663 0.125523 0.471142
v 0.141940 0.301879 0.493728
v 0.132278 0.404363 0.476967
v 0.154609 0.205500 0.471050
v 0.181954 0.139843 0.453374
v 0.171663 0.125523 0.471142
v 0.185015 0.199197 0.440503
v 0.189510 0.250754 0.427234
v 0.145332 0.288040 0.476402
v 0.132278 0.404363 0.476967
v 0.132278 0.404363 0.476967
v 0.192099 0.121104 0.481187
v 0.171663 0.125523 0.471142
v 0.182013 0.096158 0.460382
v 0.192099 0.121104 0.481187
v 0.199079 0.121925 0.459404
v 0.182013 0.096158 0.460382
v -0.294169 0.334873 0.410272
v -0.258709 0.250666 0.428186
v -0.189477 0.250130 0.427269
v -0.185015 0.199197 0.440503
v -0.231022 0.195710 0.441027
v -0.181954 0.139843 0.453374
v -0.199079 0.121925 0.459404
v -0.182013 0.096158 0.460382
v -0.256091 0.206303 0.453980
v -0.234238 0.171444 0.460297
v -0.278090 0.257977 0.440383
v -0.294169 0.334873 0.410272
v -0.234109 0.167559 0.481047
v -0.199079 0.121925 0.459404
v -0.252531 0.210024 0.481263
v -0.270153 0.272547 0.475615
v -0.236103 0.291128 0.507365
v -0.294169 0.334873 0.410272
v -0.281932 0.350653 0.447155
v -0.248628 0.367300 0.480772
v -0.175558 0.392972 0.492854
v -0.171795 0.307270 0.509852
v -0.132339 0.405527 0.476689
v -0.206158 0.164923 0.502163
v -0.192099 0.121104 0.481187
v -0.177577 0.170481 0.503457
v -0.221558 0.215603 0.512264
v -0.173040 0.220892 0.512513
v -0.149046 0.223042 0.492850
v -0.158793 0.176804 0.487767
v -0.171663 0.125523 0.471142
v -0.141940 0.301879 0.493728
v -0.132339 0.405527 0.476689
v -0.154609 0.205500 0.471050
v -0.181954 0.139843 0.453374
v -0.171663 0.125523 0.471142
v -0.185015 0.199197 0.440503
v -0.189477 0.250130 0.427269
v -0.145332 0.288040 0.476402
v -0.132339 0.405527 0.476689
v -0.132339 0.405527 0.476689
v -0.171663 0.125523 0.471142
v -0.192099 0.121104 0.481187
v -0.182013 0.096158 0.460382
v -0.375948 0.474960 0.314266
v -0.334707 0.469454 0.369445
v -0.396421 0.384306 0.344295
v -0.450003 0.370224 0.265972
v -0.435176 0.251885 0.259633
v -0.419087 0.490063 0.240349
v -0.510763 0.359436 0.111431
v -0.370874 0.606622 0.216153
v -0.460866 0.485078 0.114652
v -0.327998 0.598760 0.277349
v -0.334707 0.469454 0.369445
v -0.487232 0.483762 -0.015366
v -0.412761 0.611224 0.109063
v -0.529167 0.242498 0.098775
v -0.555613 0.366260 -0.039795
v -0.290120 0.663410 0.255243
v -0.319487 0.697171 0.194824
v -0.230763 0.713272 0.277887
v -0.347322 0.718216 0.091314
v -0.429002 0.608944 -0.020997
v -0.242069 0.777163 0.185318
v -0.491285 0.354460 -0.167056
v -0.493980 0.238379 -0.180762
v -0.598640 0.301425 -0.057623
v -0.464112 0.480648 -0.145460
v -0.361247 0.720542 -0.034184
v -0.260049 0.812182 0.069179
v -0.412855 0.597662 -0.144214
v -0.424954 0.345026 -0.270071
v -0.406897 0.229898 -0.273735
v -0.407464 0.463263 -0.250465
v -0.347312 0.695268 -0.153049
v -0.268747 0.816890 -0.063626
v -0.370874 0.578123 -0.243189
v -0.134318 0.835681 0.184060
v -0.142993 0.894161 0.042866
v -0.128548 0.745307 0.298860
v -0.130581 0.650414 0.393440
v 0.000000 0.660820 0.409447
v -0.000000 0.760661 0.309640
v -0.000000 0.860610 0.183333
v -0.243543 0.623421 0.353145
v -0.251443 0.516924 0.424243
v -0.255539 0.453041 0.465624
v 0.128548 0.745307 0.298860
v 0.130581 0.650414 0.393440
v -0.190473 0.541063 0.451805
v -0.330873 0.427067 0.405884
v 0.134318 0.835681 0.184060
v 0.230763 0.713272 0.277887
v -0.000000 0.925244 0.031766
v -0.147584 0.895254 -0.100475
v -0.000000 0.923370 -0.118078
v 0.142993 0.894161 0.042866
v -0.000000 0.923370 -0.118078
v -0.260048 0.777342 -0.180323
v 0.242069 0.777163 0.185318
v -0.142993 0.841218 -0.215508
v -0.000000 0.923370 -0.118078
v -0.319486 0.658325 -0.244788
v -0.242069 0.715176 -0.266264
v -0.314221 0.546721 -0.315288
v -0.290120 0.623922 -0.296947
v -0.337674 0.451400 -0.335846
v -0.348435 0.337522 -0.347985
v -0.336076 0.227840 -0.340272
v -0.134318 0.759692 -0.295396
v -0.230763 0.648211 -0.326682
v -0.237415 0.563890 -0.367552
v -0.248847 0.446535 -0.401264
v -0.254819 0.328602 -0.420917
v -0.000000 0.867831 -0.233637
v -0.000000 0.923370 -0.118078
v -0.000000 0.777843 -0.309817
v -0.128548 0.670605 -0.354788
v -0.000000 0.681631 -0.368760
v -0.000000 0.574189 -0.418084
v -0.130296 0.571038 -0.404688
v -0.000000 0.451712 -0.463610
v -0.134493 0.446705 -0.446473
v -0.000000 0.319078 -0.487929
v -0.136917 0.321862 -0.473119
v -0.000000 0.193666 -0.485825
v -0.134071 0.203054 -0.463801
v -0.000000 0.096559 -0.437991
v -0.247607 0.216614 -0.409892
v -0.127967 0.103841 -0.420118
v -0.000000 0.037713 -0.363194
v -0.232700 0.119528 -0.374729
v -0.124414 0.046819 -0.349167
v -0.310352 0.145485 -0.315248
v -0.127764 0.020655 -0.256014
v -0.000000 0.016154 -0.262735
v -0.223977 0.065397 -0.321118
v -0.133655 0.018815 -0.137634
v -0.000000 0.022186 -0.139249
v -0.232504 0.037682 -0.241201
v -0.136851 0.022564 -0.001760
v -0.000000 0.033697 0.000000
v -0.247360 0.022599 -0.133667
v -0.254486 0.018936 -0.004121
v -0.365199 0.127919 -0.250858
v -0.282438 0.086139 -0.291534
v -0.310158 0.068572 -0.232079
v -0.414812 0.118589 -0.149634
v -0.336040 0.053031 -0.131079
v -0.349950 0.045305 -0.003599
v -0.479541 0.120429 -0.032058
v -0.247360 0.024237 0.124177
v -0.336399 0.054921 0.120796
v -0.433569 0.121545 0.114452
v -0.133654 0.024405 0.133654
v -0.000000 0.033697 0.000000
v -0.310091 0.072831 0.220899
v -0.384099 0.162823 0.244314
v -0.232504 0.050682 0.232504
v -0.587117 0.213708 -0.060376
v -0.578148 0.256434 -0.101697
v -0.603399 0.253455 -0.029200
v -0.624653 0.262498 -0.071572
v -0.587117 0.213708 -0.060376
v -0.310259 0.174397 0.307889
v -0.335782 0.259688 0.331277
v -0.284497 0.126959 0.283369
v -0.370268 0.328770 0.364253
v -0.356086 0.352946 0.389362
v -0.223977 0.082080 0.310092
v -0.232700 0.139709 0.363508
v -0.247581 0.254539 0.400670
v -0.320242 0.316568 0.389522
v -0.294169 0.334873 0.410272
v -0.189477 0.250130 0.427269
v -0.335706 0.378121 0.421637
v -0.294169 0.334873 0.410272
v -0.301102 0.379331 0.449001
v -0.281932 0.350653 0.447155
v -0.257746 0.391437 0.480626
v -0.248628 0.367300 0.480772
v -0.175558 0.392972 0.492854
v -0.127967 0.126345 0.405394
v -0.193328 0.406938 0.502056
v -0.155838 0.480551 0.496727
v -0.141657 0.420709 0.508233
v -0.132339 0.405527 0.476689
v -0.070820 0.442007 0.478842
v -0.075613 0.461290 0.502288
v -0.146494 0.556697 0.456011
v -0.083091 0.498587 0.503447
v -0.070293 0.574833 0.460573
v 0.000000 0.500974 0.493020
v -0.000000 0.484777 0.482064
v 0.070820 0.442007 0.478842
v 0.000000 0.533091 0.499179
v 0.000000 0.584393 0.468297
v 0.075613 0.461290 0.502288
v 0.070293 0.574833 0.460573
v 0.083091 0.498587 0.503447
v 0.141863 0.424373 0.507287
v 0.132278 0.404363 0.476967
v 0.175787 0.396254 0.492091
v 0.146494 0.556697 0.456011
v 0.155881 0.481218 0.496520
v 0.193531 0.409556 0.501409
v 0.255605 0.453654 0.465447
v 0.190473 0.541063 0.451805
v 0.257599 0.390023 0.480953
v 0.248714 0.368167 0.480590
v 0.281666 0.348252 0.447602
v 0.301157 0.379772 0.448904
v 0.294187 0.335024 0.410247
v 0.251479 0.517253 0.424129
v 0.335576 0.377189 0.421833
v 0.356076 0.352877 0.389374
v 0.330915 0.427353 0.405809
v 0.396421 0.384306 0.344295
v 0.334707 0.469454 0.369445
v 0.327998 0.598760 0.277349
v 0.243543 0.623421 0.353145
v 0.370268 0.328770 0.364253
v 0.435177 0.251884 0.259633
v 0.335782 0.259688 0.331277
v 0.294187 0.335024 0.410247
v 0.320298 0.317031 0.389460
v 0.247586 0.254605 0.400666
v 0.189510 0.250754 0.427234
v 0.234381 0.165184 0.363548
v 0.375948 0.474960 0.314266
v 0.419087 0.490063 0.240349
v 0.290120 0.679416 0.255243
v 0.319487 0.697171 0.194824
v 0.310260 0.174397 0.307889
v 0.450003 0.370224 0.265972
v 0.370874 0.606622 0.216153
v 0.260049 0.812182 0.069179
v 0.347322 0.718216 0.091314
v 0.412762 0.611225 0.109063
v 0.460866 0.485078 0.114652
v 0.147584 0.895254 -0.100475
v -0.000000 0.923370 -0.118078
v 0.268747 0.816890 -0.063626
v 0.361247 0.720542 -0.034184
v 0.510763 0.359436 0.111431
v 0.429002 0.608944 -0.020997
v 0.487232 0.483762 -0.015366
v 0.142993 0.841218 -0.215508
v 0.260048 0.777342 -0.180323
v 0.347312 0.695268 -0.153049
v -0.000000 0.867831 -0.233637
v -0.000000 0.923370 -0.118078
v -0.000000 0.777843 -0.309817
v 0.134318 0.759692 -0.295397
v -0.000000 0.681631 -0.368760
v 0.242069 0.715177 -0.266264
v 0.412855 0.597662 -0.144214
v 0.128548 0.670605 -0.354788
v 0.319486 0.658325 -0.244788
v 0.130296 0.571038 -0.404688
v -0.000000 0.574189 -0.418084
v 0.230763 0.648211 -0.326682
v 0.134493 0.446705 -0.446473
v -0.000000 0.451712 -0.463610
v 0.237415 0.563890 -0.367552
v 0.136917 0.321862 -0.473119
v -0.000000 0.319078 -0.487929
v 0.248847 0.446535 -0.401264
v 0.134071 0.203054 -0.463801
v -0.000000 0.193666 -0.485825
v 0.254819 0.328602 -0.420917
v 0.127966 0.103841 -0.420118
v -0.000000 0.096559 -0.437991
v 0.247607 0.216614 -0.409892
v 0.124414 0.046819 -0.349167
v -0.000000 0.037713 -0.363194
v -0.000000 0.016154 -0.262735
v 0.234381 0.131808 -0.373197
v 0.127764 0.020655 -0.256014
v -0.000000 0.022186 -0.139249
v 0.223977 0.065397 -0.321118
v 0.133654 0.018815 -0.137634
v -0.000000 0.033697 0.000000
v 0.232503 0.037682 -0.241201
v 0.282438 0.086139 -0.291534
v 0.310355 0.145503 -0.315246
v 0.310158 0.068572 -0.232079
v 0.247360 0.022599 -0.133667
v 0.336076 0.227840 -0.340272
v 0.365199 0.127919 -0.250858
v 0.348435 0.337522 -0.347985
v 0.136851 0.022564 -0.001760
v -0.000000 0.033697 0.000000
v 0.336040 0.053031 -0.131079
v 0.406897 0.229898 -0.273735
v 0.337674 0.451400 -0.335846
v 0.254486 0.018936 -0.004121
v 0.414812 0.118589 -0.149634
v 0.493980 0.238379 -0.180762
v 0.424955 0.345026 -0.270071
v 0.314221 0.546721 -0.315288
v 0.349950 0.045305 -0.003599
v 0.491286 0.354460 -0.167056
v 0.407464 0.463263 -0.250465
v 0.290120 0.623922 -0.296947
v 0.370874 0.578123 -0.243190
v 0.464112 0.480648 -0.145460
v 0.555613 0.366260 -0.039795
v 0.529167 0.242498 0.098775
v 0.598641 0.301425 -0.057623
v 0.603400 0.253455 -0.029200
v 0.624654 0.262498 -0.071572
v 0.578149 0.256434 -0.101697
v 0.587118 0.213708 -0.060376
v 0.587118 0.213708 -0.060376
v 0.479541 0.120429 -0.032058
v 0.433569 0.121544 0.114452
v 0.384099 0.162823 0.244314
v 0.336399 0.054920 0.120796
v 0.310091 0.072831 0.220900
v 0.284497 0.126958 0.283370
v 0.223977 0.082080 0.310092
v 0.247360 0.024236 0.124177
v 0.232503 0.050682 0.232504
v 0.124414 0.064009 0.336150
v 0.133654 0.019831 0.131302
v 0.127764 0.031959 0.247360
v 0.127966 0.126345 0.405394
v -0.000000 0.025399 0.136851
v -0.000000 0.033697 0.000000
v -0.000000 0.026365 0.254486
v -0.000000 0.054923 0.349247
v 0.134070 0.240899 0.452147
v 0.132278 0.404363 0.476967
v -0.000000 0.350562 0.487839
v 0.070820 0.442007 0.478842
v -0.000000 0.484777 0.482064
v -0.070820 0.442007 0.478842
v -0.132339 0.405527 0.476689
v -0.000000 0.120025 0.421536
v -0.124414 0.064009 0.336150
v -0.127764 0.031959 0.247360
v -0.134071 0.240899 0.452147
v -0.000000 0.222118 0.473523
v -0.000000 0.033697 0.000000
v -0.192099 0.121104 0.481187
v -0.182013 0.096158 0.460382
v -0.199079 0.121925 0.459404
vn 0.6991 -0.5372 -0.4719
vn 0.6525 -0.5593 -0.5113
vn 0.1639 -0.2794 -0.9461
vn -0.6525 -0.5593 -0.5113
vn -0.6991 -0.5372 -0.4719
vn -0.1566 -0.3025 -0.9402
vn 0.1777 -0.3062 -0.9352
vn -0.4238 -0.1592 -0.8916
vn 0.9871 -0.1305 0.0930
vn -0.3997 -0.1612 -0.9023
vn 0.1778 -0.3062 -0.9352
vn -0.3997 -0.1611 -0.9024
vn -0.3759 -0.3035 -0.8756
vn -0.3997 -0.1612 -0.9024
vn 0.6525 -0.5594 -0.5112
vn -0.3759 -0.3034 -0.8756
vn 0.6525 -0.5593 -0.5112
vn -0.2443 -0.9192 -0.3088
vn 0.8558 -0.4201 -0.3019
vn 0.1640 -0.2794 -0.9461
vn 0.6990 -0.5372 -0.4720
vn 0.9553 -0.2731 -0.1133
vn 0.9553 -0.2730 -0.1133
vn 0.9871 -0.1307 0.0930
vn 0.7563 -0.4704 0.4546
vn 0.7564 -0.4704 0.4546
vn 0.8557 -0.4202 -0.3019
vn 0.7897 -0.2414 0.5640
vn 0.7897 -0.2415 0.5640
vn 0.8307 -0.0433 0.5551
vn 0.7897 -0.2414 0.5639
vn 0.8306 -0.0433 0.5552
vn 0.3711 0.1116 0.9219
vn 0.8306 -0.0433 0.5551
vn 0.9871 -0.1306 0.0931
vn 0.8533 0.0445 0.5195
vn 0.8533 0.0445 0.5196
vn 0.3986 0.2073 0.8934
vn 0.3711 0.1117 0.9219
vn 0.3985 0.2073 0.8934
vn -0.0861 0.2076 0.9744
vn -0.0966 0.1454 0.9846
vn 0.3710 0.1116 0.9219
vn -0.6551 0.1282 0.7446
vn -0.0967 0.1454 0.9846
vn 0.2994 -0.3265 0.8965
vn 0.1974 -0.7198 0.6655
vn 0.2993 -0.3265 0.8966
vn -0.3151 -0.2922 0.9029
vn 0.1974 -0.7197 0.6656
vn 0.3168 -0.0923 0.9440
vn -0.2115 -0.0433 0.9764
vn 0.3168 -0.0924 0.9440
vn -0.0966 0.1453 0.9847
vn -0.8480 -0.0984 0.5207
vn -0.9191 -0.3009 0.2546
vn -0.3152 -0.2922 0.9029
vn -0.2115 -0.0432 0.9764
vn -0.9075 -0.3790 0.1814
vn -0.3152 -0.2923 0.9029
vn -0.6824 0.0398 0.7299
vn -0.8480 -0.0985 0.5207
vn -0.0967 0.1453 0.9846
vn -0.8261 -0.1000 -0.5546
vn -0.9191 -0.3009 0.2545
vn -0.8481 -0.0984 0.5207
vn -0.6824 0.0399 0.7298
vn -0.9074 -0.3790 0.1815
vn -0.9191 -0.3008 0.2546
vn -0.2444 -0.9192 -0.3089
vn -0.9074 -0.3790 0.1814
vn -0.8260 -0.1000 -0.5547
vn -0.3998 -0.1612 -0.9023
vn -0.8261 -0.1000 -0.5547
vn -0.8529 -0.0863 -0.5149
vn -0.8261 -0.1001 -0.5546
vn -0.8529 -0.0862 -0.5149
vn -0.4239 -0.1592 -0.8916
vn -0.6824 0.0399 0.7299
vn -0.9075 -0.3789 0.1814
vn -0.2445 -0.9192 -0.3087
vn -0.2444 -0.9192 -0.3087
vn 0.1973 -0.7198 0.6656
vn 0.6524 -0.5594 -0.5113
vn 0.7564 -0.4704 0.4545
vn 0.4545 -0.1578 -0.8767
vn -0.1881 -0.2986 -0.9357
vn -0.9901 -0.1397 -0.0121
vn 0.4307 -0.1637 -0.8875
vn 0.4307 -0.1638 -0.8875
vn 0.3759 -0.3034 -0.8756
vn -0.6525 -0.5593 -0.5112
vn -0.6525 -0.5594 -0.5113
vn 0.3759 -0.3035 -0.8755
vn 0.2445 -0.9192 -0.3088
vn -0.8847 -0.4292 -0.1817
vn -0.8848 -0.4292 -0.1817
vn -0.6990 -0.5372 -0.4720
vn -0.9681 -0.2506 0.0095
vn -0.9681 -0.2505 0.0095
vn -0.9901 -0.1398 -0.0121
vn -0.7563 -0.4704 0.4546
vn -0.6525 -0.5594 -0.5112
vn -0.7564 -0.4704 0.4546
vn -0.9680 -0.2506 0.0095
vn -0.7897 -0.2414 0.5640
vn -0.7897 -0.2414 0.5639
vn -0.7564 -0.4704 0.4545
vn -0.8311 -0.0433 0.5545
vn -0.8311 -0.0432 0.5545
vn -0.3725 0.1108 0.9214
vn -0.8532 0.0441 0.5197
vn -0.8532 0.0441 0.5198
vn -0.4106 0.2054 0.8884
vn -0.8531 0.0441 0.5198
vn 0.0942 0.2067 0.9739
vn -0.3724 0.1108 0.9214
vn 0.0996 0.1443 0.9845
vn 0.6821 0.1233 0.7208
vn 0.0943 0.2067 0.9739
vn -0.2994 -0.3265 0.8965
vn -0.1974 -0.7197 0.6656
vn 0.3152 -0.2923 0.9029
vn -0.2993 -0.3265 0.8965
vn -0.1974 -0.7198 0.6656
vn -0.3168 -0.0923 0.9440
vn -0.3725 0.1107 0.9214
vn 0.2115 -0.0433 0.9764
vn -0.3168 -0.0924 0.9440
vn -0.2993 -0.3265 0.8966
vn 0.3151 -0.2922 0.9029
vn 0.2115 -0.0432 0.9764
vn 0.8480 -0.0984 0.5207
vn 0.3152 -0.2922 0.9029
vn 0.9191 -0.3008 0.2546
vn 0.9075 -0.3790 0.1814
vn 0.8481 -0.0984 0.5207
vn 0.6873 0.0381 0.7253
vn 0.6873 0.0382 0.7253
vn 0.9191 -0.3008 0.2545
vn 0.8265 -0.1003 -0.5540
vn 0.8480 -0.0985 0.5207
vn 0.6874 0.0382 0.7253
vn 0.3758 -0.3035 -0.8756
vn 0.9191 -0.3009 0.2546
vn 0.9074 -0.3790 0.1815
vn 0.3759 -0.3035 -0.8756
vn 0.2445 -0.9192 -0.3087
vn 0.8264 -0.1003 -0.5540
vn 0.4308 -0.1638 -0.8875
vn 0.8264 -0.1003 -0.5541
vn 0.4545 -0.1577 -0.8767
vn 0.8532 -0.0865 -0.5144
vn 0.6821 0.1232 0.7208
vn 0.9074 -0.3790 0.1813
vn -0.1974 -0.7198 0.6655
vn 0.2444 -0.9192 -0.3087
vn -0.8077 0.1679 0.5652
vn -0.6750 0.4401 0.5922
vn -0.7531 0.3825 0.5353
vn -0.7532 0.3825 0.5352
vn -0.8944 0.1666 0.4151
vn -0.7562 -0.3278 0.5664
vn -0.8077 0.1678 0.5652
vn -0.8944 0.1665 0.4151
vn -0.7532 0.3824 0.5352
vn -0.8452 0.3652 0.3901
vn -0.7562 -0.3278 0.5663
vn -0.8944 0.1665 0.4150
vn -0.9156 0.2272 0.3317
vn -0.8944 0.1666 0.4150
vn -0.8453 0.3652 0.3901
vn -0.9156 0.2273 0.3317
vn -0.7916 0.4575 0.4050
vn -0.8987 0.3631 0.2458
vn -0.8453 0.3653 0.3900
vn -0.7917 0.4575 0.4050
vn -0.6769 0.4741 0.5631
vn -0.7531 0.3825 0.5352
vn -0.9121 0.4100 -0.0037
vn -0.8641 0.4548 0.2154
vn -0.8641 0.4549 0.2154
vn -0.9156 0.2272 0.3318
vn -0.8523 -0.2942 0.4325
vn -0.8895 0.4531 -0.0585
vn -0.6335 0.5537 0.5405
vn -0.6973 0.5953 0.3993
vn -0.6974 0.5952 0.3992
vn -0.4572 0.6559 0.6006
vn -0.6973 0.5953 0.3992
vn -0.7616 0.6186 0.1933
vn -0.8641 0.4549 0.2153
vn -0.8868 0.4619 -0.0171
vn -0.9121 0.4101 -0.0037
vn -0.5157 0.7397 0.4322
vn -0.5158 0.7398 0.4321
vn -0.8895 0.4532 -0.0585
vn -0.8512 0.1999 -0.4853
vn -0.7203 -0.3117 -0.6197
vn -0.8523 -0.2942 0.4324
vn -0.8347 0.5473 -0.0608
vn -0.8347 0.5473 -0.0607
vn -0.8896 0.4531 -0.0584
vn -0.7203 -0.3118 -0.6196
vn -0.9121 0.4101 -0.0038
vn -0.8868 0.4618 -0.0172
vn -0.8867 0.3201 -0.3337
vn -0.8867 0.3201 -0.3336
vn -0.8512 0.1999 -0.4852
vn -0.7900 0.6110 -0.0508
vn -0.5157 0.7398 0.4322
vn -0.5981 0.7783 0.1913
vn -0.7615 0.6186 0.1934
vn -0.7615 0.6186 0.1933
vn -0.5981 0.7783 0.1912
vn -0.8522 0.4357 -0.2898
vn -0.8868 0.4619 -0.0172
vn -0.8521 0.4357 -0.2898
vn -0.7820 0.0835 -0.6177
vn -0.7161 -0.2633 -0.6464
vn -0.8512 0.1998 -0.4853
vn -0.7162 -0.2633 -0.6463
vn -0.8521 0.4357 -0.2899
vn -0.7828 0.2603 -0.5652
vn -0.7828 0.2603 -0.5653
vn -0.7581 0.5717 -0.3140
vn -0.6395 0.7613 -0.1069
vn -0.6395 0.7613 -0.1070
vn -0.7580 0.5717 -0.3140
vn -0.7635 0.3722 -0.5278
vn -0.7635 0.3723 -0.5278
vn -0.5157 0.7398 0.4321
vn -0.2759 0.8327 0.4800
vn -0.3426 0.9198 0.1914
vn -0.3426 0.9198 0.1915
vn -0.2392 0.7249 0.6459
vn -0.2759 0.8327 0.4801
vn -0.2392 0.7250 0.6459
vn -0.2392 0.7249 0.6460
vn -0.4572 0.6559 0.6007
vn -0.2685 0.6484 0.7124
vn -0.2684 0.6484 0.7124
vn -0.0000 0.6834 0.7301
vn -0.2391 0.7249 0.6460
vn -0.0000 0.7492 0.6623
vn -0.0000 0.8666 0.4990
vn -0.2758 0.8327 0.4801
vn -0.2758 0.8328 0.4800
vn -0.3425 0.9198 0.1915
vn -0.5327 0.5524 0.6411
vn -0.5328 0.5524 0.6411
vn -0.4573 0.6559 0.6006
vn -0.5863 0.4911 0.6442
vn -0.5327 0.5524 0.6412
vn -0.5499 0.3793 0.7441
vn 0.2392 0.7249 0.6460
vn 0.0001 0.6834 0.7301
vn 0.2683 0.6485 0.7124
vn 0.2391 0.7249 0.6460
vn -0.5863 0.4912 0.6442
vn -0.4132 0.5329 0.7384
vn -0.5499 0.3793 0.7442
vn -0.4131 0.5329 0.7385
vn -0.6972 0.3515 0.6248
vn -0.6972 0.3514 0.6248
vn 0.2392 0.7250 0.6459
vn 0.2758 0.8327 0.4801
vn 0.4475 0.6595 0.6040
vn 0.2392 0.7249 0.6459
vn 0.2759 0.8327 0.4801
vn 0.0001 0.8666 0.4989
vn 0.2759 0.8327 0.4800
vn -0.0000 0.9820 0.1890
vn -0.0000 0.8666 0.4989
vn -0.3425 0.9198 0.1914
vn -0.0000 0.9820 0.1889
vn -0.3819 0.9068 -0.1783
vn -0.0000 0.9764 -0.2162
vn 0.3425 0.9198 0.1915
vn 0.0001 0.9820 0.1889
vn 0.3425 0.9198 0.1914
vn -0.0000 0.9764 -0.2161
vn -0.3819 0.9068 -0.1784
vn -0.6063 0.6793 -0.4135
vn -0.6063 0.6792 -0.4135
vn 0.5112 0.7462 0.4264
vn 0.5113 0.7462 0.4264
vn -0.3621 0.7661 -0.5310
vn -0.0000 0.9763 -0.2162
vn -0.3620 0.7661 -0.5310
vn -0.6782 0.5112 -0.5279
vn -0.7580 0.5716 -0.3140
vn -0.6783 0.5112 -0.5279
vn -0.7634 0.3723 -0.5278
vn -0.6063 0.6792 -0.4136
vn -0.5103 0.5839 -0.6314
vn -0.7634 0.3722 -0.5278
vn -0.6320 0.3174 -0.7070
vn -0.5103 0.5838 -0.6314
vn -0.5910 0.4233 -0.6867
vn -0.6522 0.2217 -0.7249
vn -0.7827 0.2603 -0.5653
vn -0.6522 0.2216 -0.7250
vn -0.6644 0.0313 -0.7467
vn -0.7819 0.0835 -0.6177
vn -0.7819 0.0834 -0.6177
vn -0.6644 0.0312 -0.7467
vn -0.6508 -0.2334 -0.7225
vn -0.7162 -0.2632 -0.6464
vn -0.6508 -0.2333 -0.7225
vn -0.3621 0.7661 -0.5311
vn -0.2921 0.6015 -0.7436
vn -0.4216 0.4746 -0.7727
vn -0.2921 0.6014 -0.7436
vn -0.4215 0.4746 -0.7727
vn -0.5909 0.4233 -0.6868
vn -0.4289 0.3468 -0.8341
vn -0.4288 0.3468 -0.8342
vn -0.6521 0.2216 -0.7250
vn -0.4625 0.2302 -0.8562
vn -0.4289 0.3468 -0.8342
vn -0.5015 0.0343 -0.8645
vn -0.3620 0.7661 -0.5311
vn -0.0000 0.8092 -0.5876
vn -0.0000 0.8091 -0.5876
vn -0.0000 0.6089 -0.7933
vn -0.2920 0.6015 -0.7436
vn -0.0000 0.6088 -0.7933
vn -0.2261 0.4856 -0.8444
vn -0.0000 0.4849 -0.8746
vn -0.2261 0.4856 -0.8445
vn -0.0000 0.3804 -0.9248
vn -0.2152 0.3704 -0.9036
vn -0.2151 0.3704 -0.9036
vn -0.2151 0.3703 -0.9037
vn -0.0000 0.2651 -0.9642
vn -0.2152 0.3703 -0.9036
vn -0.2312 0.2538 -0.9392
vn -0.2311 0.2538 -0.9392
vn -0.4624 0.2302 -0.8562
vn -0.0000 0.0762 -0.9971
vn -0.4624 0.2302 -0.8563
vn -0.2568 0.0627 -0.9644
vn -0.0000 0.0763 -0.9971
vn -0.0000 -0.2308 -0.9730
vn -0.2569 0.0627 -0.9644
vn -0.2811 -0.2266 -0.9326
vn -0.0001 -0.2308 -0.9730
vn -0.5014 0.0343 -0.8645
vn -0.2811 -0.2266 -0.9325
vn -0.2811 -0.2267 -0.9325
vn -0.0000 -0.2309 -0.9730
vn -0.0000 -0.5995 -0.8004
vn -0.5193 -0.2296 -0.8232
vn -0.5015 0.0342 -0.8645
vn -0.6644 0.0312 -0.7468
vn -0.6507 -0.2334 -0.7225
vn -0.2618 -0.5680 -0.7803
vn -0.5192 -0.2297 -0.8232
vn -0.2618 -0.5681 -0.7802
vn -0.0000 -0.5995 -0.8003
vn -0.0000 -0.8967 -0.4427
vn -0.5193 -0.2297 -0.8232
vn -0.4829 -0.5015 -0.7178
vn -0.4829 -0.5015 -0.7179
vn -0.1799 -0.8753 -0.4488
vn -0.2618 -0.5681 -0.7803
vn -0.4829 -0.5016 -0.7178
vn -0.6156 -0.4510 -0.6462
vn -0.0877 -0.9871 -0.1336
vn -0.1799 -0.8754 -0.4488
vn -0.0000 -0.8967 -0.4426
vn -0.0000 -0.9948 -0.1018
vn -0.3635 -0.8025 -0.4731
vn -0.3636 -0.8025 -0.4730
vn -0.0060 -1.0000 0.0040
vn -0.0877 -0.9872 -0.1335
vn -0.0000 -0.9948 -0.1017
vn -0.0000 -0.9993 0.0381
vn -0.2389 -0.9483 -0.2091
vn -0.3635 -0.8026 -0.4730
vn 0.0301 -0.9994 0.0151
vn -0.0043 -0.9999 0.0116
vn -0.1681 -0.9827 -0.0771
vn -0.0877 -0.9872 -0.1336
vn -0.1682 -0.9827 -0.0772
vn -0.1344 -0.9909 0.0101
vn -0.6644 -0.5662 -0.4879
vn -0.5296 -0.6791 -0.5082
vn -0.4959 -0.8030 -0.3306
vn -0.5296 -0.6792 -0.5081
vn -0.5296 -0.6792 -0.5082
vn -0.6400 -0.6857 -0.3468
vn -0.6399 -0.6858 -0.3467
vn -0.4959 -0.8030 -0.3305
vn -0.7162 -0.2633 -0.6464
vn -0.4541 -0.8745 -0.1704
vn -0.4540 -0.8745 -0.1704
vn -0.4541 -0.8745 -0.1705
vn -0.4037 -0.9148 0.0063
vn -0.1682 -0.9827 -0.0771
vn -0.4038 -0.9148 0.0063
vn -0.6400 -0.6858 -0.3467
vn -0.4038 -0.9148 0.0064
vn -0.6542 -0.7553 -0.0387
vn -0.6400 -0.6857 -0.3467
vn -0.6542 -0.7553 -0.0388
vn -0.1531 -0.9813 0.1165
vn 0.0301 -0.9994 0.0152
vn -0.4648 -0.8540 0.2339
vn -0.4037 -0.9148 0.0064
vn -0.1532 -0.9813 0.1165
vn -0.1345 -0.9909 0.0101
vn -0.6698 -0.6685 0.3231
vn -0.4648 -0.8539 0.2339
vn -0.6699 -0.6685 0.3231
vn -0.0090 -0.9991 0.0424
vn -0.0090 -0.9991 0.0425
vn -0.0043 -0.9999 0.0115
vn -0.4934 -0.7630 0.4176
vn -0.6061 -0.5619 0.5629
vn -0.4935 -0.7629 0.4176
vn -0.2555 -0.9176 0.3046
vn -0.1532 -0.9813 0.1166
vn -0.6856 -0.7249 -0.0663
vn -0.6856 -0.7249 -0.0662
vn -0.6356 -0.1759 -0.7517
vn -0.7203 -0.3118 -0.6197
vn -0.8347 0.5474 -0.0607
vn -0.8452 -0.2304 0.4822
vn -0.6856 -0.7250 -0.0663
vn -0.8452 -0.2305 0.4822
vn -0.9287 -0.0146 -0.3706
vn -0.6356 -0.1760 -0.7517
vn -0.8452 -0.2304 0.4823
vn -0.9287 -0.0145 -0.3706
vn -0.7561 -0.3279 0.5663
vn -0.5708 -0.4383 0.6943
vn -0.6060 -0.5619 0.5630
vn -0.4934 -0.7630 0.4177
vn -0.5527 -0.4237 0.7177
vn -0.7561 -0.3279 0.5664
vn -0.5708 -0.4382 0.6943
vn -0.5528 -0.4235 0.7177
vn -0.6061 -0.5619 0.5630
vn -0.5302 -0.6120 0.5869
vn -0.5527 -0.4235 0.7177
vn -0.6385 -0.3630 0.6787
vn -0.6385 -0.3629 0.6787
vn -0.6930 -0.1248 0.7101
vn -0.6930 -0.1247 0.7101
vn -0.3796 -0.7669 0.5175
vn -0.5302 -0.6120 0.5868
vn -0.4962 -0.5085 0.7038
vn -0.3797 -0.7668 0.5175
vn -0.4961 -0.5085 0.7038
vn -0.5384 -0.3585 0.7626
vn -0.5709 -0.4382 0.6943
vn -0.4961 -0.5084 0.7038
vn -0.4856 -0.4776 0.7322
vn -0.6384 -0.3630 0.6787
vn -0.5384 -0.3586 0.7626
vn -0.4857 -0.4776 0.7321
vn -0.4856 -0.4775 0.7322
vn -0.4529 -0.4415 0.7746
vn -0.4147 -0.2832 0.8648
vn -0.4147 -0.2833 0.8648
vn -0.7104 -0.0413 0.7025
vn -0.6929 -0.1248 0.7101
vn -0.7104 -0.0412 0.7025
vn -0.7104 -0.0412 0.7026
vn -0.6436 -0.0346 0.7646
vn -0.6972 0.3514 0.6249
vn -0.6436 -0.0346 0.7645
vn -0.6150 -0.3889 0.6859
vn -0.6436 -0.0347 0.7646
vn -0.5499 0.3792 0.7442
vn -0.4442 -0.0272 0.8955
vn -0.6150 -0.3889 0.6860
vn -0.3420 -0.3247 0.8818
vn 0.1122 -0.5715 0.8129
vn -0.2223 -0.5656 0.7942
vn -0.4146 -0.2833 0.8648
vn -0.2223 -0.5657 0.7941
vn -0.3796 -0.7668 0.5175
vn -0.4442 -0.0271 0.8955
vn -0.2252 -0.0168 0.9742
vn 0.1121 -0.5715 0.8129
vn -0.2251 -0.0168 0.9742
vn -0.2178 0.3403 0.9147
vn -0.5498 0.3792 0.7442
vn -0.2179 0.3404 0.9147
vn 0.1392 -0.2872 0.9477
vn -0.2252 -0.0169 0.9742
vn 0.3941 -0.7047 0.5900
vn 0.1392 -0.2871 0.9477
vn 0.1121 -0.5714 0.8129
vn 0.4185 -0.6739 0.6089
vn 0.4185 -0.6738 0.6089
vn 0.1864 -0.2643 0.9463
vn 0.1863 -0.2643 0.9463
vn -0.2086 0.5236 0.8260
vn -0.2178 0.3404 0.9147
vn -0.1015 0.3266 0.9397
vn -0.1679 0.5407 0.8243
vn -0.2086 0.5236 0.8261
vn -0.0000 0.6833 0.7301
vn -0.0001 -0.2660 0.9640
vn -0.0000 -0.6672 0.7448
vn -0.0000 -0.2660 0.9640
vn -0.0000 -0.2661 0.9640
vn -0.3989 -0.6573 0.6393
vn -0.0000 0.3786 0.9255
vn 0.0001 -0.2660 0.9640
vn -0.0000 0.3787 0.9255
vn -0.0000 0.5523 0.8336
vn -0.0001 0.6834 0.7301
vn -0.1679 0.5408 0.8243
vn -0.1835 -0.2700 0.9452
vn -0.3990 -0.6574 0.6393
vn 0.1677 0.5410 0.8242
vn 0.1017 0.3266 0.9397
vn 0.1018 0.3266 0.9397
vn -0.1835 -0.2699 0.9452
vn -0.1270 -0.2810 0.9513
vn -0.3602 -0.6777 0.6410
vn -0.1269 -0.2810 0.9513
vn -0.1105 -0.5592 0.8216
vn 0.2082 0.5242 0.8258
vn 0.2188 0.3431 0.9135
vn 0.2187 0.3431 0.9135
vn 0.2188 0.3432 0.9134
vn 0.2216 -0.0149 0.9750
vn -0.1269 -0.2811 0.9513
vn -0.1105 -0.5592 0.8217
vn 0.2217 -0.0148 0.9750
vn 0.5511 0.3799 0.7429
vn 0.4127 0.5336 0.7382
vn 0.4127 0.5335 0.7382
vn 0.2188 0.3431 0.9134
vn 0.5511 0.3800 0.7429
vn 0.4402 -0.0332 0.8973
vn 0.2217 -0.0149 0.9750
vn 0.4401 -0.0332 0.8973
vn -0.1106 -0.5592 0.8216
vn 0.3353 -0.3324 0.8815
vn 0.4401 -0.0333 0.8973
vn 0.4402 -0.0333 0.8973
vn 0.3354 -0.3325 0.8815
vn 0.6320 -0.3820 0.6742
vn 0.6435 -0.0285 0.7649
vn 0.6320 -0.3820 0.6743
vn 0.6435 -0.0284 0.7649
vn 0.6321 -0.3820 0.6742
vn 0.4566 -0.4437 0.7711
vn 0.4128 0.5336 0.7382
vn 0.5863 0.4917 0.6438
vn 0.2684 0.6485 0.7124
vn 0.7094 -0.0450 0.7033
vn 0.6948 -0.1231 0.7086
vn 0.7094 -0.0450 0.7034
vn 0.6980 0.3511 0.6241
vn 0.6436 -0.0284 0.7649
vn 0.5512 0.3799 0.7429
vn 0.6948 -0.1230 0.7086
vn 0.8076 0.1677 0.5653
vn 0.6754 0.4404 0.5915
vn 0.6754 0.4405 0.5915
vn 0.6803 0.4656 0.5660
vn 0.5282 0.5478 0.6488
vn 0.5862 0.4917 0.6438
vn 0.5281 0.5478 0.6489
vn 0.4476 0.6595 0.6040
vn 0.6803 0.4657 0.5659
vn 0.6380 -0.3635 0.6788
vn 0.8077 0.1676 0.5653
vn 0.6380 -0.3634 0.6788
vn 0.7562 -0.3278 0.5664
vn 0.6380 -0.3635 0.6789
vn 0.5374 -0.4388 0.7202
vn 0.7561 -0.3278 0.5664
vn 0.4566 -0.4436 0.7711
vn 0.4849 -0.4781 0.7323
vn 0.6380 -0.3634 0.6789
vn 0.4849 -0.4782 0.7323
vn 0.5146 -0.3919 0.7626
vn 0.5146 -0.3920 0.7626
vn 0.4339 -0.3000 0.8495
vn 0.5147 -0.3919 0.7626
vn 0.5036 -0.4807 0.7179
vn 0.5035 -0.4807 0.7179
vn 0.7531 0.3825 0.5352
vn 0.6804 0.4656 0.5659
vn 0.7531 0.3825 0.5353
vn 0.7532 0.3825 0.5352
vn 0.8452 0.3652 0.3901
vn 0.8452 0.3653 0.3901
vn 0.6283 0.5562 0.5440
vn 0.6283 0.5562 0.5439
vn 0.5113 0.7461 0.4264
vn 0.7023 0.5991 0.3845
vn 0.7022 0.5992 0.3845
vn 0.5465 -0.4538 0.7039
vn 0.5464 -0.4538 0.7039
vn 0.7561 -0.3279 0.5664
vn 0.8944 0.1666 0.4150
vn 0.7562 -0.3278 0.5663
vn 0.8944 0.1665 0.4150
vn 0.7973 0.4527 0.3993
vn 0.7023 0.5991 0.3846
vn 0.7973 0.4526 0.3993
vn 0.7023 0.5992 0.3845
vn 0.5981 0.7783 0.1913
vn 0.3426 0.9198 0.1915
vn 0.7616 0.6186 0.1934
vn 0.7615 0.6186 0.1934
vn 0.8453 0.3653 0.3900
vn 0.8641 0.4549 0.2154
vn 0.8453 0.3652 0.3900
vn 0.8987 0.3631 0.2458
vn 0.8641 0.4548 0.2154
vn 0.3426 0.9198 0.1914
vn 0.5981 0.7783 0.1912
vn 0.3819 0.9068 -0.1783
vn 0.3819 0.9068 -0.1784
vn 0.7616 0.6186 0.1933
vn 0.6395 0.7613 -0.1069
vn 0.8641 0.4549 0.2153
vn 0.7900 0.6110 -0.0507
vn 0.7615 0.6186 0.1933
vn 0.7900 0.6111 -0.0508
vn 0.9156 0.2273 0.3317
vn 0.8945 0.1665 0.4150
vn 0.9156 0.2272 0.3317
vn 0.8868 0.4618 -0.0171
vn 0.8868 0.4619 -0.0171
vn 0.9121 0.4100 -0.0037
vn 0.9121 0.4101 -0.0037
vn 0.3820 0.9068 -0.1784
vn 0.6395 0.7613 -0.1070
vn 0.3621 0.7661 -0.5310
vn 0.7900 0.6110 -0.0509
vn 0.6063 0.6792 -0.4135
vn 0.6063 0.6793 -0.4135
vn 0.7900 0.6110 -0.0508
vn 0.8868 0.4619 -0.0172
vn 0.7580 0.5717 -0.3140
vn 0.3620 0.7661 -0.5310
vn 0.3620 0.7661 -0.5311
vn 0.2921 0.6015 -0.7436
vn 0.6063 0.6792 -0.4136
vn 0.2921 0.6014 -0.7436
vn 0.0001 0.4849 -0.8746
vn 0.5103 0.5839 -0.6314
vn 0.7580 0.5716 -0.3140
vn 0.8521 0.4357 -0.2898
vn 0.7581 0.5717 -0.3139
vn 0.8868 0.4618 -0.0172
vn 0.9121 0.4101 -0.0038
vn 0.8522 0.4357 -0.2898
vn 0.2261 0.4856 -0.8444
vn 0.5103 0.5838 -0.6315
vn 0.6782 0.5112 -0.5279
vn 0.8521 0.4357 -0.2899
vn 0.6783 0.5112 -0.5279
vn 0.2261 0.4856 -0.8445
vn 0.2151 0.3704 -0.9036
vn 0.4215 0.4747 -0.7727
vn 0.5103 0.5838 -0.6314
vn 0.4216 0.4746 -0.7727
vn 0.2151 0.3703 -0.9036
vn 0.2311 0.2538 -0.9392
vn 0.4288 0.3468 -0.8342
vn 0.4215 0.4746 -0.7727
vn 0.2568 0.0627 -0.9644
vn 0.2312 0.2538 -0.9392
vn 0.2152 0.3703 -0.9036
vn 0.4625 0.2302 -0.8562
vn 0.4624 0.2302 -0.8562
vn 0.2568 0.0626 -0.9644
vn 0.2843 -0.2303 -0.9307
vn 0.0001 0.0762 -0.9971
vn 0.2843 -0.2303 -0.9306
vn 0.5014 0.0343 -0.8645
vn 0.5015 0.0343 -0.8645
vn 0.2843 -0.2304 -0.9306
vn 0.2718 -0.5715 -0.7742
vn 0.2844 -0.2303 -0.9306
vn 0.2569 0.0627 -0.9644
vn 0.5184 -0.2361 -0.8219
vn 0.5014 0.0342 -0.8645
vn -0.0000 -0.5996 -0.8003
vn 0.2718 -0.5716 -0.7742
vn 0.1938 -0.8667 -0.4596
vn 0.1938 -0.8668 -0.4595
vn 0.2719 -0.5715 -0.7742
vn 0.2844 -0.2304 -0.9306
vn 0.4891 -0.4938 -0.7189
vn 0.4891 -0.4938 -0.7190
vn 0.0877 -0.9871 -0.1336
vn 0.0877 -0.9872 -0.1335
vn 0.2719 -0.5716 -0.7742
vn 0.3740 -0.7825 -0.4979
vn 0.4891 -0.4939 -0.7189
vn 0.3741 -0.7824 -0.4979
vn 0.3740 -0.7825 -0.4978
vn 0.0060 -1.0000 0.0040
vn 0.2389 -0.9483 -0.2091
vn 0.0877 -0.9872 -0.1336
vn 0.5225 -0.6683 -0.5295
vn 0.3741 -0.7825 -0.4978
vn 0.5185 -0.2361 -0.8218
vn 0.6025 -0.4594 -0.6526
vn 0.6026 -0.4595 -0.6525
vn 0.4959 -0.8030 -0.3306
vn 0.2389 -0.9483 -0.2092
vn 0.1681 -0.9827 -0.0772
vn 0.0060 -1.0000 0.0039
vn 0.2388 -0.9483 -0.2091
vn 0.1682 -0.9827 -0.0772
vn 0.4959 -0.8030 -0.3305
vn 0.5185 -0.2362 -0.8218
vn 0.6475 -0.2364 -0.7245
vn 0.6025 -0.4595 -0.6526
vn 0.5185 -0.2361 -0.8219
vn 0.5015 0.0342 -0.8645
vn 0.6644 -0.5662 -0.4879
vn 0.6025 -0.4595 -0.6525
vn 0.6644 0.0312 -0.7468
vn 0.6644 0.0313 -0.7468
vn -0.0304 -0.9995 0.0068
vn 0.1681 -0.9827 -0.0771
vn 0.4540 -0.8745 -0.1704
vn 0.4541 -0.8745 -0.1704
vn 0.7161 -0.2633 -0.6464
vn 0.6643 -0.5662 -0.4879
vn 0.7161 -0.2632 -0.6464
vn 0.6644 0.0312 -0.7467
vn 0.6521 0.2216 -0.7250
vn 0.1396 -0.9902 0.0056
vn 0.1397 -0.9902 0.0056
vn 0.1682 -0.9827 -0.0771
vn 0.6399 -0.6858 -0.3467
vn 0.4541 -0.8745 -0.1705
vn 0.6400 -0.6857 -0.3467
vn 0.6644 -0.5661 -0.4879
vn 0.7162 -0.2633 -0.6463
vn 0.7203 -0.3118 -0.6196
vn 0.6399 -0.6857 -0.3468
vn 0.7162 -0.2633 -0.6464
vn 0.7819 0.0835 -0.6178
vn 0.6644 0.0313 -0.7467
vn 0.6522 0.2216 -0.7250
vn 0.4289 0.3468 -0.8342
vn 0.6320 0.3174 -0.7070
vn 0.4038 -0.9148 0.0063
vn 0.6400 -0.6858 -0.3466
vn 0.4037 -0.9149 0.0063
vn 0.8512 0.1998 -0.4853
vn 0.7819 0.0835 -0.6177
vn 0.8512 0.1999 -0.4853
vn 0.7203 -0.3117 -0.6197
vn 0.7162 -0.2632 -0.6464
vn 0.7827 0.2603 -0.5653
vn 0.7820 0.0835 -0.6177
vn 0.7828 0.2603 -0.5653
vn 0.5909 0.4233 -0.6868
vn 0.5909 0.4233 -0.6867
vn 0.7634 0.3723 -0.5279
vn 0.5910 0.4233 -0.6867
vn 0.7634 0.3722 -0.5278
vn 0.7634 0.3723 -0.5278
vn 0.8866 0.3201 -0.3337
vn 0.7635 0.3722 -0.5278
vn 0.8867 0.3201 -0.3337
vn 0.9121 0.4100 -0.0038
vn 0.8867 0.3201 -0.3336
vn 0.8512 0.1999 -0.4852
vn 0.8895 0.4532 -0.0585
vn 0.8895 0.4531 -0.0584
vn 0.8895 0.4531 -0.0585
vn 0.8523 -0.2942 0.4325
vn 0.8347 0.5474 -0.0607
vn 0.8452 -0.2304 0.4822
vn 0.8896 0.4531 -0.0585
vn 0.9287 -0.0145 -0.3706
vn 0.9287 -0.0146 -0.3706
vn 0.6356 -0.1759 -0.7517
vn 0.6856 -0.7250 -0.0663
vn 0.6856 -0.7249 -0.0663
vn 0.6856 -0.7249 -0.0662
vn 0.6857 -0.7249 -0.0663
vn 0.6543 -0.7553 -0.0387
vn 0.6542 -0.7553 -0.0387
vn 0.6542 -0.7553 -0.0388
vn 0.6699 -0.6685 0.3231
vn 0.7562 -0.3279 0.5663
vn 0.6698 -0.6685 0.3231
vn 0.4038 -0.9148 0.0064
vn 0.7561 -0.3279 0.5663
vn 0.6061 -0.5619 0.5629
vn 0.6061 -0.5619 0.5630
vn 0.4648 -0.8540 0.2339
vn 0.4934 -0.7630 0.4176
vn 0.4648 -0.8539 0.2339
vn 0.5139 -0.5916 0.6212
vn 0.5140 -0.5916 0.6212
vn 0.4934 -0.7630 0.4177
vn 0.3966 -0.7297 0.5570
vn 0.5140 -0.5915 0.6212
vn 0.1649 -0.9794 0.1163
vn 0.4037 -0.9148 0.0064
vn 0.1397 -0.9902 0.0057
vn 0.4037 -0.9149 0.0064
vn 0.2617 -0.9139 0.3104
vn 0.3965 -0.7298 0.5570
vn 0.1649 -0.9794 0.1164
vn 0.3965 -0.7297 0.5571
vn 0.5035 -0.4808 0.7179
vn 0.2040 -0.8254 0.5264
vn 0.2040 -0.8255 0.5263
vn 0.1648 -0.9794 0.1163
vn 0.0085 -0.9991 0.0418
vn 0.0963 -0.9730 0.2096
vn 0.2039 -0.8255 0.5263
vn 0.0963 -0.9731 0.2095
vn 0.5035 -0.4808 0.7178
vn 0.2474 -0.5608 0.7902
vn 0.4340 -0.3000 0.8495
vn 0.2474 -0.5607 0.7902
vn -0.0082 -1.0000 0.0040
vn -0.0044 -0.9852 0.1716
vn 0.2039 -0.8255 0.5264
vn -0.0000 -0.8620 0.5068
vn 0.2039 -0.8254 0.5264
vn 0.2473 -0.5608 0.7902
vn -0.0000 -0.8620 0.5069
vn -0.0044 -0.9851 0.1717
vn 0.4339 -0.3001 0.8495
vn 0.2346 -0.2838 0.9297
vn 0.1532 -0.1064 0.9825
vn 0.2345 -0.2838 0.9298
vn 0.1531 -0.1064 0.9825
vn -0.0010 -0.0950 0.9955
vn 0.0663 0.0467 0.9967
vn -0.0000 0.0430 0.9991
vn -0.0011 -0.0950 0.9955
vn -0.0675 0.0458 0.9967
vn -0.1551 -0.1052 0.9823
vn 0.2473 -0.5608 0.7901
vn -0.0000 -0.5684 0.8227
vn 0.2473 -0.5607 0.7902
vn -0.0000 -0.5684 0.8228
vn -0.0000 -0.8621 0.5068
vn -0.1791 -0.8426 0.5078
vn -0.1791 -0.8426 0.5079
vn -0.0974 -0.9750 0.1996
vn -0.1790 -0.8427 0.5078
vn -0.0974 -0.9750 0.1997
vn -0.1551 -0.1053 0.9823
vn -0.2342 -0.2825 0.9302
vn -0.2343 -0.2825 0.9302
vn -0.1552 -0.1052 0.9823
vn -0.2222 -0.5656 0.7942
vn -0.2222 -0.5657 0.7941
vn -0.1790 -0.8426 0.5079
vn -0.0000 -0.3201 0.9474
vn 0.0001 -0.5684 0.8228
vn -0.0000 -0.3200 0.9474
vn -0.2342 -0.2826 0.9302
vn -0.3796 -0.7668 0.5176
vn -0.1791 -0.8427 0.5078
vn -0.0973 -0.9750 0.1996
vn -0.0082 -1.0000 0.0041
vn -0.0081 -1.0000 0.0040
vn 0.2444 -0.9192 -0.3089
vn -0.1973 -0.7198 0.6656
vt 1.507801 0.507678
vt 1.503403 0.564379
vt 1.510915 0.447496
vt -0.503403 0.564379
vt -0.507801 0.507678
vt -0.510915 0.447496
vt 1.510828 0.395768
vt 1.514500 0.359665
vt 1.508667 0.252458
vt 1.514500 0.420430
vt 1.507405 0.536315
vt 1.500115 0.599281
vt 1.507801 0.462705
vt 1.507751 0.408920
vt 1.503798 0.519794
vt 1.503798 0.471919
vt 1.503798 0.415341
vt 1.500115 0.415341
vt 1.504969 0.252458
vt 1.500236 0.252458
vt 1.495448 0.252458
vt 1.496258 0.415341
vt 1.491558 0.252458
vt 1.500115 0.521407
vt 1.500115 0.564655
vt 1.496258 0.519794
vt 1.500115 0.476210
vt 1.496258 0.471919
vt 1.492642 0.463691
vt 1.492642 0.508437
vt 1.497081 0.564366
vt 1.492642 0.410324
vt 1.489320 0.448366
vt 1.492895 0.536315
vt 1.485520 0.420430
vt 1.485500 0.359665
vt 1.489371 0.396672
vt -0.514500 0.359665
vt -0.510828 0.395768
vt -0.508667 0.252458
vt -0.514500 0.420430
vt -0.507405 0.536315
vt -0.500115 0.599281
vt -0.507801 0.462705
vt -0.507751 0.408920
vt -0.503798 0.519794
vt -0.503798 0.471919
vt -0.503798 0.415341
vt -0.500115 0.415341
vt -0.504969 0.252458
vt -0.500236 0.252458
vt -0.495448 0.252458
vt -0.496258 0.415341
vt -0.491558 0.252458
vt -0.500115 0.521407
vt -0.500115 0.564655
vt -0.496258 0.519794
vt -0.500115 0.476210
vt -0.496258 0.471919
vt -0.492642 0.463691
vt -0.492642 0.508437
vt -0.497081 0.564366
vt -0.492642 0.410324
vt -0.489320 0.448366
vt -0.492895 0.536315
vt -0.485520 0.420430
vt -0.485500 0.359665
vt -0.489371 0.396672
vt 0.202544 0.364331
vt 0.238054 0.455655
vt 0.199884 0.462394
vt 0.131277 0.364456
vt 0.133373 0.261649
vt 0.133369 0.481882
vt 0.058770 0.364795
vt 0.141218 0.589298
vt 0.060801 0.488110
vt 0.198679 0.581329
vt 0.010513 0.491367
vt 0.068239 0.605331
vt 0.060802 0.257861
vt 0.010374 0.364280
vt 0.219152 0.642708
vt 0.161879 0.671602
vt 0.276448 0.670996
vt 0.086680 0.702876
vt 0.011093 0.613246
vt 0.219772 0.733108
vt -0.037333 0.364322
vt -0.039191 0.256408
vt 0.010468 0.288475
vt -0.039191 0.488603
vt 0.012185 0.717848
vt 0.132164 0.783849
vt -0.046318 0.606753
vt -0.141766 0.363716
vt -0.143770 0.259703
vt -0.143776 0.482687
vt -0.064738 0.705475
vt 0.014554 0.808062
vt -0.151707 0.591663
vt 0.330312 0.782062
vt 0.223186 0.869820
vt 0.373262 0.701119
vt 0.388930 0.613261
vt 0.500117 0.626406
vt 0.500137 0.714692
vt 0.500000 0.804464
vt 0.292513 0.576431
vt 0.309193 0.496374
vt 0.319030 0.438854
vt 0.625353 0.701101
vt 0.610498 0.613237
vt 0.360985 0.519370
vt 0.261291 0.420587
vt 0.668120 0.782064
vt 0.722173 0.671016
vt 0.500000 0.880493
vt 0.022055 0.881491
vt 0.500000 0.994397
vt 0.775245 0.869825
vt -0.111852 0.788284
vt 0.778651 0.733130
vt -0.232923 0.872502
vt -0.173568 0.675598
vt -0.236950 0.738620
vt -0.238258 0.581393
vt -0.237896 0.646691
vt -0.238559 0.479303
vt -0.238686 0.363347
vt -0.238553 0.261679
vt -0.360710 0.789777
vt -0.301955 0.676308
vt -0.324931 0.592335
vt -0.333562 0.482955
vt -0.335838 0.363475
vt -0.500000 0.882632
vt -0.500004 0.811800
vt -0.410961 0.707338
vt -0.500003 0.721187
vt -0.500001 0.615668
vt -0.430950 0.608269
vt -0.500003 0.492267
vt -0.438878 0.489186
vt -0.500001 0.363628
vt -0.441001 0.363841
vt -0.499999 0.253822
vt -0.438866 0.255248
vt -0.499998 0.196979
vt -0.333556 0.259127
vt -0.430941 0.199446
vt -0.499998 0.149646
vt -0.324920 0.206041
vt -0.410946 0.154680
vt -0.238248 0.210807
vt -0.360692 0.115424
vt -0.499997 0.105813
vt -0.301941 0.168301
vt -0.232915 0.079012
vt -0.499996 0.059020
vt -0.236933 0.139445
vt 0.022053 0.061503
vt 0.500000 0.011010
vt -0.111852 0.116258
vt 0.014544 0.107712
vt -0.151697 0.206511
vt -0.237882 0.181195
vt -0.173555 0.168694
vt -0.046319 0.200490
vt -0.064739 0.155762
vt 0.012176 0.151289
vt 0.011087 0.198369
vt 0.132163 0.118312
vt 0.086682 0.157887
vt 0.068241 0.202302
vt 0.223184 0.081864
vt 0.161887 0.171457
vt 0.141224 0.208480
vt 0.219777 0.141858
vt 0.010670 0.239513
vt -0.002637 0.255650
vt 0.025539 0.256120
vt 0.010509 0.255377
vt 0.218632 0.212779
vt 0.218362 0.263969
vt 0.218952 0.183365
vt 0.218609 0.319206
vt 0.238889 0.344688
vt 0.276257 0.171783
vt 0.295941 0.208931
vt 0.303169 0.262201
vt 0.254687 0.316151
vt 0.281006 0.340991
vt 0.348707 0.260631
vt 0.271864 0.368431
vt 0.295087 0.377049
vt 0.303665 0.350471
vt 0.327658 0.388416
vt 0.331178 0.349392
vt 0.369113 0.326943
vt 0.390138 0.203259
vt 0.364763 0.401591
vt 0.384252 0.458336
vt 0.395806 0.408322
vt 0.399461 0.284357
vt 0.445563 0.243821
vt 0.442899 0.416219
vt 0.392321 0.533158
vt 0.440441 0.481055
vt 0.443000 0.557546
vt 0.500000 0.424951
vt 0.500000 0.226148
vt 0.554436 0.243821
vt 0.500000 0.514603
vt 0.500000 0.568842
vt 0.557100 0.416218
vt 0.557001 0.557546
vt 0.559559 0.481055
vt 0.604194 0.408322
vt 0.600539 0.284357
vt 0.630886 0.326943
vt 0.607680 0.533158
vt 0.615748 0.458336
vt 0.635237 0.401590
vt 0.680453 0.438852
vt 0.638473 0.519355
vt 0.672341 0.388416
vt 0.668822 0.349391
vt 0.696334 0.350471
vt 0.704415 0.377056
vt 0.718144 0.341003
vt 0.689737 0.496378
vt 0.727146 0.368458
vt 0.760136 0.344736
vt 0.737686 0.420621
vt 0.796173 0.364382
vt 0.760901 0.455703
vt 0.799968 0.581382
vt 0.706365 0.576445
vt 0.780122 0.319250
vt 0.865049 0.261688
vt 0.780060 0.263998
vt 0.744046 0.316179
vt 0.695257 0.262208
vt 0.649721 0.260635
vt 0.702488 0.208944
vt 0.798801 0.462446
vt 0.865049 0.481925
vt 0.779475 0.642755
vt 0.836536 0.671642
vt 0.779793 0.212830
vt 0.867143 0.364498
vt 0.857198 0.589340
vt 0.868672 0.783867
vt 0.914151 0.702926
vt 0.932593 0.605383
vt 0.940031 0.488164
vt 0.981210 0.881501
vt 0.988701 0.808090
vt 0.991067 0.717895
vt 0.942063 0.364847
vt 0.992157 0.613295
vt 0.992735 0.491417
vt 1.237630 0.872686
vt 1.117894 0.788197
vt 1.071299 0.705402
vt 1.500002 0.882645
vt 1.500002 0.811859
vt 1.363998 0.790005
vt 1.500002 0.721251
vt 1.241604 0.738859
vt 1.053082 0.606789
vt 1.413698 0.707486
vt 1.178924 0.675726
vt 1.433471 0.608345
vt 1.500002 0.615736
vt 1.305895 0.676441
vt 1.441309 0.489253
vt 1.500002 0.492336
vt 1.328621 0.592429
vt 1.443413 0.363877
vt 1.500002 0.363665
vt 1.337159 0.483021
vt 1.441309 0.255146
vt 1.500002 0.253681
vt 1.339412 0.363514
vt 1.433471 0.199378
vt 1.500002 0.196850
vt 1.337159 0.259150
vt 1.413697 0.154645
vt 1.500002 0.149402
vt 1.500002 0.105563
vt 1.328621 0.206105
vt 1.363998 0.115457
vt 1.499998 0.059057
vt 1.305897 0.168376
vt 1.237630 0.079188
vt 1.241603 0.139534
vt 1.242543 0.181289
vt 1.242903 0.210905
vt 1.178924 0.168766
vt 1.117894 0.116303
vt 1.243203 0.261739
vt 1.157306 0.206572
vt 1.243332 0.363410
vt 0.981210 0.061740
vt 1.071299 0.155704
vt 1.149466 0.259724
vt 1.243203 0.479367
vt 0.988701 0.107912
vt 1.053082 0.200400
vt 1.046034 0.256326
vt 1.147482 0.363754
vt 1.242903 0.581476
vt 0.991067 0.151514
vt 1.044196 0.364343
vt 1.149467 0.482751
vt 1.242543 0.646887
vt 1.157306 0.591754
vt 1.046034 0.488653
vt 0.992873 0.364362
vt 0.940031 0.257910
vt 0.992777 0.288635
vt 0.976984 0.256271
vt 0.992735 0.255572
vt 1.006833 0.255771
vt 0.992574 0.239718
vt 0.992157 0.198604
vt 0.932593 0.202381
vt 0.857198 0.208544
vt 0.914151 0.158054
vt 0.836536 0.171517
vt 0.779475 0.183417
vt 0.722173 0.171803
vt 0.868672 0.118389
vt 0.778651 0.141888
vt 0.625353 0.159394
vt 0.775244 0.081917
vt 0.668120 0.119399
vt 0.608293 0.203260
vt 0.500000 0.064378
vt 0.500000 0.110618
vt 0.500000 0.153969
vt 0.601561 0.258972
vt 0.600539 0.417785
vt 0.500000 0.365006
vt 0.554437 0.450881
vt 0.500000 0.490532
vt 0.443984 0.450881
vt 0.397893 0.417785
vt 0.500000 0.200657
vt 0.373079 0.159394
vt 0.330312 0.119399
vt 0.396870 0.258971
vt 0.500000 0.257489
s 0
usemtl body
f 3/1/1 2/2/2 1/3/3
f 6/4/4 5/5/5 4/6/6
f 9/7/7 8/8/8 7/9/9
f 10/10/10 8/8/8 9/7/11
f 11/3/3 10/10/12 9/7/7
f 12/11/13 10/10/14 11/3/3
f 13/2/15 12/11/13 11/3/3
f 12/11/16 13/2/17 14/12/18
f 11/3/3 9/7/11 15/13/19
f 11/3/20 15/13/19 16/1/21
f 9/7/11 17/14/22 15/13/19
f 17/14/23 9/7/11 18/9/24
f 16/1/1 15/13/19 19/15/25
f 20/2/15 16/1/1 19/15/26
f 15/13/27 17/14/22 21/16/28
f 15/13/19 21/16/29 19/15/26
f 17/14/22 22/17/30 21/16/31
f 21/16/28 22/17/32 23/18/33
f 22/17/34 17/14/22 24/9/35
f 25/19/36 22/17/30 24/9/35
f 22/17/32 25/19/37 23/18/33
f 25/19/37 26/20/38 23/18/33
f 23/18/39 26/20/40 27/21/41
f 28/22/42 23/18/43 27/21/41
f 27/21/41 29/23/44 28/22/45
f 30/24/46 19/15/26 21/16/28
f 31/25/47 19/15/25 30/24/46
f 30/24/48 32/26/49 31/25/50
f 33/27/51 21/16/28 23/18/33
f 33/27/51 30/24/46 21/16/28
f 33/27/51 23/18/33 34/28/52
f 33/27/53 34/28/52 30/24/48
f 23/18/43 28/22/54 34/28/52
f 34/28/52 32/26/49 30/24/48
f 35/29/55 34/28/52 28/22/42
f 36/30/56 32/26/57 34/28/58
f 35/29/55 36/30/56 34/28/52
f 36/30/56 37/31/59 32/26/60
f 38/32/61 35/29/62 28/22/54
f 39/23/44 38/32/61 28/22/63
f 40/33/64 36/30/65 35/29/66
f 40/33/64 35/29/55 38/32/67
f 40/33/64 41/34/13 36/30/56
f 41/34/13 42/31/68 36/30/69
f 14/12/70 42/31/71 41/34/13
f 41/34/16 40/33/72 43/35/73
f 43/35/73 40/33/74 44/36/8
f 45/37/75 40/33/76 38/32/61
f 40/33/64 45/37/77 44/36/78
f 45/37/77 38/32/79 46/23/44
f 44/36/8 45/37/75 47/23/44
f 49/31/80 48/25/50 32/26/57
f 48/25/50 49/31/59 50/12/81
f 53/12/82 52/2/2 51/25/83
f 51/25/50 52/2/84 19/15/85
f 56/38/86 55/39/87 54/40/88
f 56/38/86 57/41/89 55/39/87
f 57/41/90 58/6/6 55/39/87
f 57/41/90 59/42/91 58/6/6
f 59/42/91 60/4/92 58/6/6
f 60/4/93 59/42/94 61/43/95
f 55/39/87 58/6/6 62/44/96
f 62/44/97 58/6/6 63/5/98
f 64/45/99 55/39/87 62/44/96
f 55/39/87 64/45/100 65/40/101
f 62/44/96 63/5/5 66/46/102
f 63/5/5 67/4/103 66/46/104
f 64/45/105 62/44/97 68/47/106
f 68/47/107 62/44/97 66/46/108
f 69/48/109 64/45/99 68/47/107
f 69/48/110 68/47/106 70/49/111
f 64/45/100 69/48/110 71/40/101
f 69/48/110 72/50/112 71/40/88
f 72/50/113 69/48/110 70/49/111
f 73/51/114 72/50/115 70/49/111
f 73/51/114 70/49/111 74/52/116
f 70/49/117 75/53/118 74/52/116
f 76/54/119 74/52/120 75/53/118
f 66/46/102 77/55/121 68/47/106
f 66/46/102 78/56/122 77/55/121
f 79/57/123 77/55/124 78/56/125
f 68/47/106 80/58/126 70/49/127
f 77/55/121 80/58/126 68/47/106
f 70/49/111 80/58/126 81/59/128
f 81/59/128 80/58/129 77/55/130
f 75/53/118 70/49/111 81/59/128
f 79/57/131 81/59/128 77/55/130
f 81/59/132 82/60/133 75/53/118
f 79/57/134 83/61/135 81/59/132
f 83/61/135 82/60/133 81/59/128
f 84/62/136 83/61/135 79/57/134
f 82/60/137 85/63/138 75/53/118
f 85/63/139 86/54/119 75/53/118
f 83/61/140 87/64/141 82/60/137
f 82/60/142 87/64/141 85/63/143
f 88/65/144 87/64/141 83/61/145
f 89/62/146 88/65/147 83/61/135
f 89/62/146 61/43/148 88/65/147
f 87/64/149 88/65/94 90/66/150
f 87/64/151 90/66/150 91/67/152
f 87/64/141 92/68/153 85/63/138
f 92/68/153 87/64/149 91/67/152
f 85/63/143 92/68/153 93/54/154
f 92/68/153 91/67/152 94/54/154
f 96/56/122 95/62/155 79/57/134
f 95/62/136 96/56/156 97/43/157
f 100/69/158 99/70/159 98/71/160
f 100/69/158 98/71/161 101/72/162
f 102/73/163 100/69/164 101/72/165
f 98/71/166 103/74/167 101/72/162
f 102/73/168 101/72/169 104/75/170
f 101/72/171 103/74/172 104/75/173
f 105/76/174 103/74/167 98/71/161
f 103/74/172 106/77/175 104/75/173
f 103/74/176 105/76/177 106/77/175
f 107/78/178 105/76/174 98/71/179
f 98/71/160 108/70/159 107/78/178
f 104/75/173 106/77/175 109/79/180
f 105/76/177 110/80/181 106/77/175
f 106/77/175 110/80/182 109/79/180
f 102/73/168 104/75/183 111/81/184
f 104/75/173 109/79/180 112/82/185
f 111/81/184 104/75/170 112/82/185
f 107/78/178 113/83/186 105/76/174
f 113/83/186 114/84/187 105/76/174
f 105/76/174 114/84/188 110/80/182
f 115/85/189 113/83/186 107/78/178
f 113/83/186 115/85/189 114/84/187
f 114/84/190 116/86/191 110/80/182
f 110/80/192 117/87/193 109/79/194
f 110/80/182 116/86/191 117/87/193
f 115/85/189 118/88/195 114/84/190
f 114/84/190 118/88/196 116/86/191
f 112/82/197 109/79/194 119/89/198
f 112/82/185 119/89/198 120/90/199
f 111/81/200 112/82/185 121/91/201
f 121/91/202 112/82/203 120/90/204
f 109/79/205 117/87/206 122/92/207
f 109/79/180 122/92/208 119/89/209
f 116/86/191 123/93/210 117/87/193
f 118/88/211 124/94/212 116/86/213
f 116/86/214 124/94/215 123/93/210
f 117/87/206 125/95/216 122/92/208
f 117/87/217 123/93/210 125/95/218
f 119/89/198 122/92/207 126/96/219
f 120/90/199 119/89/198 127/97/220
f 119/89/221 126/96/219 127/97/222
f 122/92/207 125/95/223 128/98/224
f 122/92/207 128/98/225 126/96/219
f 123/93/210 129/99/226 125/95/218
f 124/94/215 130/100/227 123/93/210
f 123/93/210 130/100/228 129/99/229
f 125/95/223 131/101/230 128/98/225
f 125/95/223 129/99/229 131/101/231
f 118/88/232 132/102/233 124/94/212
f 124/94/215 133/103/234 130/100/227
f 132/102/233 133/103/235 124/94/212
f 134/104/236 132/102/237 118/88/211
f 115/85/189 134/104/238 118/88/211
f 134/104/239 115/85/240 135/105/241
f 135/105/242 136/106/243 134/104/244
f 134/104/238 137/107/245 132/102/237
f 136/106/243 137/107/245 134/104/244
f 137/107/245 138/108/246 132/102/247
f 132/102/248 138/108/246 133/103/249
f 115/85/240 139/109/250 135/105/241
f 139/109/251 115/85/252 107/78/178
f 139/109/251 107/78/178 140/110/253
f 139/109/254 140/110/253 135/105/241
f 107/78/178 108/70/159 140/110/253
f 140/110/253 108/70/159 141/111/255
f 137/107/245 136/106/243 142/112/256
f 137/107/245 142/112/256 138/108/246
f 136/106/257 143/113/258 142/112/259
f 140/110/260 144/114/261 135/105/241
f 141/111/262 144/114/263 140/110/253
f 108/70/159 145/115/264 141/111/262
f 145/115/265 108/70/159 100/69/158
f 142/112/266 146/116/267 138/108/246
f 147/117/268 142/112/256 143/113/258
f 142/112/269 147/117/268 146/116/270
f 138/108/271 146/116/272 148/118/273
f 138/108/274 148/118/273 133/103/249
f 133/103/275 148/118/276 149/119/277
f 133/103/275 149/119/277 130/100/227
f 148/118/276 150/120/278 149/119/277
f 146/116/272 151/121/279 148/118/273
f 148/118/280 151/121/281 152/120/282
f 130/100/228 149/119/283 153/122/284
f 130/100/228 153/122/285 129/99/229
f 147/117/268 154/123/286 146/116/270
f 146/116/272 154/123/287 151/121/279
f 149/119/283 155/124/288 153/122/284
f 149/119/283 156/120/289 155/124/290
f 129/99/229 153/122/285 157/125/291
f 129/99/292 157/125/293 131/101/294
f 153/122/295 155/124/288 158/126/296
f 153/122/295 158/126/296 157/125/291
f 131/101/297 157/125/291 159/127/298
f 157/125/291 158/126/299 160/128/300
f 157/125/291 160/128/300 159/127/298
f 131/101/297 159/127/298 161/129/301
f 128/98/302 131/101/297 161/129/303
f 128/98/225 161/129/303 162/130/304
f 126/96/305 128/98/302 162/130/304
f 126/96/306 162/130/307 163/131/308
f 127/97/309 126/96/219 163/131/310
f 155/124/311 164/132/312 158/126/296
f 158/126/299 165/133/313 160/128/300
f 158/126/296 164/132/314 165/133/315
f 159/127/298 160/128/316 166/134/317
f 160/128/316 165/133/313 166/134/318
f 161/129/319 159/127/298 167/135/320
f 159/127/298 166/134/321 167/135/320
f 162/130/304 161/129/319 168/136/322
f 161/129/319 167/135/320 168/136/322
f 155/124/323 169/137/324 164/132/312
f 170/120/289 169/137/324 155/124/290
f 169/137/325 171/138/326 164/132/312
f 164/132/327 171/138/328 172/139/329
f 164/132/314 172/139/329 165/133/315
f 171/138/328 173/140/330 172/139/329
f 172/139/331 173/140/330 174/141/332
f 165/133/315 172/139/329 175/142/333
f 175/142/334 172/139/329 174/141/332
f 166/134/318 165/133/315 175/142/333
f 175/142/335 174/141/332 176/143/336
f 166/134/318 175/142/337 177/144/338
f 177/144/339 175/142/335 176/143/336
f 167/135/340 166/134/318 177/144/339
f 177/144/339 176/143/336 178/145/341
f 167/135/342 177/144/338 179/146/343
f 179/146/343 177/144/339 178/145/344
f 179/146/343 178/145/341 180/147/345
f 168/136/322 167/135/340 179/146/346
f 181/148/347 179/146/343 180/147/348
f 168/136/349 179/146/343 181/148/350
f 181/148/351 180/147/352 182/149/353
f 183/150/354 168/136/355 181/148/350
f 162/130/356 168/136/355 183/150/354
f 163/131/357 162/130/307 183/150/354
f 184/151/358 181/148/351 182/149/353
f 183/150/359 181/148/351 184/151/358
f 184/151/360 182/149/361 185/152/362
f 163/131/308 183/150/363 186/153/364
f 186/153/365 183/150/363 184/151/358
f 187/154/366 184/151/367 185/152/362
f 186/153/368 184/151/358 187/154/366
f 188/155/369 163/131/357 186/153/364
f 127/97/220 163/131/308 188/155/369
f 189/156/370 187/154/371 185/152/372
f 190/157/373 189/156/370 185/152/372
f 191/158/374 186/153/368 187/154/366
f 188/155/369 186/153/364 191/158/375
f 192/159/376 189/156/377 190/157/378
f 193/160/379 192/159/376 190/157/378
f 189/156/370 194/161/380 187/154/366
f 194/161/380 191/158/381 187/154/366
f 195/162/382 192/159/376 193/160/379
f 196/163/383 195/162/382 193/160/379
f 192/159/376 197/164/384 189/156/385
f 197/164/386 194/161/380 189/156/370
f 195/162/382 198/165/387 192/159/376
f 198/165/387 197/164/384 192/159/376
f 199/166/388 127/97/220 188/155/369
f 200/167/389 188/155/369 191/158/374
f 199/166/388 188/155/369 200/167/389
f 201/168/390 200/167/391 191/158/375
f 194/161/380 201/168/390 191/158/381
f 201/168/390 199/166/388 200/167/392
f 202/169/393 127/97/222 199/166/388
f 202/169/394 199/166/388 201/168/395
f 202/169/393 120/90/204 127/97/396
f 203/170/397 201/168/395 194/161/380
f 197/164/386 203/170/398 194/161/380
f 203/170/399 202/169/394 201/168/395
f 204/171/400 203/170/397 197/164/401
f 204/171/402 202/169/403 203/170/397
f 198/165/387 204/171/404 197/164/401
f 205/172/405 120/90/204 202/169/406
f 204/171/402 205/172/407 202/169/394
f 206/173/408 198/165/387 195/162/409
f 207/174/410 204/171/411 198/165/387
f 206/173/412 207/174/410 198/165/413
f 208/175/414 205/172/405 204/171/404
f 207/174/415 208/175/416 204/171/404
f 209/176/417 206/173/408 195/162/382
f 209/176/418 195/162/382 210/163/419
f 211/177/420 207/174/410 206/173/412
f 212/178/421 208/175/414 207/174/415
f 211/177/422 212/178/421 207/174/415
f 213/179/423 206/173/408 209/176/418
f 213/179/423 211/177/420 206/173/424
f 205/172/405 214/180/425 120/90/204
f 214/180/426 215/181/427 120/90/428
f 215/181/427 121/91/429 120/90/204
f 216/182/430 214/180/431 205/172/405
f 216/182/432 217/183/433 214/180/425
f 215/181/434 217/183/433 121/91/429
f 216/182/435 121/91/202 217/183/433
f 218/180/425 217/183/436 215/181/427
f 216/182/430 111/81/184 121/91/201
f 111/81/184 216/182/430 205/172/405
f 208/175/416 111/81/184 205/172/405
f 102/73/437 111/81/184 208/175/416
f 212/178/421 102/73/437 208/175/416
f 219/184/438 212/178/439 211/177/440
f 220/185/441 102/73/442 212/178/439
f 219/184/443 220/185/444 212/178/445
f 221/186/446 211/177/420 213/179/423
f 221/186/446 219/184/438 211/177/440
f 102/73/442 220/185/447 222/187/448
f 102/73/163 222/187/449 100/69/164
f 222/187/449 223/188/450 100/69/164
f 100/69/164 223/188/451 145/115/265
f 224/189/452 221/186/453 213/179/423
f 225/190/454 219/184/438 221/186/453
f 224/189/455 225/190/456 221/186/453
f 226/191/457 220/185/444 219/184/458
f 225/190/459 226/191/457 219/184/458
f 227/192/460 222/187/461 220/185/444
f 226/191/462 227/192/463 220/185/444
f 227/192/464 228/193/465 222/187/461
f 228/193/465 223/188/450 222/187/461
f 228/193/465 227/192/460 226/191/457
f 228/193/465 226/191/457 229/194/466
f 229/194/467 226/191/457 225/190/459
f 223/188/450 230/195/468 145/115/265
f 223/188/469 231/193/465 230/195/470
f 230/195/471 232/196/472 145/115/473
f 231/193/465 232/196/474 230/195/468
f 233/197/475 232/196/476 231/193/465
f 145/115/473 232/196/474 141/111/477
f 234/198/478 232/196/476 233/197/479
f 141/111/477 232/196/474 234/198/478
f 235/199/480 234/198/478 233/197/479
f 235/199/480 236/200/481 234/198/478
f 237/201/482 229/194/483 225/190/459
f 237/201/484 225/190/456 224/189/485
f 234/198/486 238/202/487 141/111/477
f 236/200/488 238/202/489 234/198/478
f 238/202/487 239/203/490 141/111/491
f 239/203/492 144/114/263 141/111/491
f 240/204/493 238/202/494 236/200/488
f 240/204/493 239/203/490 238/202/489
f 241/205/495 240/204/496 236/200/497
f 241/205/495 242/206/498 240/204/496
f 242/206/499 243/207/500 240/204/496
f 240/204/496 243/207/501 239/203/490
f 244/208/502 144/114/263 239/203/503
f 144/114/263 244/208/502 135/105/242
f 239/203/503 245/209/504 244/208/502
f 243/207/501 245/209/504 239/203/490
f 244/208/502 246/210/505 135/105/242
f 245/209/504 246/210/505 244/208/506
f 246/210/505 136/106/507 135/105/242
f 247/211/508 243/207/500 242/206/499
f 248/212/509 247/211/510 242/206/498
f 247/211/511 248/212/509 249/213/512
f 250/214/513 245/209/504 243/207/501
f 247/211/514 250/214/515 243/207/500
f 251/215/516 246/210/505 245/209/504
f 136/106/517 246/210/518 251/215/516
f 250/214/515 251/215/516 245/209/504
f 252/216/519 247/211/510 249/213/520
f 250/214/515 247/211/508 252/216/519
f 253/217/521 136/106/243 251/215/516
f 136/106/507 253/217/521 143/113/258
f 251/215/516 250/214/515 254/218/522
f 253/217/521 251/215/516 254/218/523
f 254/218/522 250/214/513 252/216/524
f 252/216/519 249/213/520 255/219/525
f 249/213/520 256/220/526 255/219/525
f 255/219/527 256/220/526 257/221/528
f 253/217/521 254/218/522 258/222/529
f 253/217/521 258/222/529 143/113/258
f 254/218/522 252/216/524 259/223/530
f 252/216/519 255/219/527 259/223/531
f 254/218/522 259/223/532 258/222/529
f 260/224/533 255/219/534 257/221/535
f 259/223/531 255/219/525 260/224/536
f 259/223/530 260/224/536 261/225/537
f 262/226/538 258/222/529 259/223/532
f 258/222/529 262/226/538 143/113/258
f 262/226/539 259/223/540 261/225/541
f 260/224/536 257/221/528 263/227/542
f 260/224/543 263/227/544 261/225/537
f 257/221/545 264/228/546 263/227/547
f 263/227/548 264/228/549 265/229/550
f 266/230/551 263/227/547 265/229/552
f 266/230/553 261/225/537 263/227/542
f 266/230/553 265/229/554 267/231/555
f 262/226/556 268/232/557 143/113/558
f 262/226/556 261/225/541 268/232/557
f 266/230/553 267/231/555 269/233/559
f 267/231/555 270/234/560 269/233/559
f 266/230/553 269/233/561 271/235/562
f 266/230/563 271/235/562 261/225/564
f 269/233/561 270/234/560 271/235/562
f 270/234/565 272/236/566 271/235/562
f 271/235/562 273/237/567 261/225/541
f 273/237/567 268/232/557 261/225/541
f 273/237/567 271/235/562 272/236/566
f 273/237/568 274/238/569 268/232/557
f 274/238/569 275/239/570 268/232/557
f 268/232/571 275/239/572 143/113/258
f 275/239/572 147/117/268 143/113/258
f 147/117/573 275/239/570 274/238/574
f 270/234/560 276/240/575 272/236/576
f 272/236/576 276/240/577 277/241/578
f 276/240/579 278/242/580 277/241/581
f 270/234/565 279/231/555 276/240/579
f 279/231/582 280/243/583 276/240/584
f 278/242/580 276/240/579 280/243/585
f 281/244/586 280/243/583 279/231/555
f 278/242/580 280/243/583 281/244/587
f 282/245/588 281/244/586 279/231/555
f 278/242/580 281/244/589 283/246/590
f 283/246/591 281/244/586 282/245/588
f 273/237/567 284/247/592 274/238/593
f 273/237/567 272/236/566 284/247/594
f 284/247/595 272/236/566 285/248/596
f 284/247/592 285/248/597 274/238/593
f 286/249/598 147/117/268 274/238/569
f 147/117/268 286/249/599 154/123/600
f 286/249/599 274/238/593 287/250/601
f 286/249/599 287/250/602 154/123/287
f 288/251/603 278/242/580 283/246/590
f 278/242/580 288/251/604 277/241/605
f 272/236/566 289/252/606 285/248/596
f 272/236/576 277/241/607 289/252/608
f 274/238/574 290/253/609 287/250/610
f 285/248/596 290/253/611 274/238/593
f 154/123/287 287/250/612 291/254/613
f 154/123/287 291/254/613 151/121/614
f 287/250/601 290/253/609 292/255/615
f 287/250/612 292/255/616 291/254/613
f 290/253/609 285/248/617 293/256/618
f 290/253/609 293/256/618 292/255/615
f 285/248/619 289/252/606 294/257/620
f 285/248/619 294/257/620 293/256/621
f 151/121/622 291/254/623 295/258/624
f 151/121/281 295/258/625 296/120/278
f 291/254/623 292/255/626 297/259/627
f 291/254/613 297/259/627 295/258/624
f 292/255/626 293/256/628 298/260/629
f 292/255/630 298/260/631 297/259/627
f 289/252/606 299/261/632 294/257/620
f 289/252/633 277/241/607 299/261/634
f 293/256/628 294/257/620 300/262/635
f 293/256/618 300/262/636 298/260/629
f 294/257/620 299/261/632 301/263/637
f 294/257/620 301/263/638 300/262/636
f 295/258/639 297/259/640 302/264/641
f 297/259/640 298/260/642 303/265/643
f 297/259/640 303/265/644 302/264/641
f 298/260/645 300/262/646 304/266/647
f 298/260/631 304/266/647 303/265/644
f 295/258/625 302/264/648 305/267/324
f 306/120/289 295/258/625 305/267/324
f 305/267/325 302/264/649 307/268/328
f 302/264/649 308/269/650 307/268/326
f 302/264/641 303/265/651 308/269/652
f 307/268/328 308/269/652 309/270/653
f 303/265/651 310/271/654 308/269/650
f 303/265/651 304/266/655 310/271/654
f 300/262/646 311/272/656 304/266/657
f 300/262/658 301/263/659 311/272/660
f 308/269/650 312/273/661 309/270/653
f 308/269/650 310/271/662 312/273/661
f 304/266/647 313/274/663 310/271/654
f 304/266/655 311/272/664 313/274/665
f 309/270/330 312/273/666 314/275/667
f 315/276/332 309/270/330 314/275/667
f 310/271/654 316/277/668 312/273/661
f 310/271/669 313/274/663 316/277/670
f 315/276/332 314/275/671 317/278/672
f 318/279/336 315/276/332 317/278/672
f 314/275/667 312/273/661 319/280/673
f 312/273/661 316/277/674 319/280/673
f 318/279/336 317/278/672 320/281/675
f 321/282/344 318/279/336 320/281/675
f 317/278/676 314/275/677 322/283/678
f 314/275/677 319/280/673 322/283/679
f 321/282/341 320/281/680 323/284/681
f 324/285/345 321/282/682 323/284/683
f 320/281/675 317/278/676 325/286/684
f 317/278/676 322/283/679 325/286/685
f 324/285/352 323/284/686 326/287/687
f 327/288/353 324/285/352 326/287/687
f 323/284/688 320/281/689 328/289/690
f 320/281/689 325/286/691 328/289/690
f 327/288/692 326/287/693 329/290/694
f 330/291/362 327/288/692 329/290/694
f 331/292/373 330/291/372 329/290/695
f 326/287/696 323/284/697 332/293/698
f 323/284/697 328/289/690 332/293/699
f 333/294/700 331/292/373 329/290/695
f 334/295/379 331/292/378 333/294/701
f 329/290/694 326/287/702 335/296/703
f 326/287/702 332/293/704 335/296/705
f 333/294/700 329/290/695 335/296/706
f 336/297/707 334/295/379 333/294/701
f 337/163/419 334/295/379 336/297/707
f 338/298/708 333/294/700 335/296/706
f 336/297/707 333/294/709 338/298/708
f 335/296/705 332/293/704 339/299/710
f 338/298/708 335/296/711 339/299/710
f 332/293/698 328/289/712 340/300/713
f 332/293/698 340/300/714 339/299/710
f 341/301/715 338/298/716 339/299/710
f 341/301/715 339/299/710 340/300/714
f 342/302/717 336/297/718 338/298/719
f 342/302/720 338/298/708 341/301/721
f 328/289/722 343/303/723 340/300/724
f 328/289/725 325/286/726 343/303/723
f 344/304/727 341/301/715 340/300/728
f 344/304/727 340/300/714 343/303/723
f 325/286/726 345/305/729 343/303/723
f 325/286/685 322/283/678 345/305/730
f 346/306/731 336/297/707 342/302/732
f 346/306/731 347/163/383 336/297/707
f 348/307/733 342/302/720 341/301/715
f 348/307/734 341/301/715 344/304/727
f 349/308/735 344/304/736 343/303/723
f 349/308/737 343/303/723 345/305/738
f 322/283/678 350/309/739 345/305/730
f 322/283/678 319/280/673 350/309/739
f 351/310/740 346/306/731 342/302/732
f 351/310/741 342/302/742 348/307/733
f 352/311/743 348/307/744 344/304/727
f 352/311/745 344/304/746 349/308/747
f 353/312/748 352/311/749 349/308/750
f 354/313/751 349/308/750 345/305/738
f 354/313/751 345/305/752 350/309/753
f 319/280/754 355/314/755 350/309/739
f 319/280/754 316/277/670 355/314/755
f 356/315/756 348/307/734 352/311/757
f 356/315/758 351/310/741 348/307/733
f 357/316/759 349/308/750 354/313/760
f 357/316/761 353/312/762 349/308/763
f 358/317/764 354/313/765 350/309/753
f 358/317/766 350/309/753 355/314/755
f 357/316/761 354/313/765 358/317/766
f 316/277/670 359/318/767 355/314/755
f 313/274/663 359/318/768 316/277/670
f 360/319/769 355/314/755 359/318/770
f 313/274/663 360/319/771 359/318/770
f 360/319/772 358/317/764 355/314/755
f 311/272/664 360/319/772 313/274/665
f 361/320/773 358/317/766 360/319/774
f 311/272/664 361/320/775 360/319/774
f 361/320/775 357/316/761 358/317/766
f 301/263/776 361/320/777 311/272/660
f 301/263/637 357/316/778 361/320/777
f 301/263/637 362/321/779 357/316/761
f 362/321/780 353/312/748 357/316/761
f 299/261/632 362/321/781 301/263/637
f 299/261/634 363/322/782 362/321/781
f 277/241/607 363/322/782 299/261/634
f 362/321/780 364/323/783 353/312/748
f 363/322/782 365/324/784 362/321/779
f 365/324/784 364/323/783 362/321/785
f 365/324/784 366/325/786 364/323/783
f 364/323/783 366/325/787 367/326/788
f 364/323/783 367/326/788 353/312/748
f 367/326/788 366/325/786 368/327/789
f 365/324/784 369/327/790 366/325/787
f 367/326/788 369/327/791 353/312/748
f 365/324/784 363/322/782 369/327/792
f 369/327/790 370/328/793 353/312/748
f 363/322/782 370/328/794 369/327/790
f 370/328/794 352/311/745 353/312/748
f 370/328/795 356/315/756 352/311/743
f 363/322/782 371/329/796 370/328/794
f 277/241/797 371/329/796 363/322/782
f 371/329/798 356/315/799 370/328/794
f 277/241/800 372/330/801 371/329/796
f 288/251/604 372/330/802 277/241/605
f 371/329/796 373/331/803 356/315/799
f 372/330/801 374/332/804 371/329/796
f 374/332/804 373/331/805 371/329/798
f 288/251/604 375/333/806 372/330/802
f 375/333/807 374/332/808 372/330/802
f 375/333/807 288/251/603 376/334/809
f 375/333/810 376/334/809 374/332/808
f 288/251/604 283/246/591 376/334/809
f 373/331/803 377/335/811 356/315/812
f 377/335/811 351/310/813 356/315/814
f 374/332/804 378/336/815 373/331/803
f 376/334/816 378/336/815 374/332/804
f 378/336/815 377/335/817 373/331/803
f 376/334/818 283/246/819 379/337/820
f 376/334/816 379/337/821 378/336/815
f 377/335/822 380/338/823 351/310/740
f 380/338/823 346/306/731 351/310/740
f 378/336/815 381/339/824 377/335/817
f 379/337/825 381/339/824 378/336/815
f 381/339/826 380/338/823 377/335/822
f 283/246/827 382/340/828 379/337/820
f 283/246/591 282/245/829 382/340/830
f 380/338/823 383/341/831 346/306/731
f 383/341/831 384/163/419 346/306/731
f 381/339/826 385/342/832 380/338/823
f 385/342/832 383/341/831 380/338/823
f 379/337/833 386/343/834 381/339/824
f 379/337/835 382/340/836 386/343/837
f 386/343/834 385/342/838 381/339/824
f 282/245/839 387/344/840 382/340/830
f 282/245/588 388/345/841 387/344/842
f 387/344/842 388/345/843 389/346/844
f 388/345/843 390/347/845 389/346/844
f 390/347/845 391/348/846 389/346/844
f 389/346/847 391/348/846 392/349/848
f 393/350/849 389/346/844 392/349/848
f 382/340/850 394/351/851 386/343/837
f 382/340/852 387/344/842 394/351/853
f 386/343/854 395/352/855 385/342/838
f 386/343/837 394/351/851 395/352/856
f 385/342/832 396/353/857 383/341/831
f 395/352/858 396/353/859 385/342/838
f 389/346/847 393/350/860 397/354/861
f 229/194/466 397/354/862 393/350/863
f 237/201/864 397/354/862 229/194/467
f 394/351/851 237/201/865 395/352/866
f 387/344/842 398/355/867 394/351/868
f 398/355/869 387/344/842 389/346/844
f 398/355/869 389/346/847 397/354/861
f 398/355/867 397/354/870 237/201/864
f 394/351/853 398/355/867 237/201/864
f 395/352/856 237/201/865 224/189/871
f 395/352/872 224/189/452 396/353/859
f 224/189/452 213/179/423 396/353/859
f 396/353/857 213/179/423 209/176/418
f 396/353/873 209/176/417 383/341/874
f 383/341/875 209/176/417 399/163/419
f 402/4/4 401/43/876 400/56/877
f 402/4/4 400/56/122 66/46/108
