# Blender 4.1.0
# www.blender.org
mtllib slime_DLC_saber_LOD2.mtl
o slime_DLC_saber_LOD2
v 0.000000 0.771433 -0.313998
v 0.000000 0.917239 -0.107111
v -0.136851 0.892427 -0.099664
v 0.124414 0.749854 -0.301123
v 0.136851 0.892369 -0.099648
v 0.000000 0.917239 -0.107111
v -0.000000 -0.001566 -0.188934
v -0.130313 0.001366 -0.176144
v -0.244032 0.020442 0.005410
v -0.198842 0.297587 0.513191
v -0.140030 0.297558 0.498297
v -0.152817 0.185330 0.494588
v -0.130742 0.399636 0.482958
v -0.206418 0.380208 0.491970
v -0.272552 0.334720 0.451871
v -0.262003 0.263766 0.480155
v -0.289874 0.305234 0.407828
v -0.270665 0.245189 0.443639
v -0.183258 0.186301 0.432141
v -0.239644 0.179331 0.485392
v -0.240996 0.171801 0.461354
v -0.181680 0.157559 0.444666
v -0.181040 0.109616 0.457228
v -0.198472 0.097096 0.463197
v -0.198472 0.097096 0.463197
v -0.181961 0.074877 0.464130
v -0.192730 0.187511 0.511866
v -0.152817 0.185330 0.494588
v -0.171374 0.104088 0.474966
v -0.191753 0.103952 0.485004
v -0.171374 0.104088 0.474966
v -0.191753 0.103952 0.485004
v -0.181961 0.074877 0.464130
v -0.191753 0.103952 0.485004
v -0.198472 0.097096 0.463197
v -0.181961 0.074877 0.464130
v -0.181040 0.109616 0.457228
v -0.171374 0.104088 0.474966
v -0.152817 0.185330 0.494588
v -0.181680 0.157559 0.444666
v -0.183258 0.186301 0.432141
v -0.140030 0.297558 0.498297
v -0.130742 0.399636 0.482958
v 0.130742 0.394020 0.482958
v 0.140030 0.294060 0.498297
v 0.183236 0.186338 0.432179
v 0.152817 0.185693 0.494588
v 0.181680 0.157545 0.444666
v 0.181040 0.109664 0.457228
v 0.171374 0.103786 0.474966
v 0.181961 0.075098 0.464130
v 0.198472 0.097910 0.463197
v 0.181040 0.109664 0.457228
v 0.240996 0.172499 0.461354
v 0.181680 0.157545 0.444666
v 0.183236 0.186338 0.432179
v 0.270738 0.251512 0.443557
v 0.290187 0.315699 0.407435
v 0.239644 0.179326 0.485390
v 0.198472 0.097910 0.463197
v 0.262003 0.271805 0.480155
v 0.198842 0.298402 0.513189
v 0.273037 0.341428 0.451330
v 0.206418 0.379475 0.491959
v 0.130742 0.394020 0.482958
v 0.140030 0.294060 0.498297
v 0.152817 0.185693 0.494588
v 0.192730 0.187409 0.511864
v 0.152817 0.185693 0.494588
v 0.171374 0.103786 0.474966
v 0.191753 0.104410 0.485004
v 0.191753 0.104410 0.485004
v 0.171374 0.103786 0.474966
v 0.181961 0.075098 0.464130
v 0.198472 0.097910 0.463197
v 0.191753 0.104410 0.485004
v 0.181961 0.075098 0.464130
v -0.270024 0.071195 -0.269106
v -0.324160 0.205329 -0.343988
v -0.360410 0.068769 -0.155402
v -0.499440 0.249202 -0.200067
v -0.489571 0.126114 -0.019923
v -0.244032 0.020442 0.005410
v -0.452634 0.137599 0.131898
v -0.237887 0.036536 0.141161
v -0.195549 0.088556 0.332438
v -0.417619 0.225162 0.265025
v -0.547112 0.253465 0.092487
v -0.620210 0.254112 -0.078955
v -0.545299 0.382345 -0.035681
v -0.481453 0.358278 -0.144744
v -0.477213 0.546070 -0.028162
v -0.311587 0.444403 -0.317229
v -0.278631 0.645081 -0.267962
v -0.349272 0.720387 -0.039195
v -0.309496 0.687414 0.217605
v -0.517255 0.370886 0.135196
v -0.395964 0.469324 0.255810
v -0.420923 0.356567 0.302316
v -0.326006 0.441114 0.383704
v -0.309496 0.687414 0.217605
v -0.359076 0.325471 0.381755
v -0.309657 0.359420 0.440793
v -0.289874 0.305234 0.407828
v -0.183258 0.186301 0.432141
v -0.272552 0.334720 0.451871
v -0.219639 0.397432 0.497263
v -0.206418 0.380208 0.491970
v -0.131252 0.198072 0.457059
v -0.130742 0.399636 0.482958
v -0.000000 0.354810 0.492712
v -0.070519 0.437248 0.487210
v -0.000000 0.476424 0.491144
v 0.070519 0.430011 0.487210
v 0.130742 0.394020 0.482958
v -0.000000 0.195761 0.477597
v -0.000000 0.067864 0.364260
v 0.131252 0.199629 0.457059
v 0.183236 0.186338 0.432179
v 0.195510 0.090328 0.332498
v 0.417606 0.240431 0.265025
v 0.290187 0.315699 0.407435
v 0.452398 0.141024 0.132352
v 0.237833 0.037491 0.141064
v 0.244185 0.020458 0.005261
v 0.489606 0.125611 -0.019871
v 0.360280 0.088213 -0.156336
v 0.546916 0.253677 0.093002
v 0.501511 0.249699 -0.200168
v 0.620211 0.252189 -0.079028
v 0.544979 0.378857 -0.035839
v 0.324164 0.205206 -0.343986
v 0.270091 0.106568 -0.296880
v 0.475582 0.368855 -0.136618
v 0.311615 0.444498 -0.317143
v 0.517190 0.375767 0.135245
v 0.475751 0.546100 -0.028278
v 0.349272 0.720178 -0.039124
v 0.278664 0.645494 -0.267940
v 0.390452 0.472714 0.265846
v 0.309496 0.688622 0.217645
v 0.421426 0.369689 0.301758
v 0.326006 0.448137 0.383704
v 0.359399 0.338089 0.381402
v 0.310136 0.367135 0.440298
v 0.273037 0.341428 0.451330
v 0.219639 0.397146 0.497254
v 0.206418 0.379475 0.491959
v 0.107762 0.437892 0.512673
v 0.130742 0.394020 0.482958
v 0.070519 0.430011 0.487210
v -0.000000 0.494535 0.502683
v -0.000000 0.476424 0.491144
v -0.070519 0.437248 0.487210
v 0.107170 0.549752 0.475467
v -0.107762 0.444511 0.512674
v -0.130742 0.399636 0.482958
v -0.107170 0.552721 0.475471
v 0.126261 0.653207 0.394298
v 0.000000 0.563047 0.486229
v -0.000000 0.655447 0.414545
v -0.126261 0.652934 0.394299
v -0.309496 0.687414 0.217605
v -0.127764 0.765645 0.284753
v -0.000000 0.777297 0.302391
v 0.127764 0.767357 0.284799
v -0.133654 0.835405 0.171230
v 0.000000 0.853074 0.183789
v 0.133654 0.837056 0.171291
v 0.000000 0.917239 -0.107111
v 0.136851 0.892369 -0.099648
v 0.000000 0.917239 -0.107111
v 0.349272 0.720178 -0.039124
v 0.278664 0.645494 -0.267940
v 0.124414 0.749854 -0.301123
v -0.136851 0.892427 -0.099664
v 0.000000 0.917239 -0.107111
v -0.349272 0.720387 -0.039195
v -0.124414 0.749520 -0.301123
v -0.278631 0.645081 -0.267962
v 0.130298 0.449738 -0.448419
v 0.311615 0.444498 -0.317143
v 0.000000 0.771433 -0.313998
v 0.000000 0.917239 -0.107111
v 0.000000 0.451767 -0.468635
v 0.126639 0.230785 -0.490014
v 0.324164 0.205206 -0.343986
v -0.000000 0.237540 -0.509208
v 0.121625 0.094786 -0.388887
v 0.270091 0.106568 -0.296880
v -0.000000 0.094106 -0.404512
v -0.130284 0.449637 -0.448492
v -0.311587 0.444403 -0.317229
v -0.126639 0.230943 -0.489996
v -0.324160 0.205329 -0.343988
v -0.270024 0.071195 -0.269106
v -0.121710 0.094826 -0.388883
v -0.000000 0.094106 -0.404512
v -0.000000 0.237540 -0.509208
v 0.000000 0.451767 -0.468635
v 0.000000 0.771433 -0.313998
v -0.136851 0.892427 -0.099664
v 0.121625 0.094786 -0.388887
v -0.000000 0.094106 -0.404512
v -0.000000 -0.001566 -0.188934
v 0.130316 0.001330 -0.176144
v -0.000000 -0.003885 -0.005912
v 0.270091 0.106568 -0.296880
v 0.360280 0.088213 -0.156336
v 0.244185 0.020458 0.005261
v -0.000000 -0.003885 -0.005912
v -0.000000 0.007261 0.141927
v 0.237833 0.037491 0.141064
v -0.000000 -0.003885 -0.005912
v -0.000000 0.007261 0.141927
v -0.000000 0.067864 0.364260
v 0.195510 0.090328 0.332498
v -0.195549 0.088556 0.332438
v -0.237887 0.036536 0.141161
v -0.000000 -0.003885 -0.005912
v -0.000000 -0.003885 -0.005912
v -0.244032 0.020442 0.005410
v -0.000000 -0.001566 -0.188934
v -0.000000 -0.003885 -0.005912
v -0.000000 0.094106 -0.404512
v -0.130313 0.001366 -0.176144
v -0.360410 0.068769 -0.155402
v -0.121710 0.094826 -0.388883
v -0.270024 0.071195 -0.269106
vn -0.4653 0.8724 -0.1496
vn -0.0020 0.9855 -0.1697
vn -0.0004 0.6258 -0.7800
vn -0.0020 0.9855 -0.1698
vn 0.4648 0.8725 -0.1509
vn 0.4091 0.5923 -0.6942
vn -0.2521 -0.9651 0.0711
vn -0.1188 -0.9795 -0.1629
vn -0.0001 -0.9810 -0.1938
vn 0.8967 -0.1579 0.4135
vn 0.7843 -0.0004 0.6204
vn -0.1740 0.1024 0.9794
vn 0.3771 0.1627 0.9118
vn 0.3771 0.1628 0.9118
vn -0.1714 0.2047 0.9637
vn -0.1739 0.1025 0.9794
vn -0.1715 0.2048 0.9637
vn -0.7138 0.1231 0.6895
vn -0.6864 0.0024 0.7272
vn -0.6864 0.0023 0.7272
vn -0.7138 0.1231 0.6894
vn -0.9738 -0.1922 0.1219
vn -0.8925 -0.3937 -0.2200
vn -0.8926 -0.3937 -0.2199
vn -0.9737 -0.1923 0.1219
vn 0.4902 -0.3018 -0.8177
vn -0.6864 0.0024 0.7273
vn -0.6649 -0.2053 0.7182
vn -0.8926 -0.3936 -0.2200
vn -0.6649 -0.2052 0.7182
vn -0.7549 -0.4565 -0.4709
vn 0.4903 -0.3019 -0.8176
vn -0.8925 -0.3937 -0.2199
vn 0.4590 -0.2433 -0.8545
vn 0.4590 -0.2432 -0.8545
vn 0.3599 -0.1982 -0.9117
vn -0.7286 -0.4774 -0.4912
vn -0.7286 -0.4773 -0.4911
vn 0.2072 -0.9754 -0.0758
vn -0.0676 -0.1123 0.9914
vn 0.8967 -0.1580 0.4135
vn 0.8777 -0.3028 0.3715
vn -0.2045 -0.4736 0.8567
vn 0.8777 -0.3029 0.3715
vn 0.2071 -0.9754 -0.0758
vn -0.7285 -0.4774 -0.4912
vn -0.2044 -0.4736 0.8567
vn 0.2070 -0.9754 -0.0758
vn 0.8776 -0.3028 0.3715
vn 0.2071 -0.9754 -0.0759
vn 0.8776 -0.3029 0.3715
vn 0.4589 -0.2433 -0.8545
vn 0.4902 -0.3019 -0.8176
vn 0.7843 -0.0005 0.6204
vn -0.4514 -0.3046 -0.8387
vn -0.7859 -0.0046 0.6183
vn -0.3819 0.1661 0.9091
vn -0.8925 -0.1596 0.4219
vn -0.4415 -0.2439 -0.8635
vn -0.8925 -0.1597 0.4219
vn -0.4415 -0.2438 -0.8635
vn -0.3681 -0.1982 -0.9084
vn -0.8791 -0.3030 0.3678
vn -0.1854 -0.9798 -0.0745
vn -0.8791 -0.3031 0.3678
vn 0.7270 -0.4753 -0.4955
vn -0.1853 -0.9799 -0.0745
vn -0.3682 -0.1981 -0.9084
vn 0.7642 -0.4396 -0.4720
vn -0.3682 -0.1982 -0.9084
vn -0.4515 -0.3046 -0.8387
vn 0.8961 -0.3816 -0.2267
vn 0.9750 -0.1886 0.1179
vn 0.8961 -0.3816 -0.2268
vn -0.4514 -0.3047 -0.8387
vn 0.7642 -0.4395 -0.4720
vn 0.6731 -0.2002 0.7120
vn 0.7270 -0.4752 -0.4956
vn 0.6867 0.0084 0.7269
vn 0.9750 -0.1886 0.1180
vn 0.8961 -0.3817 -0.2268
vn 0.6867 0.0083 0.7269
vn 0.6731 -0.2002 0.7119
vn 0.1674 0.1026 0.9805
vn 0.7212 0.1209 0.6821
vn 0.9750 -0.1885 0.1180
vn 0.1674 0.1027 0.9805
vn 0.1736 0.2108 0.9620
vn 0.1735 0.2108 0.9620
vn -0.3819 0.1660 0.9092
vn 0.0776 -0.1117 0.9907
vn -0.8925 -0.1596 0.4218
vn -0.8792 -0.3031 0.3678
vn 0.0775 -0.1117 0.9907
vn 0.1982 -0.4741 0.8579
vn -0.8792 -0.3030 0.3678
vn 0.1982 -0.4740 0.8579
vn -0.1855 -0.9798 -0.0745
vn 0.1981 -0.4740 0.8579
vn 0.7270 -0.4753 -0.4956
vn -0.1853 -0.9798 -0.0746
vn 0.1981 -0.4741 0.8579
vn -0.5059 -0.8174 -0.2756
vn -0.6488 -0.1132 -0.7525
vn -0.4225 -0.7227 -0.5470
vn -0.6965 -0.2280 -0.6803
vn -0.5765 -0.8171 -0.0070
vn -0.6966 -0.2280 -0.6803
vn -0.2522 -0.9651 0.0711
vn -0.5764 -0.8171 -0.0070
vn -0.5059 -0.8174 -0.2755
vn -0.5299 -0.7829 0.3261
vn -0.3048 -0.9149 0.2646
vn -0.5299 -0.7829 0.3260
vn -0.3049 -0.9149 0.2647
vn -0.3023 -0.8372 0.4557
vn -0.3023 -0.8372 0.4558
vn -0.6153 -0.5884 0.5246
vn -0.5299 -0.7828 0.3261
vn -0.8890 -0.2057 0.4092
vn -0.6154 -0.5883 0.5246
vn -0.9551 -0.1709 -0.2419
vn -0.6966 -0.2279 -0.6803
vn -0.8890 -0.2057 0.4091
vn -0.9551 -0.1710 -0.2419
vn -0.9042 0.4134 -0.1073
vn -0.7387 0.2715 -0.6170
vn -0.7387 0.2715 -0.6169
vn -0.8813 0.4464 -0.1549
vn -0.8813 0.4465 -0.1550
vn -0.8812 0.4465 -0.1550
vn -0.6719 0.2716 -0.6890
vn -0.6719 0.2717 -0.6890
vn -0.6530 0.4675 -0.5959
vn -0.7634 0.6396 -0.0907
vn -0.7072 0.6200 0.3400
vn -0.7634 0.6396 -0.0906
vn -0.8813 0.4465 -0.1549
vn -0.8720 0.2963 0.3897
vn -0.9042 0.4134 -0.1072
vn -0.8720 0.2964 0.3897
vn -0.6154 -0.5884 0.5245
vn -0.8067 0.4591 0.3721
vn -0.7071 0.6199 0.3400
vn -0.8719 0.2964 0.3897
vn -0.8066 0.4592 0.3721
vn -0.8363 0.1038 0.5383
vn -0.8066 0.4591 0.3722
vn -0.6154 -0.5884 0.5246
vn -0.8364 0.1037 0.5383
vn -0.6496 0.4160 0.6363
vn -0.8066 0.4592 0.3722
vn -0.7277 -0.0858 0.6805
vn -0.8363 0.1037 0.5383
vn -0.6855 0.1229 0.7176
vn -0.6496 0.4160 0.6364
vn -0.5515 -0.4188 0.7214
vn -0.6855 0.1230 0.7176
vn -0.4911 -0.4923 0.7186
vn -0.5516 -0.4188 0.7214
vn -0.4169 -0.3827 0.8245
vn -0.6854 0.1230 0.7177
vn -0.4911 -0.4924 0.7186
vn -0.6153 -0.5883 0.5246
vn -0.4732 0.2917 0.8312
vn -0.6855 0.1229 0.7177
vn -0.4169 -0.3826 0.8245
vn -0.4733 0.2917 0.8312
vn -0.0806 -0.4400 0.8943
vn -0.4733 0.2918 0.8312
vn -0.1962 -0.5136 0.8353
vn -0.1963 -0.5135 0.8353
vn -0.1304 -0.1056 0.9858
vn -0.0031 -0.0949 0.9955
vn -0.1303 -0.1056 0.9858
vn -0.1962 -0.5135 0.8353
vn -0.0682 0.0083 0.9976
vn -0.0017 0.0129 0.9999
vn -0.0682 0.0082 0.9976
vn 0.0687 0.0086 0.9976
vn -0.0016 0.0129 0.9999
vn 0.1278 -0.1118 0.9855
vn 0.0688 0.0085 0.9976
vn 0.0030 -0.5382 0.8428
vn 0.0030 -0.5381 0.8428
vn 0.0033 -0.8825 0.4702
vn 0.0029 -0.5382 0.8428
vn 0.1984 -0.5149 0.8340
vn 0.1984 -0.5149 0.8339
vn 0.1985 -0.5150 0.8339
vn 0.5070 -0.4917 0.7080
vn 0.1985 -0.5149 0.8339
vn 0.3174 -0.8281 0.4621
vn 0.0033 -0.8826 0.4702
vn 0.5070 -0.4917 0.7079
vn 0.6257 -0.5644 0.5386
vn 0.6257 -0.5643 0.5386
vn 0.5694 -0.4065 0.7145
vn 0.5353 -0.7691 0.3492
vn 0.3155 -0.9072 0.2785
vn 0.5352 -0.7692 0.3492
vn 0.5353 -0.7692 0.3491
vn 0.3155 -0.9072 0.2784
vn 0.2641 -0.9627 0.0595
vn 0.5595 -0.8288 -0.0124
vn 0.2641 -0.9627 0.0594
vn 0.4843 -0.8176 -0.3113
vn 0.6257 -0.5643 0.5385
vn 0.8858 -0.2084 0.4145
vn 0.8858 -0.2085 0.4145
vn 0.5595 -0.8287 -0.0124
vn 0.4844 -0.8176 -0.3114
vn 0.6859 -0.1956 -0.7010
vn 0.9551 -0.1797 -0.2356
vn 0.6859 -0.1956 -0.7009
vn 0.8859 -0.2084 0.4145
vn 0.9013 0.4176 -0.1150
vn 0.6859 -0.1957 -0.7009
vn 0.6578 -0.0930 -0.7474
vn 0.4492 -0.7047 -0.5492
vn 0.7470 0.2666 -0.6090
vn 0.6578 -0.0931 -0.7474
vn 0.7470 0.2665 -0.6091
vn 0.6579 -0.0930 -0.7474
vn 0.6779 0.2657 -0.6855
vn 0.8716 0.3087 0.3808
vn 0.8858 -0.2084 0.4146
vn 0.6257 -0.5644 0.5385
vn 0.8844 0.4422 -0.1495
vn 0.8844 0.4422 -0.1494
vn 0.7652 0.6373 -0.0909
vn 0.6778 0.2658 -0.6855
vn 0.6539 0.4670 -0.5952
vn 0.7652 0.6374 -0.0909
vn 0.8068 0.4655 0.3638
vn 0.8068 0.4655 0.3639
vn 0.8716 0.3088 0.3808
vn 0.7100 0.6200 0.3338
vn 0.7652 0.6374 -0.0908
vn 0.8369 0.1112 0.5360
vn 0.8368 0.1113 0.5360
vn 0.6364 0.4258 0.6431
vn 0.7100 0.6200 0.3339
vn 0.6364 0.4259 0.6431
vn 0.8368 0.1112 0.5361
vn 0.7287 -0.0824 0.6798
vn 0.8368 0.1112 0.5360
vn 0.5694 -0.4066 0.7145
vn 0.7287 -0.0824 0.6799
vn 0.6797 0.1297 0.7219
vn 0.6797 0.1298 0.7219
vn 0.4350 -0.3963 0.8085
vn 0.5694 -0.4066 0.7144
vn 0.4600 0.2877 0.8400
vn 0.4349 -0.3963 0.8086
vn 0.6364 0.4258 0.6432
vn 0.0954 -0.4506 0.8876
vn 0.4601 0.2876 0.8400
vn 0.0829 0.1135 0.9901
vn 0.0954 -0.4505 0.8877
vn 0.0830 0.1136 0.9901
vn -0.1469 -0.5247 0.8385
vn -0.3484 -0.5769 0.7388
vn -0.1470 -0.5247 0.8385
vn 0.0829 0.1136 0.9901
vn 0.0041 0.1743 0.9847
vn -0.0302 -0.6150 0.7880
vn -0.3484 -0.5768 0.7389
vn -0.0301 -0.6150 0.7880
vn 0.0041 0.1744 0.9847
vn 0.3278 -0.6035 0.7269
vn 0.3454 0.4531 0.8218
vn 0.4600 0.2877 0.8401
vn 0.6364 0.4259 0.6432
vn 0.3454 0.4532 0.8218
vn 0.0042 0.1744 0.9847
vn -0.0901 0.1266 0.9879
vn 0.3279 -0.6035 0.7268
vn 0.1740 -0.5214 0.8354
vn -0.0902 0.1266 0.9878
vn -0.0901 0.1266 0.9878
vn -0.0806 -0.4401 0.8943
vn -0.4732 0.2918 0.8312
vn -0.0806 -0.4400 0.8944
vn -0.4732 0.2917 0.8313
vn -0.3546 0.4601 0.8140
vn 0.3867 0.5820 0.7153
vn 0.3866 0.5821 0.7154
vn 0.0074 0.4255 0.9049
vn 0.0073 0.4255 0.9049
vn -0.0006 0.6643 0.7474
vn 0.0073 0.4256 0.9049
vn -0.3545 0.4601 0.8140
vn -0.3952 0.5808 0.7117
vn -0.3545 0.4602 0.8140
vn -0.3951 0.5808 0.7117
vn -0.7071 0.6200 0.3401
vn -0.3004 0.7319 0.6116
vn -0.0006 0.6644 0.7474
vn -0.0005 0.6644 0.7474
vn -0.0038 0.7633 0.6460
vn 0.7100 0.6201 0.3339
vn 0.2969 0.7315 0.6138
vn 0.3866 0.5821 0.7153
vn -0.0037 0.7633 0.6460
vn -0.3004 0.7320 0.6115
vn -0.0038 0.7634 0.6459
vn -0.4294 0.8656 0.2577
vn -0.3004 0.7319 0.6115
vn -0.4295 0.8655 0.2577
vn -0.0038 0.7634 0.6460
vn 0.2969 0.7316 0.6138
vn -0.0038 0.9474 0.3201
vn 0.7100 0.6201 0.3338
vn 0.4284 0.8670 0.2546
vn 0.4283 0.8670 0.2546
vn -0.0038 0.9474 0.3200
vn 0.4283 0.8670 0.2545
vn -0.0019 0.9855 -0.1697
vn 0.4284 0.8670 0.2545
vn 0.4647 0.8725 -0.1509
vn 0.6539 0.4671 -0.5952
vn 0.4092 0.5923 -0.6941
vn -0.4294 0.8656 0.2576
vn -0.0039 0.9474 0.3200
vn -0.4654 0.8724 -0.1496
vn -0.4295 0.8656 0.2577
vn -0.7071 0.6200 0.3400
vn -0.4295 0.8656 0.2576
vn -0.7633 0.6396 -0.0906
vn -0.7633 0.6396 -0.0907
vn -0.4093 0.5920 -0.6943
vn -0.6529 0.4675 -0.5959
vn 0.3991 0.2809 -0.8728
vn 0.4091 0.5922 -0.6942
vn 0.6778 0.2657 -0.6855
vn 0.6539 0.4670 -0.5953
vn -0.0003 0.6258 -0.7800
vn 0.3990 0.2810 -0.8728
vn -0.0019 0.9855 -0.1698
vn -0.0001 0.3400 -0.9404
vn 0.4192 -0.1158 -0.9005
vn -0.0000 0.3399 -0.9405
vn 0.3990 0.2809 -0.8729
vn 0.4191 -0.1158 -0.9005
vn -0.0000 -0.1442 -0.9895
vn 0.2444 -0.7504 -0.6141
vn -0.0000 -0.1443 -0.9895
vn 0.2445 -0.7504 -0.6141
vn -0.0002 -0.7957 -0.6056
vn -0.6529 0.4675 -0.5960
vn -0.4093 0.5919 -0.6944
vn -0.3991 0.2811 -0.8728
vn -0.3991 0.2810 -0.8728
vn -0.4217 -0.1299 -0.8974
vn -0.6488 -0.1131 -0.7525
vn -0.4224 -0.7227 -0.5471
vn -0.2544 -0.7319 -0.6321
vn -0.4225 -0.7227 -0.5471
vn -0.2543 -0.7319 -0.6322
vn -0.3990 0.2810 -0.8728
vn -0.0001 0.3399 -0.9405
vn -0.4092 0.5919 -0.6944
vn -0.4092 0.5920 -0.6943
vn -0.0003 0.6258 -0.7799
vn -0.0002 -0.7958 -0.6056
vn 0.2444 -0.7505 -0.6141
vn 0.1506 -0.9728 -0.1760
vn 0.2444 -0.7505 -0.6140
vn 0.0005 -0.9981 0.0611
vn 0.1506 -0.9728 -0.1759
vn 0.4492 -0.7048 -0.5491
vn 0.4843 -0.8176 -0.3114
vn 0.2640 -0.9627 0.0594
vn 0.3154 -0.9072 0.2785
vn 0.0023 -0.9796 0.2009
vn 0.2640 -0.9627 0.0595
vn 0.0022 -0.9796 0.2008
vn 0.0034 -0.8826 0.4701
vn 0.0022 -0.9796 0.2009
vn 0.0034 -0.8826 0.4702
vn 0.0004 -0.9981 0.0611
vn -0.1188 -0.9794 -0.1630
vn -0.1189 -0.9794 -0.1629
vn -0.2543 -0.7320 -0.6321
vn -0.1189 -0.9794 -0.1630
vn -0.4224 -0.7227 -0.5470
vn -0.2544 -0.7320 -0.6321
vt 0.022055 0.881491
vt 0.499211 0.994397
vt -0.500003 0.721187
vt 0.981210 0.881501
vt 1.413698 0.707486
vt 0.017114 0.106396
vt -0.232915 0.079012
vt -0.499996 0.059020
vt 0.992642 0.529831
vt 0.992642 0.454091
vt 0.998187 0.459108
vt 0.991558 0.296225
vt 0.997842 0.296225
vt 1.004691 0.297759
vt 1.003692 0.444463
vt 1.009035 0.290914
vt 1.007010 0.421819
vt 1.015123 0.402924
vt 1.003798 0.539624
vt 1.007801 0.528959
vt 1.014500 0.464197
vt 1.007405 0.580082
vt 1.003403 0.608147
vt 1.000115 0.643048
vt 0.998187 0.541100
vt 0.997081 0.608133
vt 1.000115 0.608422
vt 0.992895 0.580082
vt 0.985520 0.464197
vt 0.984704 0.404579
vt 0.984706 0.404243
vt 1.015121 0.403924
vt 1.006995 0.420744
vt 1.009014 0.284779
vt 1.003798 0.459108
vt 1.004783 0.301932
vt -0.078224 0.172985
vt -0.205367 0.250121
vt -0.206557 0.177008
vt -0.039191 0.256408
vt 0.011087 0.198369
vt 0.123074 0.219747
vt 0.171683 0.121671
vt 0.288548 0.188474
vt 0.181592 0.288604
vt 0.071220 0.303357
vt 0.010509 0.255377
vt 0.010374 0.364280
vt -0.037333 0.364322
vt 0.010513 0.491367
vt -0.238559 0.479303
vt -0.237896 0.646691
vt 0.012185 0.717848
vt 0.129159 0.682407
vt 0.087756 0.400319
vt 0.154256 0.486225
vt 0.189177 0.378453
vt 0.237479 0.455703
vt 0.239340 0.355486
vt 0.282250 0.373239
vt 0.276588 0.341477
vt 0.353484 0.253360
vt 0.302134 0.348281
vt 0.346211 0.395003
vt 0.350146 0.338167
vt 0.396870 0.258971
vt 0.397893 0.417785
vt 0.500000 0.365006
vt 0.443984 0.450881
vt 0.500000 0.490532
vt 0.554437 0.450881
vt 0.600539 0.417785
vt 0.500000 0.257489
vt 0.499769 0.167979
vt 0.601561 0.258972
vt 0.644883 0.250369
vt 0.684244 0.185016
vt 0.816356 0.294663
vt 0.723856 0.342181
vt 0.872219 0.220702
vt 0.828643 0.122280
vt 0.986139 0.106627
vt 0.992157 0.198604
vt 1.062190 0.178052
vt 0.930477 0.303311
vt 1.046034 0.256326
vt 0.992735 0.255572
vt 0.992873 0.364362
vt 1.210643 0.249697
vt 1.227080 0.196377
vt 1.044196 0.364343
vt 1.243203 0.479367
vt 0.913447 0.400118
vt 0.992735 0.491417
vt 0.991067 0.717895
vt 1.242543 0.646887
vt 0.838998 0.484181
vt 0.871487 0.682302
vt 0.812146 0.382723
vt 0.769085 0.453347
vt 0.759487 0.358239
vt 0.716557 0.374384
vt 0.697979 0.347721
vt 0.653789 0.395003
vt 0.649854 0.338167
vt 0.580647 0.412270
vt 0.600539 0.284357
vt 0.554437 0.243821
vt 0.500000 0.424951
vt 0.500000 0.226148
vt 0.445563 0.243821
vt 0.582340 0.545352
vt 0.419353 0.412270
vt 0.399461 0.284357
vt 0.417660 0.545352
vt 0.617925 0.657169
vt 0.500000 0.568842
vt 0.500000 0.670515
vt 0.380873 0.657169
vt 0.331125 0.781981
vt 0.499873 0.800940
vt 0.667918 0.781983
vt 0.223186 0.869820
vt 0.499203 0.880493
vt 0.775245 0.869825
vt -0.410961 0.707338
vt 1.441309 0.489253
vt 1.500002 0.721251
vt 1.500002 0.492336
vt 1.441309 0.255146
vt 1.500002 0.253681
vt 1.402070 0.183894
vt 1.529413 0.166886
vt -0.438878 0.489186
vt -0.438866 0.255248
vt -0.396351 0.183970
vt -0.529389 0.166908
vt -0.499999 0.253822
vt -0.500003 0.492267
vt 1.499998 0.059057
vt 1.237630 0.079188
vt 0.499215 0.011010
vt 0.499204 0.064378
s 0
usemtl body
f 3/1/1 2/2/2 1/3/3
f 6/2/4 5/4/5 4/5/6
f 9/6/7 8/7/8 7/8/9
f 12/9/10 11/10/11 10/11/12
f 11/10/11 13/12/13 10/11/12
f 13/12/14 14/13/15 10/11/16
f 14/13/17 15/14/18 10/11/12
f 15/14/18 16/15/19 10/11/12
f 16/15/20 15/14/21 17/16/22
f 18/17/23 16/15/20 17/16/22
f 18/17/24 17/16/25 19/18/26
f 16/15/27 20/19/28 10/11/12
f 16/15/20 18/17/29 20/19/30
f 21/20/31 18/17/24 19/18/32
f 18/17/33 21/20/31 20/19/28
f 22/21/34 21/20/31 19/18/32
f 22/21/35 23/22/36 21/20/31
f 21/20/31 24/23/37 20/19/28
f 23/22/36 25/23/38 21/20/31
f 25/23/37 23/22/36 26/24/39
f 20/19/28 27/25/40 10/11/12
f 27/25/40 28/9/41 10/11/12
f 29/26/42 28/9/10 27/25/40
f 20/19/28 30/27/43 27/25/40
f 32/27/43 31/26/44 27/25/40
f 31/26/42 32/27/43 33/24/45
f 35/23/46 34/27/47 20/19/28
f 35/23/37 36/24/48 34/27/47
f 38/26/49 26/24/50 37/28/36
f 39/9/10 38/26/51 37/28/36
f 40/29/52 39/9/10 37/28/36
f 40/29/52 41/30/53 39/9/10
f 41/30/53 42/10/54 39/9/41
f 42/10/11 41/30/53 43/12/13
f 46/31/55 45/10/56 44/12/57
f 45/10/56 46/31/55 47/9/58
f 46/31/55 48/29/59 47/9/60
f 47/9/60 48/29/61 49/28/62
f 50/26/63 47/9/58 49/28/62
f 51/24/64 50/26/65 49/28/62
f 53/22/62 52/23/66 51/24/67
f 52/23/66 53/22/68 54/20/69
f 53/22/70 55/21/61 54/20/69
f 54/20/69 55/21/61 56/32/71
f 57/33/72 54/20/69 56/32/71
f 58/34/73 57/33/74 56/32/75
f 54/20/76 57/33/72 59/19/77
f 60/23/78 54/20/69 59/19/77
f 61/35/79 57/33/74 58/34/80
f 57/33/81 61/35/82 59/19/83
f 59/19/83 61/35/82 62/11/84
f 63/36/85 61/35/79 58/34/86
f 61/35/79 63/36/85 62/11/87
f 63/36/85 64/13/88 62/11/84
f 64/13/89 65/12/90 62/11/87
f 65/12/90 66/10/56 62/11/87
f 66/10/56 67/9/60 62/11/84
f 68/25/91 59/19/77 62/11/84
f 69/9/92 68/25/91 62/11/84
f 69/9/92 70/26/93 68/25/94
f 71/27/95 59/19/77 68/25/91
f 73/26/96 72/27/95 68/25/94
f 72/27/97 73/26/96 74/24/98
f 76/27/99 75/23/100 59/19/83
f 77/24/101 75/23/100 76/27/102
f 80/37/103 79/38/104 78/39/105
f 80/37/103 81/40/106 79/38/104
f 82/41/107 81/40/108 80/37/103
f 83/6/109 82/41/110 80/37/111
f 84/42/112 82/41/110 83/6/109
f 85/43/113 84/42/114 83/6/109
f 85/43/115 86/44/116 84/42/112
f 86/44/117 87/45/118 84/42/119
f 84/42/119 88/46/120 82/41/107
f 87/45/121 88/46/120 84/42/119
f 82/41/107 89/47/122 81/40/123
f 88/46/124 89/47/122 82/41/107
f 89/47/125 90/48/126 81/40/108
f 88/46/124 90/48/126 89/47/125
f 81/40/106 91/49/127 79/38/104
f 90/48/126 91/49/128 81/40/108
f 91/49/127 92/50/129 79/38/104
f 90/48/126 92/50/130 91/49/128
f 92/50/131 93/51/132 79/38/104
f 93/51/133 92/50/131 94/52/134
f 92/50/130 95/53/135 94/52/134
f 96/54/136 95/53/137 92/50/138
f 88/46/124 97/55/139 90/48/140
f 97/55/141 92/50/138 90/48/140
f 87/45/142 97/55/139 88/46/120
f 98/56/143 96/54/144 92/50/138
f 97/55/145 98/56/146 92/50/138
f 97/55/145 99/57/147 98/56/148
f 87/45/149 99/57/150 97/55/139
f 99/57/147 100/58/151 98/56/152
f 98/56/152 100/58/151 101/54/144
f 87/45/149 102/59/153 99/57/154
f 102/59/153 103/60/155 99/57/154
f 103/60/155 100/58/156 99/57/147
f 87/45/118 104/61/157 102/59/153
f 102/59/153 104/61/157 103/60/158
f 87/45/121 105/62/159 104/61/160
f 106/63/161 103/60/162 104/61/160
f 86/44/117 105/62/163 87/45/164
f 107/64/165 103/60/166 106/63/167
f 103/60/162 107/64/168 100/58/156
f 108/65/169 107/64/170 106/63/167
f 86/44/117 109/66/171 105/62/163
f 105/62/159 109/66/172 110/67/173
f 111/68/174 110/67/175 109/66/176
f 110/67/175 111/68/174 112/69/177
f 111/68/174 113/70/178 112/69/179
f 114/71/180 113/70/181 111/68/174
f 115/72/182 114/71/183 111/68/174
f 116/73/184 109/66/171 86/44/117
f 116/73/185 111/68/174 109/66/171
f 117/74/186 116/73/187 86/44/117
f 118/75/188 115/72/182 111/68/174
f 116/73/184 118/75/189 111/68/174
f 118/75/190 116/73/184 117/74/186
f 119/76/191 115/72/182 118/75/192
f 120/77/193 118/75/190 117/74/194
f 119/76/195 118/75/190 120/77/193
f 120/77/193 121/78/196 119/76/195
f 119/76/195 121/78/197 122/79/198
f 121/78/196 120/77/193 123/80/199
f 120/77/193 124/81/200 123/80/201
f 123/80/202 124/81/203 125/82/204
f 126/83/205 123/80/201 125/82/204
f 126/83/205 125/82/206 127/84/207
f 121/78/208 123/80/199 128/85/209
f 128/85/210 123/80/199 126/83/211
f 126/83/211 127/84/212 129/86/213
f 128/85/209 126/83/211 130/87/214
f 130/87/214 126/83/211 129/86/215
f 128/85/216 130/87/214 131/88/217
f 131/88/217 130/87/214 129/86/218
f 129/86/218 127/84/212 132/89/219
f 127/84/212 133/90/220 132/89/219
f 134/91/221 129/86/218 132/89/222
f 131/88/217 129/86/218 134/91/221
f 134/91/223 132/89/224 135/92/225
f 136/93/226 128/85/227 131/88/217
f 121/78/228 128/85/216 136/93/226
f 137/94/229 131/88/217 134/91/221
f 137/94/229 134/91/221 135/92/225
f 136/93/226 131/88/217 137/94/230
f 138/95/231 137/94/229 135/92/232
f 139/96/233 138/95/234 135/92/225
f 140/97/235 137/94/229 138/95/234
f 140/97/236 136/93/237 137/94/229
f 141/98/238 140/97/235 138/95/239
f 142/99/240 121/78/196 136/93/226
f 142/99/241 136/93/226 140/97/236
f 143/100/242 140/97/236 141/98/243
f 143/100/244 142/99/245 140/97/236
f 144/101/246 121/78/197 142/99/247
f 122/79/248 121/78/197 144/101/249
f 145/102/250 144/101/249 142/99/245
f 122/79/248 144/101/246 145/102/251
f 143/100/242 145/102/251 142/99/245
f 145/102/251 146/103/252 122/79/253
f 145/102/250 147/104/254 146/103/255
f 145/102/251 143/100/256 147/104/254
f 147/104/254 148/105/257 146/103/255
f 147/104/258 149/106/259 148/105/260
f 149/106/261 150/107/262 148/105/257
f 151/108/263 150/107/264 149/106/265
f 149/106/265 152/109/266 151/108/263
f 152/109/266 153/110/267 151/108/268
f 153/110/269 152/109/270 154/111/271
f 155/112/272 149/106/261 147/104/273
f 143/100/274 155/112/275 147/104/254
f 149/106/265 155/112/272 152/109/276
f 152/109/266 156/113/277 154/111/278
f 157/114/279 154/111/278 156/113/280
f 157/114/279 156/113/281 108/65/282
f 156/113/277 107/64/283 108/65/284
f 107/64/285 156/113/281 158/115/286
f 158/115/286 156/113/281 152/109/266
f 107/64/283 158/115/286 100/58/156
f 155/112/275 143/100/274 159/116/287
f 143/100/274 141/98/243 159/116/288
f 155/112/272 160/117/289 152/109/266
f 160/117/290 158/115/286 152/109/266
f 155/112/275 161/118/291 160/117/292
f 161/118/291 158/115/293 160/117/290
f 161/118/291 155/112/275 159/116/288
f 100/58/156 158/115/286 162/119/294
f 158/115/295 161/118/291 162/119/296
f 163/54/297 100/58/156 162/119/294
f 164/120/298 163/54/297 162/119/294
f 162/119/296 161/118/299 164/120/298
f 161/118/300 159/116/288 165/121/301
f 161/118/291 165/121/301 164/120/298
f 141/98/302 166/122/303 159/116/304
f 159/116/288 166/122/303 165/121/305
f 164/120/306 165/121/307 167/123/308
f 164/120/309 167/123/310 101/54/297
f 165/121/311 166/122/312 168/124/313
f 165/121/311 168/124/313 167/123/308
f 166/122/303 141/98/314 169/125/315
f 166/122/303 169/125/316 168/124/317
f 168/124/317 169/125/318 170/2/319
f 169/125/320 141/98/314 171/4/321
f 169/125/318 171/4/321 172/2/4
f 141/98/314 173/95/234 171/4/5
f 171/4/5 173/95/234 174/96/322
f 175/5/323 171/4/5 174/96/322
f 167/123/324 168/124/325 176/1/326
f 168/124/325 177/2/319 176/1/326
f 167/123/327 176/1/326 178/53/137
f 96/54/328 167/123/329 178/53/330
f 178/53/331 176/1/326 179/126/332
f 180/52/333 178/53/331 179/126/332
f 181/127/334 175/5/335 174/96/233
f 182/92/336 181/127/334 174/96/337
f 183/128/338 175/5/335 181/127/339
f 183/128/338 184/2/340 175/5/6
f 185/129/341 183/128/338 181/127/339
f 186/130/342 181/127/334 182/92/336
f 185/129/343 181/127/344 186/130/345
f 187/89/219 186/130/342 182/92/336
f 188/131/346 185/129/343 186/130/345
f 189/132/347 186/130/345 187/89/219
f 188/131/348 186/130/342 189/132/347
f 190/90/220 189/132/349 187/89/224
f 191/133/350 188/131/348 189/132/347
f 180/52/351 179/126/352 192/134/353
f 193/51/133 180/52/333 192/134/353
f 193/51/132 192/134/354 194/135/355
f 195/38/356 193/51/132 194/135/355
f 196/39/357 195/38/104 194/135/355
f 197/136/358 196/39/359 194/135/355
f 197/136/360 194/135/355 198/137/350
f 194/135/355 199/138/348 198/137/350
f 194/135/355 192/134/354 199/138/346
f 192/134/361 200/139/362 199/138/346
f 192/134/353 179/126/363 200/139/341
f 179/126/364 201/3/338 200/139/341
f 179/126/364 202/1/326 201/3/365
f 205/140/9 204/133/366 203/132/367
f 206/141/368 205/140/9 203/132/369
f 207/142/370 205/140/9 206/141/371
f 206/141/368 203/132/367 208/90/372
f 209/84/373 206/141/368 208/90/372
f 210/82/206 206/141/371 209/84/207
f 210/82/374 211/142/370 206/141/371
f 213/81/375 212/143/376 210/82/377
f 215/143/378 214/142/370 210/82/377
f 216/74/379 215/143/380 213/81/375
f 217/77/193 216/74/381 213/81/375
f 216/74/194 218/44/116 215/143/380
f 218/44/116 219/43/113 215/143/380
f 215/143/378 219/43/113 220/142/382
f 219/43/113 222/6/7 221/142/382
f 224/142/382 222/6/7 223/8/9
f 223/8/9 226/7/383 225/137/366
f 222/6/109 227/37/111 226/7/384
f 226/7/383 228/136/385 225/137/366
f 226/7/386 227/37/103 229/39/387
f 226/7/383 229/39/387 228/136/388
