# Blender 4.1.0
# www.blender.org
mtllib slime_saber.mtl
o slime_saber
v 0.226583 0.342123 0.441287
v 0.198472 0.266944 0.459422
v 0.231226 0.319649 0.460464
v -0.226583 0.342123 0.441287
v -0.231226 0.319649 0.460464
v -0.198472 0.266944 0.459422
v 0.282573 0.472944 0.412026
v 0.183236 0.382715 0.428233
v 0.250639 0.397161 0.428446
v 0.181680 0.345031 0.440780
v 0.226583 0.342123 0.441287
v 0.181040 0.285223 0.453428
v 0.198472 0.266944 0.459422
v 0.181961 0.237693 0.460382
v 0.250766 0.354233 0.454260
v 0.231226 0.319649 0.460464
v 0.269565 0.405521 0.440592
v 0.282573 0.472944 0.412026
v 0.231624 0.316866 0.481200
v 0.198472 0.266944 0.459422
v 0.247664 0.359061 0.481551
v 0.262003 0.421118 0.475776
v 0.229478 0.440226 0.507452
v 0.282573 0.472944 0.412026
v 0.271596 0.495041 0.448087
v 0.240820 0.517361 0.480780
v 0.172016 0.544102 0.492907
v 0.168205 0.456506 0.509886
v 0.130742 0.553005 0.477796
v 0.204756 0.314547 0.502305
v 0.191753 0.267239 0.481205
v 0.176825 0.319925 0.503619
v 0.218088 0.365077 0.512569
v 0.171252 0.369979 0.512838
v 0.147644 0.371625 0.493184
v 0.157990 0.325962 0.487950
v 0.171374 0.271283 0.471166
v 0.140030 0.450656 0.493812
v 0.130742 0.553005 0.477796
v 0.152738 0.353652 0.471348
v 0.181040 0.285223 0.453428
v 0.171374 0.271283 0.471166
v 0.181680 0.345031 0.440780
v 0.183236 0.382715 0.428233
v 0.142466 0.436111 0.476582
v 0.130742 0.553005 0.477796
v 0.191753 0.267239 0.481205
v 0.171374 0.271283 0.471166
v 0.181961 0.237693 0.460382
v 0.191753 0.267239 0.481205
v 0.198472 0.266944 0.459422
v 0.181961 0.237693 0.460382
v -0.282573 0.472944 0.412026
v -0.250639 0.397161 0.428446
v -0.183236 0.382715 0.428232
v -0.181680 0.345031 0.440780
v -0.226583 0.342123 0.441287
v -0.181040 0.285223 0.453428
v -0.198472 0.266944 0.459422
v -0.181961 0.237693 0.460382
v -0.250766 0.354233 0.454260
v -0.231226 0.319649 0.460464
v -0.269565 0.405521 0.440592
v -0.282573 0.472944 0.412026
v -0.231624 0.316866 0.481200
v -0.198472 0.266944 0.459422
v -0.247664 0.359061 0.481551
v -0.262003 0.421118 0.475776
v -0.229478 0.440226 0.507452
v -0.282573 0.472944 0.412026
v -0.271596 0.495041 0.448087
v -0.240821 0.517361 0.480780
v -0.172016 0.544102 0.492907
v -0.168205 0.456506 0.509886
v -0.130742 0.553005 0.477795
v -0.204756 0.314547 0.502305
v -0.191753 0.267239 0.481205
v -0.176825 0.319925 0.503619
v -0.218088 0.365077 0.512569
v -0.171252 0.369979 0.512838
v -0.147644 0.371625 0.493184
v -0.157990 0.325962 0.487950
v -0.171374 0.271283 0.471166
v -0.140030 0.450656 0.493812
v -0.130742 0.553005 0.477795
v -0.152738 0.353652 0.471348
v -0.181040 0.285223 0.453428
v -0.171374 0.271283 0.471166
v -0.181680 0.345031 0.440780
v -0.183236 0.382715 0.428232
v -0.142466 0.436111 0.476582
v -0.130742 0.553005 0.477795
v -0.171374 0.271283 0.471166
v -0.191753 0.267239 0.481205
v -0.181961 0.237693 0.460382
v -0.191753 0.267239 0.481205
v -0.181961 0.237693 0.460382
v -0.198472 0.266944 0.459422
v -0.133654 0.953687 -0.133654
v -0.000000 0.973523 -0.136851
v -0.000000 0.987852 0.000000
v -0.127764 0.904753 -0.247360
v -0.000000 0.921536 -0.254486
v -0.124414 0.836150 -0.336150
v -0.000000 0.849247 -0.349247
v -0.000000 0.754486 -0.421536
v -0.127967 0.747753 -0.405394
v -0.000000 0.636851 -0.473523
v -0.223977 0.810092 -0.310091
v -0.133505 0.633505 -0.453181
v -0.000000 0.500000 -0.487852
v -0.232504 0.863201 -0.232503
v -0.232700 0.732700 -0.363509
v -0.136495 0.500000 -0.472291
v -0.000000 0.363149 -0.473523
v -0.282438 0.782438 -0.282438
v -0.245842 0.626980 -0.402269
v -0.133506 0.366495 -0.453181
v -0.000000 0.245514 -0.421536
v -0.307885 0.722383 -0.307884
v -0.310092 0.810092 -0.224050
v -0.247360 0.904753 -0.127804
v -0.252778 0.500000 -0.418706
v -0.127967 0.252248 -0.405394
v -0.000000 0.150753 -0.349247
v -0.332991 0.623245 -0.332991
v -0.363509 0.732700 -0.232905
v -0.245842 0.373020 -0.402269
v -0.343211 0.501461 -0.349176
v -0.136851 0.973523 0.000000
v -0.000000 0.987852 0.000000
v -0.336150 0.836150 -0.125162
v -0.402051 0.628085 -0.247236
v -0.254486 0.921536 -0.000130
v -0.405448 0.747752 -0.132580
v -0.349247 0.849247 -0.001699
v -0.327247 0.376381 -0.348392
v -0.408226 0.514526 -0.299125
v -0.451404 0.661628 -0.156296
v -0.421690 0.755432 -0.008653
v -0.232700 0.267300 -0.363509
v -0.124414 0.163850 -0.336150
v -0.127764 0.095247 -0.247360
v -0.000000 0.078464 -0.254485
v -0.133655 0.046313 -0.133654
v -0.000000 0.026477 -0.136851
v -0.136851 0.026477 0.000000
v -0.000000 0.012148 0.000000
v -0.304343 0.275031 -0.315417
v -0.223977 0.189909 -0.310091
v -0.232504 0.136799 -0.232503
v -0.247360 0.095248 -0.127764
v -0.254486 0.078464 0.000000
v -0.381135 0.370658 -0.320209
v -0.475001 0.529022 -0.195517
v -0.466360 0.376748 -0.233312
v -0.473624 0.680242 -0.012499
v -0.541436 0.560210 -0.048280
v -0.325573 0.146398 -0.133472
v -0.334751 0.121334 0.003441
v -0.308189 0.187289 -0.227164
v -0.395255 0.229400 -0.169655
v -0.282065 0.217173 -0.283038
v -0.349603 0.253108 -0.271933
v -0.455077 0.210996 -0.034213
v -0.332165 0.156072 0.129398
v -0.420958 0.234244 0.136832
v -0.247360 0.095248 0.127764
v -0.133654 0.046313 0.133654
v -0.000000 0.012148 0.000000
v -0.310091 0.189909 0.223977
v -0.378263 0.263565 0.252307
v -0.424098 0.372007 0.286218
v -0.512613 0.376748 0.137059
v -0.232504 0.136799 0.232503
v -0.306556 0.277617 0.307884
v -0.327077 0.377045 0.332991
v -0.282438 0.217562 0.282438
v -0.127764 0.095248 0.247360
v -0.223977 0.189909 0.310092
v -0.231264 0.268941 0.363508
v -0.238692 0.379699 0.402156
v -0.000000 0.026477 0.136851
v -0.000000 0.012148 0.000000
v -0.124414 0.163850 0.336150
v -0.127905 0.253859 0.405394
v -0.183236 0.382715 0.428232
v -0.000000 0.078464 0.254486
v -0.307902 0.442422 0.392339
v -0.282573 0.472944 0.412026
v -0.358639 0.451448 0.367694
v -0.131252 0.373490 0.453026
v -0.130742 0.553005 0.477795
v -0.000000 0.500000 0.487852
v -0.070519 0.585695 0.481673
v -0.000000 0.630117 0.485104
v 0.070519 0.585695 0.481673
v 0.130742 0.553005 0.477796
v -0.000000 0.363150 0.473523
v 0.131252 0.373490 0.453027
v 0.183236 0.382715 0.428233
v -0.000000 0.245515 0.421536
v 0.127905 0.253859 0.405394
v -0.000000 0.150753 0.349247
v 0.231264 0.268941 0.363509
v 0.124414 0.163850 0.336150
v 0.127764 0.095248 0.247360
v 0.238692 0.379699 0.402156
v 0.282573 0.472944 0.412026
v 0.133654 0.046313 0.133654
v 0.327077 0.377045 0.332991
v 0.307902 0.442422 0.392339
v 0.238692 0.379699 0.402156
v 0.136851 0.026477 0.000000
v -0.000000 0.012148 0.000000
v 0.358639 0.451447 0.367694
v 0.424098 0.372007 0.286218
v 0.386591 0.512981 0.349040
v 0.306556 0.277617 0.307885
v 0.343713 0.479115 0.393196
v 0.223977 0.189909 0.310092
v 0.232503 0.136799 0.232504
v 0.247360 0.095247 0.127764
v 0.254486 0.078464 0.000000
v 0.324063 0.511986 0.425072
v 0.320110 0.557185 0.411896
v 0.291039 0.522577 0.450613
v 0.248802 0.592213 0.470254
v 0.271596 0.495041 0.448087
v 0.249859 0.537768 0.481748
v 0.240820 0.517361 0.480780
v 0.172016 0.544102 0.492907
v 0.189419 0.558784 0.502196
v 0.140273 0.574506 0.508243
v 0.130742 0.553005 0.477796
v 0.070519 0.585695 0.481673
v 0.154009 0.622659 0.501546
v 0.075251 0.604748 0.505688
v 0.326006 0.599028 0.377784
v 0.000000 0.646641 0.496398
v -0.000000 0.630117 0.485104
v -0.070519 0.585695 0.481673
v 0.000000 0.674146 0.504567
v -0.075251 0.604748 0.505688
v 0.082593 0.641702 0.508176
v -0.140273 0.574506 0.508243
v -0.130742 0.553005 0.477795
v -0.172016 0.544102 0.492907
v 0.187900 0.673884 0.461369
v 0.246212 0.648770 0.433833
v 0.128107 0.764210 0.412760
v 0.321414 0.725072 0.295275
v 0.238741 0.734253 0.371832
v 0.144845 0.688969 0.465861
v 0.069495 0.705356 0.470908
v 0.000000 0.776837 0.428705
v 0.000000 0.715082 0.478429
v 0.223977 0.810092 0.310091
v -0.082593 0.641702 0.508176
v 0.368843 0.606385 0.322754
v 0.414030 0.626980 0.248553
v 0.124414 0.836150 0.336150
v -0.069495 0.705356 0.470908
v -0.128107 0.764210 0.412760
v -0.154009 0.622659 0.501546
v -0.144845 0.688969 0.465861
v 0.442492 0.507782 0.279790
v -0.189419 0.558784 0.502196
v -0.248802 0.592213 0.470254
v -0.187900 0.673884 0.461369
v -0.249859 0.537768 0.481748
v -0.240821 0.517361 0.480780
v -0.271596 0.495041 0.448087
v -0.291039 0.522577 0.450613
v -0.246212 0.648770 0.433833
v -0.324063 0.511986 0.425072
v -0.320110 0.557185 0.411896
v -0.343713 0.479115 0.393196
v -0.386591 0.512981 0.349040
v -0.326006 0.599028 0.377784
v -0.442492 0.507782 0.279789
v -0.368843 0.606385 0.322754
v -0.321414 0.725072 0.295275
v -0.499630 0.528753 0.137362
v -0.414030 0.626980 0.248552
v -0.363508 0.732700 0.232555
v -0.238741 0.734253 0.371832
v -0.223977 0.810092 0.310091
v -0.452589 0.651342 0.129006
v -0.282438 0.782438 0.282438
v -0.310091 0.810091 0.223943
v -0.124414 0.836150 0.336150
v -0.405394 0.747752 0.123425
v -0.336150 0.836150 0.123755
v -0.232503 0.863201 0.232503
v -0.247360 0.904753 0.127741
v -0.590170 0.469026 -0.072581
v -0.127764 0.904752 0.247360
v -0.133654 0.953687 0.133654
v -0.000000 0.849247 0.349247
v -0.000000 0.921536 0.254486
v -0.000000 0.973523 0.136851
v -0.000000 0.987852 0.000000
v 0.127764 0.904753 0.247360
v 0.133654 0.953687 0.133654
v -0.000000 0.987852 0.000000
v 0.232503 0.863201 0.232504
v 0.282438 0.782438 0.282438
v 0.310092 0.810092 0.223943
v 0.247360 0.904753 0.127741
v 0.363509 0.732700 0.232556
v 0.336150 0.836150 0.123755
v 0.136851 0.973523 0.000000
v -0.000000 0.987852 0.000000
v 0.405394 0.747753 0.123425
v 0.254486 0.921536 -0.000130
v 0.452589 0.651342 0.129006
v 0.349247 0.849247 -0.001699
v 0.421690 0.755432 -0.008653
v 0.499630 0.528753 0.137362
v 0.473624 0.680242 -0.012499
v 0.133654 0.953687 -0.133654
v 0.247360 0.904753 -0.127804
v 0.336150 0.836150 -0.125162
v -0.000000 0.973523 -0.136851
v -0.000000 0.987852 0.000000
v -0.000000 0.921536 -0.254486
v 0.127764 0.904753 -0.247360
v -0.000000 0.849247 -0.349247
v 0.232503 0.863201 -0.232503
v 0.405448 0.747753 -0.132580
v 0.124414 0.836150 -0.336150
v 0.310092 0.810092 -0.224050
v 0.127966 0.747753 -0.405394
v -0.000000 0.754486 -0.421536
v 0.223977 0.810092 -0.310091
v 0.133505 0.633505 -0.453181
v -0.000000 0.636851 -0.473523
v 0.232700 0.732700 -0.363509
v 0.136495 0.500000 -0.472291
v -0.000000 0.500000 -0.487852
v 0.245842 0.626980 -0.402269
v 0.133505 0.366495 -0.453181
v -0.000000 0.363149 -0.473523
v 0.252778 0.500000 -0.418707
v 0.127966 0.252248 -0.405394
v -0.000000 0.245514 -0.421536
v 0.245842 0.373020 -0.402269
v 0.124414 0.163850 -0.336150
v -0.000000 0.150753 -0.349247
v -0.000000 0.078464 -0.254485
v 0.232700 0.267300 -0.363509
v 0.127764 0.095247 -0.247360
v -0.000000 0.026477 -0.136851
v 0.223977 0.189908 -0.310091
v 0.133654 0.046313 -0.133654
v -0.000000 0.012148 0.000000
v 0.232503 0.136799 -0.232503
v 0.282065 0.217172 -0.283038
v 0.304343 0.275031 -0.315417
v 0.308189 0.187289 -0.227164
v 0.247360 0.095247 -0.127764
v 0.327247 0.376381 -0.348392
v -0.000000 0.012148 0.000000
v 0.349603 0.253107 -0.271934
v 0.325573 0.146397 -0.133472
v 0.343211 0.501461 -0.349176
v 0.334750 0.121333 0.003441
v 0.381135 0.370658 -0.320209
v 0.395255 0.229399 -0.169655
v 0.466360 0.376748 -0.233312
v 0.332991 0.623245 -0.332990
v 0.408226 0.514526 -0.299125
v 0.307885 0.722383 -0.307884
v 0.475002 0.529022 -0.195517
v 0.402051 0.628085 -0.247236
v 0.282438 0.782438 -0.282438
v 0.363509 0.732700 -0.232905
v 0.451404 0.661628 -0.156296
v 0.541436 0.560210 -0.048280
v 0.512613 0.376748 0.137059
v 0.590171 0.469026 -0.072581
v 0.596685 0.402947 -0.034881
v 0.619487 0.414114 -0.091318
v 0.565127 0.404231 -0.130312
v 0.576835 0.344655 -0.075468
v 0.455076 0.210995 -0.034213
v 0.420958 0.234244 0.136832
v 0.378263 0.263564 0.252307
v 0.332165 0.156072 0.129398
v 0.310091 0.189909 0.223977
v 0.282438 0.217562 0.282438
v -0.596684 0.402947 -0.034881
v -0.576834 0.344656 -0.075468
v -0.565125 0.404231 -0.130312
v -0.619485 0.414114 -0.091317
vn 0.7332 -0.5048 -0.4556
vn 0.6958 -0.5214 -0.4940
vn 0.1963 -0.3162 -0.9282
vn -0.6958 -0.5215 -0.4940
vn -0.7332 -0.5048 -0.4556
vn -0.1963 -0.3162 -0.9282
vn 0.2384 -0.3142 -0.9190
vn -0.4825 -0.1852 -0.8561
vn 0.9928 -0.1083 0.0512
vn -0.4481 -0.1918 -0.8732
vn -0.4826 -0.1852 -0.8561
vn 0.2384 -0.3142 -0.9189
vn 0.2383 -0.3142 -0.9190
vn -0.3822 -0.3089 -0.8709
vn 0.6957 -0.5216 -0.4939
vn -0.3822 -0.3090 -0.8709
vn 0.6958 -0.5215 -0.4939
vn -0.2345 -0.9348 -0.2667
vn 0.1964 -0.3162 -0.9282
vn 0.9035 -0.3869 -0.1842
vn 0.9747 -0.2235 0.0073
vn 0.2384 -0.3141 -0.9189
vn 0.9928 -0.1084 0.0512
vn 0.7332 -0.5048 -0.4555
vn 0.7784 -0.4355 0.4521
vn 0.7785 -0.4354 0.4521
vn 0.9747 -0.2235 0.0072
vn 0.8104 -0.2096 0.5471
vn 0.8449 -0.0243 0.5343
vn 0.8105 -0.2096 0.5470
vn 0.8449 -0.0243 0.5344
vn 0.3871 0.1166 0.9146
vn 0.8557 0.0622 0.5137
vn 0.8450 -0.0242 0.5343
vn 0.8449 -0.0242 0.5344
vn 0.8557 0.0622 0.5138
vn 0.3872 0.1167 0.9146
vn 0.4122 0.2076 0.8871
vn 0.3871 0.1167 0.9146
vn -0.0924 0.2028 0.9748
vn -0.1020 0.1428 0.9845
vn -0.0924 0.2028 0.9749
vn -0.0925 0.2028 0.9748
vn -0.6427 0.1238 0.7561
vn -0.1021 0.1428 0.9845
vn 0.3158 -0.3157 0.8948
vn 0.7784 -0.4354 0.4521
vn 0.2193 -0.6811 0.6985
vn 0.7784 -0.4354 0.4522
vn 0.3157 -0.3157 0.8948
vn -0.3182 -0.2943 0.9012
vn 0.2193 -0.6811 0.6986
vn 0.3331 -0.0811 0.9394
vn -0.2177 -0.0458 0.9749
vn -0.2177 -0.0459 0.9749
vn -0.1020 0.1427 0.9845
vn -0.8459 -0.1090 0.5221
vn -0.9122 -0.3082 0.2701
vn -0.3183 -0.2942 0.9012
vn -0.9122 -0.3081 0.2701
vn -0.9031 -0.3709 0.2162
vn -0.6946 0.0307 0.7187
vn -0.8459 -0.1091 0.5221
vn -0.1021 0.1427 0.9845
vn -0.6426 0.1238 0.7561
vn -0.8554 -0.1258 -0.5024
vn -0.8555 -0.1258 -0.5023
vn -0.8458 -0.1090 0.5222
vn -0.6947 0.0307 0.7187
vn -0.8555 -0.1258 -0.5024
vn -0.9122 -0.3081 0.2702
vn -0.2346 -0.9348 -0.2668
vn -0.8821 -0.0892 -0.4626
vn -0.4826 -0.1853 -0.8560
vn -0.8821 -0.0892 -0.4625
vn -0.6427 0.1239 0.7561
vn -0.9032 -0.3709 0.2162
vn 0.2194 -0.6811 0.6985
vn -0.3183 -0.2943 0.9012
vn -0.9032 -0.3709 0.2161
vn -0.2347 -0.9348 -0.2666
vn -0.2346 -0.9348 -0.2667
vn 0.6958 -0.5215 -0.4940
vn 0.6957 -0.5215 -0.4940
vn 0.4825 -0.1853 -0.8561
vn -0.2384 -0.3142 -0.9190
vn -0.9928 -0.1083 0.0512
vn 0.4826 -0.1852 -0.8561
vn 0.4481 -0.1918 -0.8732
vn -0.1963 -0.3161 -0.9282
vn -0.2383 -0.3142 -0.9190
vn 0.3822 -0.3089 -0.8709
vn -0.6958 -0.5215 -0.4939
vn -0.6957 -0.5216 -0.4939
vn 0.3822 -0.3090 -0.8709
vn 0.2347 -0.9348 -0.2667
vn -0.2384 -0.3142 -0.9189
vn -0.1964 -0.3162 -0.9282
vn -0.9035 -0.3869 -0.1842
vn -0.1964 -0.3162 -0.9281
vn -0.9747 -0.2234 0.0072
vn -0.9747 -0.2235 0.0072
vn -0.7333 -0.5048 -0.4555
vn -0.7784 -0.4354 0.4521
vn -0.7332 -0.5048 -0.4555
vn -0.9747 -0.2235 0.0073
vn -0.8104 -0.2096 0.5471
vn -0.8104 -0.2096 0.5470
vn -0.7785 -0.4354 0.4521
vn -0.8449 -0.0243 0.5343
vn -0.8105 -0.2096 0.5470
vn -0.8449 -0.0242 0.5344
vn -0.3871 0.1166 0.9146
vn -0.8450 -0.0242 0.5343
vn -0.8557 0.0622 0.5137
vn -0.8557 0.0622 0.5138
vn -0.3872 0.1166 0.9146
vn -0.4122 0.2076 0.8871
vn -0.3871 0.1167 0.9146
vn 0.0924 0.2028 0.9748
vn 0.1020 0.1428 0.9845
vn 0.0924 0.2028 0.9749
vn 0.6427 0.1238 0.7561
vn 0.0925 0.2028 0.9748
vn 0.1021 0.1428 0.9845
vn -0.7784 -0.4354 0.4522
vn -0.3158 -0.3157 0.8948
vn -0.2193 -0.6811 0.6985
vn 0.3182 -0.2943 0.9012
vn -0.3157 -0.3157 0.8948
vn -0.3331 -0.0810 0.9394
vn -0.3331 -0.0811 0.9394
vn 0.2177 -0.0459 0.9749
vn 0.1020 0.1427 0.9845
vn 0.3182 -0.2942 0.9012
vn 0.8459 -0.1090 0.5221
vn 0.3183 -0.2942 0.9012
vn 0.9122 -0.3082 0.2701
vn 0.9031 -0.3710 0.2162
vn 0.9122 -0.3081 0.2701
vn 0.6946 0.0307 0.7187
vn 0.1021 0.1427 0.9845
vn 0.8555 -0.1258 -0.5024
vn 0.8458 -0.1091 0.5222
vn 0.8555 -0.1258 -0.5023
vn 0.6947 0.0306 0.7187
vn 0.8554 -0.1258 -0.5024
vn 0.9122 -0.3082 0.2702
vn 0.9031 -0.3709 0.2162
vn 0.2347 -0.9348 -0.2666
vn 0.4825 -0.1852 -0.8561
vn 0.8821 -0.0892 -0.4626
vn 0.8821 -0.0892 -0.4625
vn -0.2194 -0.6811 0.6985
vn 0.9032 -0.3710 0.2161
vn 0.9032 -0.3709 0.2161
vn 0.2346 -0.9348 -0.2666
vn -0.2193 -0.6812 0.6985
vn -0.6958 -0.5214 -0.4940
vn -0.2193 -0.6811 0.6986
vn -0.0000 1.0000 -0.0000
vn -0.0000 0.9660 -0.2585
vn -0.2569 0.9317 -0.2569
vn -0.2568 0.9317 -0.2570
vn -0.0000 0.9660 -0.2586
vn -0.2457 0.8379 -0.4874
vn -0.0000 0.8644 -0.5028
vn -0.2458 0.8379 -0.4874
vn -0.2457 0.8379 -0.4875
vn -0.2343 0.6889 -0.6859
vn -0.0000 0.7082 -0.7060
vn -0.0000 0.5017 -0.8650
vn -0.2484 0.4836 -0.8393
vn -0.2483 0.4836 -0.8393
vn -0.0000 0.5017 -0.8651
vn -0.0000 0.2551 -0.9669
vn -0.2344 0.6889 -0.6859
vn -0.4226 0.6410 -0.6407
vn -0.2650 0.2503 -0.9312
vn -0.2649 0.2502 -0.9312
vn -0.0000 0.2550 -0.9669
vn -0.0000 -0.0000 -1.0000
vn -0.2569 0.9317 -0.2570
vn -0.4493 0.7717 -0.4502
vn -0.4492 0.7717 -0.4502
vn -0.4641 0.4377 -0.7701
vn -0.4226 0.6410 -0.6408
vn -0.2693 -0.0000 -0.9631
vn -0.2649 0.2503 -0.9312
vn -0.0000 -0.2550 -0.9669
vn -0.5831 0.5650 -0.5838
vn -0.4999 0.2374 -0.8329
vn -0.2650 0.2502 -0.9312
vn -0.2693 -0.0000 -0.9630
vn -0.2649 -0.2502 -0.9312
vn -0.2692 -0.0000 -0.9631
vn -0.2649 -0.2503 -0.9312
vn -0.0000 -0.2551 -0.9669
vn -0.0001 -0.5017 -0.8651
vn -0.6464 0.3995 -0.6501
vn -0.6464 0.3994 -0.6501
vn -0.4641 0.4376 -0.7701
vn -0.6367 0.6427 -0.4261
vn -0.4867 0.8382 -0.2461
vn -0.2569 0.9316 -0.2570
vn -0.4493 0.7717 -0.4501
vn -0.5037 0.0094 -0.8639
vn -0.5037 0.0093 -0.8638
vn -0.2650 -0.2502 -0.9312
vn -0.2484 -0.4836 -0.8393
vn -0.0000 -0.5017 -0.8651
vn -0.2483 -0.4836 -0.8393
vn -0.0000 -0.5017 -0.8650
vn -0.0000 -0.7082 -0.7060
vn -0.6524 0.2599 -0.7119
vn -0.5037 0.0094 -0.8638
vn -0.7350 0.4640 -0.4944
vn -0.7351 0.4640 -0.4944
vn -0.4786 -0.2318 -0.8469
vn -0.5037 0.0093 -0.8639
vn -0.4786 -0.2319 -0.8469
vn -0.2650 -0.2503 -0.9312
vn -0.6095 0.0628 -0.7903
vn -0.4787 -0.2318 -0.8468
vn -0.2586 0.9660 -0.0000
vn -0.4866 0.8382 -0.2460
vn -0.2585 0.9660 -0.0000
vn -0.2568 0.9317 -0.2569
vn -0.6811 0.6928 -0.2370
vn -0.6367 0.6428 -0.4261
vn -0.7351 0.4640 -0.4943
vn -0.7523 0.3261 -0.5724
vn -0.7351 0.4639 -0.4944
vn -0.7524 0.3261 -0.5724
vn -0.6524 0.2598 -0.7119
vn -0.6096 0.0628 -0.7902
vn -0.5028 0.8644 0.0005
vn -0.4867 0.8382 -0.2460
vn -0.6811 0.6928 -0.2369
vn -0.7888 0.5516 -0.2712
vn -0.6811 0.6927 -0.2370
vn -0.7888 0.5515 -0.2712
vn -0.7351 0.4639 -0.4943
vn -0.7524 0.3261 -0.5723
vn -0.7049 0.7093 0.0021
vn -0.7888 0.5516 -0.2711
vn -0.5490 -0.2045 -0.8104
vn -0.7407 0.1333 -0.6585
vn -0.7523 0.3262 -0.5724
vn -0.7407 0.1332 -0.6585
vn -0.5491 -0.2044 -0.8104
vn -0.8559 0.3812 -0.3493
vn -0.8560 0.3812 -0.3493
vn -0.8212 0.5706 0.0053
vn -0.7889 0.5515 -0.2711
vn -0.4786 -0.2319 -0.8468
vn -0.4419 -0.4464 -0.7781
vn -0.4419 -0.4465 -0.7781
vn -0.2484 -0.4837 -0.8393
vn -0.2344 -0.6889 -0.6860
vn -0.2343 -0.6889 -0.6860
vn -0.2458 -0.8379 -0.4874
vn -0.2343 -0.6889 -0.6859
vn -0.0000 -0.7083 -0.7060
vn -0.0000 -0.8644 -0.5028
vn -0.2569 -0.9317 -0.2569
vn -0.0000 -0.9660 -0.2586
vn -0.2569 -0.9317 -0.2570
vn -0.0001 -0.8644 -0.5027
vn -0.2585 -0.9660 -0.0000
vn -0.0000 -0.9660 -0.2585
vn -0.0000 -1.0000 -0.0000
vn -0.5015 -0.4458 -0.7415
vn -0.4137 -0.6449 -0.6426
vn -0.2344 -0.6889 -0.6859
vn -0.5015 -0.4458 -0.7414
vn -0.4270 -0.7772 -0.4622
vn -0.4137 -0.6450 -0.6425
vn -0.2570 -0.9316 -0.2569
vn -0.4424 -0.8590 -0.2577
vn -0.4270 -0.7772 -0.4621
vn -0.2586 -0.9660 -0.0000
vn -0.4526 -0.8917 0.0040
vn -0.2570 -0.9317 -0.2569
vn -0.4424 -0.8590 -0.2576
vn -0.6354 -0.2320 -0.7365
vn -0.6354 -0.2319 -0.7366
vn -0.8515 0.1986 -0.4853
vn -0.7408 0.1332 -0.6584
vn -0.7213 -0.2860 -0.6308
vn -0.6354 -0.2319 -0.7365
vn -0.7407 0.1333 -0.6584
vn -0.8768 0.4808 0.0108
vn -0.8560 0.3812 -0.3492
vn -0.8767 0.4808 0.0108
vn -0.8212 0.5706 0.0052
vn -0.9054 0.4209 -0.0553
vn -0.7214 -0.2860 -0.6307
vn -0.5801 -0.7643 -0.2816
vn -0.4271 -0.7772 -0.4622
vn -0.4526 -0.8917 0.0039
vn -0.5642 -0.8254 0.0196
vn -0.4425 -0.8590 -0.2576
vn -0.5801 -0.7643 -0.2817
vn -0.5474 -0.7005 -0.4578
vn -0.5643 -0.8253 0.0196
vn -0.6701 -0.6222 -0.4048
vn -0.5802 -0.7643 -0.2816
vn -0.5802 -0.7643 -0.2817
vn -0.5475 -0.7005 -0.4578
vn -0.6701 -0.6221 -0.4049
vn -0.7213 -0.2861 -0.6308
vn -0.4989 -0.6107 -0.6149
vn -0.4137 -0.6450 -0.6426
vn -0.6224 -0.5385 -0.5681
vn -0.6224 -0.5385 -0.5680
vn -0.5014 -0.4458 -0.7415
vn -0.4989 -0.6107 -0.6150
vn -0.6701 -0.6221 -0.4048
vn -0.7232 -0.6888 -0.0501
vn -0.7213 -0.2861 -0.6307
vn -0.5714 -0.7627 0.3029
vn -0.5642 -0.8254 0.0197
vn -0.7194 -0.6158 0.3213
vn -0.7232 -0.6888 -0.0500
vn -0.5715 -0.7627 0.3029
vn -0.5643 -0.8254 0.0197
vn -0.4544 -0.8511 0.2629
vn -0.5715 -0.7627 0.3028
vn -0.2570 -0.9317 0.2569
vn -0.4544 -0.8511 0.2630
vn -0.2586 -0.9660 0.0001
vn -0.2569 -0.9317 0.2569
vn -0.5555 -0.6983 0.4514
vn -0.6010 -0.5472 0.5826
vn -0.6010 -0.5471 0.5826
vn -0.7344 -0.2977 0.6099
vn -0.8799 -0.2560 0.4002
vn -0.4408 -0.7728 0.4565
vn -0.4409 -0.7728 0.4566
vn -0.5222 -0.4142 0.7455
vn -0.5555 -0.6983 0.4515
vn -0.4960 -0.3844 0.7786
vn -0.7344 -0.2977 0.6100
vn -0.6010 -0.5471 0.5827
vn -0.5222 -0.4141 0.7455
vn -0.4961 -0.3843 0.7786
vn -0.5251 -0.5873 0.6159
vn -0.2458 -0.8379 0.4874
vn -0.4408 -0.7728 0.4566
vn -0.4236 -0.6360 0.6450
vn -0.4789 -0.4300 0.7654
vn -0.5060 -0.3260 0.7985
vn -0.4789 -0.4299 0.7654
vn -0.2569 -0.9317 0.2570
vn -0.0000 -0.9660 0.2586
vn -0.0000 -0.9660 0.2585
vn -0.2361 -0.6858 0.6884
vn -0.2324 -0.4889 0.8408
vn -0.4236 -0.6360 0.6451
vn -0.2324 -0.4888 0.8409
vn -0.4220 -0.2620 0.8679
vn -0.0000 -0.8644 0.5028
vn -0.2361 -0.6859 0.6884
vn -0.5060 -0.3261 0.7985
vn -0.4441 -0.4231 0.7898
vn -0.3831 -0.3970 0.8340
vn -0.4220 -0.2619 0.8679
vn -0.4440 -0.4231 0.7898
vn -0.4440 -0.4232 0.7898
vn -0.5741 -0.3200 0.7536
vn -0.3831 -0.3970 0.8341
vn -0.5742 -0.3199 0.7536
vn -0.2274 -0.2688 0.9360
vn -0.1485 -0.1094 0.9828
vn -0.0000 -0.0975 0.9952
vn -0.0666 0.0171 0.9976
vn -0.0000 0.0211 0.9998
vn 0.0666 0.0171 0.9976
vn -0.0000 -0.0974 0.9952
vn 0.1485 -0.1094 0.9828
vn -0.0001 -0.2947 0.9556
vn -0.2323 -0.4888 0.8409
vn -0.0000 -0.2947 0.9556
vn 0.2274 -0.2688 0.9360
vn 0.0001 -0.2947 0.9556
vn 0.4220 -0.2619 0.8679
vn -0.0000 -0.4959 0.8684
vn -0.0000 -0.2948 0.9556
vn 0.2274 -0.2689 0.9360
vn -0.2323 -0.4889 0.8409
vn 0.2323 -0.4888 0.8409
vn 0.4220 -0.2620 0.8679
vn 0.2324 -0.4888 0.8409
vn -0.0000 -0.7065 0.7077
vn 0.2323 -0.4889 0.8409
vn 0.4789 -0.4299 0.7654
vn 0.2361 -0.6858 0.6884
vn 0.4788 -0.4300 0.7654
vn 0.2458 -0.8379 0.4874
vn 0.5060 -0.3260 0.7985
vn 0.3831 -0.3970 0.8340
vn 0.2569 -0.9317 0.2569
vn 0.0001 -0.8644 0.5027
vn 0.2569 -0.9317 0.2570
vn 0.4961 -0.3843 0.7786
vn 0.5061 -0.3260 0.7985
vn 0.4960 -0.3844 0.7786
vn 0.4441 -0.4231 0.7898
vn 0.5060 -0.3261 0.7985
vn 0.4440 -0.4231 0.7898
vn 0.2585 -0.9660 -0.0000
vn 0.4971 -0.3845 0.7779
vn 0.5741 -0.3200 0.7536
vn 0.4440 -0.4232 0.7898
vn 0.3831 -0.3970 0.8341
vn 0.5742 -0.3199 0.7536
vn 0.7344 -0.2977 0.6099
vn 0.7703 0.1557 0.6183
vn 0.7344 -0.2976 0.6099
vn 0.5222 -0.4141 0.7455
vn 0.4960 -0.3843 0.7786
vn 0.5222 -0.4141 0.7456
vn 0.7344 -0.2976 0.6100
vn 0.6448 -0.1572 0.7480
vn 0.3830 -0.3971 0.8340
vn 0.5742 -0.3200 0.7536
vn 0.6449 -0.1572 0.7480
vn 0.7703 0.1558 0.6183
vn 0.5222 -0.4142 0.7455
vn 0.4789 -0.4300 0.7654
vn 0.4236 -0.6360 0.6450
vn 0.4408 -0.7728 0.4566
vn 0.4409 -0.7728 0.4566
vn 0.4544 -0.8511 0.2630
vn 0.2570 -0.9316 0.2569
vn 0.4544 -0.8511 0.2629
vn 0.4526 -0.8917 0.0040
vn 0.2570 -0.9317 0.2569
vn 0.2586 -0.9660 -0.0000
vn 0.6868 -0.0792 0.7225
vn 0.7206 0.3058 0.6223
vn 0.6449 -0.1571 0.7480
vn 0.7205 0.3058 0.6224
vn 0.6317 -0.0668 0.7723
vn 0.6318 -0.0668 0.7723
vn 0.5872 0.3539 0.7280
vn 0.6317 -0.0669 0.7723
vn 0.5782 -0.4269 0.6953
vn 0.3831 -0.3971 0.8340
vn 0.4367 -0.0823 0.8958
vn 0.5872 0.3538 0.7280
vn 0.4367 -0.0822 0.8958
vn 0.4368 -0.0823 0.8958
vn 0.3148 -0.3634 0.8768
vn -0.1165 -0.5391 0.8342
vn 0.3147 -0.3633 0.8769
vn 0.4367 -0.0823 0.8959
vn 0.2152 -0.0663 0.9743
vn -0.1165 -0.5390 0.8342
vn 0.2151 -0.0663 0.9743
vn 0.5871 0.3538 0.7281
vn -0.1183 -0.3248 0.9383
vn -0.1183 -0.3248 0.9384
vn -0.3179 -0.6846 0.6560
vn -0.1166 -0.5390 0.8342
vn -0.3669 -0.6735 0.6417
vn 0.2250 0.3236 0.9190
vn 0.2251 0.3236 0.9190
vn -0.1933 -0.3333 0.9228
vn -0.1184 -0.3248 0.9384
vn 0.7205 0.3059 0.6223
vn 0.6827 0.4166 0.6003
vn -0.0000 -0.3155 0.9489
vn -0.0000 -0.3156 0.9489
vn -0.0001 -0.6751 0.7378
vn -0.3669 -0.6735 0.6418
vn 0.0001 -0.6751 0.7378
vn 0.3669 -0.6734 0.6418
vn -0.0000 0.3634 0.9316
vn -0.0001 -0.3156 0.9489
vn 0.1933 -0.3333 0.9228
vn 0.3669 -0.6735 0.6417
vn 0.0970 0.3106 0.9456
vn 0.2250 0.3237 0.9190
vn 0.0969 0.3107 0.9456
vn -0.0000 0.3633 0.9317
vn -0.1933 -0.3332 0.9228
vn 0.1183 -0.3248 0.9383
vn 0.3179 -0.6846 0.6560
vn 0.1183 -0.3248 0.9384
vn 0.1166 -0.5390 0.8342
vn 0.4360 0.5538 0.7094
vn 0.2251 0.3237 0.9190
vn 0.5871 0.3539 0.7281
vn 0.6018 0.4883 0.6320
vn 0.5871 0.3539 0.7280
vn 0.4361 0.5538 0.7093
vn 0.6018 0.4884 0.6319
vn 0.2836 0.6707 0.6854
vn 0.6826 0.4167 0.6003
vn 0.6680 0.4743 0.5734
vn 0.6680 0.4744 0.5734
vn 0.5379 0.5562 0.6334
vn 0.6017 0.4884 0.6320
vn 0.5379 0.5562 0.6335
vn 0.2134 0.5407 0.8137
vn 0.0970 0.3107 0.9456
vn 0.2133 0.5407 0.8137
vn 0.2836 0.6706 0.6854
vn 0.1722 0.5597 0.8106
vn 0.0969 0.3107 0.9455
vn 0.2835 0.6706 0.6855
vn -0.0000 0.7101 0.7041
vn 0.2835 0.6707 0.6854
vn 0.0001 0.5714 0.8207
vn -0.0000 0.5714 0.8207
vn 0.0970 0.3107 0.9455
vn 0.4344 0.6735 0.5980
vn 0.4345 0.6735 0.5980
vn -0.0970 0.3107 0.9455
vn -0.0969 0.3107 0.9456
vn 0.1933 -0.3332 0.9228
vn 0.7345 0.3661 0.5714
vn 0.8161 0.3754 0.4395
vn 0.8161 0.3754 0.4394
vn 0.0001 0.7101 0.7041
vn 0.2453 0.7373 0.6295
vn 0.4344 0.6736 0.5980
vn 0.2454 0.7373 0.6295
vn -0.1722 0.5597 0.8106
vn -0.2835 0.6707 0.6854
vn -0.0969 0.3106 0.9456
vn -0.2250 0.3237 0.9190
vn 0.1184 -0.3248 0.9384
vn -0.2250 0.3236 0.9190
vn -0.2133 0.5407 0.8137
vn -0.2835 0.6706 0.6855
vn -0.2251 0.3237 0.9190
vn -0.0970 0.3107 0.9456
vn 0.8726 0.1528 0.4639
vn 0.7704 0.1557 0.6183
vn 0.8726 0.1527 0.4639
vn -0.2151 -0.0663 0.9743
vn -0.2152 -0.0663 0.9743
vn -0.2251 0.3236 0.9190
vn -0.5871 0.3538 0.7281
vn -0.2152 -0.0664 0.9743
vn 0.1165 -0.5390 0.8342
vn -0.2134 0.5407 0.8137
vn -0.4360 0.5538 0.7094
vn -0.2836 0.6706 0.6854
vn -0.5871 0.3539 0.7281
vn -0.4368 -0.0822 0.8958
vn -0.4367 -0.0822 0.8958
vn -0.3148 -0.3633 0.8769
vn -0.4367 -0.0823 0.8959
vn -0.3148 -0.3634 0.8768
vn -0.4367 -0.0823 0.8958
vn -0.5782 -0.4269 0.6953
vn -0.6318 -0.0669 0.7723
vn -0.5872 0.3538 0.7280
vn -0.6318 -0.0668 0.7723
vn -0.6317 -0.0669 0.7723
vn -0.6018 0.4884 0.6319
vn -0.4361 0.5538 0.7093
vn -0.5872 0.3539 0.7280
vn -0.6018 0.4883 0.6320
vn -0.3830 -0.3971 0.8340
vn -0.6317 -0.0668 0.7723
vn -0.6868 -0.0792 0.7225
vn -0.7205 0.3058 0.6224
vn -0.6448 -0.1571 0.7480
vn -0.6448 -0.1572 0.7480
vn -0.6868 -0.0792 0.7226
vn -0.7206 0.3058 0.6223
vn -0.5742 -0.3200 0.7536
vn -0.6449 -0.1572 0.7479
vn -0.7703 0.1558 0.6183
vn -0.7703 0.1557 0.6183
vn -0.7205 0.3058 0.6223
vn -0.7344 -0.2976 0.6099
vn -0.6827 0.4166 0.6003
vn -0.7205 0.3059 0.6223
vn -0.6018 0.4883 0.6319
vn -0.7344 -0.2976 0.6100
vn -0.7704 0.1557 0.6183
vn -0.8726 0.1527 0.4639
vn -0.7345 0.3661 0.5714
vn -0.8726 0.1528 0.4639
vn -0.6680 0.4743 0.5734
vn -0.8727 0.1527 0.4638
vn -0.9196 0.2102 0.3318
vn -0.8800 -0.2559 0.4002
vn -0.8161 0.3754 0.4394
vn -0.8726 0.1528 0.4638
vn -0.9196 0.2103 0.3318
vn -0.7604 0.4854 0.4316
vn -0.8161 0.3754 0.4395
vn -0.6680 0.4743 0.5733
vn -0.7345 0.3662 0.5713
vn -0.5379 0.5562 0.6335
vn -0.6680 0.4744 0.5734
vn -0.6017 0.4884 0.6320
vn -0.2836 0.6707 0.6854
vn -0.5379 0.5562 0.6334
vn -0.4345 0.6735 0.5980
vn -0.4344 0.6735 0.5980
vn -0.8645 0.4058 0.2968
vn -0.7604 0.4854 0.4315
vn -0.8644 0.4058 0.2968
vn -0.5862 0.5888 0.5566
vn -0.5862 0.5888 0.5565
vn -0.6437 0.6436 0.4140
vn -0.7603 0.4854 0.4316
vn -0.6436 0.6436 0.4141
vn -0.2454 0.7373 0.6295
vn -0.4344 0.6736 0.5980
vn -0.0001 0.7101 0.7041
vn -0.2453 0.7373 0.6295
vn -0.8101 0.5294 0.2519
vn -0.9196 0.2102 0.3317
vn -0.8645 0.4057 0.2967
vn -0.8768 0.4808 0.0109
vn -0.8645 0.4058 0.2967
vn -0.9196 0.2103 0.3317
vn -0.8767 0.4809 0.0109
vn -0.9197 0.2102 0.3317
vn -0.6889 0.6863 0.2334
vn -0.8212 0.5706 0.0054
vn -0.4502 0.7715 0.4495
vn -0.6436 0.6437 0.4140
vn -0.4503 0.7715 0.4494
vn -0.6888 0.6863 0.2334
vn -0.4881 0.8375 0.2455
vn -0.7049 0.7093 0.0022
vn -0.4503 0.7715 0.4495
vn -0.5028 0.8644 0.0006
vn -0.8767 0.4751 -0.0752
vn -0.9055 0.4208 -0.0553
vn -0.2458 0.8379 0.4874
vn -0.4502 0.7716 0.4494
vn -0.2459 0.8379 0.4874
vn -0.4881 0.8376 0.2455
vn -0.2570 0.9316 0.2569
vn -0.2570 0.9317 0.2569
vn -0.2586 0.9660 0.0001
vn -0.5027 0.8644 0.0005
vn -0.0000 0.7656 0.6433
vn -0.0000 0.8644 0.5028
vn -0.2569 0.9317 0.2569
vn -0.0000 0.9660 0.2585
vn -0.2585 0.9660 0.0001
vn -0.0000 0.9660 0.2586
vn -0.2569 0.9316 0.2569
vn 0.2458 0.8379 0.4874
vn 0.2569 0.9317 0.2569
vn 0.2570 0.9317 0.2569
vn 0.4502 0.7715 0.4495
vn 0.2459 0.8378 0.4874
vn 0.4502 0.7716 0.4494
vn 0.2570 0.9316 0.2569
vn 0.5862 0.5888 0.5565
vn 0.4503 0.7715 0.4495
vn 0.5862 0.5888 0.5566
vn 0.6436 0.6437 0.4141
vn 0.6437 0.6436 0.4141
vn 0.4502 0.7716 0.4495
vn 0.4881 0.8376 0.2455
vn 0.4503 0.7715 0.4494
vn 0.6436 0.6437 0.4140
vn 0.4881 0.8375 0.2455
vn 0.6680 0.4744 0.5733
vn 0.7604 0.4854 0.4316
vn 0.6437 0.6436 0.4140
vn 0.7604 0.4854 0.4315
vn 0.6889 0.6863 0.2334
vn 0.6437 0.6437 0.4140
vn 0.6888 0.6863 0.2334
vn 0.2586 0.9660 0.0001
vn 0.2585 0.9660 -0.0000
vn 0.8101 0.5294 0.2519
vn 0.5028 0.8644 0.0006
vn 0.5027 0.8644 0.0006
vn 0.8645 0.4058 0.2968
vn 0.8726 0.1528 0.4638
vn 0.8645 0.4057 0.2968
vn 0.8101 0.5295 0.2519
vn 0.7049 0.7093 0.0022
vn 0.7048 0.7094 0.0022
vn 0.8645 0.4058 0.2967
vn 0.8212 0.5706 0.0053
vn 0.9196 0.2102 0.3318
vn 0.8727 0.1527 0.4638
vn 0.9197 0.2102 0.3317
vn 0.8644 0.4058 0.2967
vn 0.8767 0.4808 0.0109
vn 0.8645 0.4057 0.2967
vn 0.9196 0.2102 0.3317
vn 0.8768 0.4808 0.0109
vn 0.2586 0.9660 -0.0000
vn 0.5028 0.8644 0.0005
vn 0.2569 0.9317 -0.2569
vn 0.7049 0.7093 0.0021
vn 0.4867 0.8382 -0.2460
vn 0.5027 0.8644 0.0005
vn 0.4866 0.8382 -0.2460
vn 0.6812 0.6928 -0.2369
vn 0.6811 0.6928 -0.2369
vn 0.2568 0.9317 -0.2569
vn 0.2568 0.9317 -0.2570
vn 0.2569 0.9317 -0.2570
vn 0.2457 0.8379 -0.4874
vn 0.4867 0.8382 -0.2461
vn 0.2458 0.8379 -0.4874
vn 0.4866 0.8382 -0.2461
vn 0.4493 0.7717 -0.4502
vn 0.6811 0.6928 -0.2370
vn 0.7888 0.5516 -0.2711
vn 0.6812 0.6927 -0.2369
vn 0.8767 0.4808 0.0108
vn 0.7889 0.5516 -0.2711
vn 0.2457 0.8378 -0.4875
vn 0.2343 0.6889 -0.6859
vn -0.0000 0.7083 -0.7060
vn 0.2458 0.8378 -0.4874
vn 0.2344 0.6889 -0.6859
vn 0.6367 0.6427 -0.4261
vn 0.4493 0.7717 -0.4501
vn 0.6811 0.6927 -0.2370
vn 0.7888 0.5516 -0.2712
vn 0.2343 0.6889 -0.6860
vn 0.2483 0.4836 -0.8393
vn 0.4492 0.7717 -0.4502
vn 0.4226 0.6410 -0.6407
vn 0.2649 0.2503 -0.9312
vn 0.0001 0.5017 -0.8651
vn 0.2484 0.4837 -0.8393
vn 0.2344 0.6889 -0.6860
vn 0.4640 0.4377 -0.7701
vn 0.4226 0.6410 -0.6408
vn 0.2649 0.2502 -0.9312
vn 0.2692 -0.0000 -0.9631
vn 0.2693 -0.0000 -0.9631
vn 0.2650 0.2503 -0.9312
vn 0.2484 0.4836 -0.8393
vn 0.4999 0.2374 -0.8329
vn 0.4641 0.4377 -0.7701
vn 0.2649 -0.2503 -0.9312
vn 0.2649 -0.2502 -0.9312
vn 0.2650 0.2502 -0.9312
vn 0.5037 0.0094 -0.8638
vn 0.2650 -0.2503 -0.9312
vn 0.2483 -0.4836 -0.8393
vn 0.2650 -0.2502 -0.9312
vn 0.2693 -0.0000 -0.9630
vn 0.4786 -0.2318 -0.8469
vn 0.5037 0.0093 -0.8638
vn 0.2484 -0.4836 -0.8393
vn 0.2343 -0.6889 -0.6860
vn 0.2343 -0.6889 -0.6859
vn 0.4419 -0.4464 -0.7781
vn 0.2458 -0.8379 -0.4874
vn 0.2344 -0.6889 -0.6859
vn 0.4137 -0.6450 -0.6426
vn 0.4137 -0.6450 -0.6425
vn 0.2569 -0.9317 -0.2570
vn 0.2569 -0.9317 -0.2569
vn 0.4270 -0.7772 -0.4622
vn 0.4137 -0.6449 -0.6426
vn 0.4990 -0.6106 -0.6149
vn 0.4271 -0.7771 -0.4622
vn 0.4990 -0.6107 -0.6149
vn 0.5015 -0.4458 -0.7415
vn 0.4989 -0.6107 -0.6149
vn 0.5474 -0.7005 -0.4578
vn 0.5475 -0.7005 -0.4578
vn 0.4424 -0.8590 -0.2577
vn 0.4271 -0.7772 -0.4622
vn 0.4786 -0.2319 -0.8468
vn 0.5490 -0.2045 -0.8104
vn 0.2586 -0.9660 -0.0001
vn 0.2570 -0.9317 -0.2569
vn 0.4424 -0.8590 -0.2576
vn 0.6223 -0.5385 -0.5680
vn 0.5014 -0.4459 -0.7415
vn 0.6224 -0.5385 -0.5681
vn 0.5801 -0.7643 -0.2817
vn 0.5474 -0.7006 -0.4578
vn 0.5801 -0.7643 -0.2816
vn 0.6224 -0.5385 -0.5680
vn 0.6095 0.0628 -0.7903
vn 0.5491 -0.2044 -0.8104
vn 0.5642 -0.8254 0.0196
vn 0.4526 -0.8917 0.0039
vn 0.5642 -0.8254 0.0197
vn 0.6354 -0.2320 -0.7365
vn 0.6223 -0.5385 -0.5681
vn 0.5490 -0.2046 -0.8104
vn 0.6353 -0.2320 -0.7366
vn 0.5490 -0.2044 -0.8104
vn 0.6701 -0.6222 -0.4049
vn 0.5643 -0.8254 0.0196
vn 0.5802 -0.7643 -0.2816
vn 0.6701 -0.6222 -0.4048
vn 0.6701 -0.6221 -0.4049
vn 0.7213 -0.2861 -0.6307
vn 0.6524 0.2599 -0.7119
vn 0.7407 0.1332 -0.6585
vn 0.6354 -0.2319 -0.7365
vn 0.6464 0.3994 -0.6501
vn 0.6464 0.3995 -0.6501
vn 0.8515 0.1986 -0.4853
vn 0.7407 0.1332 -0.6584
vn 0.7213 -0.2860 -0.6308
vn 0.7523 0.3261 -0.5724
vn 0.7407 0.1333 -0.6585
vn 0.7407 0.1333 -0.6584
vn 0.7524 0.3261 -0.5724
vn 0.5831 0.5650 -0.5838
vn 0.7351 0.4640 -0.4944
vn 0.7350 0.4640 -0.4944
vn 0.7351 0.4639 -0.4944
vn 0.8559 0.3812 -0.3493
vn 0.7351 0.4640 -0.4943
vn 0.8560 0.3813 -0.3493
vn 0.7889 0.5515 -0.2711
vn 0.8768 0.4808 0.0108
vn 0.8560 0.3812 -0.3493
vn 0.9054 0.4209 -0.0553
vn 0.7214 -0.2860 -0.6307
vn 0.9196 0.2103 0.3318
vn 0.8800 -0.2559 0.4002
vn 0.8799 -0.2559 0.4003
vn 0.8767 0.4751 -0.0752
vn 0.7213 -0.2861 -0.6308
vn 0.8799 -0.2559 0.4002
vn 0.8906 -0.1781 0.4184
vn 0.8767 0.4751 -0.0753
vn 0.9054 0.4208 -0.0553
vn 0.9328 -0.0094 -0.3602
vn 0.6777 -0.1534 -0.7192
vn 0.6777 -0.1533 -0.7192
vn 0.8907 -0.1781 0.4183
vn 0.7613 -0.6422 -0.0899
vn 0.9328 -0.0094 -0.3603
vn 0.9328 -0.0093 -0.3602
vn 0.8799 -0.2560 0.4002
vn 0.7612 -0.6422 -0.0899
vn 0.7232 -0.6888 -0.0501
vn 0.8800 -0.2560 0.4002
vn 0.7232 -0.6888 -0.0500
vn 0.6701 -0.6221 -0.4048
vn 0.7214 -0.2861 -0.6307
vn 0.7194 -0.6158 0.3213
vn 0.6010 -0.5471 0.5826
vn 0.6010 -0.5471 0.5827
vn 0.7344 -0.2977 0.6100
vn 0.5715 -0.7627 0.3028
vn 0.5714 -0.7627 0.3029
vn 0.5555 -0.6983 0.4514
vn 0.5715 -0.7627 0.3029
vn 0.6010 -0.5472 0.5826
vn 0.5555 -0.6983 0.4515
vn 0.5251 -0.5873 0.6159
vn 0.5251 -0.5874 0.6158
vn -0.8800 -0.2560 0.4002
vn -0.8906 -0.1781 0.4184
vn -0.8907 -0.1781 0.4183
vn -0.7612 -0.6422 -0.0899
vn -0.6777 -0.1533 -0.7192
vn -0.6777 -0.1534 -0.7192
vn -0.7214 -0.2861 -0.6307
vn -0.8767 0.4751 -0.0753
vn -0.9328 -0.0095 -0.3602
vn -0.9329 -0.0094 -0.3601
vn -0.9328 -0.0094 -0.3603
vn -0.7612 -0.6422 -0.0898
vn -0.9328 -0.0094 -0.3602
vt 1.007801 0.507678
vt 1.003403 0.564379
vt 1.010915 0.447496
vt -0.003403 0.564379
vt -0.007801 0.507678
vt -0.010915 0.447496
vt 1.010828 0.395768
vt 1.014500 0.359665
vt 1.008667 0.252458
vt 1.014500 0.420430
vt 1.007405 0.536315
vt 1.000115 0.599281
vt 1.007801 0.462705
vt 1.007751 0.408920
vt 1.003798 0.519794
vt 1.003798 0.471919
vt 1.003798 0.415341
vt 1.000115 0.415341
vt 1.004969 0.252458
vt 1.000236 0.252458
vt 0.995448 0.252458
vt 0.996258 0.415341
vt 0.991558 0.252458
vt 1.000115 0.521407
vt 1.000115 0.564655
vt 0.996258 0.519794
vt 1.000115 0.476210
vt 0.996258 0.471919
vt 0.992642 0.463691
vt 0.992642 0.508437
vt 0.997081 0.564366
vt 0.992642 0.410324
vt 0.989320 0.448366
vt 0.992895 0.536315
vt 0.985520 0.420430
vt 0.985500 0.359665
vt 0.989371 0.396672
vt -0.014500 0.359665
vt -0.010828 0.395768
vt -0.008667 0.252458
vt -0.014500 0.420430
vt -0.007405 0.536315
vt -0.000115 0.599281
vt -0.007801 0.462705
vt -0.007751 0.408920
vt -0.003798 0.519794
vt -0.003798 0.471919
vt -0.003798 0.415341
vt -0.000115 0.415341
vt -0.004969 0.252458
vt -0.000236 0.252458
vt 0.004552 0.252458
vt 0.003742 0.415341
vt 0.008442 0.252458
vt -0.000115 0.521407
vt -0.000115 0.564655
vt 0.003742 0.519794
vt -0.000115 0.476210
vt 0.003742 0.471919
vt 0.007358 0.463691
vt 0.007358 0.508437
vt 0.002919 0.564366
vt 0.007358 0.410324
vt 0.010680 0.448366
vt 0.007105 0.536315
vt 0.014480 0.420430
vt 0.014500 0.359665
vt 0.010629 0.396672
vt 0.500000 0.994397
vt -0.500000 0.882632
vt -0.232923 0.872502
vt -0.360710 0.789777
vt -0.500004 0.811800
vt -0.410961 0.707338
vt -0.500003 0.721187
vt -0.500001 0.615668
vt -0.430950 0.608269
vt -0.500003 0.492267
vt -0.301955 0.676308
vt -0.438878 0.489186
vt -0.500001 0.363628
vt -0.236950 0.738620
vt -0.324931 0.592335
vt -0.441001 0.363841
vt -0.499999 0.253822
vt -0.237896 0.646691
vt -0.333562 0.482955
vt -0.438866 0.255248
vt -0.499998 0.196979
vt -0.238258 0.581393
vt -0.173568 0.675598
vt -0.111852 0.788284
vt -0.335838 0.363475
vt -0.430941 0.199446
vt -0.499998 0.149646
vt -0.238559 0.479303
vt -0.151707 0.591663
vt -0.333556 0.259127
vt -0.238686 0.363347
vt 0.022055 0.881491
vt -0.064738 0.705475
vt -0.143776 0.482687
vt 0.014554 0.808062
vt -0.046318 0.606753
vt 0.012185 0.717848
vt -0.238553 0.261679
vt -0.141766 0.363716
vt -0.039191 0.488603
vt 0.011093 0.613246
vt -0.324920 0.206041
vt -0.410946 0.154680
vt -0.360692 0.115424
vt -0.499997 0.105813
vt -0.232915 0.079012
vt -0.499996 0.059020
vt 0.022053 0.061503
vt 0.500000 0.011010
vt -0.238248 0.210807
vt -0.301941 0.168301
vt -0.236933 0.139445
vt -0.111852 0.116258
vt 0.014544 0.107712
vt -0.143770 0.259703
vt -0.037333 0.364322
vt -0.039191 0.256408
vt 0.010513 0.491367
vt 0.010374 0.364280
vt -0.064739 0.155762
vt 0.012176 0.151289
vt -0.173555 0.168694
vt -0.046319 0.200490
vt -0.237882 0.181195
vt -0.151697 0.206511
vt 0.011087 0.198369
vt 0.086682 0.157887
vt 0.068241 0.202302
vt 0.132163 0.118312
vt 0.223184 0.081864
vt 0.161887 0.171457
vt 0.141224 0.208480
vt 0.133373 0.261649
vt 0.060802 0.257861
vt 0.219777 0.141858
vt 0.218632 0.212779
vt 0.218362 0.263969
vt 0.218952 0.183365
vt 0.330312 0.119399
vt 0.276257 0.171783
vt 0.295941 0.208931
vt 0.303169 0.262201
vt 0.500000 0.064378
vt 0.373079 0.159394
vt 0.390138 0.203259
vt 0.348707 0.260631
vt 0.500000 0.110618
vt 0.254356 0.316170
vt 0.280663 0.340996
vt 0.218278 0.319236
vt 0.396870 0.258971
vt 0.397893 0.417785
vt 0.500000 0.365006
vt 0.443984 0.450881
vt 0.500000 0.490532
vt 0.554437 0.450881
vt 0.600539 0.417785
vt 0.500000 0.257489
vt 0.601561 0.258972
vt 0.649721 0.260635
vt 0.500000 0.200657
vt 0.608293 0.203260
vt 0.500000 0.153969
vt 0.702488 0.208944
vt 0.625353 0.159394
vt 0.668120 0.119399
vt 0.695257 0.262208
vt 0.718144 0.341003
vt 0.775244 0.081917
vt 0.780060 0.263998
vt 0.744046 0.316179
vt 0.981210 0.061740
vt 0.780122 0.319250
vt 0.865049 0.261688
vt 0.796173 0.364382
vt 0.779793 0.212830
vt 0.760136 0.344736
vt 0.722173 0.171803
vt 0.778651 0.141888
vt 0.868672 0.118389
vt 0.988701 0.107912
vt 0.727146 0.368458
vt 0.737686 0.420621
vt 0.704415 0.377056
vt 0.680453 0.438852
vt 0.696334 0.350471
vt 0.672341 0.388416
vt 0.668822 0.349391
vt 0.630886 0.326943
vt 0.635237 0.401590
vt 0.604194 0.408322
vt 0.600539 0.284357
vt 0.554437 0.243821
vt 0.615748 0.458336
vt 0.557100 0.416218
vt 0.760901 0.455703
vt 0.500000 0.424951
vt 0.500000 0.226148
vt 0.445563 0.243821
vt 0.500000 0.514603
vt 0.442899 0.416218
vt 0.559559 0.481054
vt 0.395806 0.408322
vt 0.399461 0.284357
vt 0.369114 0.326943
vt 0.638473 0.519355
vt 0.689737 0.496378
vt 0.610497 0.613237
vt 0.799968 0.581382
vt 0.706365 0.576445
vt 0.607679 0.533158
vt 0.557000 0.557546
vt 0.500000 0.626376
vt 0.500000 0.568842
vt 0.722173 0.671016
vt 0.440441 0.481054
vt 0.798801 0.462446
vt 0.865049 0.481925
vt 0.625353 0.701101
vt 0.443000 0.557546
vt 0.388693 0.613237
vt 0.384252 0.458336
vt 0.392321 0.533158
vt 0.867143 0.364498
vt 0.364763 0.401590
vt 0.318738 0.438852
vt 0.360717 0.519355
vt 0.327659 0.388416
vt 0.331178 0.349391
vt 0.303666 0.350471
vt 0.294775 0.377056
vt 0.308644 0.496378
vt 0.271234 0.368458
vt 0.260694 0.420621
vt 0.238245 0.344736
vt 0.202227 0.364366
vt 0.237479 0.455703
vt 0.131277 0.364456
vt 0.199599 0.462430
vt 0.198431 0.581366
vt 0.058770 0.364795
vt 0.133369 0.481882
vt 0.141218 0.589298
vt 0.292015 0.576445
vt 0.276229 0.671008
vt 0.060801 0.488110
vt 0.218924 0.642739
vt 0.161879 0.671602
vt 0.373052 0.701100
vt 0.068239 0.605331
vt 0.086680 0.702876
vt 0.219772 0.733108
vt 0.132164 0.783849
vt 0.010468 0.288475
vt 0.330312 0.782062
vt 0.223186 0.869820
vt 0.500000 0.714653
vt 0.500000 0.804464
vt 0.500000 0.880493
vt 0.668120 0.782064
vt 0.775245 0.869825
vt 0.778651 0.733130
vt 0.779475 0.642755
vt 0.836536 0.671642
vt 0.868672 0.783867
vt 0.857198 0.589340
vt 0.914151 0.702926
vt 0.981210 0.881501
vt 0.932593 0.605383
vt 0.988701 0.808090
vt 0.940031 0.488164
vt 0.991067 0.717895
vt 0.992157 0.613295
vt 0.942063 0.364847
vt 0.992735 0.491417
vt 1.237630 0.872686
vt 1.117894 0.788197
vt 1.071299 0.705402
vt 1.500002 0.882645
vt 1.500002 0.811859
vt 1.363998 0.790005
vt 1.500002 0.721251
vt 1.241604 0.738859
vt 1.053082 0.606789
vt 1.413698 0.707486
vt 1.178924 0.675726
vt 1.433471 0.608345
vt 1.500002 0.615736
vt 1.305895 0.676441
vt 1.441309 0.489253
vt 1.500002 0.492336
vt 1.328621 0.592429
vt 1.443413 0.363877
vt 1.500002 0.363665
vt 1.337159 0.483021
vt 1.441309 0.255146
vt 1.500002 0.253681
vt 1.339412 0.363514
vt 1.433471 0.199378
vt 1.500002 0.196850
vt 1.337159 0.259150
vt 1.413697 0.154645
vt 1.500002 0.149402
vt 1.500002 0.105563
vt 1.328621 0.206105
vt 1.363998 0.115457
vt 1.499998 0.059057
vt 1.305897 0.168376
vt 1.237630 0.079188
vt 1.241603 0.139534
vt 1.242543 0.181289
vt 1.242903 0.210905
vt 1.178924 0.168766
vt 1.117894 0.116303
vt 1.243203 0.261739
vt 1.157306 0.206572
vt 1.071299 0.155704
vt 1.243332 0.363410
vt 0.991067 0.151514
vt 1.149466 0.259724
vt 1.053082 0.200400
vt 1.046034 0.256326
vt 1.243203 0.479367
vt 1.147482 0.363754
vt 1.242903 0.581476
vt 1.044196 0.364343
vt 1.149467 0.482751
vt 1.242543 0.646887
vt 1.157306 0.591754
vt 1.046034 0.488653
vt 0.992873 0.364362
vt 0.940031 0.257910
vt 0.992777 0.288635
vt 0.976984 0.256271
vt 0.992735 0.255572
vt 1.006833 0.255771
vt 0.992574 0.239718
vt 0.992157 0.198604
vt 0.932593 0.202381
vt 0.857198 0.208544
vt 0.914151 0.158054
vt 0.836536 0.171517
vt 0.779475 0.183417
vt 0.025539 0.256120
vt 0.010670 0.239513
vt -0.002637 0.255650
vt 0.010509 0.255377
s 0
usemtl body
f 3/1/1 2/2/2 1/3/3
f 6/4/4 5/5/5 4/6/6
f 9/7/7 8/8/8 7/9/9
f 10/10/10 8/8/11 9/7/12
f 11/3/3 10/10/10 9/7/13
f 12/11/14 10/10/10 11/3/3
f 13/2/15 12/11/14 11/3/3
f 12/11/16 13/2/17 14/12/18
f 11/3/19 9/7/12 15/13/20
f 11/3/19 15/13/20 16/1/1
f 9/7/12 17/14/21 15/13/20
f 17/14/21 9/7/22 18/9/23
f 16/1/24 15/13/20 19/15/25
f 20/2/17 16/1/24 19/15/26
f 15/13/20 17/14/27 21/16/28
f 15/13/20 21/16/28 19/15/26
f 17/14/21 22/17/29 21/16/30
f 21/16/28 22/17/31 23/18/32
f 22/17/29 17/14/27 24/9/23
f 25/19/33 22/17/34 24/9/9
f 22/17/35 25/19/36 23/18/37
f 25/19/36 26/20/38 23/18/39
f 23/18/39 26/20/38 27/21/40
f 28/22/41 23/18/39 27/21/42
f 27/21/43 29/23/44 28/22/45
f 30/24/46 19/15/47 21/16/28
f 31/25/48 19/15/49 30/24/46
f 30/24/50 32/26/51 31/25/52
f 33/27/53 21/16/28 23/18/32
f 33/27/53 30/24/46 21/16/28
f 33/27/53 23/18/32 34/28/54
f 33/27/53 34/28/55 30/24/50
f 23/18/32 28/22/56 34/28/54
f 34/28/55 32/26/51 30/24/50
f 35/29/57 34/28/55 28/22/56
f 36/30/58 32/26/59 34/28/55
f 35/29/57 36/30/60 34/28/55
f 36/30/58 37/31/61 32/26/51
f 38/32/62 35/29/63 28/22/64
f 39/23/65 38/32/62 28/22/64
f 40/33/66 36/30/58 35/29/57
f 40/33/67 35/29/68 38/32/69
f 40/33/70 41/34/14 36/30/58
f 41/34/14 42/31/61 36/30/71
f 14/12/72 42/31/61 41/34/16
f 41/34/14 40/33/66 43/35/10
f 43/35/10 40/33/66 44/36/11
f 45/37/73 40/33/66 38/32/62
f 40/33/66 45/37/73 44/36/74
f 45/37/75 38/32/62 46/23/76
f 44/36/11 45/37/73 46/23/44
f 48/31/77 47/25/78 32/26/79
f 47/25/78 48/31/80 49/12/81
f 52/12/82 51/2/83 50/25/48
f 50/25/52 51/2/84 19/15/47
f 55/38/85 54/39/86 53/40/87
f 55/38/88 56/41/89 54/39/86
f 56/41/89 57/6/90 54/39/91
f 56/41/89 58/42/92 57/6/6
f 58/42/92 59/4/93 57/6/6
f 59/4/94 58/42/95 60/43/96
f 54/39/97 57/6/98 61/44/99
f 61/44/99 57/6/100 62/5/5
f 63/45/101 54/39/97 61/44/99
f 54/39/97 63/45/102 64/40/87
f 61/44/99 62/5/103 65/46/104
f 62/5/105 66/4/93 65/46/104
f 63/45/106 61/44/99 67/47/107
f 67/47/108 61/44/99 65/46/109
f 68/48/110 63/45/106 67/47/111
f 68/48/112 67/47/107 69/49/113
f 63/45/102 68/48/110 70/40/87
f 68/48/114 71/50/115 70/40/87
f 71/50/116 68/48/112 69/49/117
f 72/51/118 71/50/116 69/49/119
f 72/51/118 69/49/119 73/52/120
f 69/49/119 74/53/121 73/52/122
f 75/54/123 73/52/124 74/53/125
f 65/46/126 76/55/127 67/47/107
f 65/46/126 77/56/128 76/55/127
f 78/57/129 76/55/130 77/56/128
f 67/47/107 79/58/131 69/49/113
f 76/55/127 79/58/132 67/47/107
f 69/49/119 79/58/131 80/59/133
f 80/59/133 79/58/132 76/55/130
f 74/53/134 69/49/113 80/59/133
f 78/57/135 80/59/133 76/55/130
f 80/59/133 81/60/136 74/53/121
f 78/57/137 82/61/138 80/59/133
f 82/61/138 81/60/136 80/59/133
f 83/62/139 82/61/140 78/57/129
f 81/60/136 84/63/141 74/53/142
f 84/63/141 85/54/123 74/53/125
f 82/61/140 86/64/143 81/60/136
f 81/60/144 86/64/145 84/63/146
f 87/65/92 86/64/147 82/61/138
f 88/62/139 87/65/95 82/61/148
f 88/62/149 60/43/150 87/65/95
f 86/64/147 87/65/95 89/66/89
f 86/64/147 89/66/89 90/67/151
f 86/64/147 91/68/152 84/63/141
f 91/68/152 86/64/147 90/67/88
f 84/63/141 91/68/153 92/54/123
f 91/68/152 90/67/151 92/54/123
f 94/56/154 93/62/155 78/57/129
f 93/62/156 94/56/154 95/43/157
f 98/4/93 97/43/157 96/56/158
f 98/4/159 96/56/160 65/46/109
f 101/69/161 100/70/162 99/71/163
f 99/71/164 100/70/165 102/72/166
f 100/70/165 103/73/167 102/72/168
f 102/72/169 103/73/167 104/74/170
f 103/73/167 105/75/171 104/74/170
f 104/74/170 105/75/171 106/76/172
f 107/77/173 104/74/170 106/76/172
f 107/77/174 106/76/175 108/78/176
f 102/72/168 104/74/177 109/79/178
f 109/79/178 104/74/177 107/77/173
f 110/80/179 107/77/174 108/78/176
f 110/80/180 108/78/181 111/81/182
f 99/71/183 102/72/168 112/82/184
f 112/82/185 102/72/168 109/79/178
f 113/83/186 109/79/187 107/77/173
f 113/83/186 107/77/173 110/80/179
f 114/84/188 110/80/189 111/81/182
f 114/84/188 111/81/182 115/85/190
f 112/82/184 109/79/178 116/86/191
f 116/86/191 109/79/178 113/83/186
f 117/87/192 113/83/186 110/80/179
f 117/87/192 110/80/193 114/84/194
f 118/88/195 114/84/196 115/85/190
f 118/88/197 115/85/198 119/89/199
f 120/90/200 116/86/191 113/83/186
f 120/90/201 113/83/202 117/87/192
f 121/91/203 112/82/184 116/86/191
f 121/91/203 116/86/191 120/90/200
f 122/92/204 99/71/205 112/82/206
f 122/92/204 112/82/206 121/91/203
f 123/93/207 117/87/192 114/84/188
f 123/93/208 114/84/188 118/88/209
f 124/94/210 118/88/197 119/89/211
f 124/94/212 119/89/213 125/95/214
f 126/96/215 120/90/201 117/87/192
f 126/96/215 117/87/192 123/93/216
f 127/97/217 121/91/203 120/90/200
f 127/97/218 120/90/201 126/96/215
f 128/98/219 123/93/220 118/88/209
f 128/98/221 118/88/222 124/94/210
f 129/99/223 126/96/215 123/93/216
f 129/99/223 123/93/216 128/98/224
f 130/100/225 99/71/163 122/92/226
f 130/100/227 131/69/161 99/71/228
f 132/101/229 122/92/204 121/91/230
f 132/101/229 121/91/203 127/97/231
f 133/102/232 127/97/233 126/96/215
f 133/102/234 126/96/235 129/99/236
f 134/103/237 130/100/225 122/92/238
f 134/103/237 122/92/238 132/101/239
f 135/104/240 132/101/241 127/97/231
f 135/104/242 127/97/243 133/102/244
f 136/105/245 134/103/237 132/101/239
f 136/105/245 132/101/239 135/104/246
f 137/106/247 129/99/223 128/98/219
f 138/107/248 133/102/249 129/99/223
f 138/107/250 129/99/223 137/106/251
f 139/108/252 135/104/242 133/102/249
f 139/108/253 133/102/234 138/107/248
f 140/109/254 136/105/245 135/104/246
f 140/109/254 135/104/255 139/108/253
f 137/106/247 128/98/256 141/110/257
f 141/110/257 128/98/221 124/94/210
f 141/110/258 124/94/259 142/111/260
f 142/111/261 124/94/212 125/95/214
f 143/112/262 142/111/263 125/95/264
f 144/113/265 143/112/262 125/95/214
f 145/114/266 143/112/262 144/113/265
f 146/115/267 145/114/268 144/113/269
f 147/116/270 145/114/266 146/115/271
f 148/117/272 147/116/270 146/115/271
f 149/118/273 137/106/247 141/110/257
f 150/119/274 141/110/258 142/111/275
f 149/118/276 141/110/257 150/119/274
f 143/112/262 151/120/277 142/111/275
f 151/120/277 150/119/278 142/111/275
f 145/114/279 152/121/280 143/112/262
f 152/121/280 151/120/281 143/112/262
f 147/116/282 153/122/283 145/114/284
f 153/122/283 152/121/285 145/114/266
f 154/123/286 137/106/247 149/118/273
f 154/123/287 138/107/250 137/106/247
f 155/124/288 138/107/289 154/123/286
f 156/125/290 155/124/288 154/123/291
f 155/124/288 139/108/253 138/107/292
f 157/126/293 139/108/294 155/124/288
f 157/126/295 140/109/296 139/108/253
f 158/127/297 155/124/288 156/125/298
f 158/127/297 157/126/293 155/124/288
f 152/121/280 159/128/299 151/120/300
f 153/122/301 160/129/302 152/121/285
f 160/129/302 159/128/299 152/121/303
f 159/128/304 161/130/305 151/120/300
f 151/120/300 161/130/305 150/119/278
f 160/129/306 162/131/307 159/128/308
f 159/128/309 162/131/307 161/130/310
f 162/131/311 156/125/312 154/123/286
f 161/130/310 163/132/313 150/119/278
f 163/132/313 149/118/276 150/119/314
f 164/133/315 154/123/286 149/118/273
f 164/133/316 149/118/317 163/132/318
f 161/130/305 164/133/316 163/132/313
f 162/131/307 164/133/316 161/130/310
f 162/131/319 154/123/286 164/133/316
f 160/129/302 165/134/320 162/131/307
f 165/134/320 156/125/321 162/131/319
f 166/135/322 160/129/323 153/122/283
f 167/136/324 165/134/325 160/129/323
f 166/135/326 167/136/324 160/129/327
f 168/137/328 166/135/329 153/122/283
f 168/137/328 153/122/283 147/116/282
f 169/138/330 168/137/331 147/116/332
f 169/138/333 147/116/270 170/117/272
f 171/139/334 166/135/322 168/137/331
f 172/140/335 167/136/324 166/135/326
f 171/139/334 172/140/335 166/135/326
f 172/140/336 173/141/337 167/136/324
f 167/136/324 174/142/338 165/134/325
f 173/141/337 174/142/338 167/136/324
f 175/143/339 168/137/331 169/138/333
f 175/143/340 171/139/334 168/137/331
f 176/144/341 172/140/335 171/139/342
f 177/145/343 173/141/344 172/140/345
f 176/144/346 177/145/347 172/140/345
f 178/146/348 171/139/334 175/143/340
f 178/146/348 176/144/346 171/139/342
f 179/147/349 175/143/350 169/138/333
f 180/148/351 178/146/348 175/143/340
f 180/148/351 175/143/350 179/147/349
f 181/149/352 176/144/346 178/146/348
f 180/148/351 181/149/352 178/146/348
f 182/150/353 177/145/347 176/144/346
f 181/149/354 182/150/353 176/144/346
f 179/147/349 169/138/355 183/151/356
f 183/151/357 169/138/333 184/117/272
f 185/152/358 180/148/351 179/147/349
f 186/153/359 181/149/352 180/148/360
f 185/152/358 186/153/361 180/148/351
f 187/154/362 182/150/353 181/149/354
f 186/153/361 187/154/362 181/149/354
f 188/155/363 179/147/349 183/151/356
f 185/152/364 179/147/349 188/155/363
f 182/150/365 189/156/366 177/145/343
f 190/157/367 182/150/353 187/154/368
f 190/157/367 189/156/369 182/150/353
f 189/156/370 191/158/371 177/145/343
f 189/156/369 190/157/372 191/158/373
f 173/141/337 177/145/343 191/158/371
f 186/153/361 192/159/374 187/154/362
f 187/154/368 192/159/374 193/160/375
f 194/161/376 193/160/375 192/159/374
f 193/160/375 194/161/376 195/162/377
f 194/161/376 196/163/378 195/162/377
f 197/164/379 196/163/378 194/161/380
f 198/165/381 197/164/379 194/161/376
f 199/166/382 192/159/374 186/153/383
f 199/166/384 194/161/376 192/159/374
f 200/167/385 198/165/381 194/161/376
f 199/166/386 200/167/385 194/161/376
f 201/168/387 198/165/381 200/167/385
f 202/169/388 199/166/389 186/153/383
f 200/167/390 199/166/389 202/169/388
f 202/169/388 186/153/391 185/152/358
f 203/170/392 200/167/385 202/169/388
f 201/168/393 200/167/385 203/170/394
f 204/171/395 202/169/388 185/152/358
f 203/170/396 202/169/388 204/171/395
f 204/171/395 185/152/358 188/155/363
f 205/172/397 201/168/393 203/170/394
f 206/173/398 203/170/396 204/171/395
f 205/172/399 203/170/394 206/173/398
f 204/171/395 188/155/363 207/174/400
f 206/173/398 204/171/395 207/174/400
f 205/172/397 208/175/401 201/168/393
f 201/168/387 208/175/401 209/176/402
f 207/174/400 188/155/363 210/177/403
f 188/155/404 183/151/356 210/177/405
f 211/178/406 208/175/407 205/172/397
f 211/178/408 212/179/409 208/175/410
f 213/175/401 212/179/411 209/176/402
f 210/177/403 183/151/357 214/180/412
f 183/151/357 215/117/272 214/180/412
f 211/178/413 216/181/414 212/179/415
f 209/176/416 212/179/409 216/181/417
f 216/181/414 211/178/408 217/182/418
f 218/183/419 216/181/417 217/182/420
f 219/184/421 211/178/422 205/172/397
f 211/178/422 219/184/423 217/182/424
f 220/185/425 209/176/426 216/181/427
f 220/185/428 216/181/417 218/183/429
f 219/184/430 205/172/431 221/186/432
f 221/186/432 205/172/397 206/173/398
f 221/186/432 206/173/398 222/187/433
f 206/173/398 207/174/400 222/187/434
f 222/187/434 207/174/400 223/188/435
f 207/174/400 210/177/436 223/188/435
f 223/188/437 210/177/403 224/189/438
f 210/177/439 214/180/440 224/189/438
f 209/176/426 220/185/425 225/190/441
f 225/190/441 220/185/425 226/191/442
f 220/185/443 218/183/419 226/191/444
f 227/192/445 209/176/426 225/190/441
f 227/192/445 225/190/441 226/191/444
f 227/192/446 226/191/444 228/193/447
f 227/192/448 229/194/449 209/176/450
f 227/192/448 230/195/451 229/194/449
f 227/192/445 228/193/452 230/195/453
f 230/195/454 231/196/455 229/194/449
f 232/197/456 231/196/457 230/195/458
f 233/198/459 232/197/460 230/195/453
f 233/198/461 230/195/453 228/193/462
f 233/198/461 234/199/463 232/197/460
f 234/199/464 235/200/465 232/197/466
f 236/201/467 235/200/465 234/199/463
f 237/202/468 234/199/464 233/198/461
f 237/202/469 233/198/459 228/193/462
f 238/203/470 236/201/467 234/199/471
f 238/203/470 234/199/464 237/202/468
f 226/191/472 239/204/473 228/193/447
f 239/204/473 226/191/442 218/183/429
f 238/203/470 240/205/474 236/201/467
f 240/205/475 241/206/476 236/201/477
f 241/206/478 240/205/475 242/207/479
f 243/208/480 240/205/475 238/203/470
f 240/205/481 244/209/482 242/207/483
f 240/205/475 243/208/480 244/209/482
f 245/210/484 238/203/470 237/202/485
f 245/210/486 243/208/487 238/203/488
f 242/207/483 244/209/482 246/211/489
f 247/212/490 242/207/483 246/211/491
f 247/212/490 246/211/491 248/213/492
f 249/214/493 237/202/494 228/193/495
f 239/204/473 250/215/496 228/193/447
f 249/214/493 228/193/497 250/215/496
f 249/214/498 250/215/499 251/216/500
f 239/204/501 252/217/502 250/215/496
f 252/217/503 253/218/504 250/215/496
f 250/215/505 253/218/506 251/216/500
f 249/214/493 254/219/507 237/202/494
f 245/210/508 237/202/494 254/219/509
f 254/219/507 249/214/493 251/216/510
f 255/220/511 245/210/512 254/219/509
f 255/220/511 254/219/509 251/216/513
f 256/221/514 255/220/511 251/216/515
f 255/220/511 257/222/516 245/210/508
f 255/220/511 256/221/514 257/222/517
f 257/222/517 243/208/480 245/210/518
f 253/218/506 258/223/519 251/216/510
f 258/223/520 253/218/504 252/217/503
f 243/208/480 257/222/517 259/224/521
f 243/208/487 259/224/522 244/209/523
f 239/204/473 260/225/524 252/217/502
f 239/204/473 218/183/429 260/225/524
f 260/225/524 218/183/429 261/226/525
f 260/225/524 261/226/526 252/217/502
f 256/221/527 251/216/515 262/227/528
f 258/223/529 262/227/530 251/216/500
f 256/221/514 263/228/531 257/222/517
f 257/222/517 263/228/531 259/224/521
f 263/228/531 256/221/514 264/229/532
f 244/209/482 259/224/533 265/230/534
f 246/211/535 244/209/482 265/230/536
f 259/224/521 263/228/531 266/231/537
f 266/231/537 263/228/531 264/229/538
f 265/230/539 259/224/540 266/231/537
f 218/183/429 267/232/541 261/226/526
f 218/183/542 217/182/424 267/232/543
f 246/211/489 265/230/536 268/233/544
f 268/233/545 265/230/546 269/234/547
f 246/211/489 268/233/548 248/213/549
f 266/231/550 270/235/551 265/230/539
f 270/235/551 266/231/550 264/229/552
f 265/230/539 270/235/551 269/234/553
f 248/213/549 268/233/545 271/236/554
f 271/236/555 268/233/545 269/234/547
f 272/237/556 248/213/492 271/236/557
f 272/237/558 271/236/559 273/238/560
f 271/236/559 274/239/561 273/238/560
f 269/234/562 274/239/563 271/236/555
f 273/238/560 274/239/564 190/157/367
f 275/240/565 270/235/566 264/229/552
f 269/234/567 270/235/551 275/240/568
f 190/157/569 274/239/570 276/241/571
f 277/242/572 274/239/563 269/234/567
f 276/241/571 274/239/563 277/242/572
f 278/243/573 190/157/569 276/241/571
f 278/243/574 276/241/575 277/242/576
f 190/157/569 278/243/574 191/158/577
f 191/158/577 278/243/578 279/244/579
f 279/244/580 278/243/573 277/242/581
f 173/141/582 191/158/577 279/244/580
f 280/245/583 277/242/584 269/234/567
f 275/240/585 280/245/583 269/234/567
f 277/242/581 280/245/583 279/244/579
f 173/141/586 279/244/587 281/246/588
f 279/244/579 280/245/583 282/247/589
f 279/244/579 282/247/589 281/246/590
f 283/248/591 280/245/583 275/240/568
f 282/247/589 280/245/583 283/248/591
f 173/141/582 281/246/592 284/249/593
f 173/141/586 284/249/593 174/142/594
f 282/247/589 285/250/595 281/246/590
f 281/246/596 285/250/595 284/249/597
f 286/251/598 285/250/599 282/247/589
f 283/248/600 286/251/598 282/247/601
f 287/252/602 283/248/603 275/240/568
f 287/252/602 275/240/604 264/229/605
f 287/252/606 288/253/607 283/248/603
f 288/253/608 287/252/602 264/229/552
f 285/250/595 289/254/609 284/249/597
f 285/250/595 286/251/610 289/254/611
f 288/253/607 290/255/612 283/248/603
f 283/248/603 290/255/613 286/251/598
f 290/255/613 291/256/614 286/251/615
f 290/255/613 288/253/608 291/256/616
f 292/257/617 288/253/618 264/229/605
f 264/229/605 256/221/619 292/257/620
f 286/251/610 293/258/621 289/254/609
f 286/251/610 291/256/614 293/258/621
f 284/249/622 289/254/623 157/126/624
f 289/254/625 293/258/621 157/126/624
f 284/249/626 157/126/624 158/127/297
f 293/258/621 140/109/254 157/126/627
f 174/142/594 284/249/628 158/127/297
f 293/258/621 294/259/629 140/109/254
f 291/256/614 294/259/629 293/258/621
f 294/259/629 136/105/245 140/109/630
f 288/253/618 295/260/631 291/256/632
f 291/256/632 295/260/633 294/259/634
f 288/253/618 292/257/620 295/260/631
f 294/259/634 296/261/635 136/105/636
f 295/260/637 296/261/635 294/259/634
f 296/261/635 134/103/638 136/105/636
f 174/142/594 158/127/297 297/262/639
f 297/262/639 158/127/640 156/125/312
f 292/257/617 298/263/641 295/260/631
f 295/260/642 298/263/643 296/261/635
f 296/261/644 299/264/645 134/103/638
f 298/263/641 299/264/645 296/261/635
f 299/264/646 130/100/647 134/103/648
f 292/257/620 300/265/649 298/263/641
f 256/221/514 300/265/649 292/257/620
f 300/265/649 256/221/514 262/227/528
f 300/265/649 301/266/650 298/263/641
f 298/263/641 301/266/650 299/264/645
f 300/265/649 262/227/528 301/266/650
f 299/264/651 302/267/652 130/100/653
f 301/266/650 302/267/654 299/264/655
f 302/267/652 303/69/161 130/100/227
f 262/227/528 304/268/656 301/266/650
f 301/266/650 304/268/656 302/267/654
f 262/227/528 258/223/529 304/268/656
f 304/268/656 305/269/657 302/267/654
f 302/267/652 305/269/658 306/69/161
f 258/223/529 307/270/659 304/268/660
f 304/268/656 307/270/661 305/269/662
f 258/223/519 308/271/663 307/270/664
f 308/271/665 258/223/519 252/217/503
f 308/271/663 309/272/666 307/270/659
f 308/271/663 252/217/503 309/272/667
f 307/270/668 310/273/669 305/269/662
f 307/270/670 309/272/671 310/273/672
f 252/217/673 311/274/674 309/272/675
f 261/226/526 311/274/674 252/217/503
f 309/272/675 311/274/676 312/275/677
f 309/272/678 312/275/679 310/273/672
f 305/269/662 310/273/669 313/276/680
f 305/269/657 313/276/681 314/69/161
f 311/274/676 261/226/526 315/277/682
f 311/274/676 315/277/682 312/275/677
f 310/273/672 312/275/679 316/278/683
f 310/273/669 316/278/684 313/276/680
f 261/226/526 317/279/685 315/277/682
f 261/226/526 267/232/686 317/279/687
f 312/275/677 315/277/688 318/280/689
f 312/275/679 318/280/690 316/278/683
f 315/277/682 317/279/691 319/281/692
f 315/277/682 319/281/692 318/280/689
f 267/232/541 320/282/693 317/279/687
f 267/232/694 217/182/420 320/282/695
f 317/279/696 321/283/697 319/281/692
f 317/279/698 320/282/699 321/283/700
f 313/276/701 316/278/702 322/284/703
f 316/278/702 318/280/704 323/285/705
f 316/278/706 323/285/707 322/284/703
f 318/280/704 319/281/692 324/286/708
f 318/280/704 324/286/709 323/285/705
f 313/276/681 322/284/710 325/287/162
f 326/69/161 313/276/681 325/287/162
f 325/287/165 322/284/711 327/288/167
f 322/284/712 328/289/713 327/288/167
f 322/284/703 323/285/714 328/289/715
f 327/288/167 328/289/713 329/290/171
f 323/285/716 330/291/717 328/289/715
f 323/285/714 324/286/718 330/291/717
f 319/281/692 331/292/719 324/286/720
f 319/281/692 321/283/721 331/292/722
f 328/289/723 332/293/724 329/290/725
f 328/289/726 330/291/717 332/293/727
f 324/286/718 333/294/728 330/291/729
f 324/286/730 331/292/731 333/294/728
f 329/290/171 332/293/732 334/295/733
f 335/296/172 329/290/171 334/295/733
f 330/291/734 336/297/735 332/293/727
f 330/291/717 333/294/728 336/297/735
f 335/296/175 334/295/733 337/298/736
f 338/299/176 335/296/737 337/298/736
f 334/295/738 332/293/739 339/300/740
f 332/293/727 336/297/741 339/300/740
f 338/299/181 337/298/742 340/301/743
f 341/302/182 338/299/181 340/301/744
f 337/298/745 334/295/746 342/303/747
f 334/295/746 339/300/748 342/303/747
f 341/302/182 340/301/744 343/304/749
f 344/305/190 341/302/182 343/304/750
f 340/301/744 337/298/751 345/306/752
f 337/298/751 342/303/747 345/306/752
f 344/305/198 343/304/753 346/307/754
f 347/308/211 344/305/198 346/307/754
f 343/304/755 340/301/756 348/309/757
f 340/301/744 345/306/758 348/309/757
f 347/308/213 346/307/759 349/310/760
f 350/311/214 347/308/213 349/310/760
f 351/312/265 350/311/214 349/310/761
f 346/307/759 343/304/753 352/313/762
f 343/304/753 348/309/757 352/313/762
f 353/314/763 351/312/265 349/310/761
f 354/315/267 351/312/265 353/314/763
f 349/310/764 346/307/759 355/316/765
f 346/307/759 352/313/762 355/316/765
f 353/314/763 349/310/764 355/316/766
f 356/317/767 354/315/267 353/314/763
f 357/117/272 354/315/271 356/317/768
f 358/318/769 353/314/763 355/316/766
f 356/317/768 353/314/763 358/318/769
f 355/316/770 352/313/762 359/319/771
f 358/318/772 355/316/766 359/319/773
f 352/313/762 348/309/757 360/320/774
f 352/313/762 360/320/774 359/319/775
f 361/321/776 358/318/772 359/319/775
f 361/321/777 359/319/773 360/320/774
f 362/322/778 356/317/768 358/318/779
f 362/322/778 358/318/779 361/321/777
f 348/309/780 363/323/781 360/320/774
f 348/309/757 345/306/758 363/323/781
f 214/180/782 356/317/783 362/322/784
f 214/180/412 364/117/272 356/317/768
f 224/189/438 214/180/440 362/322/784
f 365/324/785 361/321/776 360/320/786
f 365/324/787 360/320/774 363/323/781
f 366/325/788 362/322/778 361/321/789
f 224/189/438 362/322/784 366/325/790
f 366/325/788 361/321/777 365/324/791
f 345/306/752 367/326/792 363/323/793
f 345/306/752 342/303/747 367/326/792
f 368/327/794 224/189/795 366/325/790
f 223/188/437 224/189/438 368/327/796
f 369/328/797 365/324/798 363/323/799
f 369/328/800 363/323/801 367/326/792
f 370/329/802 366/325/788 365/324/791
f 368/327/803 366/325/804 370/329/805
f 370/329/806 365/324/791 369/328/797
f 371/330/807 370/329/806 369/328/797
f 342/303/747 372/331/808 367/326/792
f 342/303/747 339/300/748 372/331/808
f 373/332/809 369/328/810 367/326/792
f 373/332/809 367/326/792 372/331/808
f 339/300/748 374/333/811 372/331/808
f 339/300/748 336/297/735 374/333/812
f 375/334/813 369/328/797 373/332/814
f 375/334/813 371/330/815 369/328/797
f 376/335/816 373/332/817 372/331/808
f 376/335/816 372/331/808 374/333/811
f 375/334/813 373/332/818 376/335/819
f 336/297/735 377/336/820 374/333/811
f 333/294/728 377/336/820 336/297/735
f 378/337/821 374/333/811 377/336/820
f 333/294/728 378/337/822 377/336/820
f 378/337/823 376/335/816 374/333/811
f 331/292/731 378/337/821 333/294/728
f 379/338/824 376/335/816 378/337/823
f 331/292/731 379/338/824 378/337/825
f 379/338/824 375/334/813 376/335/819
f 321/283/721 379/338/826 331/292/827
f 321/283/828 375/334/813 379/338/829
f 321/283/697 380/339/830 375/334/813
f 380/339/830 371/330/831 375/334/813
f 320/282/832 380/339/830 321/283/700
f 320/282/695 381/340/833 380/339/830
f 217/182/420 381/340/834 320/282/693
f 380/339/830 382/341/835 371/330/836
f 381/340/837 383/342/838 380/339/830
f 383/342/838 382/341/839 380/339/840
f 383/342/838 384/343/841 382/341/839
f 382/341/835 384/343/841 385/344/842
f 382/341/835 385/344/843 371/330/836
f 383/342/844 386/345/845 384/343/846
f 385/344/842 384/343/847 386/345/845
f 385/344/842 386/345/845 371/330/807
f 383/342/838 381/340/848 386/345/845
f 386/345/849 387/346/850 371/330/831
f 381/340/851 387/346/852 386/345/845
f 387/346/850 370/329/853 371/330/854
f 387/346/850 368/327/794 370/329/805
f 381/340/848 388/347/855 387/346/852
f 217/182/418 388/347/855 381/340/851
f 388/347/855 368/327/796 387/346/852
f 217/182/418 389/348/856 388/347/855
f 219/184/421 389/348/857 217/182/858
f 388/347/855 390/349/859 368/327/796
f 390/349/859 223/188/435 368/327/796
f 222/187/434 223/188/435 390/349/860
f 391/350/861 390/349/862 388/347/855
f 391/350/861 222/187/434 390/349/860
f 389/348/863 391/350/861 388/347/855
f 221/186/432 222/187/434 391/350/864
f 219/184/421 392/351/865 389/348/857
f 392/351/866 391/350/864 389/348/856
f 392/351/865 221/186/432 391/350/864
f 392/351/865 219/184/421 221/186/432
f 174/142/867 393/352/868 165/134/325
f 393/352/869 174/142/594 297/262/639
f 393/352/869 394/353/870 165/134/320
f 165/134/320 394/353/870 156/125/298
f 395/354/871 297/262/639 156/125/298
f 394/353/870 395/354/872 156/125/873
f 393/352/868 297/262/874 396/355/875
f 395/354/872 396/355/876 297/262/639
f 393/352/869 396/355/877 394/353/878
f 394/353/870 396/355/879 395/354/872
